/* XPM */
static const char *hero_9[] = {
  /* width height ncolors chars_per_pixel */
  "28 42 12 1 0 0",
  /* colors */
  "! c #000000",
  "# c #996666",
  "$ c #555555",
  "% c #999966",
  "& c #ff9966",
  "' c #666600",
  "( c #669900",
  ") c #999900",
  "* c #cc9900",
  "+ c #808080",
  ", c #ffff00",
  "- c None",
  /* pixels */
  "--------------**,*,,--------",
  "------------*,*,**,---------",
  "-----------*,*,**,**,-------",
  "-----------*,*,*&&*---------",
  "-----------*****&&&#--------",
  "-----------**##&&&&#--------",
  "-----------#*#&&&##---------",
  "-----------#&&#&&&&#--------",
  "----------'#&&&&#&#---------",
  "---------###&&#&&&#---------",
  "--------########&&#---------",
  "-------#&&&&#(####----------",
  "------#&&&&&#)))(('---------",
  "------#&&&&&#))))('-###-----",
  "-----#&#&&&&#)))))'-#&&#----",
  "----##&&&&&#))))))'#&&&#----",
  "----#&&&&&#))'))))#&&&&#----",
  "----#&&&&&#)))')))'&&&##----",
  "---#&&&&##))))))))'####-----",
  "---#&&&&&&#)))))))##--------",
  "---#&&&&&&###)))))'---------",
  "----#&&&&&&###)))'----------",
  "-----##&&&&&&&#))'----------",
  "-------#&&&&&&&#''----------",
  "--------###&&&&#%%'---------",
  "---------'##&&#''''---------",
  "--------'%%%##''+%%'''------",
  "-------'%%(())))'%%%%%'-----",
  "-------')%%(%)))'')))))''---",
  "-------')%)%%))))')))))))'--",
  "-------')))))%%)))''))))('--",
  "-------'))')))))))'')))))'--",
  "--------'''!!!!)))'')))')'--",
  "----------!!!!!!)'')))'))'--",
  "---------!!!+!!'''!''''''---",
  "--------!!++!!''!!!---------",
  "-------!$++!!!!!$!!!!-------",
  "-------!$+!!!!!!$!!!!!------",
  "-------!!!$$$!!!$$$!!!!-----",
  "-------!!!!+++!!!++++!!-----",
  "--------!!!!!!!!!!!!!!!-----",
  "---------!!!!!!!-!!!!!!-----",
};
