/* XPM */
static char *hero_20[] = {
  /* width height ncolors chars_per_pixel */
  "30 66 19 1 0 0",
  /* colors */
  "! c #000000",
  "# c #333366",
  "$ c #666666",
  "% c #996666",
  "& c #999966",
  "' c #555555",
  "( c #4d4d4d",
  ") c #ff9966",
  "* c #ffcc66",
  "+ c #333300",
  ", c #cc3399",
  "- c #666600",
  ". c #669900",
  "/ c #999900",
  "0 c #cc9900",
  "1 c #a0a0a4",
  "2 c #808080",
  "3 c #ffff00",
  "4 c None",
  /* pixels */
  "444444444444444444444444444444",
  "44444444444444444444444444%4%4",
  "444444444444444444444444%%)%)%",
  "444444444444444444444444%)%%)%",
  "444444444444444444444444%)))%%",
  "444444444444444444444444%))%)%",
  "4444444444444444444444444%%))%",
  "444444444444444444444444%))))%",
  "444444444444444444444444')))%%",
  "444444444444330330004444%))))%",
  "444444444444430033304444$%)))%",
  "444444444443003030004444%%)))%",
  "444%444444443030330%4444%*)))%",
  "44%)%%%44444%03003004444%%)))%",
  "44%)))%44444%030330%444%)))0)%",
  "44%)))%444440030030444%))))))%",
  "44%%)%444444%03003004%)))00)%4",
  "44%)))%44444%000003%4%)0))%%44",
  "44%)))%44444%%0300%-2)))0%4444",
  "44%))),444----%/'%1%/))))%4444",
  "44%)))44%-%/////2%////))%44444",
  "44%)))%%%./////%'1////%%444444",
  "44%))%)))/////'2%////-44444444",
  "4%))%))))////%2'/////-44444444",
  "4%)))))).//%%'%%/////-44444444",
  "4%))))))%%(//1'(////-444444444",
  "44%)%%%%44/(2%%///./-444444444",
  "444%4444444''1///../-444444444",
  "44444444444'%///////-444444444",
  "4444444444'----/////-444444444",
  "4444444444'&&&&------444444444",
  "444444444''---&&&&&&-444444444",
  "444444---/////---&&&-444444444",
  "44444-/..////////----444444444",
  "4444-#..////////.//.1444444444",
  "444-//////////.////.-444444444",
  "44-///////////.(/////-44444444",
  "44-./////////.(./////-44444444",
  "44-././.!'-/.#-/./////-4444444",
  "44-!!!!(/!4---4-/////.-4444444",
  "444!!!'!!4444444-/////-4444444",
  "4444!#'##!444444-#///.-4444444",
  "4444!!!'!!4444444-.//./-444444",
  "44444!!!!!!444444-/////-444444",
  "44444!!'#'#444444--/////-44444",
  "444444!!!+(#4444444-.//.-44444",
  "444444!!!!!#4444444#!!!/!44444",
  "444444!!''#!4444444!''#!!44444",
  "4444444!!''#!444444#''#!!44444",
  "4444444!!!!!!444444#''#!!44444",
  "444444!!!'''!444444!#'#!!44444",
  "444444!!'''!!444444#'##!!44444",
  "444444!'''#!444444!#''#!444444",
  "444444!!'!44444444!!#'#!444444",
  "444444444444444444!#'##!444444",
  "444444444444444444!#''#!444444",
  "444444444444444444!#''#4444444",
  "4444444444444444444#'!!4444444",
  "444444444444444444!#!''4444444",
  "444444444444444444#!''''444444",
  "444444444444444444#!####!44444",
  "444444444444444444!!!!!!!44444",
  "444444444444444444444444444444",
  "444444444444444444444444444444",
  "444444444444444444444444444444",
  "444444444444444444444444444444",
};
