/* XPM */
static const char *hero_32[] = {
  /* width height ncolors chars_per_pixel */
  "36 46 13 1 0 0",
  /* colors */
  "! c #000000",
  "# c #333366",
  "$ c #996666",
  "% c #999966",
  "& c #555555",
  "' c #ff9966",
  "( c #666600",
  ") c #669900",
  "* c #999900",
  "+ c #cc9900",
  ", c #a0a0a4",
  "- c #ffff00",
  ". c None",
  /* pixels */
  "..............++-+--................",
  "............+-+-++-.................",
  "...........+-+-++-++-...............",
  "...........+-+-+''+.................",
  "...........+++++'''$................",
  "...........++$$''''$................",
  "...........$+$'''$$.................",
  "...........$''$''''$................",
  "...........$''''$'$.................",
  "..........$$''$'''$.................",
  ".........$('''$$''$.................",
  "........$()((&$$$$$$$$..$$$$$$$$$$..",
  ".......$(***)$'''$''''$$''''''''''$.",
  "......$'(***$'''''''''''''''''''''$.",
  ".....$'(****$''''''''''''''''$''''$.",
  "....$''(****$'''''''''''''$$$$$''$..",
  "....$''(****)$''$''''''$$$$$..$$$...",
  "...$'''(***))$$$$$$$$$$.............",
  "...$'''(**))))***(..................",
  "...$'''(**)******(..................",
  "....$$'()******))(..................",
  "......$((**)***)*(..................",
  ".......((**)****(...................",
  ".......(*****)**(...................",
  ".......(((((((**(...................",
  "......(%%%%%%%((....................",
  "......(%%%%%%%%&....................",
  "......$(((((((%&....................",
  "......(&******(((((((((.............",
  "......()****)(*********(............",
  "......((****************(...........",
  "......(()***************(...........",
  "......((()********))***)(...........",
  ".......(())*************(...........",
  ".......()()))))))(*)!!!!(...........",
  ".......())(((((((!!!&&&!............",
  ".!!!!...())))))(!#&&&,##............",
  "!&&!#!!!.(())))!#&&,&#!.............",
  "!!#&&&&#!!!())!#&&,&#!..............",
  "!&!&&&&&&&#!(!#&&&&#!...............",
  "!&#!#&&&&&&#!#&&,&#!................",
  "!&&!!###&&&&!#&&!#!.................",
  "!&#&!!!!##&&!!#!&&!!................",
  "!#&&&!..!!#&!&!&&,,,!!..............",
  "!!###!....!!!#!#####&!..............",
  ".!!!!!......!!!!!!!!!!..............",
};
