/* XPM */
static const char *hero_18[] = {
  /* width height ncolors chars_per_pixel */
  "30 66 17 1 0 0",
  /* colors */
  "! c #000000",
  "# c #333366",
  "$ c #993366",
  "% c #996666",
  "& c #999966",
  "' c #555555",
  "( c #4d4d4d",
  ") c #ff9966",
  "* c #333300",
  "+ c #666600",
  ", c #669900",
  "- c #999900",
  ". c #cc9900",
  "/ c #a0a0a4",
  "0 c #808080",
  "1 c #ffff00",
  "2 c None",
  /* pixels */
  "22222222222222222222222%2%2%22",
  "22222222222222222222222%%%%)%2",
  "222222222222222222222222%))%%2",
  "22222222222222222222222%))%)%2",
  "222222222222222222222222%%)%%2",
  "222222222222222222222222%)))%2",
  "222222222222222222222222%%)%%2",
  "2222222222222222222222222%)))%",
  "2222222222222222222222222%)))%",
  "22222222222211.11...22222%)))%",
  "22222222222221..111.2222%))))%",
  "222222222221..1.1...2222$))))%",
  "2222222222221.1.11.%2222%%)))%",
  "222222222222%.1..1..2222%%)))%",
  "222222222222%.1.11.%2222%%)))%",
  "222222222222..1..1.22222%)))%2",
  "222222222222%.1..1..222%))))%2",
  "222%22222222%.....1%22%)))))%2",
  "22%)%%%22222%%.1..%+22%)))))%2",
  "22%)))%22+++++%-'%/++%%))))%22",
  "22%)))%22+%---%-0%---)))))%222",
  "22%)))%%%+-----%'/---))))%2222",
  "222%))%)%-----'0%----)))%22222",
  "222%))%))----%0'------)%222222",
  "22%))%)))---%'%%-----+)%222222",
  "22%))%)))%---/'(----+2%2222222",
  "22%)%)))%--(0%%--,--+222222222",
  "22%))))))+-''/---,--+222222222",
  "22%))))%22+'%-------+222222222",
  "22%)))%222'+++++--,+2222222222",
  "22%%%%2222'&&&&+++++2222222222",
  "222%222++''+++&&&&&+2222222222",
  "2222+2+,------+++++++222222222",
  "222+,+,-------------+222222222",
  "22+-------------,--,+222222222",
  "22+-----------------+222222222",
  "22+,,---------,(,----+22222222",
  "22+!!',------,(,-----+22222222",
  "22!!!#!'!+++,#+-------+2222222",
  "22!!!'''2222+(2+------+2222222",
  "222!!#!'!2222222(-----+2222222",
  "222!!#''222222222+-----+222222",
  "222!!'''!22222222+-----+222222",
  "222!!'''!22222222+-----+222222",
  "2222!#''*22222222+------+22222",
  "2222!'''!!2222222+------+22222",
  "2222!'''!!22222222+-----+22222",
  "2222!'''#!22222222+-----+22222",
  "22222''!!!22222222!,,-#!!22222",
  "2222!!'#!!22222222!!!##!!22222",
  "222!##'#!!222222222#'##!!22222",
  "222!!!!!!2222222222!'##!!22222",
  "2222222222222222222!!##!!22222",
  "2222222222222222222!'##!!22222",
  "222222222222222222!!'##!222222",
  "222222222222222222!!!##!222222",
  "222222222222222222!!'##!222222",
  "222222222222222222!#'##!222222",
  "222222222222222222!#'!#!222222",
  "222222222222222222!!!!#!222222",
  "222222222222222222!!''#2222222",
  "2222222222222222222#'!!!222222",
  "222222222222222222!#!'''222222",
  "222222222222222222#!''''222222",
  "222222222222222222#!####!22222",
  "2222222222222222222!!!!!!22222",
};
