/* XPM */
static const char *hero_20e[] = {
  /* width height ncolors chars_per_pixel */
  "30 66 16 1 0 0",
  /* colors */
  "! c #000000",
  "# c #333366",
  "$ c #996666",
  "% c #999966",
  "& c #555555",
  "' c #4d4d4d",
  "( c #ff9966",
  ") c #666600",
  "* c #669900",
  "+ c #999900",
  ", c #cc9900",
  "- c #ff9999",
  ". c #a0a0a4",
  "/ c #808080",
  "0 c #ffff00",
  "1 c None",
  /* pixels */
  "111111111111111111111111111111",
  "111111111111111111111111111111",
  "111111111111111111111111111111",
  "111111111111111111111111111111",
  "111111111111111111111111111111",
  "1$1111111111111111111111111111",
  "$($$$1111111111111111111111111",
  "$($$$1111111111111111111111111",
  "$(($$1111111111111111111111111",
  "$(($11111100,00,,,111111111111",
  "$((($1111110,,000,111111111111",
  "$((($11110,,0,0,,,111111111111",
  "$($($111110,0,00,$111$$$1$1111",
  "$(($111111$,0,,0,,111$($$($111",
  "$(($111111$,0,00,$111$((($$111",
  "$(($111111,,0,,0,1111$(((($111",
  "$-($111111$,0,,0,,1111$(($$111",
  "$((($11111$,,,,,0$1111$((($111",
  "$((($$$$11$$,0,,$)11111$(($$11",
  "$((($(($))))$+&$.)$$$11$((($11",
  "$((((((($*++$+/$++((($$$((($11",
  "$$(((((((++++$&.++$(((($($($11",
  "$$$$(((+++++&/$++++((((($(($11",
  "11$$(($++++$/&++++++(((($(($11",
  "111$$$)++++&$$++++++((((($($11",
  "1111111)+++.&'++++)1$((((($111",
  "11111111)'/$$++**+)11$(((($111",
  "111111111&&.++**++)1)))((($111",
  "111111111&$+++++++))*++))$$111",
  "11111111&$+++++))))&++++)11111",
  "11111111&/)))))%%%%&++*+)11111",
  "11111111&)%%%%%%)))&+++*)11111",
  "11111111)%%%%)))++++++++)11111",
  "111111111))))+++++++++*+)11111",
  "111111111)*+++++++++++&&)11111",
  "111111111)*++++*+++++*&!!11111",
  "11111111)+++++'*++++*&&!!11111",
  "1111111)++++++*'*++++&!!111111",
  "1111111)+++++++)#++&&&!!111111",
  "111111)+++++++)1'))+&&!!111111",
  "111111)++++++)11111&&&!!111111",
  "111111)+++++)11111!&&&!!111111",
  "11111)+++++)1111111#&!!1111111",
  "11111)+++++)1111111&&!!1111111",
  "1111)+++++)1111111!&&&!!111111",
  "1111)*++++)1111111!#&&&!111111",
  "1111!+!!+)111111111!!&!!111111",
  "1111!!#&&)11111111111111111111",
  "1111!!#&#!11111111111111111111",
  "1111!!##&#11111111111111111111",
  "1111!!##&#11111111111111111111",
  "1111!!#&&#11111111111111111111",
  "11111!##&#11111111111111111111",
  "1111!!#&&#11111111111111111111",
  "11111!##&#11111111111111111111",
  "11111!##&#!1111111111111111111",
  "11111!#&&#!1111111111111111111",
  "111111#&&#!1111111111111111111",
  "111111!!&#11111111111111111111",
  "111111&&!#!1111111111111111111",
  "11111&&&&!#1111111111111111111",
  "1111!####!#1111111111111111111",
  "1111!!!!!!!1111111111111111111",
  "111111111111111111111111111111",
  "111111111111111111111111111111",
  "111111111111111111111111111111",
};
