/* XPM */
static char *alien_10c[] = {
  /* width height ncolors chars_per_pixel */
  "62 32 15 1 0 0",
  /* colors */
  "! c #660066",
  "# c #000000",
  "$ c #333366",
  "% c #800080",
  "& c #663366",
  "' c #4d4d4d",
  "( c #330000",
  ") c #660000",
  "* c #cc00ff",
  "+ c #333300",
  ", c #990099",
  "- c #cc0099",
  ". c #808080",
  "/ c None",
  "0 c #330066",
  /* pixels */
  "////////////////////.......///////////////////////////////////",
  "//////////..........##!0!##.......////////////////////////////",
  "/////////.###((0(0(0(0###(0((0(0(#..///.//////////////////////",
  "///////..(0!!0#((#.............##(0#...#./////////////////////",
  "//////.#00(.#.....////////////.....(!##(./////////////////////",
  "/////.(0((././///////////////.(0..#!#!0#./////////////////////",
  "////.#!(..///////////////////.(0..(0#.(0./////////////////////",
  "////.!0(.///////////////////.#!!..(!#.#!#.////////////////////",
  "///.(0#.////////////////////.#!!..00#.#!((.///////////////////",
  "//.(!(./////////////////////.(!(..!!#..!../....///////////////",
  "/.#00(./////////////////////.0!(..(!#..!#..####...////////////",
  ".#0!#.////////////////////..#!!#..0!(..0(#(0!!0(##.///////////",
  ".(!(#.//////////////////..#.#!!0..0!0..(!00)%,,,0(#.//////////",
  ".0!0#./////////////////.#00(#0!!..!!!##(0(0!!!!,,((.//////////",
  ".0)0(....//.//////////..()!(0(!%##(0(#(#+#(0!0!!,!(.//////////",
  ".(!0((###..#./.././...#(00(0!!0!((#(#0+0'$((00(0!!0#./////////",
  "/.(0!0(0(##0#.(#.#.(##!0(00!,,%%%!0$0(00((#!#!#(!!(#./////////",
  "//.(0!0!00!(0(0((0(0!0(0!),-,,,,%0(&(0)!!00!(!..#$&#./////////",
  "///.#((!!(!!!!!0!0!0!0!!%,!%!!0!0!!0!0!,!(0((0#..+$.//////////",
  "////..#(#((0(00(!0!(!(!!%!!0!0!!!!!%!0,%(0(.#!(./..///////////",
  "//////..#0%!(.#(#(#(0!!0!!0)0(-%!0!!(!,!!!(..!0#./////////////",
  "//////.#!!!0#......#0!!!0(00(!,%!((00-!0!%(..#!'./////////////",
  "//////.(00!!00(((#..(0!*!0((0!,!0##(%,(#0%0#..##./////////////",
  "//////.0!!)0!!!0!0(#0!!%!(..(!-!(..0.!#.(!!(./////////////////",
  "//////.#%!!0!!,,%!0!(!0!!(..0%,!(.#0,(..#0!0#.////////////////",
  "///////.!!!((0!!!,%!0!!(0(..(,,0#.#!!#./.#%!(.////////////////",
  "///////.#!!(.#(0!!%!),!0##0(0-0(..(%!..//.(%!#.....////.....//",
  "////////.!!0#...##(!0%(#..0!!%0(..(%(##...#0%!(0(##....((0##./",
  "////////.#%!#.//..#0!#../.0!!!0(#.(!%%!0(###(!!0!!%!((0!!0)0(.",
  "/////////.(%(.////.((.///.#!0!!00(000!%%!!!00(0!!!000((0(0(##.",
  "/////////.#!(./////.0#.///.(!!!!!!!!!0((#(0!0(0(#(((...#..##./",
  "//////////...///////../////.#(!((#0(###.......#(#...///.//..//",
};
