/* XPM */
static const char *alien_20c[] = {
  /* width height ncolors chars_per_pixel */
  "18 58 17 1 0 0",
  /* colors */
  "! c #660066",
  "# c #000000",
  "$ c #333366",
  "% c #800080",
  "& c #663366",
  "' c #666666",
  "( c #555555",
  ") c #4d4d4d",
  "* c #330000",
  "+ c #660000",
  ", c #cc00ff",
  "- c #990099",
  ". c #333300",
  "/ c #cc0099",
  "0 c #808080",
  "1 c None",
  "2 c #330066",
  /* pixels */
  "111111111111111111",
  "111111111100011111",
  "1111111110#!#01111",
  "11111111110!201111",
  "11111111110!!#0111",
  "11111111000#%*0111",
  "11101110##0#!#0111",
  "110#0100#*##!#0111",
  "10#*#0#*2*2*201111",
  "10*2#0#2*222*#0111",
  "102*0#*!2!+2*#0111",
  "10*2#2*2+22!2*0111",
  "10*2*2#2!!*2!*0111",
  "10#2!*#+2!!*!!#011",
  "110*2##2!!!22!*011",
  "110#!#02*%!**!2011",
  "110#2*0*2/%2#!2#01",
  "10#*!#0*2,!*0*2*#0",
  "10#22*#**!!#*22*#0",
  "110*!!.2*2**2!**#0",
  "10#222*#22.22*2*#0",
  "0#!!!*2(&$'2*%%2#0",
  "0*2%%#*&2.$**%%2*0",
  "0#2!2*#.$.$*#2!*#0",
  "10***#$*2..2#**#01",
  "10#2*2#$*2*#2*2#01",
  "10##2****$#*.2##01",
  "10#**2#$2**$*2*##0",
  "110#2*.*$$.#**2#*0",
  "110#*2#.&)$*2#*2*0",
  "1110#*#2*#*#*2*2#0",
  "1110#*$#2&#2#*2*#0",
  "1110##*!2*2*.2*201",
  "11110#2!2*!2*!2*01",
  "1110*2*2!22*22*#01",
  "110#22**!#*2*!2#01",
  "110#*!*22***22+#01",
  "110*22**2#22+22#01",
  "1102!*22*2!*2!*#01",
  "110*!2!!!!!**%2011",
  "110*2!!*2*2##-*011",
  "110#*+2!!!*00##011",
  "110**2!!!2!#000111",
  "100222!*!!20111111",
  "0#0#!*2!2*!#011111",
  "0*#*!2**!2*0111111",
  "0*2#2**2!*20111111",
  "0#2*2*2*!2*0111111",
  "0#**2**2*2*#011111",
  "102*2*22!*2#011111",
  "10#22*2**2*0111111",
  "10#*!2!*22*0111111",
  "10#2**2*!*20111111",
  "110*2*2*22#0111111",
  "111000#*!*#0111111",
  "1111110#2*01111111",
  "1111110#*#01111111",
  "111111100011111111",
};
