/* XPM */
static const char *alien_20b[] = {
  /* width height ncolors chars_per_pixel */
  "18 58 16 1 0 0",
  /* colors */
  "! c #660066",
  "# c #000000",
  "$ c #333366",
  "% c #800080",
  "& c #663366",
  "' c #666666",
  "( c #4d4d4d",
  ") c #330000",
  "* c #660000",
  "+ c #cc00ff",
  ", c #333300",
  "- c #cc0099",
  ". c #660099",
  "/ c #808080",
  "0 c None",
  "1 c #330066",
  /* pixels */
  "000000000000000000",
  "000000000000000000",
  "00000000000/000000",
  "0000000000/#/00000",
  "000//00000/)1/0000",
  "00/##/0000/#!#/000",
  "00/)1/00///#%)/000",
  "0/#1#///###/!!/000",
  "0/)1###)1)1#!)/000",
  "0/#!#!)1)1!1)1/000",
  "0/#!)1)1!!)1)#/000",
  "00/)!))1)!1!))/000",
  "00/#1)#!1!*11#/000",
  "00/#11#)!1!)!1/000",
  "000/1)#!!!!1)1#/00",
  "00/#!)/1)%!)1!)/00",
  "00/#1)/)1-%1)!)/00",
  "0/#)11/)1+!)#11#/0",
  "0/#)!)#1)!!)#!))/0",
  "00/1!!#))1)#!!)1#/",
  "0/#1)!$#11,111))#/",
  "/#1%%)1'&$'1)!!1#/",
  "/#!%%#),1,$)).%!)/",
  "/#1!1)#$&,$)#1!)#/",
  "0/#))#,)1,,#)#)#/0",
  "0/#)11#,1)1#1)1#/0",
  "0/#1)))1)$#),1)#/0",
  "0/##11#,1))$1)##/0",
  "00/)))$)$$,#)1)/00",
  "00/#)1#,&(,1))#/00",
  "000/#)#1)#1#)#/000",
  "000/#)#)1&#)##/000",
  "00/0)1,!1)11,#/000",
  "00/#1#1!1)!1#1/000",
  "00/))1)1!11)1)#/00",
  "00/1!1))!)))1!)/00",
  "0/#))1)11#1)11)#/0",
  "0/#)11))1)))1)1#/0",
  "/#/1!)11)1!1)!1#/0",
  "/)#)11!!!!!11!)/#/",
  "/)1)))!)1)!*1)##1/",
  "/#1#1)11!!11)1)!)/",
  "0/))1)!!!1!))1#1#/",
  "0/11)11*!!!)1))1#/",
  "0/#)1)11!)11)11)/0",
  "0/#)!1!)!1*1)1)#/0",
  "00/11))1!)1)1!1#/0",
  "000///1)!1)1)))#/0",
  "00000/)1)1)111)/00",
  "00000/)1!)1#///000",
  "00000/#1)1)/000000",
  "00000/)1!)1/000000",
  "00000/#)1))/000000",
  "00000/#)11#/000000",
  "00000/#1!)#/000000",
  "000000/#)1/0000000",
  "000000/#)#/0000000",
  "0000000///00000000",
};
