/* XPM */
static const char *alien_2[] = {
  /* width height ncolors chars_per_pixel */
  "52 56 16 1 0 0",
  /* colors */
  "! c #660066",
  "# c #000000",
  "$ c #333366",
  "% c #800080",
  "& c #663366",
  "' c #330000",
  "( c #660000",
  ") c #cc00ff",
  "* c #993399",
  "+ c #333300",
  ", c #990099",
  "- c #cc0099",
  ". c #660099",
  "/ c #808080",
  "0 c None",
  "1 c #330066",
  /* pixels */
  "000000000000000000000////000000000000000000000000000",
  "00000000000000000////#1'#///000000000000000000000000",
  "0000000000000////'1''#!##'#'//0000000000000000000000",
  "00000000000//#!'1#/////////#1'/00000000000000/000000",
  "0000000000/#1'#///000000000///00000000000000/#/00000",
  "000000000/''#//00000000000000000000000000/0/'#/00000",
  "0000000//'1//000000000000000000000000000/#/#1#'/0000",
  "000000/#'1#/0000000000000000000000000000/#/%#1#//000",
  "00000/'1#//00000000000000000000000000000/''1!'###/00",
  "000//#1'/0000000000000000000000000000000/11'1'1'#/00",
  "00/#'1//00000000000000000000000000000000/'!'1''1/#/0",
  "00/'1'/0000000000000000000000////000000/#!1#1#!#''/0",
  "0/#!#/0000000000000000000000/#'##//000/#!!/#'1!!1//0",
  "0/1'/0000000000000000000000/#!!11'#/0/#!!#/#!'1'#'#/",
  "/#1#/000000000000000000000/#!%%%%!1#/#1!#/#!!1'1'#/0",
  "/'1/0000000000000000000000/#%!!!%,!'#1!1/#!1'/////00",
  "/'1'/000000000000000000000/!1'1!!%,1!!'#'.!#/0000000",
  "/''/00000000000//000000000/1%'#'11!!!1'1%!#/00000000",
  "/#!#/000000000/##/////////'#'!##'%!%'$!-!#/000000000",
  "/#!1/0000000000/#'''''!'1'$11!%-,%!1&*!1#/0000000000",
  "0/1'//0000000000///#1##''''!--,!1!%!%1#//00000000000",
  "0/'!'#/000000000////////##1!%!11'!!#///0000000000000",
  "0/'11//00000000/'1''######+'1'#'#'1&+/00000000000000",
  "00/1''#/0000000/#'1!1!1!1'11!''1//#'/000000000000000",
  "00/'!1#/00000000///#''1!!#'&'!1'#///0000000000000000",
  "00/#1!#/0000000/#//////#'#'11'1'/0000000000000000000",
  "000/'!1'//0000/#1!!##///##1!'11#/0000000000000000000",
  "000/#1(1'#//000/#'1!!!!'!1+'1!''/0000000000000000000",
  "0000/'111'##//00//#'1!!!!'$1'!1#/0000000000000000000",
  "00000/'!!11!##//////#''11'$'1!'#/0000000000000000000",
  "000000/#'(!1'1#####/#/#'!'+1''1#/0000000000000000000",
  "0000000//#1(!1'1''1#1'1111#'#$##/0000000000000000000",
  "000000000/##!!!1!1!'!1(!(%11'+'##/000000000000000000",
  "0000000000//##'!'!1!1!111'!!1111'#/00000000000000000",
  "000000000000///##'#####''1!!''%!11#/0000000000000000",
  "000000000000000////////1!!,!1!!!!(1#//00000000000000",
  "000000000000000000000/#'1!,1'!!!!%!'##/0000000000000",
  "0000000000000000000000/'!!-!111'11!!1'/0000000000000",
  "0000000000000000000000/'1!)%''#'!%!1#/00000000000000",
  "0000000000000000000000/'!!)!1/#1!%'#/000000000000000",
  "000000000000000000000//#!%%!'/'!,%1/0000000000000000",
  "00000000000000//000//#'11-!'//#!-!'/0000000000000000",
  "0000000000000/##///''11!!,'/0/1!,!'/0000000000000000",
  "0000000000000/''/#'!!%%!1!#///',%1#/0000000000000000",
  "000000000000/#!1'1%,%-!'1!##'#1%!'/00000000000000000",
  "000000000000/1!!%%,%!!#/##'#!1!%1/000000000000000000",
  "00000000000/#'!%%!!1'#/0////1'!!!#/00000000000000000",
  "00000000000/#!!1!'#///00000/#!!1!'/00000000000000000",
  "000000000000/1!!'#/000000000/1!!1#/00000000000000000",
  "000000000000/#1!1#/000000000/!!!!#/00000000000000000",
  "0000000000000/#!!'#/000000000/1!!'/00000000000000000",
  "00000000000000/#!!1/0000000000/'!1'/0000000000000000",
  "000000000000000/#!!#/0000000000/'!%'/000000000000000",
  "0000000000000000/#1#/00000000000/#!1/000000000000000",
  "00000000000000000/#/0000000000000/##/000000000000000",
  "000000000000000000/000000000000000//0000000000000000",
};
