/* XPM */
static char *alien_25[] = {
  /* width height ncolors chars_per_pixel */
  "60 22 17 1 0 0",
  /* colors */
  "! c #660066",
  "# c #000000",
  "$ c #008000",
  "% c #333366",
  "& c #800080",
  "' c #663366",
  "( c #330000",
  ") c #660000",
  "* c #cc00ff",
  "+ c #333300",
  ", c #990099",
  "- c #cc0099",
  ". c #660099",
  "/ c #808080",
  "0 c #00ff00",
  "1 c None",
  "2 c #330066",
  /* pixels */
  "111111111111111111111111111111111111111111111111111111111111",
  "11111111111111111111///////111111111111111111111111111111111",
  "1111111111//////////##!2!##///////1111111111/////////11//111",
  "111111111/###((2(2(2(2###(2((2(2(#/11111////###(((#(#//##//1",
  "1111111//(2!!2#((#(/2(///(#////##(2/111/#00!!!!22(!2!2!!###/",
  "111111/#22(/#////2!#!2//#!#/1/#////111/(!0,!2!!&!2(!!2$(2((/",
  "11111/(2((/1/11/!!!!&(//(!2(/(#/11111/#002!2(2(##//##(0$(#/1",
  "1111/#!(//1111/(!!!!(##(22&&(!#/11111/#0!!!#/////11///000/11",
  "1111/!2(/1111/#2!(!!2!!&!!,&(!2(/1111/002&(/1111111111111111",
  "111/(2#/11111/2!202!!/&,00,&!!&!/1111/(&2!2/1111111111111111",
  "11/(!(/11111/(!!0!/,,,!!2!,,2!&(/1101/(,!!#/1111111111111111",
  "1/#22(/11111/(!0!&,&!!(!!!-,!(22///0//2,&!(/111//11111111111",
  "/#2!#/111111/2!0!!)2(!/2!!*!(2(#(##0##(.!(#/11/+%/1111111111",
  "/(!(#/111111/(202(!2///)!.,!2#2(2(202(2!,!#///#%'#/111111111",
  "/2!2#/111111/#(0!!!!/1/!!-!(0000!!(!02(!,!!/((!!(#/111111111",
  "/2)2(/111111/(20$22!/1/2&,220+2!2!!!0!(2-(2002!!2#/111111111",
  "/(!2(/111111/!!0$!(2/1/!!&2(2#('(%)2!2(2/2!0!!,!(/1111111111",
  "1/(2!////////2(20(/////(!!(&#((%'22('(2)/!!0!,,((/1111111111",
  "1/#(2#(#(2((22)22!(!(2&2!0!!!2#(#2(2%2(22)&0&,!0#/1111111111",
  "11/##(!!(!!00!2!(2!2!!!&2(02(!2(&(#0(#2(%2!0,!200/1111111111",
  "11/2!2!22!(20$$(2(2!2(!!(&0$$(!!&##02(#(###&!2(#011111111111",
  "111///00##2#/0$000(##2!2!!!00000!//!00000002(##00000$$$00001",
};
