/* XPM */
static const char *alien_0c[] = {
  /* width height ncolors chars_per_pixel */
  "48 58 16 1 0 0",
  /* colors */
  "! c #660066",
  "# c #000000",
  "$ c #333366",
  "% c #800080",
  "& c #663366",
  "' c #555555",
  "( c #4d4d4d",
  ") c #330000",
  "* c #660000",
  "+ c #cc00ff",
  ", c #333300",
  "- c #990099",
  ". c #cc0099",
  "/ c #808080",
  "0 c None",
  "1 c #330066",
  /* pixels */
  "0000000000000000000000///00000000000000000000000",
  "000000000000000000/////#////00000000000000000000",
  "00000000000000////11)))#)!##///00000000000000000",
  "000000000000//#)1)#////////)#)#/0000000000000000",
  "0000000000//)1)#///00000000////00000000000000000",
  "000000000/##)#//00000000000000000000000000000000",
  "00000000/#1)//0000000000000000000000000000000000",
  "000000//#1)/000000000000000000000000000000000000",
  "00000/#1)//0000000000000000000000000000000000000",
  "0000/#)1)/00000000000000000000000000000000000000",
  "000/#!#//000000000000000000000000000000000000000",
  "00/#1)/0000000000000000000000////000000000000000",
  "00/!#/0000000000000000000000/#)##//0000000000000",
  "0/)!#/000000000000000000000/#!!11)#/000000000000",
  "0/1#/000000000000000000000/#!%%%%11#/00000000000",
  "/#!#/000000000000000000000/#%!!!%-!)#/0000000000",
  "/)1)/000000000000000000000/!1)1!!.-!)/0000000000",
  "/#!#/000000000000000000000/1%)#)1!!%1#/000000000",
  "/#1#/00000000000///////////))!)!1)1!!)/000000000",
  "0/!!#/000000000/#)####)1)1,$)11#)1##,'/000000000",
  "0/)1#/0000000000//))1)1)1)(11*1)#!#///0000000000",
  "0/)1)#/000000000////////##)!-!)1#)!1,/0000000000",
  "0/#!1#/00000000/#1)##///##1)-%#1)/1)&#/000000000",
  "00/)1)/00000000/#)1!!!!!!))1%%#)#///#/0000000000",
  "00/#!!)/00000000//##11!!!#)1%%11#/00/00000000000",
  "000/!1#//0000000///////#1#1)!%))#/00000000000000",
  "000/#1!)#/00000/)1)#///#1)))!-11/000000000000000",
  "0000/!11#)//000/#)!1!)))1)1$1!))/000000///000000",
  "0000/#*11)/#/000//#)!!!!!)#$*%1)/00000/#)#///000",
  "00000/#!!1)1#//0/0//#)11!1,&1%%#//////#1#)1)#/00",
  "000000/#)1!*1)#/#///#/#)1#,))1!11))1))1)1!##//00",
  "0000000//)!1!11))#)#)))1!!#1#)!!!1!1)1!!)11)##/0",
  "000000000/#)1!!1!1!1111!)%1)$#)#)#/////#1)#///00",
  "0000000000//#))!)!1!!!!1!1!!1,$)#/00000/#))#/000",
  "000000000000//##)#)#)##)1)!!))111#/00000///#/000",
  "00000000000000//////////)!!%1!-!*1#/0000000/0000",
  "0000000000000000000000/#11!-!1!!!!)#/00000000000",
  "0000000000000000000000/#)!!.%)!1!%%)//0000000000",
  "00000000000000000000000/)!1--1)!)111##/000000000",
  "000000000000000000000000/)!!.!1)!%!))#/000000000",
  "000000000000000000000000/#!!+!1!%!)#//0000000000",
  "000000000000000000000000/#1!-)!%-!#/000000000000",
  "00000000000000000/0000//#)!!-1!+-)/0000000000000",
  "0000000000000000/#/00/#1!!!!!)%%!)/0000000000000",
  "0000000000000000/#)//#!!%!%1!1-!1/00000000000000",
  "0000000000000000/#1##!!%.1)!)!!!#/00000000000000",
  "0000000000000000/!!!!--!!)1!!!1)/000000000000000",
  "000000000000000/#!!!-%!!#/#1!!!1/000000000000000",
  "000000000000000/#1!!!1#//0/)!1!)//00000000000000",
  "000000000000000/#!!)1#/000/#!!!1)#/0000000000000",
  "000000000000000/#!!!)/00000/)!!!11)/000000000000",
  "0000000000000000/#!11#/00000///)!!%)/00000000000",
  "00000000000000000/#!!)/00000000//#)1/00000000000",
  "000000000000000000/)!!#/000000000//#/00000000000",
  "0000000000000000000/1!1/00000000000/000000000000",
  "00000000000000000000/))/000000000000000000000000",
  "00000000000000000000/##/000000000000000000000000",
  "000000000000000000000//0000000000000000000000000",
};
