/* XPM */
static char *alien_0b[] = {
  /* width height ncolors chars_per_pixel */
  "48 58 16 1 0 0",
  /* colors */
  "! c #660066",
  "# c #000000",
  "$ c #333366",
  "% c #800080",
  "& c #663366",
  "' c #4d4d4d",
  "( c #330000",
  ") c #660000",
  "* c #cc00ff",
  "+ c #333300",
  ", c #990099",
  "- c #cc0099",
  ". c #660099",
  "/ c #808080",
  "0 c None",
  "1 c #330066",
  /* pixels */
  "000000000000000000000000000000000000000000000000",
  "000000000000000000000000000000000000000000000000",
  "0000000000000000000///////0000000000000000000000",
  "000000000000000////#(#(((1////000000000000000000",
  "0000000000000//#1!(##////(1(##/00000000000000000",
  "00000000000//(!(#////0000////#/00000000000000000",
  "000000000//1(#///000000000000/000000000000000000",
  "00000000/#((//0000000000000000000000000000000000",
  "0000000/#1(/000000000000000000000000000000000000",
  "000000/((#/0000000000000000000000000000000000000",
  "0000//11#/00000000000000000000000000000000000000",
  "000/#((#/000000000000000000000000000000000000000",
  "00/#!1//0000000000000000000000000000000000000000",
  "00/1(#/0000000000000000000000/////00000000000000",
  "0/((//0000000000000000000000/#(###/0000000000000",
  "/#11/0000000000000000000000/#!!11((/000000000000",
  "/((/0000000000000000000000/#!%%%%%1#/00000000000",
  "/(1#/000000000000000000000/#%!!!%*!1#/0000000000",
  "/1!#/000000000000000000000/!1(1!!!,!(#/000000000",
  "/#(#/0000000000///0000000//1%(##1(!!1(/000000000",
  "/(!(#/00000000/###////////#((!(!!((1&'/000000000",
  "/#11/0000000000//((1!!1!1+$(1(1##!#0+/0000000000",
  "0/1(#/0000000000////////#(1!-!1(/1!($+/000000000",
  "0/(!1#/00000000/##//////##1!%(#1#/(11#/000000000",
  "0/#!(#/00000000/(!1!((#((#1%!1((/0//#/0000000000",
  "00/(!1#/00000000/#(11!!!!(!.(!1(#/00/00000000000",
  "00/#!(#/0000000/////(#(11#%!1!(1#/00000000000000",
  "000/11(#//0000/#(##/////#(,1!11(/000000000000000",
  "000/#!!(##/0000/1!!1(###(1-1)!(#/000000000000000",
  "0000/(111#//0000/#(!!!1!1!%1!!1#/000000000000000",
  "0000/#(!)1((///00//#(1!!!!%(!1(#/000000000000000",
  "00000/#1!111#(#//////##(1(!11(1#/000000000000000",
  "000000//#)!!1!#(###/(#(1(!!((((#/000////00000000",
  "00000000/#((!!111!1(11!11!1!11#(#///#((#/0000000",
  "000000000//#(1)!!(!1!!1(!!1(1!1%!!(#(1###//00000",
  "00000000000//#(1(1((((1!1!!!(!(!1!1!!1(11(#/0000",
  "0000000000000//////////#(1%%1(1(!!(1(1!!(//00000",
  "00000000000000000000000/#(!-!!1!(11(11##((/00000",
  "0000000000000000000000//#1!!-%!(1((!((1#//000000",
  "000000000000000000000/#/#!1!!-,!1(1#(1#(#/000000",
  "000000000000000000000/(#/#(!!!*!!!#(//#//0000000",
  "00000000000000000000/#!#/(11!!,%!%###//000000000",
  "0000000000000000000/#!11(1!,%1!-1(#//00000000000",
  "0000000000000000000/(!%!%%,%!(!!!!1/000000000000",
  "0000000000000000000/1!!!!!1((1!!1(#/000000000000",
  "000000000000000000/#!!!!1#//#!%!(//0000000000000",
  "0000000000000000000/!!1(#/0/(!%!#/00000000000000",
  "0000000000000000000/(%!#/00/1!,!#/00000000000000",
  "00000000000000000000/!!(/00/(,,1#/00000000000000",
  "00000000000000000000/(%(////1,!(/000000000000000",
  "00000000000000000000/#!!###/!-!(/000000000000000",
  "000000000000000000000/1!##1(!,1#/000000000000000",
  "000000000000000000000/#(//!%!%!#/000000000000000",
  "0000000000000000000000//0/(!!!1(#////00000000000",
  "00000000000000000000000000/(1!!!1(1(#/0000000000",
  "00000000000000000000000000/#1!!1!%!!(/0000000000",
  "000000000000000000000000000//####(###/0000000000",
  "00000000000000000000000000000////////00000000000",
};
