/* XPM */
static char *altar_of_sin_4c[] = {
  /* width height ncolors chars_per_pixel */
  "48 64 67 1 0 0",
  /* colors */
  "! c #660066",
  "# c #000000",
  "$ c #990066",
  "% c #cc0066",
  "& c #ff0066",
  "' c #333366",
  "( c #993366",
  ") c #cc3366",
  "* c #a6caf0",
  "+ c #336666",
  ", c #996666",
  "- c #cc6666",
  ". c #669966",
  "/ c #999966",
  "0 c #555555",
  "1 c #cc9966",
  "2 c #4d4d4d",
  "3 c #ff9966",
  "4 c #cc99ff",
  "5 c #ff99ff",
  "6 c #ff5050",
  "7 c #cccc66",
  "8 c #ffcc66",
  "9 c #ccccff",
  ": c #ffccff",
  "; c #330000",
  "< c #660000",
  "= c #990000",
  "> c #ccffff",
  "? c #cc0000",
  "@ c #333300",
  "A c #990099",
  "B c #663300",
  "C c #ffff66",
  "D c #993300",
  "E c #ff66ff",
  "F c #ff3300",
  "G c #666600",
  "H c #996600",
  "I c #cc6600",
  "J c #996699",
  "K c #cbcbcb",
  "L c #ff6600",
  "M c #b2b2b2",
  "N c #cc6699",
  "O c #ff3399",
  "P c #669900",
  "Q c #999900",
  "R c #669999",
  "S c #cc9900",
  "T c #ff9900",
  "U c #cc9999",
  "V c #ff9999",
  "W c #a0a0a4",
  "X c #ff0000",
  "Y c #cccc00",
  "Z c #cccc99",
  "[ c #ffcc00",
  "] c #ffff00",
  "^ c #ffcc99",
  "_ c None",
  "` c #ffffff",
  "a c #ccff99",
  "b c #ffff99",
  "c c #666699",
  "d c #ff6699",
  "e c #330066",
  /* pixels */
  "___________________bC_[L_bC_____________________",
  "___________________CC_LH_CC_____________________",
  "___________[L_bC____5::::5___[L_bC_[L___________",
  "________bC_LH_CC_[L`U???(5[L_LH_CC_LH___________",
  "_____[L_CCE555:__LH`????(:LH__:bUUUK`bC_________",
  "_____LH:`K-,(),:___`??=??`__bC:?????`CC___bC____",
  "__bC_:`-???????`bC_:(====`bCCC`?????`__[L_CC____",
  "__CC`U????????=bCC_V,===(`CC_5-=??=?b__LH`U`_[L_",
  "__5`-??????====U___4U===(5___:,====?9bC_5U?-`LH_",
  "[L`(?????====,,[L_bCU<=<D9[L_`======ZCC_`???U:__",
  "LHU???=?==-`bC_LH_CCK=<<(:LH_K<=====U__5^????`bC",
  "__K??=?=U[L_CC::K5__`2<<2^__:,=<(,==U[L:,?=?(:CC",
  "bC`-=?(^`LHW`b,<,^[LK2<<2KbC`2<<WU==,LH`==?=`5__",
  "CC_`===>#K`K(<<<<`LHK2;;,KCC9<<<^`<<W,KU===(`[L_",
  "___`U==,`W(<<<<;;K0#WW;;2W'WZ;;,``<<,W`(===`5LH_",
  "__[L`(<==<<<2W`;;WKbCK;#2[L`0;;KW`2<,WK<<=W:____",
  "__LH:^<<<<,K`K`0#'`CC`##/LH`e#2`[L,<(`(<=(`bC___",
  "_____`(BJb9W'[LK##`W#`##cUWK##KWLHW;2`<<<U4CC___",
  "____bCK`KcbC'LH`0#W[L`'#0bCW#'`0#0K#2W;;,`O_____",
  "____CC_[L'CCW`KW##0LHK0#WCC0#W^#bC`#';;<K[L_____",
  "_______LH0K`K0###'KW'W`KKWW`K`0#CC`;###W`LH_____",
  "_______#K`W'###0K`K'bC'[L'bC'bC#''K0##'`________",
  "______bCK'###W``WbC'C7#IB#77#CC'[L*0##KbC_______",
  "______CCW`'W``[L#CC'#!!!!!!2##''LHWK00`CC_______",
  "_______2'KKK0_LH####2KKbKWKW!!!##_bCWWWe________",
  "_____C_2[L'bC_#####2U`U<;;(WW<0!!ACC'[L;_[______",
  "____C[N0LH!CC_'##$!=``<;000=KWB0W2''2LH;7[[_____",
  "____C[,(((D$<_'#(`W=*,;;;;;0<KW0WW!2(D$<1Y3_____",
  "____CSI)666$<A(!`KR=Z;<=?[?=<WKW0WR!)6%=/[3_____",
  "__C_C[,&66)$2$KKKK=WW;QYF?<Y;<WWWW0!()%JQ[3_C___",
  "_C[8C[H6dVJ$K`K`=,<U/<=YHDYG;<W<0/0+!JUU7S3C[8__",
  "_C[3CT,6^`K!==;W*==*,?=PYYH<;0W<002<eKKU/[3C[3__",
  "_C[3CY-^```,2==;=M=W;=?=YP<?;<W<<0<<!KUJQ[3C[3__",
  "_C[3C[H```U(<!R];<$Z;<=YQY<<;<W<<<;<e,)=/[3C[3__",
  "_C[3C[,^^d6?<!;H;;K<;<YH<GH<;<W<<<;<e)?=7S3C[3__",
  "_C[3C,,6666%<!;X<<@=;;G??GY<;0<W<;#<!(%=Q,3C[3__",
  "_C[3,;2666)=2W=;;Kc;;;;<?;0;<<0<W<;;e$%=2;,C[3__",
  "_C[3,<2&66(2U=0=<BKW0<<;;;<<0;<0WMWW02$J2<,C[3__",
  "_C,3,326dN!J`.$aJ;eKWUKKKKW0<<00WWKWW0eW21,C,3__",
  "_,;,3[,6^K2<,0=W.;02KR=00WKWWWKWUWWW00e,,[3,;,__",
  "_,<,CS,^``W2<<;eWW0WWW0<;;;;<<U*00;20;!01Y3,<,__",
  "_,3,C[H```U(!;;<B;;;;;;<;<<<;<<00;;;;!(=/[3,3,__",
  "_3[3C[,^^d6=<!;,YW(WWB0W<KW0<;<0;;;e2(==7S33[3__",
  "_C[3CT,6666%<!;WWKWKYWKYWYW<#;#,;;e()6%=Q[3C[3__",
  "_C[3CYI6666%<!;@W7WKYWKYW0;0;;;WW<!(-6%=/[3C[3__",
  "_C[3C[,&66)$2;<0<,0YWW0<;0<;#0;RW0<e(6%J/[3C[3__",
  "_C[3C[,6dVJ2W;<KW0<B0;00W;;<0<<WW.0;!JUUYS3C[3__",
  "_C[3CTH6^W!K;<0YWKWKY0W<;;<0<<RWWJ+2eKKU/[3C[3__",
  "_C[3CY,^W2<W0;<W0YWSW<;;<R/!.c,W.00<eKUJ/[3C[3__",
  "_C[3C[HK!0W<W0;<<W<W<;<R0,00000002;eWU)=Q[3C[3__",
  "_C[3CT,U!W0W0K00;;;;0R0WJ+002;'<;<'Wd6?=7S3C[3__",
  "_C[3C[H-!<0WW0WWWR/RW0,00<;<e!ee!e(666%=/[3C[3__",
  "_C[3CS-6(!<0WW0J0<<0,00;<e!e'0###_6666%=Q[3C[3__",
  "_C[3C[,&6('!<0W.WWW00;e!e##000###_&666%J/[3C[3__",
  "_C[3C[H6dVJ,e!e!!!e!e!''###000###_6dVUUU7S3C[3__",
  "_C[3CT,6^``K,_'###'0'###000###000_6^``KUQ[3C[3__",
  "_C[3CY-^```UJ_0###000###000###000_^```UJ/[3C[3__",
  "_C[3C[H```U)=_0###000###000###000_```U)=7Y3C[3__",
  "_C[SSSSSSSSSSSSSSISIHIHHHHHHHHHHHHHHHHHHHHHH[3__",
  "_C[HDBDBDBBDBDBBBBBBDBDBDBDHHDBDBDBDBDHDBDHH[3__",
  "_C[3S;;S;;;;S;;;;H;;;;H;;;;H;;;;H;;;;H;;;HHC[3__",
  "_C[3S;BS;;B;S;;@<H;;@<H;@<@H;@;BH;@;BH;;BHHC[3__",
  "_C[3SBBS;BBBI@B<BHBBBBH;<BBH;BBBH;BBBH;BBHHC[3__",
  "_C[3SBBS<BBBHBBBBH@BBBH@BBBH@BBBHBBBBH;BBHHC[3__",
};
