/* XPM */
static char *altar_of_sin_4b[] = {
  /* width height ncolors chars_per_pixel */
  "48 64 68 1 0 0",
  /* colors */
  "! c #660066",
  "# c #000000",
  "$ c #990066",
  "% c #cc0066",
  "& c #ff0066",
  "' c #333366",
  "( c #993366",
  ") c #cc3366",
  "* c #a6caf0",
  "+ c #336666",
  ", c #996666",
  "- c #cc6666",
  ". c #669966",
  "/ c #999966",
  "0 c #555555",
  "1 c #cc9966",
  "2 c #4d4d4d",
  "3 c #ff9966",
  "4 c #cc99ff",
  "5 c #ff99ff",
  "6 c #99cc66",
  "7 c #ff5050",
  "8 c #cccc66",
  "9 c #ffcc66",
  ": c #ccccff",
  "; c #ffccff",
  "< c #330000",
  "= c #660000",
  "> c #990000",
  "? c #ccffff",
  "@ c #cc0000",
  "A c #993399",
  "B c #333300",
  "C c #990099",
  "D c #663300",
  "E c #ffff66",
  "F c #993300",
  "G c #ff66ff",
  "H c #ff3300",
  "I c #666600",
  "J c #996600",
  "K c #cc6600",
  "L c #996699",
  "M c #cbcbcb",
  "N c #b2b2b2",
  "O c #cc6699",
  "P c #ff3399",
  "Q c #669900",
  "R c #999900",
  "S c #669999",
  "T c #cc9900",
  "U c #ff9900",
  "V c #cc9999",
  "W c #ff9999",
  "X c #a0a0a4",
  "Y c #ff0000",
  "Z c #cccc00",
  "[ c #ffcc00",
  "] c #cccc99",
  "^ c #ffff00",
  "_ c #ffcc99",
  "` c None",
  "a c #ffffff",
  "b c #ccff99",
  "c c #ffff99",
  "d c #666699",
  "e c #ff6699",
  "f c #330066",
  /* pixels */
  "```````````````````cE`cE`cE`````````````````````",
  "```````````````````EE`EE`EE`````````````````````",
  "```````````cE`cE````5;;;;5```cE`cE`cE```````````",
  "````````cE`EE`EE`cEaV@@@(5cE`EE`EE`EE```````````",
  "`````cE`EEG555;``EEa@@@@(;EE``;cVVVMacE`````````",
  "`````EE;aM-,(),;```a@@>@@a``cE;@@@@@aEE```cE````",
  "``cE`;a-@@@@@@@acE`;(>>>>acEEEa@@@@@a``cE`EE````",
  "``EEaV@@@@@@@@>cEE`W,>>>(aEE`5->@@>@c``EEaVa`cE`",
  "``5a-@@@@@@>>>>V```4V>>>(5```;,>>>>@:cE`5V@-aEE`",
  "cEa(@@@@@>>>>,,cE`cEV=>=F:cE`a>>>>>>]EE`a@@@V;``",
  "EEV@@@>@>>-acE`EE`EEM>==(;EE`M=>>>>>V``5_@@@@acE",
  "``M@@>@>VcE`EE;;M5``a2==2_``;,>=(,>>VcE;,@>@(;EE",
  "cEa->@(_aEEXac,=,_cEM2==2McEa2==XV>>,EEa>>@>a5``",
  "EE`a>>>?#MaM(====aEEM2<<,MEE:===_a==X,MV>>>(acE`",
  "```aV>>,aX(====<<M0#XX<<2X'X]<<,aa==,Xa(>>>a5EE`",
  "``cEa(=>>===2Xa<<XMcEM<#2cEa0<<MXa2=,XM==>X;````",
  "``EE;_====,MaMa0#'aEEa##/EEaf#2acE,=(a(=>(acE```",
  "`````a(DLc:X'cEM##aX#a##dVXM##MXEEX<2a===V4EE```",
  "````cEMaMdcE'EEa0#XcEa'#0cEX#'a0#0M#2X<<,aP`````",
  "````EE`cE'EEXaMX##0EEM0#XEE0#X_#cEa#'<<=McE`````",
  "```````EE0MaM0###'MX'XaMMXXaMa0#EEa<###XaEE`````",
  "```````#MaX'###0MaM'cE'cE'cE'cE#''M0##'a````````",
  "``````cEM'###XaaXcE'E8#88#88#EE'cE*0##McE```````",
  "``````EEXa'XaacE#EE'#!!!!!!2##''EEXM00aEE```````",
  "```````2'MMM0`EE####2MMcMXMX!!!##`cEXXXf````````",
  "`````E`!cE'cE`#####2VaV=<<(XX=0!!CEE'cE'`[``````",
  "````E[-0EE0EE`'##$!>aa=<000>MXD0X2''0EE'8[[`````",
  "````E[,XXX,(=`'#(aX>*,<<<<<0=MX0XX!0X,(>/[3`````",
  "````ET-V_e)>=C(!aMS>]<=>@[@>=XMX0XS!O)@>/[3`````",
  "``E`E[,7777$2$MMMM>XX<RZH@=Z<=XXXX0!(7%>R[3`E```",
  "`E[9E[J777)$MaMa>,=V/=>ZJFZI<=X=0/0+!)%>6T3E[9``",
  "`E[3E[,&77)!>><X*>>*,@>QZZJ=<0X=002=f)%L/[3E[3``",
  "`E[3ET-7eWV,2>><>N>X<>@>ZQ=@<=X==0==!LVVT[3E[3``",
  "`E[3E[J7_aaX,!S^<=$]<=>ZRZ==<=X===<=fMMV/Z3E[3``",
  "`E[3E[,_aaaV2!<J<<M=<=ZJ=IJ=<=X===<=f*VL6U3E[3``",
  "`E[3E,,aaaV(=!<Y==B><<I@@IZ=<0=X=<#=!,)>R,3E[3``",
  "`E[3,<2__e7>2X><<Md<<<<=@<0<==0=X=<<f(@>2<,E[3``",
  "`E[3,=2777F2V>0>=DMX0==<<<==0<=0XNXX02$>0=,E[3``",
  "`E,3,3277)!La.$bL<fMXVMMMMX0==00XXMXX0f=21,E,3``",
  "`,<,3[,&7-2=,0>X.<02MS>00XMXXXMXVXXX00f(,[3,<,``",
  "`,=,ET,7eWL2==<fXX0XXX0=<<<<==V*00<20<!X/[3,=,``",
  "`,3,E[J7_abX!<<=D<<<<<<=<===<==00<<<<!X1/[3,3,``",
  "`3[3E[,_aaaX2!<,ZX(XXD0X=MX0=<=0<<<f2XXL8T33[3``",
  "`E[3EU,aaaV)=!<XXMXMZXMZXZX=#<#,<<fXMV)>R[3E[3``",
  "`E[3EZK__e7@=!<BX8XMZXMZX0<0<<<XX=!,O7@>/[3E[3``",
  "`E[3E[,777)$2<=0=,0ZXX0=<0=<#0<SX0=f(7%>/[3E[3``",
  "`E[3E[,777(2X<=MX0=D0<00X<<=0==XX.0<!)%>ZT3E[3``",
  "`E[3EUJ&7(!M<=0ZXMXMZ0X=<<=0==SXXL+2f)%L/[3E[3``",
  "`E[3EZ-7A2=X0<=X0ZXTX=<<=S/!.d,X.00=fLVV/[3E[3``",
  "`E[3E[,-!0X=X0<==X=X=<=S0,00000002<fXaMVR[3E[3``",
  "`E[3EU,V!X0X0M00<<<<0S0XL+002<'=<='XaaVL8T3E[3``",
  "`E[3E[JM!=0XX0XXXS/SX0,00=<=f!ff!fXaaV)>/[3E[3``",
  "`E[3ET,_X!=0XX0L0==0,00<=f!f'0###`__e7@>R[3E[3``",
  "`E[3E[,77('!=0X.XXX00<f!f##000###`7777%>/[3E[3``",
  "`E[3E[J777)$f!f!!!f!f!''###000###`7777%>8T3E[3``",
  "`E[3EU,&777%0`'###'0'###000###000`&777%LR[3E[3``",
  "`E[3EZ-7eWVVV`0###000###000###000`7eWVVV/[3E[3``",
  "`E[3E[J7_aaMV`0###000###000###000`7_aaMV8Z3E[3``",
  "`E[TTTTTTTTTTTTTTKTKJKJJJJJJJJJJJJJJJJJJJJJJ[3``",
  "`E[JFDFDFDDFDFDDDDDDFDFDFDFJJFDFDFDFDFJFDFJJ[3``",
  "`E[3T<<T<<<<T<<<<J<<<<J<<<<J<<<<J<<<<J<<<JJE[3``",
  "`E[3T<DT<<D<T<<B=J<<B=J<B=BJ<B<DJ<B<DJ<<DJJE[3``",
  "`E[3TDDT<DDDKBD=DJDDDDJ<=DDJ<DDDJ<DDDJ<DDJJE[3``",
  "`E[3TDDT=DDDJDDDDJBDDDJBDDDJBDDDJDDDDJ<DDJJE[3``",
};
