/* XPM */
static const char *altar_of_sin_4[] = {
  /* width height ncolors chars_per_pixel */
  "48 64 69 1 0 0",
  /* colors */
  "! c #660066",
  "# c #000000",
  "$ c #990066",
  "% c #cc0066",
  "& c #ff0066",
  "' c #333366",
  "( c #993366",
  ") c #cc3366",
  "* c #a6caf0",
  "+ c #336666",
  ", c #996666",
  "- c #cc6666",
  ". c #669966",
  "/ c #999966",
  "0 c #555555",
  "1 c #cc9966",
  "2 c #4d4d4d",
  "3 c #ff9966",
  "4 c #cc99ff",
  "5 c #ff99ff",
  "6 c #ff5050",
  "7 c #cccc66",
  "8 c #ffcc66",
  "9 c #ccccff",
  ": c #ffccff",
  "; c #330000",
  "< c #660000",
  "= c #990000",
  "> c #ccffff",
  "h c #cc0000",
  "@ c #993399",
  "A c #333300",
  "B c #990099",
  "C c #663300",
  "D c #ffff66",
  "E c #993300",
  "F c #cc3300",
  "G c #ff66ff",
  "H c #ff3300",
  "I c #666600",
  "J c #996600",
  "K c #cc6600",
  "L c #996699",
  "M c #cbcbcb",
  "N c #ff6600",
  "O c #b2b2b2",
  "P c #cc6699",
  "Q c #ff3399",
  "R c #669900",
  "S c #999900",
  "T c #669999",
  "U c #cc9900",
  "V c #ff9900",
  "W c #cc9999",
  "X c #ff9999",
  "Y c #a0a0a4",
  "Z c #ff0000",
  "[ c #cccc00",
  "] c #cccc99",
  "^ c #ffcc00",
  "_ c #ffff00",
  "` c #ffcc99",
  "a c None",
  "b c #ffffff",
  "c c #ccff99",
  "d c #ffff99",
  "e c #666699",
  "f c #ff6699",
  "g c #330066",
  /* pixels */
  "aaaaaaaaaaaaaaaaaaa^NadDa^Naaaaaaaaaaaaaaaaaaaaa",
  "aaaaaaaaaaaaaaaaaaaNJaDDaNJaaaaaaaaaaaaaaaaaaaaa",
  "aaaaaaaaaaadDa^Naaaa5::::5aaadDa^NadDaaaaaaaaaaa",
  "aaaaaaaa^NaDDaNJadDbWhhh(5dDaDDaNJaDDaaaaaaaaaaa",
  "aaaaadDaNJG555:aaDDbhhhh(:DDaa:dWWWMb^Naaaaaaaaa",
  "aaaaaDD:bM-,(),:aaabhh=hhbaa^N:hhhhhbNJaaa^Naaaa",
  "aa^Na:b-hhhhhhhb^Na:(====b^NNJbhhhhhbaadDaNJaaaa",
  "aaNJbWhhhhhhhh=dNJaX,===(bNJa5-=hh=hdaaDDbWbadDa",
  "aa5b-hhhhhh====Waaa4W===(5aaa:,====h9^Na5Wh-bDDa",
  "dDb(hhhhh====,,dDa^NW<=<E9dDab======]NJabhhhW:aa",
  "DDWhhh=h==-b^NaDDaNJM=<<(:DDaM<=====Waa5`hhhhb^N",
  "aaMhh=h=WdDaNJ::M5aab2<<2`aa:,=<(,==WdD:,h=h(:NJ",
  "^Nb-=h(`bDDYbd,<,`dDM2<<2M^Nb2<<YW==,DDb==h=b5aa",
  "NJab===>#MbM(<<<<bDDM2;;,MNJ9<<<`b<<Y,MW===(bdDa",
  "aaabW==,bY(<<<<;;M0#YY;;2Y'Y];;,bb<<,Yb(===b5DDa",
  "aadDb(<==<<<2Yb;;YM^NM;#2dDb0;;MYb2<,YM<<=Y:aaaa",
  "aaDD:`<<<<,MbMb0#'bNJb##/DDbg#2bdD,<(b(<=(b^Naaa",
  "aaaaab(CLd9Y'dDM##bY#b##eWYM##MYDDY;2b<<<W4NJaaa",
  "aaaa^NMbMe^N'DDb0#YdDb'#0^NY#'b0#0M#2Y;;,bQaaaaa",
  "aaaaNJadD'NJYbMY##0DDM0#YNJ0#Y`#^Nb#';;<MdDaaaaa",
  "aaaaaaaDD0MbM0###'MY'YbMMYYbMb0#NJb;###YbDDaaaaa",
  "aaaaaaa#MbY'###0MbM'^N'dD'^N'^N#''M0##'baaaaaaaa",
  "aaaaaa^NM'###YbbY^N'NI#77#FI#NJ'dD*0##M^Naaaaaaa",
  "aaaaaaNJYb'YbbdD#NJ'#!!!!!!2##''DDYM00bNJaaaaaaa",
  "aaaaaaa2'MMM0aDD####2MMdMYMY!!!##a^NYYYgaaaaaaaa",
  "aaaaaDa!dD;^Na#####2WbW<;;(YY<0!!BNJ;dD;a^aaaaaa",
  "aaaaD^P<DD!NJa'##$!=bb<;000=MYC0Y2;'2DD'7^^aaaaa",
  "aaaaD^,E@LL0,a'#(bY=*,;;;;;0<MY0YY!2,L,,1[3aaaaa",
  "aaaaDU--XbcW,B(!bMT=];<=h^h=<YMY0YT!WcMW/^3aaaaa",
  "aaDaD^J`bb:02$MMMM=YY;S[Hh<[;<YYYY0!Y:WLS^3aDaaa",
  "aD^8D^,bbb/$MbMb=,<W/<=[JE[I;<Y<0/0+!/)=7U3D^8aa",
  "aD^3DV,``f)!==;Y*==*,h=R[[J<;0Y<002<g)h=/^3D^3aa",
  "aD^3D[K6666=2==;=O=Y;=h=[R<h;<Y<<0<<!)%=S^3D^3aa",
  "aD^3D^,6666$<!T_;<$];<=[S[<<;<Y<<<;<g)%=/^3D^3aa",
  "aD^3D^,&666%2!;J;;M<;<[J<IJ<;<Y<<<;<g(%L7U3D^3aa",
  "aD^3D,J6fXWY,!;Z<<A=;;IhhI[<;0<Y<;#<!LWWS,3D^3aa",
  "aD^3,;26`bb/2Y=;;Me;;;;<h;0;<<0<Y<;;gY]W2;,D^3aa",
  "aD^3,<2`bbY2W=0=<CMY0<<;;;<<0;<0YOYY02,L2<,D^3aa",
  "aD,3,32bbM!Lb.$cL;gMYWMMMMY0<<00YYMYY0g<21,D,3aa",
  "a,;,3^,``P2<,0=Y.;02MT=00YMYYYMYWYYY00g<,^3,;,aa",
  "a,<,DU,666$2<<;gYY0YYY0<;;;;<<W*00;20;!=/^3,<,aa",
  "a,3,D^J6666=!;;<C;;;;;;<;<<<;<<00;;;;!$=/^3,3,aa",
  "a3^3D^,&666$2!;,[Y(YYC0Y<MY0<;<0;;;g2($L[U33^3aa",
  "aD^3DV,6fXWW,!;YYMYM[YM[Y[Y<#;#,;;g(PWWW/^3D^3aa",
  "aD^3D[K6`bbM0!;AY7YM[YM[Y0;0;;;YY<!LcbMW/^3D^3aa",
  "aD^3D^,`bbM,2;<0<,0[YY0<;0<;#0;TY0<gYbWLS^3D^3aa",
  "aD^3D^,bbb,2Y;<MY0<C0;00Y;;<0<<YY.0;!,)=7U3D^3aa",
  "aD^3DVJ``@!M;<0[YMYM[0Y<;;<0<<TYYL+2g)h=/^3D^3aa",
  "aD^3D[,6(2<Y0;<Y0[YUY<;;<T/!.e,Y.00<g)%=S^3D^3aa",
  "aD^3D^,)!0Y<Y0;<<Y<Y<;<T0,00000002;g(6%=/^3D^3aa",
  "aD^3DVJ%!Y0Y0M00;;;;0T0YL+002;'<;<'(66%L7U3D^3aa",
  "aD^3D^,)!<0YY0YYYT/TY0,00<;<g!gg!g(fXWWWS^3D^3aa",
  "aD^3DUK6Y!<0YY0L0<<0,00;<g!g'0###a6`bbMW/^3D^3aa",
  "aD^3D^,``Y'!<0Y.YYY00;g!g##000###a`bbbWL/^3D^3aa",
  "aD^3D^,bbbL(g!g!!!g!g!''###000###abbbW)=[U3D^3aa",
  "aD^3DVJ``f6h<a'###'0'###000###000a``f6h=/^3D^3aa",
  "aD^3D[-6666%=a0###000###000###000a6666%=/^3D^3aa",
  "aD^3D^,6666%=a0###000###000###000a6666%=7[3D^3aa",
  "aD^UUUUUUUUUUUUUUKUKJKJJJJJJJJJJJJJJJJJJJJJJ^3aa",
  "aD^JECECECCECECCCCCCECECECEJJECECECECEJECEJJ^3aa",
  "aD^3U;;U;;;;U;;;;J;;;;J;;;;J;;;;J;;;;J;;;JJD^3aa",
  "aD^3U;CU;;C;U;;A<J;;A<J;A<AJ;A;CJ;A;CJ;;CJJD^3aa",
  "aD^3UCCU;CCCKAC<CJCCCCJ;<CCJ;CCCJ;CCCJ;CCJJD^3aa",
  "aD^3UCCU<CCCJCCCCJACCCJACCCJACCCJCCCCJ;CCJJD^3aa",
};
