/* XPM */
static char *dog_25[] = {
  /* width height ncolors chars_per_pixel */
  "24 14 11 1 0 0",
  /* colors */
  "! c #000000",
  "# c #993366",
  "$ c #555555",
  "% c #660000",
  "& c #cbcbcb",
  "' c #ff9999",
  "( c #a0a0a4",
  ") c #ff0000",
  "* c None",
  "+ c #ffffff",
  ", c #ff6699",
  /* pixels */
  "************************",
  "(**$***********(**$*****",
  "&(*($*********(&*$(*****",
  "*&($$*********&&$$******",
  "*&&($$*******(&(**(&****",
  "*+&&($******(&)(&(******",
  "**+)&((***((&&&&(*******",
  "**+)&&&&&&&&&+&(*,,'****",
  "***+++&)&&)+&+))%%&,'*&*",
  "***&++)++)++&+)(##&,'&&*",
  "***&++)+++++&+)&&&&))+&$",
  "**++&&+++)+++()+!(&&**$(",
  "*&+&&*&&))&&+&(+(*!*****",
  "++&**))))))&+&$(&(******",
};
