/* XPM */
static char *dog_5[] = {
  /* width height ncolors chars_per_pixel */
  "10 20 11 1 0 0",
  /* colors */
  "! c #000000",
  "# c #993366",
  "$ c #555555",
  "% c #660000",
  "& c #cbcbcb",
  "' c #ff9999",
  "( c #a0a0a4",
  ") c #808080",
  "* c None",
  "+ c #ffffff",
  ", c #ff6699",
  /* pixels */
  "***+**+***",
  "**+(**(+**",
  "**&&((&&**",
  "**++&&++**",
  "*(+!($!+(*",
  "*(&+$$+&(*",
  "*&%&&&&%&*",
  "*+&&#+%++*",
  "*(+#,,#&(*",
  "*&(&',+(&*",
  "&&(+',&(&&",
  "&+&(',(&+&",
  "+++&))&+++",
  "+++&&&&+++",
  "++&((((+++",
  "+&($$$$(&+",
  "&($$**$$(&",
  "&($$**$$(&",
  "(*$****$*(",
  "(*$****$*(",
};
