/* XPM */
static const char *n_shield_4[] = {
  /* width height ncolors chars_per_pixel */
  "14 18 13 1 0 0",
  /* colors */
  "! c #990066",
  "# c #ff0066",
  "$ c #a6caf0",
  "% c #3399ff",
  "& c #6699ff",
  "' c #660000",
  "( c #6666ff",
  ") c #333399",
  "* c #ff3300",
  "+ c #336699",
  ", c #ff6600",
  "- c None",
  ". c #666699",
  /* pixels */
  "--------------",
  "$%(+++++++(%&-",
  "$&&$&&%%((%(&-",
  "&$.++++)(+((&-",
  "&.+)$))$)+(%&-",
  "$+)$!+$!&)+%&-",
  "$+$!,!!,'&)(&-",
  "$+)$!#*!+)+(&-",
  "&+)$!*#!$(+(&-",
  "&($!,!!,!$)(&-",
  "&+(&'+&'&)+(%-",
  "&++(&))&)++(%-",
  "-$++)++)++(%--",
  "--&++(+++(%---",
  "--&&(&(+((%---",
  "---$$$((+%----",
  "----$$(+%-----",
  "-----$(%------",
};
