/* XPM */
static char *dragon_25[] = {
  /* width height ncolors chars_per_pixel */
  "56 28 7 1 0 0",
  /* colors */
  "! c #000000",
  "# c #800000",
  "$ c #808000",
  "% c #ff6666",
  "& c #ff0000",
  "' c #ffff00",
  "( c None",
  /* pixels */
  "((((((((((((((((((((((((((((((((((((((((((((((((((((((((",
  "((((((((((((((((((((((((((((((((((((((((((((((((((((((((",
  "(((((((((($(((((((((((((((((((((((((((!!!!((($((((((((((",
  "((($$(((($(((((((((((!(((((((((!(((((!!%%!((($((((((($((",
  "(($$((((($(((((((((((!!((((((((!((((!%%%%!((($$(((((($((",
  "(($$((((($$(!!((((((!!!!(((((((!!((!!%%%%!(($$(((!((($((",
  "(($$$(((((!!%!(((((!!%%!((((((!!!!(!%%%%%!!($$(((!!!$$((",
  "(!!!$(((!!%%%!((((!!%%%!!((((!!%%!!%%%%%%%!!!((((!&&!(((",
  "!!&!(((!!%%%%%!!((!%%%%%!((!!%%%%%%%%%%%%%%%!!(((!&&&!((",
  "!&&!((!%%%%%%%%!!!!%%%%%!!!%%%%%%%%%%%%%!%%%%!(((!&&&!((",
  "!&&!((!%%%%%%%%%%%%%%%%%%!!%%%%%%%%%%%%!&!%%%!((!!&&&&!(",
  "!&&&!(!%%%!!%%%%%%%%%%%%%%%%%%%%%%%%%%%!&!%%%!(!!!&&&&!(",
  "!&&&&!%%%!&!%%%%%%%%%%%!!!%%%%%%%%!!%%%!&!%%%!!!%!&&&&&!",
  "!&&&&&!!%!&!%%%%%!!!%%%!##!!!!!%%!##!%!!&!!!%%%%%!&&&&&!",
  "!&&&&&&&!!&!%%%%!##!%!!#&######!!!&&&!#!&!##!%%%%!&&&&&!",
  "!&&&&&&&&&&!%%!!#&##!!##&##&#####%&%###!&&!#&!!%!&&&&&&!",
  "!!&&&&&&&&&&!!!##&##&#%!!&%#&#'!##&&##!&&&!#&&#!!&&&&&&!",
  "(!!&&&&&&&&&!##&#&##&###!###&#!&!####!!&&&!##&#!&&&&&&&!",
  "((!&&$$&&&&&!!###&#'###!!!####!&&!###!&&&&&!##!&&&&&&&&!",
  "((!!$$$&&&&&&!!#######!!&!!###!&&!!#!&&&&&&!#!!&&&&&&&!!",
  "(((!$$$&&&&&&&!!!###!!&&&&!##!&&&&!!!&&&&&&!!&&&&&$$$!!(",
  "((($$!&&&&&&&&&&&!!!!&&&&&!##!&&&&&!&&&&&&&&&&&&&$$$$$((",
  "((($(!!&&&&&&&&&&&&&&&&&&&!#!&&&$&&!&&&&&&&&&&&&&&!&$$((",
  "(($$((!&&&!&&&&&&&&&&&&&&&!#!&&&$$&!&&&&&&&&&&&&&!!!($$(",
  "(($$((!!&&!!&&&&!&&&&&&&&!!!&&&&$$$$&&&&!&&&&&&&&!!((($(",
  "(($$$((!!&&!&&&!!!&&&&&!!&&&&&&&&&$$$&&!!&&&&&&&!!!(((((",
  "((($$$((!!!!!&&!!!!&&&&&&&&&&&&&&&&&&$!!&&&&&&&!!!((((((",
  "((((((((((!!!!!!!!!!!!!!!!!!!!!!!!!!!!!!!!!!!!!!((((((((",
};
