/* XPM */
static char *mutt_26[] = {
  /* width height ncolors chars_per_pixel */
  "24 20 10 1 0 0",
  /* colors */
  "! c #000000",
  "# c #993366",
  "$ c #555555",
  "% c #660000",
  "& c #cbcbcb",
  "' c #a0a0a4",
  "( c None",
  ") c #ffffff",
  "* c #ffff99",
  "+ c #ff6699",
  /* pixels */
  "(((((((((((((*&&((((((((",
  "((((((((((*&&(''&&*(((((",
  "(((((((((((*&&&&'$&*&(((",
  "((((((((((((*'&'**!&((((",
  "((((((((((((&*&$'''$&*$'",
  "((((((((((((&*&&&&&&&&&$",
  "(((((((((((&&**&'%*%**&(",
  "*((((((((((&&*&%)#)()()(",
  "&*((((&&&&&&**'%#(((((((",
  "&&**&&****&&**'%#(((((((",
  "(&&&********&*'+#(((((((",
  "(((&**********')%)()((((",
  "(((***&&&******&'&$&((((",
  "((**&&&&&&***&''****&(((",
  "((*&&''('&&&**&'$(((((((",
  "(*&&'$(((''&&&'$'(((((((",
  "(&&'$$((((('&&&$$'((((((",
  "(&'$$((((((('&&$$$'(((((",
  "&'('$(((((((('&&($$'((((",
  "'(($((((((((((('&(($'(((",
};
