/* XPM */
static char *mutt_4[] = {
  /* width height ncolors chars_per_pixel */
  "20 24 11 1 0 0",
  /* colors */
  "! c #000000",
  "# c #993366",
  "$ c #555555",
  "% c #660000",
  "& c #cbcbcb",
  "' c #ff9999",
  "( c #a0a0a4",
  ") c None",
  "* c #ffffff",
  "+ c #ffff99",
  ", c #ff6699",
  /* pixels */
  ")))))($)))))))))))))",
  ")))))$&&&)))))))))))",
  "))))))+&))))''')))))",
  "))))))+&*))',,,)))))",
  "))))+&+&%)',&)))))))",
  ")))+!&&&&#,+()))))($",
  ")))(+(&#%,+())))($$)",
  ")+(&(!&#%+(&))($$$))",
  "))+(++&(&(&((($$$&&(",
  ")))$(&(+&++&&&&&&&()",
  ")+(&&(++++++++&&()))",
  "))++++&&&++++&&())))",
  ")))))))&&++++&()))))",
  "))))))))&+++&&()))))",
  "))))))))&+++&&))))))",
  "))))))))&+++&&))))))",
  "))))))))&+++&&))))))",
  "))))))))&+++&&()))))",
  ")))))))))&+++&($$)))",
  "))))))))&&+++&&($$$)",
  "))))))))&+&&++&&($($",
  ")))))))&++)))++&&())",
  ")))))&++&))))))+&&()",
  "))))))))))))))))))&(",
};
