/* XPM */
static const char *mutt_39[] = {
  /* width height ncolors chars_per_pixel */
  "18 24 10 1 0 0",
  /* colors */
  "! c #000000",
  "# c #993366",
  "$ c #555555",
  "% c #660000",
  "& c #cbcbcb",
  "' c #a0a0a4",
  "( c None",
  ") c #ffffff",
  "* c #ffff99",
  "+ c #ff6699",
  /* pixels */
  "(((((*&&(((((((*((",
  "((((((*&&(((((*&((",
  "(((((((*&(((**&$((",
  "(((((((*&&***&'$'(",
  "(((((((&***&&'$$((",
  "(((((((&***&'$((('",
  "((((((&***&&'((('$",
  "((((((&***&&((('$$",
  "((((((&***&&'$'$$(",
  "((((((&****&&'$$$*",
  "*(((((&&****&&'**&",
  "&*(((&&&&*******&'",
  "&&*&&&&**&*****&'(",
  "(&'*********&&''((",
  "'&&&&*&''''*''((((",
  "'&'$&&%%%+)&'(((((",
  "&'*'&')###%'*(((((",
  "&$*'&%#((()&*(((((",
  "*&!'&*)(((($*(((((",
  "(*&$&%(((()&*(((((",
  "(&(&&*)(((((&(((((",
  "(((*&*((((((((((((",
  "((($&&)(((((((((((",
  "((('$(((((((((((((",
};
