/* XPM */
static char *yeti_2[] = {
  /* width height ncolors chars_per_pixel */
  "50 50 15 1 0 0",
  /* colors */
  "! c #000000",
  "# c #333366",
  "$ c #663366",
  "% c #993366",
  "& c #666666",
  "' c #555555",
  "( c #4d4d4d",
  ") c #330000",
  "* c #333300",
  "+ c #663300",
  ", c #777777",
  "- c #b2b2b2",
  ". c #a0a0a4",
  "/ c #808080",
  "0 c None",
  /* pixels */
  "0000000000000000000*!!!!*0000*!!!!0000*!!!00000000",
  "0000000000000000000!*//!!*00!!*/#!0000+!!!!0000000",
  "000000000000000000!!/--/!!*!!(.-&!!0000!!*!!!00000",
  "00000000000000000!!&----&!!!'---.*!!*000!*&*!!0000",
  "000*!!!!!!!!!!!!!!*.-----'*&/.---.'!!!00*!(.+!!000",
  "0*!!!*(((+*****!!!/-------.'!!#/.--.(!!**!*..(!!00",
  "!!*'/...---..../'&---------/!**!!(/.-,!!!*,--.*!00",
  "!!!!!**+&.---------'*'.-----'!$$+)!!*//*!*.---/!*0",
  "00**!!!!!*'.-------*!!!*/---.#!$%%$*!*!**!/---.!!0",
  "00000000!!!*.------/!./*!(---.(!+%%*)!!!!!*!'(!!)0",
  "00000000*!!!/------.!'--..----.'!!*!!!0*!!!*!!*!*0",
  "0000000!!*,.-------.*'-------,******!!00*!(..&!!00",
  "000000!!'.----------..------&!!!!!!!!!00*!'-.+!!00",
  "00000!!'.------------------/!!!!!!!!!!*0*!'-.*!000",
  "00000!*.-------------------*!!!!!!!!!!*0*!'-.*!000",
  "0000*!,--./((##(/.--------.*!#'!!!!!!*00*!'-.+!000",
  "0000!*./(!!!!!!!!!&.------.**''(!!!!00!!!!&--'!!00",
  "0000!(*!!!*0000**!!(.------'!#''(*!!*!!*++.--,!!00",
  "000*!!!!0000000000*!/------.#!*'''*!!!&....--.*!00",
  "000*!!00000000000***,-------.#!*(''(!!(-.**---(!00",
  "0000000000000000*!!'.--------./*!!*!!!//!*.---/!!0",
  "000000000000000!!*/------------.'**!!..!(----./!!0",
  "0000000000000!!!(.-------------././!+-'!--./*!!!!0",
  "000000000000!!*,.---------.'/--/!/(!,-...'*!!!!000",
  "0000000000!!!+/.----------,!!'../.!!.-.#!!!*000000",
  "0000000000!!,.!!.---------.'!!!*(*!*.'!!)*00000000",
  "000000000!!'-(!*!.-..-------.'*!!!!*!!!*0000000000",
  "00000000!!*.-!'.*+,**.---/'.--.//*!!!*000000000000",
  "00000000!*.-.!//'*!!*.---(!*/..-.*!*00000000000000",
  "0000000!!&--.'*!!!!!*.---.*!!!*#*!!000000000000000",
  "000000*!(--.'!!**00!*-----.&**!!!!*000000000000000",
  "000000!*.--'!*00000!*-------./,&*!00000!!!!!!!*000",
  "0000*!!/--&!!*00000!*----------.*!00!!!!!!!**!!*00",
  "00*!!*&--.!!+000000!*---.'&.---'!!!!!**',/.../!*00",
  "00!!/.---.!*0000000!*---.!!!*((!!!!(,/.------/!*00",
  "0*!'-----.!!0000000!!.---.(*!!!!!*.-,!!(-----/!*00",
  "0*!,-----/!*0000000*!.-----..//.(/---.!*-----.!*00",
  "00!*.-./(!!*0000000*!'--------------.!*.-.---.!!00",
  "00*!'-(!!**00000000!!*.-------------&*./**.--.*!00",
  "000!!/*!*00000000000!*,-------------./*!!!.---*!00",
  "0000!*(!000000000000!!*..---------.'*!!!!/----(!00",
  "0000*!*!*000000000000!!!(/.-----.(!!!**!'-----'!00",
  "00000*!!*000000000000*!!!!*'/..(!!!*00!*..////&!!0",
  "000000!!!0000000000000!#(*!!!!!!!*000!!#*!!!!!!!!0",
  "0000000!!0000000000000!*../'#***!!000!!!!!***!!!00",
  "0000000!*000000000000*!(--.(*-.*!0000**00000000000",
  "000000000000000000000*!/.*!!!..*!00000000000000000",
  "000000000000000000000!*..(&.*'.*!00000000000000000",
  "00000000000000000000!!**(('''''+!!0000000000000000",
  "00000000000000000000*!!!!!!!!!!!!!0000000000000000",
};
