/* XPM */
static char *yeti_5[] = {
  /* width height ncolors chars_per_pixel */
  "44 50 13 1 0 0",
  /* colors */
  "! c #000000",
  "# c #333366",
  "$ c #663366",
  "% c #666666",
  "& c #555555",
  "' c #4d4d4d",
  "( c #330000",
  ") c #333300",
  "* c #663300",
  "+ c #b2b2b2",
  ", c #a0a0a4",
  "- c #808080",
  ". c None",
  /* pixels */
  "..................!!!.......................",
  ".................!!)!!.....!!...............",
  "................!!'&!!!!..!!!!..............",
  "......!!!!!!!...!),,)!!!!!!)!!..............",
  "......!!!))!!!!!!#,+-))#!!)-'!!.............",
  ".......!!)--&#!!)-,+,-&-#!),,)!!!!!!!!......",
  "........!!#,+,-&-!&,+,,+,---'-&#'')!!!!!....",
  ".........!!-++++,!!(-,,,-&)!!,,,+,,,-')!!!..",
  "..........!',+++,)))!)'!!!)*!,++++,-')!!!!..",
  "..........!),++++-!)$(#!*$*!'+++,-#!!!!!....",
  ".........!!!-+++++-)!!&!!!)&,++,&!!!........",
  "......!!!!!),++++++,--,,--,++++-!!!.........",
  ".....)!)'%--++++++++,,,,+++++++%!!!!!.......",
  "....!!)'&&%-,++++++,')))-,+,,+,,-&#!!!!.....",
  "..!!!!!!!!!!#,+++,,)!!!!!&----%%,,,-'!!!....",
  ".!!!!!)..!!!),----'!!!!!!!#!'&&))###)!!!!!..",
  "!!!!!....!!)-&)'&&)!!!!!!!)!'&'!!!!!!!!!!!!.",
  "!!!.....!!#,,)!)''!!!!!!!!!!'')!!!!!....!!!.",
  "........!!-+-!!!''!!)!!!!)!)')!!)-)!........",
  "........!),-)!!)&&)!&,---)!#&'!!!&&!!.......",
  "........!#-)!)!)'&'!),+,'!)'&#!!!!)!!!!.....",
  ".......!!)#!#-)!#&&)!'-#!!#'#!!&-)!!!)!!....",
  "......!!!)!!,+%!!#&#!!#!!))!!!',+-!!)-#!!...",
  "......!))!!&,-#)!!)))!!!!!!!)&,,&-'!!,,'!!..",
  ".....!!%&!!--)!!')!!!!!)#'--,,,&!)&##,+,#!!.",
  "....!!&,,))-'!!!%,-!)'')!!-,!-+&!!!%,+++-)!.",
  "....!!-++,,,)!!!!#-'')!!#!!))&#!!!!)-+++,&!!",
  "....!),++++-!!!!)!!!!!#-+,'!!!!!!!!!),+++-!!",
  "....!),+#)+-!!.!&--%-,+,,,+,,-,-!!.!!&,++,)!",
  "....!),-!,+-!!.!#,+++,-)!',,+++-!!..!#,++,)!",
  "....!!--!&+-!!.!!!#'#)!!!!!#'&&'!!..!#,++,)!",
  "....!!&,-!,-!!.!!!!!!!#-,#!!!!!!!!.!!),++,)!",
  ".....!),+-,,)!!!!-,,,,-,,,+,----)!!!!),++,)!",
  ".....!!&,++,'!!!!',,&)!)!),,,&&-!!!'&-+++-!!",
  "......!!%,++,--#!!!!!!!!!!!!!!!!!!!-,+++,&!!",
  ".......!!-,+++,#!!!!!!!#--#)!!!!!!!#,+++,)!.",
  ".......!!&,+++,&!)!!)-,++++,,-#!!!!!,++,'!!.",
  ".......!!&,,,,-&)!!),,,,+++,++,#!!)',+,&!!..",
  "........!!)##))!!!',+-)',+,%,+,)!!!)-,'!!...",
  ".........!!!!!!!!!-++&!!&,'!-+,)!.!!!)!!....",
  "................!),+,)!!)#!!,+,)!!..!!!.....",
  "................!#,+,!!!!!!#,++-)!!..!!.....",
  "...............!!-++-!!.!!!)-+++-)!!........",
  "..............!!#,++&!!...!!)-+##')!........",
  ".............!!)-+++&!!....!!),-&!&!!.......",
  "............!!!!%+++%!!.....!!&,,!,#!.......",
  ".............!!!%+++-!!......!#,,&,&!!......",
  "............!!!'-,,,&!!......!),,,,-!!......",
  "............!!!!!)))!!.......!!)####)!!.....",
  "............!!!!!!!!!!.......!!!!!!!!!!!....",
};
