/* XPM */
static char *yeti_25[] = {
  /* width height ncolors chars_per_pixel */
  "50 20 17 1 0 0",
  /* colors */
  "! c #000000",
  "# c #800000",
  "$ c #333366",
  "% c #663366",
  "& c #993366",
  "' c #666666",
  "( c #999966",
  ") c #555555",
  "* c #4d4d4d",
  "+ c #330000",
  ", c #333300",
  "- c #663300",
  ". c #777777",
  "/ c #b2b2b2",
  "0 c #a0a0a4",
  "1 c #808080",
  "2 c None",
  /* pixels */
  "22222,!!222222222222222222222222222222222222222222",
  "22222!!!2222222222222222222222,!222222222222222222",
  "2222,!!!222222222222222222222!!!!22222222222222222",
  "2222!)!,2222222222222222222!!,1)!22222222222222222",
  "222!,0!,222222222222222222!!$100!!2222222222!!!222",
  "222!10!!22222222222222222!!)1-'0$!222222222!,*!!!!",
  "22!,00!!22222222222!!!222!)0#--0*!22222222!!1/01$!",
  "22!$00!!2222222!22!$1$!2!!0(---.)!2222222,!*0000*!",
  "22!$/0!!2222222!!2!100,!!!$0#--')!!222222!$0(#-0*!",
  "22!$/0!!222222!!,!!1'()!2!!$1'#'0*!!2222!!1'--#0*!",
  "22!!00,!22222!,)*!!'-#1!22!!,)00//1$!!22!)'---#0*!",
  "222!1/)!!!22,,))!!,(--%,!!!!!!,0///0)!!!,1---#0/*!",
  "222!'/0!!!!!,))$,$,0%--*!!$*$!!,0////0)*0(-#'01*,!",
  "2!!!1/)!-%!,,)*!0,*/0#-%!,0//0)!,0///////0(01,+,22",
  "!!$'(0!-&-!!!*!1/!)/0'%1,,0/00/)!)///000///0,!2222",
  ",1'---+&%!!!!!1//!1/'!!01!$$,,1/$!1/0%#(///)+22222",
  ",0(---,!!,!!!0/00)0/$$!)01!!)!)//,,00#-%0/1!222222",
  "!,1#---)11!!1/0%#-(0$10$10100,)//0100##-00,,222222",
  "2!,'---(/00//0'----(0//$,///0!)/////(#'00$+2222222",
  "22!'0''0//////0'%#-%0//)!00/1!1/////000/0!+2222222",
};
