/* XPM */
static char *ninja_0c[] = {
  /* width height ncolors chars_per_pixel */
  "32 56 9 1 0 0",
  /* colors */
  "! c #000000",
  "# c #333366",
  "$ c #3333ff",
  "% c #996666",
  "& c #333399",
  "' c #669900",
  "( c #ffcc00",
  ") c #ffcc99",
  "* c None",
  /* pixels */
  "********************************",
  "********************************",
  "*******************!!!!*********",
  "******************!&&&&!!*******",
  "*****************&!###&&&!******",
  "*********((**((('!&####&&!******",
  "********(*((((((&!#!!()))!******",
  "***********((((**!#!&))%%*******",
  "*****************!##!&)))!******",
  "*****************!####!#!*******",
  "*****************!#&!###!*******",
  "****************!##&!!&!********",
  "***************!!!!!#!**********",
  "**************!####&!!**********",
  "**************!##!!!!&!*********",
  "*************!##!####!!*********",
  "*************!#!#####!#!********",
  "************!!#!&###&!##!*******",
  "***********!#!!&!###&!&#!*******",
  "***********!!!!#####!#&#!*******",
  "**********!#!!#####!!&#!********",
  "**********!&!!####&!&&!*********",
  "***********!!####!!&&!**********",
  "************!!#!!#!#!***********",
  "************!&!##!#!!***********",
  "************!!&#!##!!*%*********",
  "*************!!!&#!###)%********",
  "************!&&&!!&#!#))%*******",
  "************!#&&&!!!##))%*******",
  "***********!####&&!!#%)%********",
  "***********!####&&&&!*%*********",
  "***********!######&!#!**********",
  "***********!######!&&!**********",
  "***********!######!&&#!*********",
  "***********!######!&&##!********",
  "************!######!&&##!*******",
  "******!!!***!&#####!&&&#!*******",
  "*****!!&&!***!&####!&&&##!******",
  "****!!&!!!***!&&##&!&&&###!*****",
  "***!&#!#&$!!*####&&!&&#&&#!*****",
  "**!&$&&!&!$#!!###&&!&&&&&&!*****",
  "*!&$&&#!!&$!&!!##&&!!&&&!!!*****",
  "*!##!#!!!#!&!$!!#&&!!!!!#!******",
  "*!!!*****!#!$!$!&&&!!#&&#!******",
  "**********!#!&&!&&!*!!!!!!******",
  "***********!!#&!&!**!#&&#!******",
  "*************!!!!!***!!!!!******",
  "*********************!#&&!******",
  "*********************!!!!!******",
  "*********************!#&&!******",
  "*********************!!!!!******",
  "*********************!#&&!!*****",
  "*********************!!#!&&!!***",
  "*********************!&!&&&&&!!*",
  "*********************!#!#####&!*",
  "*********************!!!!!!!!!!*",
};
