/* XPM */
static char *ninja_10c[] = {
  /* width height ncolors chars_per_pixel */
  "62 22 18 1 0 0",
  /* colors */
  "! c #000000",
  "# c #000080",
  "$ c #333366",
  "% c #008080",
  "& c #336666",
  "' c #996666",
  "( c #cc6666",
  ") c #999966",
  "* c #330000",
  "+ c #333300",
  ", c #333399",
  "- c #336699",
  ". c #669900",
  "/ c #ffcc00",
  "0 c #ffcc99",
  "1 c None",
  "2 c #ffff99",
  "3 c #330066",
  /* pixels */
  "11111111111111111111111111111111111111111111111111111111111111",
  "111111111111111111111111111111111111111///111!!!!1111111111111",
  "11111111111111111111111111111111111/1//////.!,,,,!!11111111111",
  "111111111111111111111111111111111111////1/.,!$$$,,,!1111111111",
  "111111111111111111111111!#$#!$!!!!!!!!!!!!$!,$$$$,,!1111111111",
  "11111111111111111111111!!!!!!$!,!!$,$$$$$$$!$!!/000!1111111111",
  "1111111111111111111111!$$$$$!!,,!$$,$$$$!!!$$!,00''11111111111",
  "111111111111111111111!$$$$$$$!,,!$$$,$$!$$$!$$!,000!1111111111",
  "111111111111111111111$$$$$$$$!,,!$,$,$$!$$$$!$$$!$!11111111111",
  "11111111111111111111!$$$$$$$$!,,!$$$$!$!$$$$!!$,$$!11111111111",
  "11111111111111111111!$$$$$$$!,!!!$$$$$$!$$$!$1!!!!111111111111",
  "11111111111111111111!$$$$$$$!!!!!!!$$$$!$$$$$!1111111111111111",
  "11111111111111111111!!$$$$$!$%!1111!$$$$!$$$$!1111111111111111",
  "1111111111111111!!!!!$$$$$!$-$-!1111!!!!$$$$$$!111111111111111",
  "1111111!!!!$11!$$-$!$$$$$$!$,&$$1111$$-$!!$$$$!111111111111111",
  "11111!!!$!$!!!!!!!!!!$$$$!$$&,%$!111$!-!$!!$$!$!!1111111111111",
  "1111!$!$!!$!$!$$!$!$$$$$$!$$,$$$$111!-!-,$!$!$$!$!111111111111",
  "1111!$$!,!$!$!$!$!!$$$$$!$3%3%%,$111$!-$+,$!!$!$$!$!1$'1111111",
  "1111!!!,!!!!!$$!$!$$$$$$!%!%,$-$#11111+$,-*%3!!$!$!$$000111111",
  "11111!$,,!111!!$$!$$$$$!!3$,$%,$11111111+!%,+$$!!!$'00''011111",
  "111111!$,!!1111!!!!$$$$!111#$3!1111111111+3+,)20)!$'''11111111",
  "1111111!$,!111111!!!!!!1111111111111111111$3%(0)02'11111111111",
};
