/* XPM */
static const char *ninja_10d[] = {
  /* width height ncolors chars_per_pixel */
  "62 22 8 1 0 0",
  /* colors */
  "! c #000000",
  "# c #333366",
  "$ c #996666",
  "% c #333399",
  "& c #669900",
  "' c #ffcc00",
  "( c #ffcc99",
  ") c None",
  /* pixels */
  "))))))))))))))))))))))))))))))))))))))))))))))))))))))))))))))",
  "))))))))))))))))))))))))))))))))))))))))))))))))))))))))))))))",
  "))))))))))))))))))))))))))))))))))))))))''')))!!!!))))))))))))",
  "))))))))))))))))))))))))))))))))))))')''''''&!%%%%!!))))))))))",
  ")))))))))))))))))))))))))))))))))))))'!!!!'&%!###%%%!)))))))))",
  ")))))))))))))))))))))))))))))))))))!!!####!%!%####%%!)))))))))",
  "))))))))))))))))))))))))!!!!!#!!!!!#%#######!#!!'(((!)))))))))",
  ")))))))))))))))))))))))!#####!!%%!###%########!%(($$))))))))))",
  ")))))))))))))))))))))!!######!%%!####%###%#!!!#!%(((!)))))))))",
  ")))))))))))))))))))!!########!%%!##%#%#%!!!###!##!#!))))))))))",
  ")))))))))))))))))!!##########!%%!######%%!#####!%##!))))))))))",
  ")))))))))))))))!!############!%%!#####%#%!%####!!!!)))))))))))",
  "))))))))))))))!###############!!!########!####!#!)))))))))))))",
  ")))))))!!!!!!!!###########!!!!##!!!!!#%%##!!#####!))))))))))))",
  ")))!!!!!#!#!#!##########!!#########!!!###!)!######!)))))))))))",
  ")!!!#!#!#!#!#########!!!!!!!########!#!!!)))!######!))))))))))",
  "!#!#!!#!#!#!#!#####!!#!#!#!#!!######!!#!)))))!####!#!!))))))))",
  "!##!%!!!!!!!!!!#!!!)!##!%!#!##!!#####!#!))))))!##!##!#!!))))))",
  "!!!%!!))))))))!!#)))!!!%!!!!#!##!####!!###)))))!!!#!##!#!!))))",
  ")!#%%!)))))))))))))))!#%%!))!!#!#!###!%#!###$)))))!!#!#!###$))",
  "))!#%!!)))))))))))))))!#%!!)))!######!!!#$((($))))))!!!#$(((()",
  ")))!#%!))))))))))))))))!#%!))))!!!!!!)!!#$($(($)))))))!#$(($((",
};
