/* XPM */
static const char *ninja_26[] = {
  /* width height ncolors chars_per_pixel */
  "48 48 10 1 0 0",
  /* colors */
  "! c #000000",
  "# c #333366",
  "$ c #3333ff",
  "% c #996666",
  "& c #333399",
  "' c #669900",
  "( c #ffcc00",
  ") c #ffcc99",
  "* c None",
  "+ c #330066",
  /* pixels */
  "************************************************",
  "***********!!!!*********************************",
  "**********!&&&&!!*******************************",
  "*********&!###&&&!******************************",
  "*****((('!&####&&!******************************",
  "*(**((((&!#!!()))!******************************",
  "**(((((**!#!&))%%*******************************",
  "***(((***!##!&)))!******************************",
  "*********!####!#!*******************************",
  "**********!&!###!!!!****************************",
  "**********!##!!!!##!!!**************************",
  "**********!#!#&##!##!#!!************************",
  "*********!#&###&#!####!#!***********************",
  "*****%%*!#!&######!&!!###!**********************",
  "****%))%!##!##!!!!!!#!#!#!**********************",
  "***#)))%!#!##%###!#!##!#!!**********************",
  "***#))%%!!!#%)####!#!#!!!***********************",
  "***%))%!!#!#%))))%!!!!!!************************",
  "****%%%#!#!##%))%##!!!**************************",
  "*****!!!#!#!##%%#!!!#!**************************",
  "******!#!#!#!###!#####!*************************",
  "*******!##!!!!#!&##!#!!!!!!!!!******************",
  "********!!!!*!!#&!!##########&!!!!!!!!!!!!!!!!!*",
  "*************!##!#############&!!!#!#!#!#!!####!",
  "**************!################!&!&!&!&!&!#####!",
  "**************!&#####&#######!&!&!&!&!#!&#!&##!*",
  "*************+######&!##&#&###&!#!#!#!!!!!!!!!**",
  "************+#####&#&&&!!!!!#&#!!!!!!***********",
  "***********+###&##&#!!!*****!!!*****************",
  "***********+#&&&#&&!****************************",
  "**********+##&&&&&!*****************************",
  "*********+###&&&&!******************************",
  "*********+#&&#&&&!******************************",
  "*********+&&&&&&!*******************************",
  "*********!+!&&&!!*******************************",
  "**********+#!!!!********************************",
  "**********##$!!!********************************",
  "***********+!$&!********************************",
  "***********+#$!!!*******************************",
  "************+!&#!*******************************",
  "************!#$!!!******************************",
  "*************!!$#!******************************",
  "*************!!!&!!*****************************",
  "*************!#&!&!*****************************",
  "*************!!!!#&!****************************",
  "************+$&&&!#+****************************",
  "***********+&####!!*****************************",
  "***********+!!!!!*******************************",
};
