/* XPM */
static const char *ninja_22[] = {
  /* width height ncolors chars_per_pixel */
  "28 60 7 1 0 0",
  /* colors */
  "! c #000000",
  "# c #333366",
  "$ c #996666",
  "% c #333399",
  "& c #ffcc00",
  "' c #ffcc99",
  "( c None",
  /* pixels */
  "(((((((((((((&((((((((((((((",
  "((((((((((((((&(((((((((((((",
  "((((((((((((((&(((((((((((((",
  "(((((((((((((&&(((((((((((((",
  "(((((((((((((&&(((((((((((((",
  "((((((((((((!!!!((((((((((((",
  "(((((((((((!%%%#!(((((((((((",
  "((((((((((!#%%%%#!((((((((((",
  "((((((((((!%%%%%%!((((((((((",
  "((((((((((!''''''!((((((((((",
  "((((((((((!$$''$$!((((((((((",
  "((((((((((!''%%''!((((((((((",
  "((((((((!!!%#!!%!!!!((((((((",
  "((((((!!#%!!%##%!!%#!!((((((",
  "(((((!##%#!!!%%!!!#%%%!(((((",
  "(((((!##%!###!!###!%%%!(((((",
  "((((!##%%!##%#####!%%%#!((((",
  "(((!#%###!########!###%!((((",
  "(((!####!##########!####!(((",
  "((!#####!%#########!#%###!((",
  "((!!%$#!!####%%####!!#$%!!((",
  "((!%'''!(!########!(!'''%!((",
  "((!''$$#(%!!!%%!!!#(#$$''!((",
  "((!'$$''(!##%%%%##!(''$$'!((",
  "((!!$''((!##!%%!##!((''$!!((",
  "(((#!!(((!##%##%##!(((!!#(((",
  "(((((((((!%#%##%##!(((((((((",
  "(((((((((!!%%##%%!!(((((((((",
  "(((((((((!%!!!!!!%%!((((((((",
  "((((((((!%%%%%%%%%%%!(((((((",
  "(((((((!#!%%%%%%%%%!!(((((((",
  "(((((((!##!!!!!!!!!#!(((((((",
  "(((((((!#%#%%%%%%##%!(((((((",
  "(((((((!#!######%!##!(((((((",
  "(((((((!####!#%%####!(((((((",
  "(((((((!#####%!#%###!(((((((",
  "(((((((!####%!!!#####!((((((",
  "(((((((!####%#!######!((((((",
  "(((((((!####%!!%####!(((((((",
  "(((((((!%##%%!!#####!(((((((",
  "((((((!#%%##%!!#####!(((((((",
  "(((((((!%####!%#!##%!(((((((",
  "(((((((!####!!!%%#%!((((((((",
  "((((((((!!!!#!!!!!!!((((((((",
  "((((((((!!%%!(!!%%#!((((((((",
  "(((((((((!##!(!!!!!!((((((((",
  "((((((((((!!((!#%%#!((((((((",
  "((((((((((((((!!!!!!((((((((",
  "((((((((((((((!#%%#!((((((((",
  "((((((((((((((!!!!!(((((((((",
  "((((((((((((((!#%#!(((((((((",
  "((((((((((((((!!!!!(((((((((",
  "((((((((((((((!#%%!(((((((((",
  "((((((((((((((!!!#!(((((((((",
  "((((((((((((((!!#!!(((((((((",
  "((((((((((((((!##%!(((((((((",
  "((((((((((((((!###!(((((((((",
  "((((((((((((((!###!(((((((((",
  "((((((((((((((!##!((((((((((",
  "(((((((((((((((!!(((((((((((",
};
