/* XPM */
static char *ninja_0b[] = {
  /* width height ncolors chars_per_pixel */
  "32 56 8 1 0 0",
  /* colors */
  "! c #000000",
  "# c #333366",
  "$ c #3333ff",
  "% c #996666",
  "& c #333399",
  "' c #ffcc00",
  "( c #ffcc99",
  ") c None",
  /* pixels */
  "))))))))))))))))))))))))))))))))",
  "))))))))))))))))))))))))))))))))",
  ")))))))))))))))))))!!!!)))))))))",
  "))))))))))))))))))!&&&&!!)))))))",
  ")))))))))))))))))&!###&&&!))))))",
  ")))))))))))))))'&!&####&&!))))))",
  "))))))))))))))''&!#!!'(((!))))))",
  ")))))))))))))''')!#!&((%%)))))))",
  "))))))))))'))''')!##!&(((!))))))",
  ")))))))))))''''))!####!#!)))))))",
  "))))))))))))'')))!#&!###!)))))))",
  ")))))))))))))))!!#!!!!&!))))))))",
  ")))))))))))))!!!####!!!)))))))))",
  "))))))))))))!!!####!!&!)))))))))",
  ")))))))))))!##!###!##!!!))))))))",
  "))))))))))!#&#!##!####!#!)))%%))",
  "))))))))))!#&#!&#!####!##!)%((%)",
  ")))))))))!#&&!&!#!&####!#!)%((%)",
  ")))))))))!!!!#!!#!!&###!#!!#(##)",
  "))))))))))!&!!&!##!!####!!!#!##)",
  ")))))))))))!&!!!##&!&###!!#!#!))",
  "))))))))))))!&!!###&!&#!!#!!!)))",
  ")))))))))))))!!!####&!!#!!&!))))",
  ")))))))))))))))!####&&!!&!!)))))",
  ")))))))))))))))!!!!!!!)!!!))))))",
  ")))))))))))))))!&&&&&!))))))))))",
  "))))))))))))))!&&&&&&!))))))))))",
  "))))))))))))))!!!!!!!!))))))))))",
  ")))))))))))))!######&!!)))))))))",
  ")))))))))))))!######&&!!))))))))",
  ")))))))))))))!######&!!#!)))))))",
  ")))))))))))))!&#####&!###!!)))))",
  ")))))))))))))!!####&!&&&&##!))))",
  ")))))))))))))!&####&!&&&&&&#!)))",
  ")))))))))))))!#####&!&&&&&###!))",
  ")))))))))))))!####&!!!&&&&#&##!)",
  "))))))))))))!&&##&&!)!!&&&&&##!)",
  "))))))))))))!&&##&&!)))!&&&!!!))",
  ")))))))))))!&####&!))))!!!!&&!))",
  "))))))))))!!!###&&!)))))!!!&##))",
  ")))!!!!!!!!&!!##&!))))))!&&!!)))",
  "))!#&!$!&!!$!&!#&!)))))!!!&#!)))",
  "))#!!#&!&!&!&!&#!))))))!#&!!))))",
  "))!#&!#!#!#!#!#!))))))!!!&#!))))",
  "))!#&&!!!!!!!!!)))))))!#&!!)))))",
  "))!#$&!))))))))))))))!!&!!!)))))",
  "))!#$!)))))))))))))))!&!&#!)))))",
  "))!#&!))))))))))))))!&#!!!!)))))",
  "))!#!)))))))))))))))!#!&&&!)))))",
  "))!!)))))))))))))))))!!##&&!))))",
  ")))))))))))))))))))))))!!##&!)))",
  ")))))))))))))))))))))))))!!!!)))",
  "))))))))))))))))))))))))))))))))",
  "))))))))))))))))))))))))))))))))",
  "))))))))))))))))))))))))))))))))",
  "))))))))))))))))))))))))))))))))",
};
