/* XPM */
static char *ninja_10f[] = {
  /* width height ncolors chars_per_pixel */
  "62 22 19 1 0 0",
  /* colors */
  "! c #000000",
  "# c #000080",
  "$ c #333366",
  "% c #008080",
  "& c #336666",
  "' c #996666",
  "( c #cc6666",
  ") c #999966",
  "* c #cc9966",
  "+ c #330000",
  ", c #333300",
  "- c #333399",
  ". c #336699",
  "/ c #669900",
  "0 c #ffcc00",
  "1 c #ffcc99",
  "2 c None",
  "3 c #ffff99",
  "4 c #330066",
  /* pixels */
  "22222222222222222222222222222222222222222222222222222222222222",
  "2222222222222222222222222222222222222222000222!!!!222222222222",
  "22222222222222222222222222222222222202000000/!----!!2222222222",
  "2222222222222222222222222222222222222000020/-!$$$---!222222222",
  "2222222222222222222222222!!!!!!!!2!!!!!!!!!$!-$$$$--!222222222",
  "22222222222222222222222!$$$$$!---!!$-$!!!$$$!$!!0111!222222222",
  "2222222222222222222222!$$$$$$$!--!$$$!$$$$!$$$!-11''2222222222",
  "222222222222222222222!$$$$$$$$!--!$$$!$$$$!$!$$!-111!222222222",
  "222222222222222222222!$$$$$$$$!--!$-!!$$$$!$!$$$$!$!2222222222",
  "222222222222222222222!$$$$$$$!---!$$!$!$$$!$$!!$-$$!2222222222",
  "222222222222222222222!$$$$$$!!!!!$$$!$$$$!$!!22!!!!22222222222",
  "2222222222222222222222!$$$$$$!!!!!!!!$$$$!!-.!2222222222222222",
  "2222222222222222222222$!$$$$$$!22222!$$$$!%&$$2222222222222222",
  "2222222222222222!!!!$2!.!$$$$$$!2222!$$$$$$%-%#222222222222222",
  "222222222$!$!.!!!$!$!!!!!!$$$$$!2222!$$$!!$$%$,222222222222222",
  "2222222!$!.#.!$!$!!$!$!$$!$!$$$$!222!!$!!$!$$$-$!2222222222222",
  "222222$.!.,$&!$$!-!$!$!$!$!$$$$$!222!-!$$!$!+%$,-$222222222222",
  "222222!..!.+%!!!-!!!!!$$!$!$!$$$!222!!-$!$$!$$$-&!.!2222222222",
  "222222$!$.4$4$!$--!$%.!!$$!$$$$$!22222!!-$!$$$+%4%+%$%(2222222",
  "22222224%-%$222!$--!-$%.!!!$$$$!22222222!!-$!$$$',-*3133222222",
  "222222224%-$!222!$-!$%-&-$2!!!!2222222222!!!$'111'$)1)*'122222",
  "222222222$%-$2222!!2#$$4$22222222222222222!!$'1'11'22222222222",
};
