/* XPM */
static const char *chainsaw_5b[] = {
  /* width height ncolors chars_per_pixel */
  "12 18 6 1 0 0",
  /* colors */
  "! c #000000",
  "# c #808000",
  "$ c #c0c0c0",
  "% c #4d4d4d",
  "& c #ffff00",
  "' c None",
  /* pixels */
  "''''''$$''''",
  "'''''$$%''''",
  "'''''$%$''''",
  "'''''$%$''''",
  "'''''%$$''''",
  "'''''$$$''''",
  "'!!!!$$%!!''",
  "!&!#!$$%!#!!",
  "!!##!$$%!##!",
  "!!##!$%$!##!",
  "!!##!$%$!##!",
  "!!!#!$%$!#!!",
  "!!&!!$%$!!&!",
  "!&!!!%$$!!!!",
  "!!&!!%$%!!&!",
  "''!!!$%$!!!'",
  "'''''$%$''''",
  "'''''%$!''''",
};
