/* XPM */
static char *chainsaw_0[] = {
  /* width height ncolors chars_per_pixel */
  "38 18 10 1 0 0",
  /* colors */
  "! c #000000",
  "# c #c0c0c0",
  "$ c #999966",
  "% c #4d4d4d",
  "& c #993300",
  "' c #808080",
  "( c #ff0000",
  ") c #00ff00",
  "* c #ffff00",
  "+ c None",
  /* pixels */
  "++++++++++++++++++++++++++++++##%+++++",
  "+++++++++++++++++++++++++#%++##%++++++",
  "+++++++++++++++++++++++++#%++##%++++++",
  "+++++++++++++++++++++++++##%+##%++###+",
  "++++++++++++++++++++++++++##%##%+##%%+",
  "+++++++++++++++++++++++++++##%!!##%+++",
  "+++++++++++++++++++!!!!!+++++!$$!%++++",
  "!!!!!!!!!!+++++++!!!!*!*!!!!!$$$$!+##+",
  "!''''''''!!!+++!!!!*!*!*!$$$$$$$$!#%%#",
  "!'((''))'!$$!!!*!*!*!*!*!!!!!$$$$!%++%",
  "!'((''))'!!!!''*!*!*!*!!+++++!$$!#++++",
  "!''''''''!'''''*!*!*!!!+++%###!!%##+++",
  "!!!!!!!!!!'''''!!!!!++++%%##+%##+%##++",
  "!''''''''''''!!++++++++++##+++%#++%#++",
  "!'&&''&&''&&!+++++++++++++++++%#++%+++",
  "!'&&''&&''&!+++++++++++++++++%##++++++",
  "+!&&''&&''!+++++++++++++++++%%#+++++++",
  "++!!!!!!!!++++++++++++++++++++++++++++",
};
