/* XPM */
static const char *t_shield_4[] = {
  /* width height ncolors chars_per_pixel */
  "14 18 21 1 0 0",
  /* colors */
  "! c #990066",
  "# c #ff0066",
  "$ c #996666",
  "% c #cc6666",
  "& c #cc9966",
  "' c #ff9966",
  "( c #ffcc66",
  ") c #660000",
  "* c #663300",
  "+ c #ffff66",
  ", c #993300",
  "- c #ff3300",
  ". c #996600",
  "/ c #cc6600",
  "0 c #ff6600",
  "1 c #cc9900",
  "2 c #ff9900",
  "3 c #cccc00",
  "4 c #ffcc00",
  "5 c #ffff00",
  "6 c None",
  /* pixels */
  "66666666666666",
  "+21%%%%%%%12(6",
  "+((5((2211'%(6",
  "(+%$.$$*%$%&(6",
  "(/$*5**+*$/'(6",
  "+$*+!.3!&*$'(6",
  "5.5!0!!0)&*&(6",
  "5$*3!#-!.*$&(6",
  "($*5!-#!3,$%(6",
  "(,3!0!!0!3*%(6",
  "($,&).&)&*$%26",
  "($$,&**&*$$%26",
  "6+$$*$$*$$%266",
  "66($$&%$$%2666",
  "66'4%4&%112666",
  "666+55&1%26666",
  "6666+51%266666",
  "66666+&2666666",
};
