/* XPM */
static char *missile_39[] = {
  /* width height ncolors chars_per_pixel */
  "14 14 11 1 0 0",
  /* colors */
  "! c #333366",
  "# c #c0c0c0",
  "$ c #555555",
  "% c #333300",
  "& c #ff9900",
  "' c #a0a0a4",
  "( c #808080",
  ") c #ffcc00",
  "* c #0000ff",
  "+ c None",
  ", c #00ffff",
  /* pixels */
  "+++++++++%%%%%",
  "++++++++%%!!!(",
  "+++++++%%!$$((",
  "++++++%%!$$(''",
  "+++++%%!$$$'''",
  "++++%%!$$$''#+",
  "+++++*$$$''#++",
  "++++)**$''#+++",
  "+++)))),,#++++",
  "++&))))),+++++",
  "+&&&))++++++++",
  "++++&+++++++++",
  "+++&++++++++++",
  "++++++++++++++",
};
