/* XPM */
static const char *fireball_4[] = {
  /* width height ncolors chars_per_pixel */
  "48 48 7 1 0 0",
  /* colors */
  "! c #000000",
  "# c #663300",
  "$ c #993300",
  "% c #996600",
  "& c #cc6600",
  "' c #cc9900",
  "( c None",
  /* pixels */
  "((((((((((((((((((((((((((((((((((((((((((((((((",
  "((((((((((((((((((((((((((((((((((((((((((((((((",
  "((((((((((((((((((((((((((((((((((((((((((((((((",
  "((((((((((((((((((((((((((((((((((((((((((((((((",
  "((((((((((((((((((((((((((((((((((((((((((((((((",
  "(((((((((((((((((((((###((((((((((((((((((((((((",
  "(((((((((((((#(((&%%$##$((((((&&&&&####(((((((((",
  "((((((((((((#&&&$&&'####(((((####&&####&'(((((((",
  "(((((((((((#&&&&$&'&#((#%(($###########&'(((((((",
  "(((((((((((#&&&&%&&&##(#$###(####$$%%%####(#((((",
  "((((((((((#&&&&&&&%$#((#####((((($$$$$$$$##(((((",
  "((((((((((((((((((($########''''''$$$$#####(((((",
  "((((((((((((((#####$###(###%'(########((((((((((",
  "((((((((((########($##(####$#(####$$%%%#((((((((",
  "(((((((((%%%$$####(####((####(######$&&###((((((",
  "((((((#&&&&$######(######((#####$##$%%&&&##(((((",
  "((((((&&&&%%$##$######((#######%####'&&$&&##((((",
  "(((((&&&$&&'####%##$#'((#$$%%##%#((#&'&$&&&#((((",
  "(((((&&&$&'&#((#%####'((###$&##$#(##&&&%&&&&((((",
  "((((&&&&%&&&##(#$####$((#((%%####((#$%&&&&&&((((",
  "((#(&&&&&&%$#((#######((((('########$$%'&&&&((((",
  "((((&&&&'%$$######'$##((#(##&###(###$%&'&&&&((((",
  "((((&&&&'&%$###(##'###(#(##&&####(##$%&'&&&#((((",
  "((((#&&&'&%$##(####'##(((##&&##((#####&'&&&#((((",
  "((((#&&&'&#####((###''####&&&((############(((((",
  "((((('''#########((#######&&&&&'%$$########(((((",
  "((((##%'''#&&&'&%$########&&&&&'&%$###(#####((((",
  "((((##%%#''&&&'&######((####&&&'&%$##((#####((((",
  "(((#######''&&'#####((((####&&&'&####((#####((((",
  "(((#######%#&&'#####(((((####&&'#####((#####((((",
  "((((####(###%&'%#''##((((####&&'#####((#####((((",
  "((((####((#$#&'&#''##(((#####%&'%#####(##'#(((((",
  "(((((##(#####$&'&#'###(#####(#&'&#'######'#(((((",
  "((((((###!####&''#'###(##'##(#$&'(#####'''((((((",
  "(((((((#####$#%''&'###(#''#####&'(#####''(((((((",
  "(((((((((###%'$''&'###(#''##''#%((&###((((((((((",
  "(((((((((###&'%''&&###(#''##''%$((&(((((((((((((",
  "(((((((((###&#&'''&########'''&%((((((((((((((((",
  "(((((((((#$#&#&'''&&######&'''#&((((((((((((((((",
  "(((((((((#$#&#&&&((($#####''&&#&((((((((((((((((",
  "((((((((((((##&&((((((###(('&&#(((((((((((((((((",
  "((((((((((((((((((((((((((((((((((((((((((((((((",
  "(#((((((((((((((((((((((((((((((((((((((((((((((",
  "((((((((((((((((((((((((((((((((((((((((((((((((",
  "((((((((((((((((((((((((((((((((((((((((((((((((",
  "((((((((((((((((((((((((((((((((((((((((((((((((",
  "((((((((((((((((((((((((((((((((((((((((((((((((",
  "((((((((((((##((((((((((((((((((((((((((((((((((",
};
