/* XPM */
static const char *chopper_boy_0e[] = {
  /* width height ncolors chars_per_pixel */
  "28 40 47 1 0 0",
  /* colors */
  "! c #000000",
  "# c #cc0066",
  "$ c #ff0066",
  "% c #333366",
  "& c #008080",
  "' c #993366",
  "( c #a6caf0",
  ") c #336666",
  "* c #3366ff",
  "+ c #996666",
  ", c #339966",
  "- c #669966",
  ". c #3399ff",
  "/ c #555555",
  "0 c #999966",
  "1 c #6699ff",
  "2 c #cc9966",
  "3 c #33cc66",
  "4 c #ff5050",
  "5 c #99cc66",
  "6 c #cccc66",
  "7 c #ccff66",
  "8 c #660000",
  "9 c #990000",
  ": c #cc0000",
  "; c #333300",
  "< c #ffff66",
  "= c #cc3300",
  "> c #336600",
  "Q c #666600",
  "@ c #336699",
  "A c #cbcbcb",
  "B c #669900",
  "C c #669999",
  "D c #999900",
  "E c #00cc99",
  "F c #a0a0a4",
  "G c #ff0000",
  "H c #cccc99",
  "I c #ffcc99",
  "J c #00ff99",
  "K c #ccff00",
  "L c #33ff99",
  "M c None",
  "N c #ffffff",
  "O c #ccff99",
  "P c #666699",
  /* pixels */
  "MMMMMMMMMMMMMMMMMMMMMMMMMMMM",
  "MMMMMMMMMMJ,>MMM&JJJJJ&MMMMM",
  "M&JJJJJJJ&J,>&J3>,,,,,,MMMMM",
  "M,,,,,>)%)J)>))>>)&,&,MMMMMM",
  "MM&)&,>MMML,>MMMMMMMMMMMMMMM",
  "MMMMMMMMML))MMMMMMMMMMMMMMMM",
  "MMMMMMMML,<<M77MDM<MMMMMMMMM",
  "MMMMMMMMJ,MB<<<6M60<MMMMMMMM",
  "MMMMMMMMJ,M2<0<K<6<<MMMMMMMM",
  "MMMMMMMMJ,M7<6K<5D<MMMMMMMMM",
  "MMMMMMMMJ,M%!%5%))%FMMMMMMMM",
  "MMMMQ;&MJ,M%))%NIAF)MMMMMMMM",
  "MMMMQ;;&J)M!%!%PFFF(MMMMMMMM",
  "MMMQ;;&3E&%;QP!%%!%!MMMMMMMM",
  "MMMQ;M;&&&%;Q66%!!!%MMMMMMMM",
  "MMM;;M;Q)&&;F00FBB6FMMMMMMMM",
  "MMM;;M!J&&&;//F6F6+MM/H7MMMM",
  "MMMMMMJ&)&&;!//F6O/MM67H7MMM",
  "MMMMMM&&&&%%&&!/FQQMM7HHHMMM",
  "MMMMMM&&&&%!8:'888=MM/HHOMMM",
  "MMMMMMM&&&%84444448=MM-66MMM",
  "MMMMMMM&&&8:::44=4==-BH67MMM",
  "MMMMMMM&&&8:G:::G::=77HH6MMM",
  "MMMMMMM&&&8$#:#G#:8QBHHH-MMM",
  "MMMMMMM&&&8:#:8888QBBQQ-MMMM",
  "MMMMMMM&&&&8G8%%:G8!9MMMMMMM",
  "MMMMMMM&&&%!:%%:%&%%/MMMMMMM",
  "MMMMMMM&&&&%%%%%&1@@MMMMMMMM",
  "MMMMMMMM&&%%%****.C!MMMMMMMM",
  "MMMMMMMMMM%!@**%%%700MMMMMMM",
  "MMMMMMMMMMM%!%%!!0H670MMMMMM",
  "MMMMMMMMMM;/0!%)06666/MMMMMM",
  "MMMMMMMMM;/00&.IIII//MMMMMMM",
  "MMMMMMMM>I00*..(**%**MMMMMMM",
  "MMMMMMM&..II(%**(%.((*MMMMMM",
  "MMMMMM*..(**I&%.*%*..*MMMMMM",
  "MMMMMM(%**(%.I(%%&!@%%MMMMMM",
  "MMMMMMI&%.%.*..I((II(*MMMMMM",
  "MMMMM((I(%&&!@@%MMMMMMMMMMMM",
  "MMMMMMMMI((I(I(*MMMMMMMMMMMM",
};
