/* XPM */
static const char *chopper_boy_21d[] = {
  /* width height ncolors chars_per_pixel */
  "26 40 59 1 0 0",
  /* colors */
  "! c #000000",
  "# c #990066",
  "$ c #cc0066",
  "% c #000080",
  "& c #333366",
  "' c #3333ff",
  "( c #008080",
  ") c #993366",
  "* c #cc3366",
  "+ c #a6caf0",
  ", c #336666",
  "- c #3366ff",
  ". c #996666",
  "/ c #339966",
  "0 c #669966",
  "1 c #3399ff",
  "2 c #555555",
  "3 c #999966",
  "4 c #6699ff",
  "5 c #4d4d4d",
  "6 c #cc9966",
  "7 c #9999ff",
  "8 c #ff9966",
  "9 c #33cc66",
  ": c #ff5050",
  "; c #cccc66",
  "< c #330000",
  "= c #ccff66",
  "> c #660000",
  "^ c #990000",
  "@ c #cc0000",
  "A c #333300",
  "B c #663300",
  "C c #ffff66",
  "D c #993300",
  "E c #333399",
  "F c #cc3300",
  "G c #ff3300",
  "H c #336600",
  "I c #666600",
  "J c #336699",
  "K c #cbcbcb",
  "L c #669900",
  "M c #999900",
  "N c #669999",
  "O c #cc9999",
  "P c #00cc99",
  "Q c #a0a0a4",
  "R c #ff0000",
  "S c #cccc00",
  "T c #cccc99",
  "U c #ffcc99",
  "V c #00ff99",
  "W c #ccff00",
  "X c None",
  "Y c #ffffff",
  "Z c #ccff99",
  "[ c #666699",
  "] c #330066",
  /* pixels */
  "XXXXXXXXXXV/(PXXXXXXXXXXXX",
  "XXXXXXXXXXV(VVVXXXXXXXXXXX",
  "XXXXXXXX/VVVH&XXXXXXXXXXXX",
  "XXXXXXXXXXV/HXXXXXXXXXXXXX",
  "XXXXXXXXXX(P(XXXXXXXXXXXXX",
  "XXXXXXXXXXX,HXXXXXXXXXXXXX",
  "XXXXXXXXXXX(CCXXXXXXXXXXXX",
  "XXXXXXXXXCXCCXWXXXXXXXXXXX",
  "XXXIXXXXXLC3C;XC(XXAA2IXXX",
  "X=;=A(XX36CQC==;(;P(P;=;XX",
  "=;T=;9P(,(&&&,,&(/(/;=;=IX",
  "I==;XX((A!OQYUKQ,VVX;=AATX",
  ";AA=X(,(&5KQ2QQQ+(,VX2AA=X",
  "ZAA2XPV(&&&&!!&&N(,(XX.=;I",
  ";;0XX,,,N!!&&J!!N,((XXXLT=",
  "=;LXX((!<J!&3[Q[<(@D^<XI=;",
  ";TL*^D(>!AAZ.S=AA$@^C=;LZ;",
  "=LI=**5^>!.S22S2<^@);;0LIL",
  "I0;;FR:@>&AM==3<]B^*DL2L2X",
  "XIL0*@:)>&<2222<^]>@>(XXXX",
  "XXX^R^^><&^AQQ>^*@A&V(XXXX",
  "XXX2^>5,&@>#^^^$@&(,,XXXXX",
  "XXXXX,((>@R8^RRR@>((VXXXXX",
  "XXXXX(0!5)5,&&&5)5!0(XXXXX",
  "XXXXXX,2,,(2/00(,,2,XXXXXX",
  "XXXXXXX>^@@@G)RR@@&XXXXXXX",
  "XXXXXX>^@&&@@G)&E&EXXXXXXX",
  "XXXXXXX&E14&&E&&E1E&XXXXXX",
  "XXXXX&E'47----&--74'E&XXXX",
  "XXXXX&E'47---E---1N%!,XXXX",
  "XXXXX,LL'1--&!&E-1LLLEXXXX",
  "XXXXX2;;L1-E!X!E-EL;;2XXXX",
  "XXXXX2;;L&--XXX&!QI;==2XXX",
  "XXXXX2..2A!-XXX-&22.;22XXX",
  "XXXXX22=22&&KXXK&+2222-+XX",
  "XXXX-+222&+&UXXU1&++&&&-XX",
  "XXXX-+1&&&&1KXXK1&1&1++-+X",
  "XXXX-1++1%&UXXXXU1%111+-+X",
  "XXXXK&111&KXXXXXXU-&%&&UX+",
  "XXXXXU&%&UXXXXXXXXUUKUKXXX",
};
