/* XPM */
static char *chopper_boy_2c[] = {
  /* width height ncolors chars_per_pixel */
  "24 40 41 1 0 0",
  /* colors */
  "! c #000000",
  "# c #cc0066",
  "$ c #333366",
  "% c #008080",
  "& c #993366",
  "' c #cc3366",
  "( c #a6caf0",
  ") c #336666",
  "* c #3366ff",
  "+ c #339966",
  ", c #669966",
  "- c #3399ff",
  ". c #555555",
  "/ c #999966",
  "0 c #6699ff",
  "1 c #33cc66",
  "2 c #ff5050",
  "3 c #cccc66",
  "4 c #ccff66",
  "5 c #660000",
  "6 c #990000",
  "7 c #cc0000",
  "8 c #333300",
  "9 c #ffff66",
  ": c #cc3300",
  "; c #336600",
  "< c #666600",
  "= c #336699",
  "> c #669900",
  "? c #669999",
  "@ c #00cc99",
  "A c #a0a0a4",
  "B c #ff0000",
  "C c #cccc99",
  "D c #ffcc99",
  "E c #00ff99",
  "F c #ccff00",
  "G c #33ff99",
  "H c None",
  "I c #ccff99",
  "J c #666699",
  /* pixels */
  "H%EEEEE%HHHE+;HHHHHHHHHH",
  "H++++++;1E%E+;%EEEEEEEE%",
  "HH+%+%);;))E);)$);++++++",
  "HHHHHHHHHHHE+;HHH;+%+)%H",
  "HHHHHHHHHHG))HHHHHHHHHHH",
  "HHHHHHHHHG+)HHHHHHHHHHHH",
  "HHHHHHHHHE+HHHHHHHHHHHHH",
  "HHHHHHHHHE+HHH3HHHHHHHHH",
  "HHHHHHHHHE+H99HF9HH9HHHH",
  "HHHHHHHHHE+H/>9/9343HHHH",
  "HHHHHHHHHE+H@+@@@@>HHHHH",
  "HHHHHHHHHE@++%%%+%8C4HHH",
  "HHHHHHHH1@+%!$!$J8>4C4.H",
  "HHHHHHHH%++$8<J!$$4CCCC.",
  "HHHHHHH%%+%%8<33$!.C4IC8",
  "HHHHHHH%E%%%8A//A>>.43C8",
  "HHHHHHHE%)%%8..A3A3A.44H",
  "HHHHHHH%%%%$8!..A3IA>34>",
  "HHHHHHH%%%%$$$$275'<>C4>",
  "HHHHHHHH%%%$!&B222''4CC>",
  "HHHHHHHH%%%$522B''2CCC<H",
  "HHHHHHHH%%%52222B:2>><HH",
  "HHHHHHHH%%%577B27''<<HHH",
  "HHHHHHHH%%%5&22&5566HHHH",
  "HHHHHHHH%%%5&#$$%%,5HHHH",
  "HHHHHHHH%%%%5$$%$7B#6HHH",
  "HHHHHHHH%%%$!%$$7$$%$6HH",
  "HHHHHHHHH%%%$$$$$%0==HHH",
  "HHHHHHHHHHH$$$****-?*$HH",
  "HHHHHHHHHHH$!=******$/HH",
  "HHHHHHHHHHHH$!$$***C34/H",
  "HHHHHHHHHHH8./!$$/3333.H",
  "HHHHHHHHHH8.//%--DDD..HH",
  "HHHHHHHHH;D/3//8!%**HHHH",
  "HHHHHHHH%--DDD!!%*(**HHH",
  "HHHHHHH*--(*$$**$--$*(HH",
  "HHHHHHH($**($((**$$-(*HH",
  "HHHHHHHD%$-$-*--*D%--*HH",
  "HHHHHHHHD($%%!==$(D$%*HH",
  "HHHHHHHHHD((D(D(*H(D(-HH",
};
