/* XPM */
static const char *chopper_boy_0b[] = {
  /* width height ncolors chars_per_pixel */
  "28 40 45 1 0 0",
  /* colors */
  "! c #000000",
  "# c #cc0066",
  "$ c #ff0066",
  "% c #333366",
  "& c #008080",
  "' c #993366",
  "( c #cc3366",
  ") c #a6caf0",
  "* c #336666",
  "+ c #3366ff",
  ", c #996666",
  "- c #339966",
  ". c #3399ff",
  "/ c #555555",
  "0 c #999966",
  "1 c #cc9966",
  "2 c #ff9966",
  "3 c #33cc66",
  "4 c #ff5050",
  "5 c #99cc66",
  "6 c #cccc66",
  "7 c #ccff66",
  "8 c #660000",
  "9 c #990000",
  ": c #cc0000",
  "; c #333300",
  "< c #ffff66",
  "= c #cc3300",
  "> c #336600",
  "? c #666600",
  "@ c #336699",
  "A c #cbcbcb",
  "B c #669900",
  "C c #999900",
  "D c #00cc99",
  "E c #a0a0a4",
  "F c #ff0000",
  "G c #cccc99",
  "H c #ffcc99",
  "I c #00ff99",
  "J c #ccff00",
  "K c None",
  "L c #ffffff",
  "M c #ccff99",
  "N c #666699",
  /* pixels */
  "KKKKKKKKKKKKKKKKKKKKKKKKKKKK",
  "KKKKKKKKKKI->KKK&IIIII&KKKKK",
  "K&IIIIIII&I->&I3>------KKKKK",
  "K----->*%*I*>**>>*&-&-KKKKKK",
  "KK&*&->KKKI->KKKKKKKKKKKKKKK",
  "KKKKKKKKKI**KKKKKKKKKKKKKKKK",
  "KKKKKKKKI-<<K77KCK<KKKKKKKKK",
  "KKKKKKKKI-KB<<<6K60<KKKKKKKK",
  "KKKKKKKKI-K1<0<J<6<<KKKKKKKK",
  "KKKKKKKKI-K7<6J<5C<KKKKKKKKK",
  "KKKKKKKKI-K%!%%5**%EKKKKKKKK",
  "KKKK?;&KI-K%**%LHAE*KKKKKKKK",
  "KKKK?;;&I*K!%!%NEEE)KKKKKKKK",
  "KKK?;;&3D&%;?N!%%!%!KKKKKKKK",
  "KKK?;K;&&&%;?66%!!!%KKKKKKKK",
  "KKK;;K;?*&&;E00EBB6EKKKKKKKK",
  "KKK;;K!I&&&;//E6E6,KKKKKKKKK",
  "KKKKKKI&*&&?;//E6M/KKKKKKKKK",
  "KKKKKK&&&&%84:!/E??KKKKKKKKK",
  "KKKKKK&&&&!#44(889KK67KKKKKK",
  "KKKKKKK&&&#F44F':4$67A7KKKKK",
  "KKKKKKK&&&:F444::4$7A6AKKKKK",
  "KKKKKKK&&&8#F==8:2$/6ACKKKKK",
  "KKKKKKK&&%8::44::896C//KKKKK",
  "KKKKKKK&&%66#='=86?//KKKKKKK",
  "KKKKKKK&&?6667BB676KKKKKKKKK",
  "KKKKKKK&&?B66666766%KKKKKKKK",
  "KKKKKKK&&&?;;B6666?%KKKKKKKK",
  "KKKKKKKK&&%%%?;;?;%%KKKKKKKK",
  "KKKKKKKKKK%!@++%%!700KKKKKKK",
  "KKKKKKKKKKK%!%%!!0G670KKKKKK",
  "KKKKKKKKKK;/0!%*06666/KKKKKK",
  "KKKKKKKKK;/00&..HHH//KKKKKKK",
  "KKKKKKKK>H0600;!&++++KKKKKKK",
  "KKKKKKK&..HHH!!&+.%))+KKKKKK",
  "KKKKKK+..)+%%++%.%.+..KKKKKK",
  "KKKKKK)%++)%))++%&&!%@KKKKKK",
  "KKKKKKH&%.%.+..+H)HH))KKKKKK",
  "KKKKKKKH)%&&!@@%)KKKKKKKKKKK",
  "KKKKKKKKH))H)H)+KKKKKKKKKKKK",
};
