/* XPM */
static char *chopper_boy_2b[] = {
  /* width height ncolors chars_per_pixel */
  "24 40 42 1 0 0",
  /* colors */
  "! c #000000",
  "# c #cc0066",
  "$ c #333366",
  "% c #008080",
  "& c #993366",
  "' c #cc3366",
  "( c #a6caf0",
  ") c #336666",
  "* c #3366ff",
  "+ c #339966",
  ", c #669966",
  "- c #3399ff",
  ". c #555555",
  "/ c #999966",
  "0 c #6699ff",
  "1 c #cc9966",
  "2 c #33cc66",
  "3 c #ff5050",
  "4 c #cccc66",
  "5 c #ccff66",
  "6 c #660000",
  "7 c #990000",
  "8 c #cc0000",
  "9 c #333300",
  ": c #ffff66",
  "; c #cc3300",
  "< c #336600",
  "= c #666600",
  "> c #336699",
  "? c #669900",
  "@ c #669999",
  "A c #00cc99",
  "B c #a0a0a4",
  "C c #ff0000",
  "D c #cccc99",
  "E c #ffcc99",
  "F c #00ff99",
  "G c #ccff00",
  "H c #33ff99",
  "I c None",
  "J c #ccff99",
  "K c #666699",
  /* pixels */
  "IIIIIIIIIIIF+%AIIIIIIIII",
  "IIIIIIIIIIIF%FFFIIIIIIII",
  "IIIIIIIII+FFF<$IIIIIIIII",
  "IIIIIIIIIIIF+<IIIIIIIIII",
  "IIIIIIIIIIF))IIIIIIIIIII",
  "IIIIIIIIIH+)IIIIIIIIIIII",
  "IIIIIIIIIF+IIIII::IIIIII",
  "IIIIIIIIIF+II:I::IGIIIII",
  "IIIIIIIIIF+II?:/:4I:IIII",
  "IIIIIIIIIF+I/1:B:554IIII",
  "IIIIIIIIIF+IA+AAAA?IIIII",
  "IIIIIIIIIFA++%%%+%9D5III",
  "IIIIIIII2A+%!$!$K9?5D5.I",
  "IIIIIIII%++$9=K!$$5DDDD.",
  "IIIIIII%%+%%9=44$!.D5JD9",
  "IIIIIII%F%%%9B//B??.54D9",
  "IIIIIIIF%)%%9..B4B4B.55I",
  "IIIIIII%%%%$9!..B4JB?45?",
  "IIIIIII%%%%$$$$366B=?D5?",
  "IIIIIIII%%%$!&C&33?D5DD?",
  "IIIIIIII%%%$6&8C''55DD=I",
  "IIIIIIII%%%63883C;'??=II",
  "IIIIIIII%%%683838''==III",
  "IIIIIIII%%%6&3366676IIII",
  "IIIIIIII%%%6&#$$%%,6IIII",
  "IIIIIIII%%%%6$$%$8C#!III",
  "IIIIIIII%%%$!%$$8$$%$III",
  "IIIIIIIII%%%$$$$$%0@!III",
  "IIIIIIIIIII$$$****@@/.II",
  "IIIIIIIIIII$!>*$**@@4/II",
  "IIIIIIIIIIII$!!$)./D45/I",
  "IIIIIIIIIII9./!$$/4444.I",
  "IIIIIIIIII9.//%--EEE..II",
  "IIIIIIIII<E/4//9!%**IIII",
  "IIIIIIII%--EEE!!%*(**III",
  "IIIIIII*--(*$$**$--$*I(I",
  "IIIIIII($**($((**$$-(*II",
  "IIIIIIIE%$-$-*--*E%--*II",
  "IIIIIIIIE($%%!>>$(E$%*II",
  "IIIIIIIIIE((E(E(*I(E(-II",
};
