/* XPM */
static char *chopper_boy_4d[] = {
  /* width height ncolors chars_per_pixel */
  "26 40 60 1 0 0",
  /* colors */
  "! c #000000",
  "# c #990066",
  "$ c #cc0066",
  "% c #000080",
  "& c #333366",
  "' c #3333ff",
  "( c #008080",
  ") c #993366",
  "* c #cc3366",
  "+ c #a6caf0",
  ", c #336666",
  "- c #3366ff",
  ". c #996666",
  "/ c #339966",
  "0 c #669966",
  "1 c #3399ff",
  "2 c #555555",
  "3 c #999966",
  "4 c #6699ff",
  "5 c #4d4d4d",
  "6 c #cc9966",
  "7 c #9999ff",
  "8 c #ff9966",
  "9 c #33cc66",
  ": c #ff5050",
  "; c #99cc66",
  "< c #cccc66",
  "= c #330000",
  "> c #ccff66",
  "? c #660000",
  "@ c #990000",
  "A c #cc0000",
  "B c #333300",
  "C c #663300",
  "D c #ffff66",
  "E c #993300",
  "F c #333399",
  "G c #cc3300",
  "H c #ff3300",
  "I c #336600",
  "J c #666600",
  "K c #336699",
  "L c #cbcbcb",
  "M c #669900",
  "N c #669999",
  "O c #999900",
  "P c #cc9999",
  "Q c #00cc99",
  "R c #a0a0a4",
  "S c #ff0000",
  "T c #cccc00",
  "U c #cccc99",
  "V c #ffcc99",
  "W c #00ff99",
  "X c #ccff00",
  "Y c None",
  "Z c #ffffff",
  "[ c #ccff99",
  "] c #666699",
  "^ c #330066",
  /* pixels */
  "YYYYYYYYYYW/(QYYYYYYYYYYYY",
  "YYYYYYYYYYW(WWWYYYYYYYYYYY",
  "YYYYYYYY/WWWI&YYYYYYYYYYYY",
  "YYYYYYYYYYW/IYYYYYYYYYYYYY",
  "YYYYYYYYYY(Q(YYYYYYYYYYYYY",
  "YYYYYYYYYYY,IYYYYYYYYYYYYY",
  "YYYYYYYYYYY(DDYYYYYYYYYYYY",
  "YYYYYYYYYDYDDYXYYYYYYYYYYY",
  "YYYJYYYYYMD3D<YD(YYBB2JYYY",
  "Y><>B(YY36DRD>><(<Q(Q<><YY",
  "><U><9Q(/>D<>;;OO/(/<><>JY",
  "J>><YY((,(&&&,,&(WWY<>BBUY",
  "<BB>Y(,(B!PRZVLR,(,WY2BB>Y",
  "[BB2YQW(&5LR2RRR+(,(YY.><J",
  "<<0YY,,,&&&&!!&&N,((YYYMU>",
  "><MYY((!N!!&&K!!N(AE@=YJ><",
  "<UM*@E(?=K!&3]R]=$A@D><M[<",
  ">MJ>**5@!BB[.T>BB@A)<<0MJM",
  "J0<<GS:A?!.R22R2=C@*EM2M2Y",
  "YJM0*A:)?&BO>>2=@^?A?(YYYY",
  "YYY@S@@?=&@B>U?@*AB&W(YYYY",
  "YYY2@?5,&A$#@@$AA&(,,YYYYY",
  "YYYYY,((?AS8@SSSA?((WYYYYY",
  "YYYYY(0!5)5,&&&5)5!0(YYYYY",
  "YYYYYY,2,,(2/00(,,2,YYYYYY",
  "YYYYYYY?@AAAH)SSAA&YYYYYYY",
  "YYYYYY?@A&&AAH)&F&FYYYYYYY",
  "YYYYYYY&F14&&F&&F1F&YYYYYY",
  "YYYYY&F'47----&--74'F&YYYY",
  "YYYYY&F'47---F---1N%!,YYYY",
  "YYYYY,MM'1--&!&F-1MMMFYYYY",
  "YYYYY2<<M1-F!Y!F-FM<<2YYYY",
  "YYYYY2<<M&--YYY&!RJ<>>2YYY",
  "YYYYY2..2B!-YYY-&22.<22YYY",
  "YYYYY22>22&&LYYL&+2222-+YY",
  "YYYY-+222&+&VYYV1&++&&&-YY",
  "YYYY-+1&&&&1LYYL1&1&1++-+Y",
  "YYYY-1++1%&VYYYYV1%111+-+Y",
  "YYYYL&111&LYYYYYYV-&%&&VY+",
  "YYYYYV&%&VYYYYYYYYVVLVLYYY",
};
