/* XPM */
static char *chopper_boy_0d[] = {
  /* width height ncolors chars_per_pixel */
  "28 40 42 1 0 0",
  /* colors */
  "! c #000000",
  "# c #cc0066",
  "$ c #333366",
  "% c #008080",
  "& c #993366",
  "' c #cc3366",
  "( c #a6caf0",
  ") c #336666",
  "* c #3366ff",
  "+ c #996666",
  ", c #339966",
  "- c #3399ff",
  ". c #555555",
  "/ c #999966",
  "0 c #6699ff",
  "1 c #33cc66",
  "2 c #ff5050",
  "3 c #99cc66",
  "4 c #cccc66",
  "5 c #ccff66",
  "6 c #660000",
  "7 c #990000",
  "8 c #cc0000",
  "9 c #333300",
  ": c #ffff66",
  "; c #cc3300",
  "< c #336600",
  "= c #666600",
  "> c #336699",
  "? c #cbcbcb",
  "@ c #669900",
  "A c #999900",
  "B c #00cc99",
  "C c #a0a0a4",
  "D c #ff0000",
  "E c #ffcc99",
  "F c #00ff99",
  "G c #ccff00",
  "H c None",
  "I c #ffffff",
  "J c #ccff99",
  "K c #666699",
  /* pixels */
  "HHHHHHHHHHHHHHHHHHHHHHHHHHHH",
  "HHHHHHHHHHF,<HHH%FFFFF%HHHHH",
  "H%FFFFFFF%F,<%F1<,,,,,,HHHHH",
  "H,,,,,<)$)F)<))<<)%,%,HHHHHH",
  "HH%)%,<HHHF,<HHHHHHHHHHHHHHH",
  "HHHHHHHHHF))HHHHHHHHHHHHHHHH",
  "HHHHHHHHF,)HH4HH:HHHHHHHHHHH",
  "HHHHHHHHF,H::HG://:HHHHHHHHH",
  "HHHHHHHHF,//@:/:45::HHHHHHHH",
  "HHHHHHHHF,HA5:4:33AHHHHHHHHH",
  "HHHHHHHHF,H$!$$$)3$CHHHHHHHH",
  "HHHH=9%HF,H$))$IE?C)HHHHHHHH",
  "HHHH=99%F)H!$!$KCCC(HHHHHHHH",
  "HHH=99%1B%$9=K!$$!$!HHHHHHHH",
  "HHH=9H9%%%$9=44$!!!$HHHHHHHH",
  "HHH99H9=)%%9C//C@@4CHHHHHHHH",
  "HHH99H!F%%%9..C4C4+HHHHHHHHH",
  "HHHHHHF%)%%=$..C4J.HHHHHHHHH",
  "HHHHHH%%%%$$#2!.C==HHHHHHHHH",
  "HHHHHH%%%%!6#22'6&HHHHHHHHHH",
  "HHHHHHH%%%6#D22D&7745HHHHHHH",
  "HHHHHHH%%%68D222!#64?5HHHHHH",
  "HHHHHHH%%%66#D;;6%#&4?HHHHHH",
  "HHHHHHH%%%6688266!99=AHHHHHH",
  "HHHHHHH%%%$6##;&;954!=HHHHHH",
  "HHHHHHH%%%$66;!!=5444=HHHHHH",
  "HHHHHHH%%%$=44455444@9HHHHHH",
  "HHHHHHHH%%%=444444@=9HHHHHHH",
  "HHHHHHHE(HH!=44=999=HHHHHHHH",
  "HHH(HH?$$%H$***0-**HHHHHHHHH",
  "HHHH(($--$C$$**-0**$HHHHHHHH",
  "HHHH($-((*E$$***0!!$HHHHHHHH",
  "HHH($-(**E4.$!$!!$.HHHHHHHHH",
  "HH($-$**EE@4$*!<)4/.HHHHHHHH",
  "HHE$**$*.E@.9HH.EEEEHHHHHHHH",
  "HHE***$H..9.HHCEE***$**HHHHH",
  "HHH-*-HHHHHHHH$**-($(((*HHHH",
  "HHHHHHHHHHHHHH%-(*-*--*$HHHH",
  "HHHHHHHHHHHHHH%$$$$!>>$$HHHH",
  "HHHHHHHHHHHHHH*?(((EEE(*HHHH",
};
