/* XPM */
static const char *chopper_boy_2[] = {
  /* width height ncolors chars_per_pixel */
  "24 40 41 1 0 0",
  /* colors */
  "! c #000000",
  "# c #cc0066",
  "$ c #333366",
  "% c #008080",
  "& c #993366",
  "' c #cc3366",
  "( c #a6caf0",
  ") c #336666",
  "* c #3366ff",
  "+ c #339966",
  ", c #669966",
  "- c #3399ff",
  ". c #555555",
  "/ c #999966",
  "0 c #6699ff",
  "1 c #cc9966",
  "2 c #33cc66",
  "3 c #ff5050",
  "4 c #cccc66",
  "5 c #ccff66",
  "6 c #660000",
  "7 c #990000",
  "8 c #cc0000",
  "9 c #333300",
  ": c #ffff66",
  "; c #cc3300",
  "< c #336600",
  "= c #666600",
  "> c #336699",
  "K c #669900",
  "@ c #669999",
  "A c #00cc99",
  "B c #a0a0a4",
  "C c #ff0000",
  "D c #cccc99",
  "E c #ffcc99",
  "F c #00ff99",
  "G c #33ff99",
  "H c None",
  "I c #ccff99",
  "J c #666699",
  /* pixels */
  "HHHHHHHHHHHF+<HHH%FFFFF%",
  "HH%FFFFFFF%F+<%F2<++++++",
  "HH+++++<)$)F)<))<<)%+%+H",
  "HHH%)%+<HHHG+<HHHHHHHHHH",
  "HHHHHHHHHHG))HHHHHHHHHHH",
  "HHHHHHHHHG+)HHHHHHHHHHHH",
  "HHHHHHHHHF+HHH:HH:HHHHHH",
  "HHHHHHHHHF+HH::4:HH:HHHH",
  "HHHHHHHHHF+HHK:/:4K:HHHH",
  "HHHHHHHHHF+H/1:::554HHHH",
  "HHHHHHHHHF+HA+AAAAKHHHHH",
  "HHHHHHHHHFA++%%%+%9D5HHH",
  "HHHHHHHH2A+%!$!$J9K5D5.H",
  "HHHHHHHH%++$9=J!$$5DDDD.",
  "HHHHHHH%%+%%9=44$!.D5ID9",
  "HHHHHHH%F%%%9B//BKK.54D9",
  "HHHHHHHF%)%%9..B4B4B.55H",
  "HHHHHHH%%%%$9!..B4IBK45K",
  "HHHHHHH%%%%$$$$368''KD5K",
  "HHHHHHHH%%%$!&C333'D5DDK",
  "HHHHHHHH%%%$638C''35DD=H",
  "HHHHHHHH%%%63833C;KKK=HH",
  "HHHHHHHH%%%683838'===HHH",
  "HHHHHHHH%%%6&33666777HHH",
  "HHHHHHHH%%%6&#$$%%,6HHHH",
  "HHHHHHHH%%%%6$$%$8C#!HHH",
  "HHHHHHHH%%%$!%$$8$$%$HHH",
  "HHHHHHHHH%%%$$$$$%0>>HHH",
  "HHHHHHHHHHH$$$****-@*HHH",
  "HHHHHHHHHHH$!>*****@*/HH",
  "HHHHHHHHHHHH$!$$****@5/H",
  "HHHHHHHHHHH9./!$$/4444.H",
  "HHHHHHHHHH9.//%--EEE..HH",
  "HHHHHHHHH<E/4//9!%**HHHH",
  "HHHHHHHH%--EEE!!%*(**HHH",
  "HHHHHHH*--(*$$**$--$*(HH",
  "HHHHHHH($**($((**$$-(*(H",
  "HHHHHHHE%$-$-*--*E%--*HH",
  "HHHHHHHHE($%%!>>$(E$%*HH",
  "HHHHHHHHHE((E(E(*H(E(-HH",
};
