/* XPM */
static char *chopper_boy_21[] = {
  /* width height ncolors chars_per_pixel */
  "26 40 57 1 0 0",
  /* colors */
  "! c #000000",
  "# c #990066",
  "$ c #cc0066",
  "% c #000080",
  "& c #333366",
  "' c #3333ff",
  "( c #008080",
  ") c #993366",
  "* c #cc3366",
  "+ c #a6caf0",
  ", c #336666",
  "- c #3366ff",
  ". c #996666",
  "/ c #339966",
  "0 c #669966",
  "1 c #3399ff",
  "2 c #999966",
  "3 c #555555",
  "4 c #6699ff",
  "5 c #4d4d4d",
  "6 c #9999ff",
  "7 c #33cc66",
  "8 c #ff5050",
  "9 c #cccc66",
  ": c #330000",
  "; c #ccff66",
  "< c #660000",
  "= c #990000",
  "> c #cc0000",
  "? c #333300",
  "@ c #663300",
  "A c #ffff66",
  "B c #993300",
  "C c #333399",
  "D c #cc3300",
  "E c #ff3300",
  "F c #336600",
  "G c #666600",
  "H c #336699",
  "I c #cbcbcb",
  "J c #669900",
  "K c #999900",
  "L c #669999",
  "M c #cc9999",
  "N c #00cc99",
  "O c #a0a0a4",
  "P c #ff0000",
  "Q c #cccc00",
  "R c #cccc99",
  "S c #ffcc99",
  "T c #00ff99",
  "U c #ccff00",
  "V c None",
  "W c #ffffff",
  "X c #ccff99",
  "Y c #666699",
  "Z c #330066",
  /* pixels */
  "VVVVVVVVVVVT/FVVV(TTTTT(VV",
  "V(TTTTTTTT(T/F(T7F//////VV",
  "V//////F,&,T,F,,FF,(/(/VVV",
  "VV(,/(/FVVVT/FVVVVVVVVVVVV",
  "VVVVVVVVVVV(N(VVVVVVVVVVVV",
  "VVVVVVVVVVVV,FVVVVVVVVVVVV",
  "VVVVVVVVVVVV((VVVVVVVVVVVV",
  "VVVVVVVVVVV9((VVVVVVVVVVVV",
  "VVVGVVVVVAAVUAVVAVV??3GVVV",
  "V;9;?(VVV2JA2A9;9VN(N9;9VV",
  ";9R;97N(,(&&&,9&(/(/9;9;GV",
  "G;;9VV((?!MOWSIO,TTV9;??RV",
  "9??;V(,(&5IO3OOO+(,TV3??;V",
  "X??3VNT(&&&&!!&&L(((VV.;9G",
  "990VVNT(L!!&&H!!L=B(VVVJR;",
  ";9JVV:(/:H!&2YOY:**5=:VG;9",
  "9RJ:B=$>!??X.Q;??$B=A;9JX9",
  ";JG;**5=<!.Q33Q3:=>)990JGJ",
  "G099DP8><&?K;;2:Z@=*BJ3J3V",
  "VGJ0*>8)<&:3333:=Z<><(VVVV",
  "VVV=P==<:&=?OO<=*>?&T(VVVV",
  "VVV3=<5,&><#===$>&(,,VVVVV",
  "VVVVV,((<>P8E==PP<((TVVVVV",
  "VVVVV(0!5)5,&&&5)5!0(VVVVV",
  "VVVVVV,3,,(3/00(,,3,VVVVVV",
  "VVVVVVV<=>>>E)P>>=<VVVVVVV",
  "VVVVVVVV&&&>>E)P>>&VVVVVVV",
  "VVVVVVV&C141&C&&C1CC&VVVVV",
  "VVVVV&C'46----&--644'CVVVV",
  "VVVVV,!%11---C---1L%!&VVVV",
  "VVVVVCJ%L1-C&!&C-CCJJ,VVVV",
  "VVVVV399J1-C!V!C--O993VVVV",
  "VVVVV399J&&-VVV&!3G9;;3VVV",
  "VVVVV3..3?!-VVV-&33.933VVV",
  "VVVVV33;33&&IVVI&+3333-+VV",
  "VVVV-+333&+&SVVS1&++&&&-VV",
  "VVVV-+1&&&&1IVVI1&1&1++-+V",
  "VVVV-1++1%&SVVVVS1%111+-+V",
  "VVVVI&111&IVVVVVVS-&%&&S+V",
  "VVVVVS&%&SVVVVVVVVSSISIVVV",
};
