/* XPM */
static char *chopper_boy_4c[] = {
  /* width height ncolors chars_per_pixel */
  "26 40 59 1 0 0",
  /* colors */
  "! c #000000",
  "# c #990066",
  "$ c #cc0066",
  "% c #000080",
  "& c #333366",
  "' c #3333ff",
  "( c #008080",
  ") c #993366",
  "* c #cc3366",
  "+ c #a6caf0",
  ", c #336666",
  "- c #3366ff",
  ". c #996666",
  "/ c #339966",
  "0 c #669966",
  "1 c #3399ff",
  "2 c #555555",
  "3 c #999966",
  "4 c #6699ff",
  "5 c #4d4d4d",
  "6 c #cc9966",
  "7 c #9999ff",
  "8 c #ff9966",
  "9 c #33cc66",
  ": c #ff5050",
  "; c #99cc66",
  "< c #cccc66",
  "= c #330000",
  "> c #ccff66",
  "? c #660000",
  "@ c #990000",
  "A c #cc0000",
  "B c #333300",
  "C c #663300",
  "D c #ffff66",
  "E c #993300",
  "F c #333399",
  "G c #cc3300",
  "H c #ff3300",
  "I c #336600",
  "J c #666600",
  "K c #336699",
  "L c #cbcbcb",
  "M c #669900",
  "N c #669999",
  "O c #999900",
  "P c #cc9999",
  "Q c #00cc99",
  "R c #a0a0a4",
  "S c #cccc00",
  "T c #ff0000",
  "U c #cccc99",
  "V c #ffcc99",
  "W c #00ff99",
  "X c None",
  "Y c #ffffff",
  "Z c #ccff99",
  "[ c #666699",
  "] c #330066",
  /* pixels */
  "X(WWWWW(XXXW/IXXXXXXXXXXXX",
  "X//////I9W(W/I(WWWWWWWW(XX",
  "XX/(/(,II,,W,I,&,I//////XX",
  "XXXXXXXXXXXW/IXXXI/(/,(XXX",
  "XXXXXXXXXXX(Q(XXXXXXXXXXXX",
  "XXXXXXXXXXXX,IXXXXXXXXXXXX",
  "XXXXXXXXXXXD((DXXXXXXXXXXX",
  "XXXXXXXXXXDD(DXXDXXXXXXXXX",
  "XXXJXXXXXXMD3D<XDXXBB2JXXX",
  "X><>B(XXX36DDD>><XQ(Q<><XX",
  "><U><9Q(/O>D<>D;O<(/<><>JX",
  "J>><XX((,(&&&,,&(WWX<>BBUX",
  "<BB>X(,(B!PRYVLR,(,WX2BB>X",
  "ZBB2XQW(&5LR2RRR+(((XX.><J",
  "<<0XX,,,&&&&!!&&N(((XXXMU>",
  "><MXX((!N!!&&K!!NEAEE=XJ><",
  "<UM*@E*5=K!&3[R[=$E@D><MZ<",
  ">MJ>**T:!BBZ.S>BB@A)<<0MJM",
  "J0<<GT:A?!.R22R2=C@*EM2M2X",
  "XJM0*A:)?&BO>>2=@]?A?(XXXX",
  "XXX@T@@?=&@B>U?@*AB&W(XXXX",
  "XXX2@?5,&A?#@@@$A&(,,XXXXX",
  "XXXXX,((??A:8TTTA?((WXXXXX",
  "XXXXX(0!555,&&&5)5!0(XXXXX",
  "XXXXXX,2,,(2/00(,,2,XXXXXX",
  "XXXXXXX?@AAAAH)AA@?XXXXXXX",
  "XXXXXXX?@A&&&F&TAA&XXXXXXX",
  "XXXXXXX&F14&&F&&F1F&XXXXXX",
  "XXXXXXF'47----&--74'&XXXXX",
  "XXXXX&F%N1---F---1N%F&XXXX",
  "XXXXX,MM%N1F&!&F-1MMMFXXXX",
  "XXXXX2<<MM1-!X!F-FM<<2XXXX",
  "XXXXX2<<M&F-XXX&!RJ<>>2XXX",
  "XXXXX2..2B!-XXX-&22.<22XXX",
  "XXXXX22>22&&LXXL&+2222-+XX",
  "XXXX-+222&+&VXXV1&++&&&-XX",
  "XXXX-+1&&&&1LXXL1&1&1++-+X",
  "XXXX-1++1%&VXXXXV1%111+-X+",
  "XXXXL&111&LXXXXXXV-&%&&VX+",
  "XXXXXV&%&VXXXXXXXXVVLVLXXX",
};
