/* XPM */
static char *chopper_boy_0c[] = {
  /* width height ncolors chars_per_pixel */
  "28 40 47 1 0 0",
  /* colors */
  "! c #000000",
  "# c #cc0066",
  "$ c #333366",
  "% c #008080",
  "& c #993366",
  "' c #a6caf0",
  "( c #ff33ff",
  ") c #336666",
  "* c #3366ff",
  "+ c #996666",
  ", c #339966",
  "- c #3399ff",
  ". c #999966",
  "/ c #555555",
  "0 c #6699ff",
  "1 c #33cc66",
  "2 c #ff5050",
  "3 c #99cc66",
  "4 c #cccc66",
  "5 c #ccff66",
  "6 c #660000",
  "7 c #cc0000",
  "8 c #333300",
  "9 c #cc0099",
  ": c #ffff66",
  "; c #336600",
  "< c #666600",
  "= c #336699",
  "> c #663399",
  "? c #996699",
  "@ c #cbcbcb",
  "A c #339999",
  "B c #669900",
  "C c #669999",
  "D c #999900",
  "E c #00cc99",
  "F c #33cc99",
  "G c #a0a0a4",
  "H c #ff0000",
  "I c #cccc99",
  "J c #ffcc99",
  "K c #00ff99",
  "L c #ccff00",
  "M c None",
  "N c #ffffff",
  "O c #ccff99",
  "P c #666699",
  /* pixels */
  "MMMMMMMMMMK,;MMM%KKKKK%MMMMM",
  "M%KKKKKKK%K,;%K1;,,,,,,MMMMM",
  "M,,,,,;)$)K);));;)%,%,MMMMMM",
  "MM%)=/+MMMK,;MMMMMMMMMMMMMMM",
  "MMMMMMMMMK))MMMMMMMMMMMMMMMM",
  "MMMMMMMMK,)MMMMM:MMMMMMMMMMM",
  "MMMMMMMMK,::ML:MM:MMMMMMMMMM",
  "MMMMMMMMK,MB:.:454:MMMMMMMMM",
  "MMMMMMMMK,M5:4:33D:MMMMMMMMM",
  "MMMMMMMMK,M$!$$3))$GMMMMMMMM",
  "MMMM<8%MK,M$))$NJ@G)MMMMMMMM",
  "MMMM<88%K)M!$!$PGGG'MMMMMMMM",
  "MMM<88%1E%$8<P!$$!$!MMMMMMMM",
  "MMM<8M8%%%$8<44$!!!$MMMMMMMM",
  "MMM88M8<)%%8G..GBB4GMMMMMMMM",
  "MMM88M!K%%%8//G4G4+MMMMMMMMM",
  "MMMMMMK%)%$<!//G4O/MMMMMMMMM",
  "MMMMMM%%%%$$%%!/G<<MMMM45MMM",
  "MMMMMM%%%&27&&%6669MMM45@5MM",
  "MMMMMMM%2H777H&%&H&6MM5@4@MM",
  "MMMMMMM2H7HH772&%2#&#M/4@DMM",
  "MMMMMM7H&&H&677&$H26554D//MM",
  "MMMMMM&&447766B44BH644DDBMMM",
  "MMMMMM6<4445BB4544H#;DDBMMMM",
  "MMMMMMM<B44444544BH#;BMMMMMM",
  "MMMMMMM%<88B444B<H$%MMMMMMMM",
  "MMMMMMM%%%$<88<8$%!$MMMMMMMM",
  "MMMMMMMM%%$$$=$0-*$$=MMMMMMM",
  "MMMMMMMMMMM=$$0-**$$=$MMMMMM",
  "MMMMM'J'MM$!-0-**$$$!$MMMMMM",
  "MMMMJ$$**$84=--*$$$BI/MMMMMM",
  "MMM'$**J>B45B!$!$!B45I/M**-M",
  "MMJ$*$JJPB554B/$MM/B4JJ$''*F",
  "MJ$A'$JG?/B4//MMMMMJJGC$'*-J",
  "MJ$='-$J/!//BMMMM''!-@-$*-$'",
  "M'***!88MMMMMMMM'M!$**-*$$JM",
  "MMJ*!$MMMMMMMMMMMM!**-*$$'MM",
  "MMMMMMMMMMMMMMMMMM'$=$$$JMMM",
  "MMMMMMMMMMMMMMMMMM'J''CJMMMM",
  "MMMMMMMMMMMMMMMMMMMMM(MMMMMM",
};
