/* XPM */
static const char *chopper_boy_21b[] = {
  /* width height ncolors chars_per_pixel */
  "26 40 58 1 0 0",
  /* colors */
  "! c #000000",
  "# c #990066",
  "$ c #cc0066",
  "% c #000080",
  "& c #333366",
  "' c #3333ff",
  "( c #008080",
  ") c #993366",
  "* c #cc3366",
  "+ c #a6caf0",
  ", c #336666",
  "- c #3366ff",
  ". c #996666",
  "/ c #339966",
  "0 c #669966",
  "1 c #3399ff",
  "2 c #999966",
  "3 c #555555",
  "4 c #6699ff",
  "5 c #4d4d4d",
  "6 c #cc9966",
  "7 c #9999ff",
  "8 c #33cc66",
  "9 c #ff5050",
  ": c #cccc66",
  "; c #330000",
  "< c #ccff66",
  "= c #660000",
  "> c #990000",
  "? c #cc0000",
  "@ c #333300",
  "A c #663300",
  "B c #ffff66",
  "C c #993300",
  "D c #333399",
  "E c #cc3300",
  "F c #ff3300",
  "G c #336600",
  "H c #666600",
  "I c #336699",
  "J c #cbcbcb",
  "K c #669900",
  "L c #999900",
  "M c #669999",
  "N c #cc9999",
  "O c #00cc99",
  "P c #a0a0a4",
  "Q c #ff0000",
  "R c #cccc00",
  "S c #cccc99",
  "T c #ffcc99",
  "U c #00ff99",
  "V c #ccff00",
  "W c None",
  "X c #ffffff",
  "Y c #ccff99",
  "Z c #666699",
  "[ c #330066",
  /* pixels */
  "WWWWWWWWWWWU/(OWWWWWWWWWWW",
  "WWWWWWWWWWWU(UUUWWWWWWWWWW",
  "WWWWWWWWW/UUUG&WWWWWWWWWWW",
  "WWWWWWWWWWWU/GWWWWWWWWWWWW",
  "WWWWWWWWWWW(O(WWWWWWWWWWWW",
  "WWWWWWWWWWWW,GWWWWWWWWWWWW",
  "WWWWWWWWWWW::,WWWWWWWWWWWW",
  "WWWWWWWWWBBW<BWVWWWWWWWWWW",
  "WWWHWWWWWWKBBB:WBWW@@3HWWW",
  "W<:<@(WWW26B2BVB:WO(O:<:WW",
  "<:S<:8O(,(&:&,,&(/(/:<:<HW",
  "H<<:WW((@!NPXTJP,:UW:<@@SW",
  ":@@<W(,(&5JP3PPP+(,UW3@@<W",
  "Y@@3WOU(&&&&!!&&M(((WW.<:H",
  "::0WW,,,M!!&&I!!M(((WWWKS<",
  "<:KWW,*!;I!&2ZPZ;=?;?;WH<:",
  ":SK;>*5=!@@Y.R<@@$C>B<:KY:",
  "<KH<**9>=!.R33R3;>?)::0KHK",
  "H0::EQ9?=&@L<<2;[A>*CK3K3W",
  "WHK0*?9)=&;3333;>[=?=(WWWW",
  "WWW>Q>>=;&>@PP=>*?@&U(WWWW",
  "WWW3>=5,&?=#>>>$?&(,,WWWWW",
  "WWWWW,((=?Q99>Q??=((UWWWWW",
  "WWWWW(0!5)5,&&&5)5!0(WWWWW",
  "WWWWWW,3,,(3/00(,,3,WWWWWW",
  "WWWWWWW=>???F)Q??>=WWWWWWW",
  "WWWWWWW=>???FF)Q??&WWWWWWW",
  "WWWWWWW&&I&??&&&D1D&WWWWWW",
  "WWWWW&D'47--&&&--74'&WWWWW",
  "WWWWW,!%M1---D---1M%!,WWWW",
  "WWWWWDKKK1-D&!&D--1MKDWWWW",
  "WWWWW3::KD-D!W!DD-DK:3WWWW",
  "WWWWW3::K&&-WWW&!-3:<<3WWW",
  "WWWWW3..3@!-WWW-&33.:33WWW",
  "WWWWW33<33&&JWWJ&+3333-+WW",
  "WWWW-+333&+&TWWT1&++&&&-WW",
  "WWWW-+1&&&&1JWWJ1&1&1++-+W",
  "WWWW-1++1%&TWWWWT1%111+-W+",
  "WWWWJ&111&JWWWWWWT-&%&&T+W",
  "WWWWWT&%&TWWWWWWWWTTJTJWWW",
};
