/* XPM */
static const char *chopper_boy_2d[] = {
  /* width height ncolors chars_per_pixel */
  "24 40 42 1 0 0",
  /* colors */
  "! c #000000",
  "# c #cc0066",
  "$ c #333366",
  "% c #008080",
  "& c #993366",
  "' c #cc3366",
  "( c #a6caf0",
  ") c #336666",
  "* c #3366ff",
  "+ c #339966",
  ", c #669966",
  "- c #3399ff",
  ". c #555555",
  "/ c #999966",
  "0 c #6699ff",
  "1 c #cc9966",
  "2 c #33cc66",
  "3 c #ff5050",
  "4 c #cccc66",
  "5 c #ccff66",
  "6 c #660000",
  "7 c #990000",
  "8 c #cc0000",
  "9 c #333300",
  ": c #ffff66",
  "; c #cc3300",
  "< c #336600",
  "= c #666600",
  "> c #336699",
  "? c #669900",
  "@ c #669999",
  "A c #00cc99",
  "B c #a0a0a4",
  "C c #ff0000",
  "D c #cccc99",
  "E c #ffcc99",
  "F c #00ff99",
  "G c #ccff00",
  "H c #33ff99",
  "I c None",
  "J c #ccff99",
  "K c #666699",
  /* pixels */
  "IIIIIIIIIIIF+%AIIIIIIIII",
  "IIIIIIIIIIIF%FFFIIIIIIII",
  "IIIIIIIII+FFF<$IIIIIIIII",
  "IIIIIIIIIIIF+<IIIIIIIIII",
  "IIIIIIIIIIF))IIIIIIIIIII",
  "IIIIIIIIIH+)IIIIIIIIIIII",
  "IIIIIIIIIF+III44IIIIIIII",
  "IIIIIIIIIF+I::I5:IGIIIII",
  "IIIIIIIIIF+II?:::4I:IIII",
  "IIIIIIIIIF+I/1:/:G:4IIII",
  "IIIIIIIIIF+IA+AAAA?IIIII",
  "IIIIIIIIIFA++%%%+%9D5III",
  "IIIIIIII2A+%!$!$K9?5D5.I",
  "IIIIIIII%++$9=K!$$5DDDD.",
  "IIIIIII%%+%%9=44$!.D5JD9",
  "IIIIIII%F%%%9B//B??.54D9",
  "IIIIIIIF%)%%9..B4B4B.55I",
  "IIIIIII%%%%$9!..B4JB?45?",
  "IIIIIII%%%%$$$$368B=?D5?",
  "IIIIIIII%%%$!CC&333D5DD?",
  "IIIIIIII%%%$6CCC''35DD=I",
  "IIIIIIII%%%63833C;'??=II",
  "IIIIIIII%%%683C38''==III",
  "IIIIIIII%%%6&3366676IIII",
  "IIIIIIII%%%6&#$$%%,6IIII",
  "IIIIIIII%%%%6$$%$8C#7III",
  "IIIIIIII%%%$!%$$8$$%$III",
  "IIIIIIIII%%%$$$$$%0>>III",
  "IIIIIIIIIII$$$****-@*III",
  "IIIIIIIIIII$!>*****@@/II",
  "IIIIIIIIIIII$!$$**/D45/I",
  "IIIIIIIIIII9./!$)/4444.I",
  "IIIIIIIIII9.//%--EEE..II",
  "IIIIIIIII<E/4//9!%**IIII",
  "IIIIIIII%--EEE!!%*(**III",
  "IIIIIII*--(*$$**$--$*III",
  "IIIIIII($**($((**$$-(*(I",
  "IIIIIIIE%$-$-*--*E%--*II",
  "IIIIIIIIE($%%!>>$(E$%*II",
  "IIIIIIIIIE((E(E(*I(E(-II",
};
