/* XPM */
static char *chopper_boy_21c[] = {
  /* width height ncolors chars_per_pixel */
  "26 40 58 1 0 0",
  /* colors */
  "! c #000000",
  "# c #990066",
  "$ c #cc0066",
  "% c #000080",
  "& c #333366",
  "' c #3333ff",
  "( c #008080",
  ") c #993366",
  "* c #cc3366",
  "+ c #a6caf0",
  ", c #336666",
  "- c #3366ff",
  ". c #996666",
  "/ c #339966",
  "0 c #669966",
  "1 c #3399ff",
  "2 c #555555",
  "3 c #999966",
  "4 c #6699ff",
  "5 c #4d4d4d",
  "6 c #cc9966",
  "7 c #9999ff",
  "8 c #ff9966",
  "9 c #33cc66",
  ": c #ff5050",
  "; c #cccc66",
  "< c #330000",
  "= c #ccff66",
  "> c #660000",
  "? c #990000",
  "@ c #cc0000",
  "A c #333300",
  "B c #663300",
  "C c #ffff66",
  "D c #993300",
  "E c #333399",
  "F c #cc3300",
  "G c #ff3300",
  "H c #336600",
  "I c #666600",
  "J c #336699",
  "K c #cbcbcb",
  "L c #669900",
  "M c #999900",
  "N c #669999",
  "O c #cc9999",
  "P c #00cc99",
  "Q c #a0a0a4",
  "R c #ff0000",
  "S c #cccc00",
  "T c #cccc99",
  "U c #ffcc99",
  "V c #00ff99",
  "W c None",
  "X c #ffffff",
  "Y c #ccff99",
  "Z c #666699",
  "[ c #330066",
  /* pixels */
  "W(VVVVV(WWWV/HWWWWWWWWWWWW",
  "W//////H9V(V/H(VVVVVVVV(WW",
  "WW/(/(,HH,,V,H,&,H//////WW",
  "WWWWWWWWWWWV/HWWWH/(/,(WWW",
  "WWWWWWWWWWW(P(WWWWWWWWWWWW",
  "WWWWWWWWWWWW,HWWWWWWWWWWWW",
  "WWWWWWWWWWWC((CWWWWWWWWWWW",
  "WWWWWWWWWWCC(CWWCWWWWWWWWW",
  "WWWIWWWWWWLC3C;WCWWAA2IWWW",
  "W=;=A(WWW36CCC==;WP(P;=;WW",
  "=;T=;9P(,(&&&,,&(;(/;=;=IW",
  "I==;WW((A!OQXUKQ,VVW;=AATW",
  ";AA=W(,(&5KQ2QQQ+(,VW2AA=W",
  "YAA2WPV(&&&&!!&&N(((WW.=;I",
  ";;0WW,,,N!!&&J!!N(((WWWLT=",
  "=;LWW((!<J!&3ZQZ<D@DD<WI=;",
  ";TL*?D*5!AAY.S=AA$D?C=;LY;",
  "=LI=**R:>!.S22S2<?@);;0LIL",
  "I0;;FR:@>&AM==3<[B?*DL2L2W",
  "WIL0*@:)>&<2222<?[>@>(WWWW",
  "WWW?R??><&?AQQ>?*@A&V(WWWW",
  "WWW2?>5,&@>#???$@&(,,WWWWW",
  "WWWWW,((>>@:8RRR@>((VWWWWW",
  "WWWWW(0!555,&&&5)5!0(WWWWW",
  "WWWWWW,2,,(2/00(,,2,WWWWWW",
  "WWWWWWW>?@@@@G)@@?>WWWWWWW",
  "WWWWWWW>?@&&&E&R@@&WWWWWWW",
  "WWWWWWW&E14&&E&&E1E&WWWWWW",
  "WWWWWWE'47----&--74'&WWWWW",
  "WWWWW&E%N1---E---1N%E&WWWW",
  "WWWWW,LL%N1E&!&E-1LLLEWWWW",
  "WWWWW2;;LL1-!W!E-EL;;2WWWW",
  "WWWWW2;;L&E-WWW&!QI;==2WWW",
  "WWWWW2..2A!-WWW-&22.;22WWW",
  "WWWWW22=22&&KWWK&+2222-+WW",
  "WWWW-+222&+&UWWU1&++&&&-WW",
  "WWWW-+1&&&&1KWWK1&1&1++-+W",
  "WWWW-1++1%&UWWWWU1%111+-W+",
  "WWWWK&111&KWWWWWWU-&%&&UW+",
  "WWWWWU&%&UWWWWWWWWUUKUKWWW",
};
