/* XPM */
static char *chopper_boy_22[] = {
  /* width height ncolors chars_per_pixel */
  "26 40 58 1 0 0",
  /* colors */
  "! c #000000",
  "# c #990066",
  "$ c #cc0066",
  "% c #000080",
  "& c #333366",
  "' c #3333ff",
  "( c #008080",
  ") c #993366",
  "* c #cc3366",
  "+ c #a6caf0",
  ", c #336666",
  "- c #3366ff",
  ". c #996666",
  "/ c #339966",
  "0 c #669966",
  "1 c #3399ff",
  "2 c #999966",
  "3 c #555555",
  "4 c #6699ff",
  "5 c #4d4d4d",
  "6 c #9999ff",
  "7 c #33cc66",
  "8 c #ff5050",
  "9 c #99cc66",
  ": c #cccc66",
  "; c #330000",
  "< c #ccff66",
  "= c #660000",
  "> c #990000",
  "? c #cc0000",
  "@ c #333300",
  "A c #663300",
  "B c #ffff66",
  "C c #993300",
  "D c #333399",
  "E c #cc3300",
  "F c #ff3300",
  "G c #336600",
  "H c #666600",
  "I c #336699",
  "J c #cbcbcb",
  "K c #669900",
  "L c #669999",
  "M c #999900",
  "N c #cc9999",
  "O c #00cc99",
  "P c #a0a0a4",
  "Q c #cccc00",
  "R c #ff0000",
  "S c #cccc99",
  "T c #ffcc99",
  "U c #00ff99",
  "V c #ccff00",
  "W c None",
  "X c #ffffff",
  "Y c #ccff99",
  "Z c #666699",
  "[ c #330066",
  /* pixels */
  "WWWWWWWWWWWU/GWWW(UUUUU(WW",
  "W(UUUUUUUU(U/G(U7G//////WW",
  "W//////G,&,U,G,,GG,(/(/WWW",
  "WW(,/(/GWWWU/GWWWWWWWWWWWW",
  "WWWWWWWWWWW(O(WWWWWWWWWWWW",
  "WWWWWWWWWWWW,GWWWWWWWWWWWW",
  "WWWWWWWWWWWW((WWWWWWWWWWWW",
  "WWWWWWWWWWW:((WWWWWWWWWWWW",
  "WWWHWWWWWBBWVBWWBWW@@3HWWW",
  "W<:<@(WWW2KB2B:<:WO(O:<:WW",
  "<:S<:7O(/M<B:B<9M/(/:<:<HW",
  "H<<:WW((,M<<::99MUUW:<@@SW",
  ":@@<W(,(@(&&&,:&((,UW3@@<W",
  "Y@@3WOU(&!NPXTJP,(((WW.<:H",
  "::0WWOU(&5JP3PPP+>C(WWWKS<",
  "<:KWW;(/L&&&!!&&L**5>;WH<:",
  ":SK;C>$?;!!&&I!!L$C>B<:KY:",
  "<KH<**5>!I!&2ZPZ;>?)::0KHK",
  "H0::ER8?=@@Y.Q<@@A>*CK3K3W",
  "WHK0*?8)=!.P33P3;[=?=(WWWW",
  "WWW>R>>=;&>@<S=>*?@&U(WWWW",
  "WWW3>=5,&?$=#>>>$&(,,WWWWW",
  "WWWWW,((=?R8F>>RR=((UWWWWW",
  "WWWWW(0!5)5,&&&5)5!0(WWWWW",
  "WWWWWW,3,,(3/00(,,3,WWWWWW",
  "WWWWWWW=>???F)R??>=WWWWWWW",
  "WWWWWWWW&&&??F)R??&WWWWWWW",
  "WWWWWWW&D141&D&&D1DD&WWWWW",
  "WWWWW&D'46----&--644'DWWWW",
  "WWWWW,!%11---D---1L%!&WWWW",
  "WWWWWDK%L1-D&!&D-DDKK,WWWW",
  "WWWWW3::K1-D!W!D--P::3WWWW",
  "WWWWW3::K&&-WWW&!3H:<<3WWW",
  "WWWWW3..3@!-WWW-&33.:33WWW",
  "WWWWW33<33&&JWWJ&+3333-+WW",
  "WWWW-+333&+&TWWT1&++&&&-WW",
  "WWWW-+1&&&&1JWWJ1&1&1++-+W",
  "WWWW-1++1%&TWWWWT1%111+-+W",
  "WWWWJ&111&JWWWWWWT-&%&&T+W",
  "WWWWWT&%&TWWWWWWWWTTJTJWWW",
};
