/* XPM */
static char *chopper_boy_0f[] = {
  /* width height ncolors chars_per_pixel */
  "28 40 49 1 0 0",
  /* colors */
  "! c #000000",
  "# c #cc0066",
  "$ c #ff0066",
  "% c #333366",
  "& c #008080",
  "' c #993366",
  "( c #a6caf0",
  ") c #ff33ff",
  "* c #336666",
  "+ c #3366ff",
  ", c #996666",
  "- c #339966",
  ". c #3399ff",
  "/ c #999966",
  "0 c #555555",
  "1 c #6699ff",
  "2 c #33cc66",
  "3 c #ff5050",
  "4 c #99cc66",
  "5 c #cccc66",
  "6 c #330000",
  "7 c #ccff66",
  "8 c #660000",
  "9 c #cc0000",
  ": c #333300",
  "; c #ffff66",
  "< c #cc3300",
  "= c #336600",
  "> c #666600",
  "? c #336699",
  "@ c #663399",
  "A c #996699",
  "B c #cbcbcb",
  "C c #339999",
  "D c #669900",
  "E c #669999",
  "F c #999900",
  "G c #00cc99",
  "H c #33cc99",
  "I c #a0a0a4",
  "J c #ff0000",
  "K c #cccc99",
  "L c #ffcc99",
  "M c #00ff99",
  "N c #ccff00",
  "O c None",
  "P c #ffffff",
  "Q c #ccff99",
  "R c #666699",
  /* pixels */
  "OOOOOOOOOOM-=OOO&MMMMM&OOOOO",
  "O&MMMMMMM&M-=&M2=------OOOOO",
  "O-----=*%*M*=**==*&-&-OOOOOO",
  "OO&*?0,OOOM-=OOOOOOOOOOOOOOO",
  "OOOOOOOOOM**OOOOOOOOOOOOOOOO",
  "OOOOOOOOM-*O4OOO4OOOOOOOOOOO",
  "OOOOOOOOM-4;ON44/4OOOOOOOOOO",
  "OOOOOOOOM-OD;/;575;OOOOOOOOO",
  "OOOOOOOOM-O7;5444F;OOOOOOOOO",
  "OOOOOOOOM-O4!%%4**%IOOOOOOOO",
  "OOOO>:&OM-O%**%PLBI*OOOOOOOO",
  "OOOO>::&M*O!%!%RIII(OOOOOOOO",
  "OOO>::&2G&%:>R!%%!%!OOOOOOOO",
  "OOO>:O:&&&%:>55%!!!%OOOOOOOO",
  "OOO::O:>*&&:I//IDD5IOOOOOOOO",
  "OOO::O!M&&&:00I5I5,OOOOOOOOO",
  "OOOOOOM&*&&=!00I5Q0OOOOOOOOO",
  "OOOOOO&&&&%%&&!0I>>OOO057OOO",
  "OOOOOO&&&&%!89'888<OOO57B7OO",
  "OOOOOOO&&&%83333338<OO7B5BOO",
  "OOOOOOO&&&899933<3<<8O05B7OO",
  "OOOOOO9&&&89J399J9#<77555OOO",
  "OOOOOO'&&%!$#9#J#9#855BB/OOO",
  "OOOOOO8&&%!J#8688888=FFDOOOO",
  "OOOOOOO&&&&8J#%<9<6!8OOOOOOO",
  "OOOOOOO&&&%!%%%%%%%&OOOOOOOO",
  "OOOOOOO&&&%%%%&&%!!%OOOOOOOO",
  "OOOOOOOO&&&!%?%?..1??OOOOOOO",
  "OOOOOOOOOOO?%%C+++.E?!OOOOOO",
  "OOOOO(L(OO%!%%!?++%!!%OOOOOO",
  "O(OOL%%++%65?%!!+%%DB0OOOOOO",
  "OO((%++L@D57D!%!!!D57K0O++.O",
  "OOL%+%LLRD775D0%OO0D5LL%((+H",
  "OL%C(%LIA0D500OOOOOLLIE%(+.L",
  "OL%?(.%L0!00DOOOOOO!.B.%+.%(",
  "O(+++!::OOOOOOOOOO!%++.+%%LO",
  "OOL+!%OOOOOOOOOOOO!++.+%%(OO",
  "OOOOOOOOOOOOOOOOOO(%?%%%LOOO",
  "OOOOOOOOOOOOOOOOOO(L((ELOOOO",
  "OOOOOOOOOOOOOOOOOOOOO)OOOOOO",
};
