/* XPM */
static char *chopper_boy_25[] = {
  /* width height ncolors chars_per_pixel */
  "38 18 43 1 0 0",
  /* colors */
  "! c #000000",
  "# c #cc0066",
  "$ c #333366",
  "% c #008080",
  "& c #993366",
  "' c #cc3366",
  "( c #a6caf0",
  ") c #336666",
  "* c #3366ff",
  "+ c #339966",
  ", c #3399ff",
  "- c #999966",
  ". c #555555",
  "/ c #6699ff",
  "0 c #33cc66",
  "1 c #99cc66",
  "2 c #ff5050",
  "3 c #cccc66",
  "4 c #ccff66",
  "5 c #660000",
  "6 c #990000",
  "7 c #cc0000",
  "8 c #333300",
  "9 c #ffff66",
  ": c #cc3300",
  "; c #336600",
  "< c #666600",
  "= c #336699",
  "> c #cbcbcb",
  "? c #669900",
  "@ c #999900",
  "A c #669999",
  "B c #00cc99",
  "C c #a0a0a4",
  "D c #ff0000",
  "E c #cccc99",
  "F c #ffcc99",
  "G c #00ff99",
  "H c #ccff00",
  "I c None",
  "J c #ffffff",
  "K c #ccff99",
  "L c #666699",
  /* pixels */
  "IIIIIIIIIIIIIIIIIIIIIIIIIIIIIIIIIIIIII",
  "IIIIIIIIIII$$D+$%IIIIII%IIII$$D+D+$%II",
  "IIIIIIIIIIIII%D+D%%III++%D$+DDD%%%D+II",
  "IIIIIIII.-IIIIIIDD%+D+$+DDI%%%IIII%$+I",
  "IIIIIII.34-IIIIII$$$$$I$%GIIIIIIIII$$I",
  "IIIIIII44DA*=IIIIIIIIIIII%%IIIIIIII++I",
  "IIIIIID33EAA=I6DDDDIIIIIIC$!()CIIIIIII",
  "IIIIII333-*,/%#DDDD527<.I3!$CC$99IIIII",
  "IIIII44D-***%$7%D$DD72<KD?!!C>)@D1IIII",
  "IIIII4D3)***$7$%D$DD2DC3D?!$CF)14-1III",
  "III(DD3,$$**$$%$D2&D22.CDC$$LJ1131IIII",
  "II**J3,,%$**$$$$D52'D7!.DD3!$$$DD1IIII",
  "II*DJDJJ,!=$$%$#D72':'%..D3L!)$3-HIIII",
  "$**$$*J,$$8?4.?3KC22''%!DC<<$)!99I1III",
  "**(($(**%IE4ED.%%<E4?<$;D888!$14?9IIII",
  "*,,D,$,$FI4EE44.??4E?<$DD%$$%%%II1IIII",
  "$==!%%$(III4DKD4DDDE<%%++++B%GIIIIIIII",
  "*(F(F((FIII.EED444E<%%GD%%%0IIIIIIIIII",
};
