/* XPM */
static const char *chopper_boy_5[] = {
  /* width height ncolors chars_per_pixel */
  "26 40 55 1 0 0",
  /* colors */
  "! c #000000",
  "# c #990066",
  "$ c #cc0066",
  "% c #000080",
  "& c #333366",
  "' c #008080",
  "( c #993366",
  ") c #cc3366",
  "* c #a6caf0",
  "+ c #336666",
  ", c #3366ff",
  "- c #996666",
  ". c #339966",
  "/ c #669966",
  "0 c #3399ff",
  "1 c #999966",
  "2 c #555555",
  "3 c #6699ff",
  "4 c #4d4d4d",
  "5 c #cc9966",
  "6 c #9999ff",
  "7 c #33cc66",
  "8 c #ff5050",
  "9 c #99cc66",
  ": c #cccc66",
  "; c #330000",
  "< c #ccff66",
  "= c #660000",
  "> c #990000",
  "? c #cc0000",
  "@ c #333300",
  "A c #ffff66",
  "B c #333399",
  "C c #cc3300",
  "D c #ff3300",
  "E c #336600",
  "F c #666600",
  "G c #336699",
  "H c #cbcbcb",
  "I c #669900",
  "J c #669999",
  "K c #999900",
  "L c #cc9999",
  "M c #00cc99",
  "N c #a0a0a4",
  "O c #ff0000",
  "P c #cccc00",
  "Q c #cccc99",
  "R c #ffcc99",
  "S c #00ff99",
  "T c #ccff00",
  "U c None",
  "V c #ffffff",
  "W c #ccff99",
  "X c #666699",
  /* pixels */
  "UUUUUUUUUUS.EUUU'SSSSS'UUU",
  "'SSSSSSSS'S.E'S7E......UUU",
  "......E+&+S+E++EE+'.'.UUUU",
  "U'+.'.EUUUS.EUUUUUUUUUUUUU",
  "UUUUUUUUUU'M'UUUUUUUUUUUUU",
  "UUUUUUUUUUU+EUUUUUUUUUUUUU",
  "UUUUUUUUUU::+UUUUUUUUUUUUU",
  "UUUUUUUUAAU<AUTUUUUUUUUUUU",
  "UUFUUUUUUIAAA:UAUU@@2FUUUU",
  "U:2@'UUU15A1ATA:UM'@2:UUUU",
  "U:2@7M'.K<A:TA9K.'.222:UUU",
  ":222'''+'&:&++&':SUUU@@UUU",
  "@@UU'+'@!LNVRHN+'+SUU@@UUU",
  "@@UUMS'&4HN2NNN*'''UUUUUUU",
  "UUUUMS'&&&&!!&&J'''UUUUUUU",
  "UUUUM''&!!&&G!!J'''UUUUUUU",
  "UUUU'++'&!&1XNX;'''UUUUUUU",
  "UUUU+4>4@@W-P<@@+>CUUUUUUU",
  "UUUUC>>'!-N22N2;'>>CUUUUUU",
  "UUU>)?8';@K<<2;>'8?)>UUUUU",
  "UU/<CO8;?>@<Q=>)'8OC</UUUU",
  "U/<:))+&?$=#>>>?&')):</UUU",
  "U<Q1>''=?O88>O??=''>1Q<UUU",
  "U1QI+''=?O8D>>OO=''1IQ1UUU",
  "UFQQ<<!4(4+&&&4(4!<<QQ1UUU",
  "UU<<QNN++'2.//'++NNQ<<UUUU",
  "UU1QQQI>???D(O??>IQQQ1UUUU",
  "UUU11I!!G&??&&&G!!I11UUUUU",
  "UUUUUB'06,,&&,,60'BUUUUUUU",
  "UUUU!0300,,,,,,0030!UUUUUU",
  "UUUU&',00,,B,,,00,'&UUUUUU",
  "UUUU&!!B,,B!!B,,B!!&UUUUUU",
  "UUUU2::I&&,UU,&&I::2UUUUUU",
  "UUUU2--2@!,UU,!@2--2UUUUUU",
  "UUUURRRR2&UUUU&2RRRRUUUUUU",
  "UU,,,,,RRNUUUUNRR,,,,,UUUU",
  "U,,,0**00&UUUU&00**0,,,UUU",
  "U,,0000&*&UUUU&*&0000,,UUU",
  "U&&&%&&0&&UUUU&&0&&%&&&*UU",
  "U,*****,*,UUUU,*,*****,U**",
};
