/* XPM */
static const char *chopper_boy_4b[] = {
  /* width height ncolors chars_per_pixel */
  "26 40 59 1 0 0",
  /* colors */
  "! c #000000",
  "# c #990066",
  "$ c #cc0066",
  "% c #000080",
  "& c #333366",
  "' c #3333ff",
  "( c #008080",
  ") c #993366",
  "* c #cc3366",
  "+ c #a6caf0",
  ", c #336666",
  "- c #3366ff",
  ". c #996666",
  "/ c #339966",
  "0 c #669966",
  "1 c #3399ff",
  "2 c #999966",
  "3 c #555555",
  "4 c #6699ff",
  "5 c #4d4d4d",
  "6 c #cc9966",
  "7 c #9999ff",
  "8 c #33cc66",
  "9 c #ff5050",
  ": c #99cc66",
  "; c #cccc66",
  "< c #330000",
  "= c #ccff66",
  "> c #660000",
  "^ c #990000",
  "@ c #cc0000",
  "A c #333300",
  "B c #663300",
  "C c #ffff66",
  "D c #993300",
  "E c #333399",
  "F c #cc3300",
  "G c #ff3300",
  "H c #336600",
  "I c #666600",
  "J c #336699",
  "K c #cbcbcb",
  "L c #669900",
  "M c #669999",
  "N c #999900",
  "O c #cc9999",
  "P c #00cc99",
  "Q c #a0a0a4",
  "R c #ff0000",
  "S c #cccc00",
  "T c #cccc99",
  "U c #ffcc99",
  "V c #00ff99",
  "W c #ccff00",
  "X c None",
  "Y c #ffffff",
  "Z c #ccff99",
  "[ c #666699",
  "] c #330066",
  /* pixels */
  "XXXXXXXXXXXV/(PXXXXXXXXXXX",
  "XXXXXXXXXXXV(VVVXXXXXXXXXX",
  "XXXXXXXXX/VVVH&XXXXXXXXXXX",
  "XXXXXXXXXXXV/HXXXXXXXXXXXX",
  "XXXXXXXXXXX(P(XXXXXXXXXXXX",
  "XXXXXXXXXXXX,HXXXXXXXXXXXX",
  "XXXXXXXXXXX;;,XXXXXXXXXXXX",
  "XXXXXXXXXCCX=CXWXXXXXXXXXX",
  "XXXIXXXXXXLCCC;XCXXAA3IXXX",
  "X=;=A(XXX26C2CWC;XP(P;=;XX",
  "=;T=;8P(/N=C;WC:N/(/;=;=IX",
  "I==;XX((,(&;&,,&(;VX;=AATX",
  ";AA=X(,(A!OQYUKQ,(,VX3AA=X",
  "ZAA3XPV(&5KQ3QQQ+(((XX.=;I",
  ";;0XX,,,&&&&!!&&M(((XXXLT=",
  "=;LXX,*!M!!&&J!!M>@<@<XI=;",
  ";TL<^*5><J!&2[Q[<$D^C=;LZ;",
  "=LI=**9^!AAZ.S=AA^@);;0LIL",
  "I0;;FR9@>!.Q33Q3<B^*DL3L3X",
  "XIL0*@9)>&AN==3<^]>@>(XXXX",
  "XXX^R^^><&^A=T>^*@A&V(XXXX",
  "XXX3^>5,&@$>#^^^@&(,,XXXXX",
  "XXXXX,((>@R99^R@@>((VXXXXX",
  "XXXXX(0!5)5,&&&5)5!0(XXXXX",
  "XXXXXX,3,,(3/00(,,3,XXXXXX",
  "XXXXXXX>^@@@G)R@@^>XXXXXXX",
  "XXXXXXX>^@@@GG)R@@&XXXXXXX",
  "XXXXXXX&&J&@@&&&E1E&XXXXXX",
  "XXXXX&E'47--&&&--74'&XXXXX",
  "XXXXX,!%M1---E---1M%!,XXXX",
  "XXXXXELLL1-E&!&E--1MLEXXXX",
  "XXXXX3;;LE-E!X!EE-EL;3XXXX",
  "XXXXX3;;L&&-XXX&!-3;==3XXX",
  "XXXXX3..3A!-XXX-&33.;33XXX",
  "XXXXX33=33&&KXXK&+3333-+XX",
  "XXXX-+333&+&UXXU1&++&&&-XX",
  "XXXX-+1&&&&1KXXK1&1&1++-+X",
  "XXXX-1++1%&UXXXXU1%111+-X+",
  "XXXXK&111&KXXXXXXU-&%&&U+X",
  "XXXXXU&%&UXXXXXXXXUUKUKXXX",
};
