/* XPM */
static const char *enforcer_0[] = {
  /* width height ncolors chars_per_pixel */
  "32 60 41 1 0 0",
  /* colors */
  "! c #000000",
  "# c #990066",
  "$ c #cc0066",
  "% c #000080",
  "& c #333366",
  "' c #3333ff",
  "( c #993366",
  ") c #a6caf0",
  "* c #336666",
  "+ c #3366ff",
  ", c #9966ff",
  "- c #339966",
  ". c #669966",
  "/ c #3399ff",
  "0 c #555555",
  "1 c #ff9966",
  "2 c #ff5050",
  "3 c #ffcc66",
  "4 c #66ccff",
  "5 c #99ffff",
  "6 c #990000",
  "7 c #ccffff",
  "8 c #333300",
  "9 c #336600",
  ": c #666600",
  "; c #996600",
  "< c #336699",
  "= c #663399",
  "> c #cbcbcb",
  "? c #339999",
  "@ c #669999",
  "A c #ff9900",
  "B c #a0a0a4",
  "C c #66cc66",
  "D c #cccc00",
  "E c #00ff00",
  "F c #ffcc00",
  "G c #ffff00",
  "H c None",
  "I c #ffffff",
  "J c #ffff99",
  /* pixels */
  "HHHHHHHHHHHHHHHHHIHIHHHHHHHHHHHH",
  "HHHHHHHHHH>>III&'>>>HIHHHHHHHHHH",
  "HHHHHHH---H>>>>@@IIB>HHHHHHHHHHH",
  "HHHHHH-HHH-=9@>''B>IB>IHHHHHHHHH",
  "HHHHH-HH,,=C.-&&&$>>BBHHHHHHHHHH",
  "HHHHH-H,66H*98&&21$>BBIHHHHHHHHH",
  "HHHHH-6,HH=C.-00&22&&0HHHHHHHHHH",
  "HHHHH6-H,=9880>>>B&0BHHHHHHHHHHH",
  "HHHHH6H-HC.-07%?%?>7>HHHHHHHHHHH",
  "HHHHHH6-H480B?!7!7!70HHHHHHHHHHH",
  "HHHHHH==7?-0>!!HHHHHHHHHHHHHHHHH",
  "HHHHB>>05?8&>74!7!7HHHHHHHHHHHHH",
  "HHHH0BB&)?&&)??%?%?%HHHHHHHHHHHH",
  "HHHH0B+&4&&4??B>>>>>>0HHHHHHHHHH",
  "HHHHHB+/&@&??&&B>>>>B0HHHHHHHHHH",
  "HHH77G<5/@@&&&+)57&&&HHHHHHHHHHH",
  "HHHH4A<&/@@@&???4AI;I;HHHHHHHHHH",
  "HHHHHB<*5//@@&&&I;J3DDHHHHHHHHHH",
  "HH77FA0<&*4/5/5+IGJD!:DHHHHHHHHH",
  "HHH4A>B0<*&*&*&+;GJJ:!:HHHHHHHHH",
  "HHHHBB0&0<<<<<<AIGJJG:!HHHHHHHHH",
  "H77>B0&>B0&A;&A:;@@?>>>H>>>H>>>H",
  "00000&BB0&;;@@@5@5@?00!>00H>00HH",
  "0&>>>>0B&0@@@@@&@&@?B!B!B!B!B0>H",
  "H>B00B>0@@5@@444444400000>>>0!0>",
  ">BBBB>B>??&@4??&?&?&&&&0>&B&>B0>",
  ">0B>>B0>0<@@?@@0@0@0BBBB>B&B>!H>",
  ">0B>BB0>0<@@<??&?&?&&&&0>&B&>B>H",
  ">B>BB>B>0<5@@<<<<<<<00000>>B*!0>",
  "&>B00B>&??&@@@@@@@@?B!B!B!B!B00>",
  "0&>>>>&0<?<<<<<<?5@?0>H00>H00>H>",
  "00&&&&=-=<&&&&.8<&<<>H>>>H>>>HHH",
  "H00HHG,9-=0&0009.8.CHHHHHHHHHHHH",
  "B>>0H,=-60&0&0BB8..8CHHHHHHHHHHH",
  "HB0=,H-6E&0C-&0B>-8..9HHHHHHHHHH",
  "H-6HH-H6EHC-9&&0BB9.8.C/+HHHHHHH",
  "HH---H6HG=-9&&0&0B>8.@/5/5HHHHHH",
  "HHHHHHHHHE=H&0&0&0BB@5/&*&HHHHHH",
  "HHHHHHHHHHGE=&0C-&0@/&***<HHHHHH",
  "HHHHHHHHHHHGEHC-@@@/4**<<@@HHHHH",
  "HHHHHHHHHHHH&=@@&?&@&*<<@<<HHHHH",
  "HHHHHHHHHHHH&?0?0?0/5<<@<HHHHHHH",
  "HHHHHHHHHHHH<&<<&?&@&<@<0&HHHHHH",
  "HHHHHHHHHHHHB<&&<<</5@<0&!H>>HHH",
  "HHHHHHHHHHH>00<&&==+&<0&!00>>HHH",
  "HHHHHHHHHHH>0BBH=-GH<0&!00>>BB>H",
  "HHHHHHHHHH>0B>HHE-HGH&!00>>B0B>H",
  "HHHHHHHHHH>0B>HE-HGHHHH&>>BBB>>H",
  "HHHHHHHHH222222?@@?HHG&>>B00B><H",
  "HH>HH>H>$$B&0B$<222<A3>>BBB0><HH",
  "HHH!B!B!#$$$$$$2$$$2$A>B00BB>H>H",
  ">HB0>0>0>##$$$$$$$2$60>B000B>!HH",
  "H!00>>>0000#2222$$6J0>B>BBBB>>BH",
  "HB>>&B&>0&&&##&#2$GG0>0B>>B0>0!>",
  ">!0>B&B>BBBB$$0$#$330>0BB>B0>>BH",
  "HB>>&B&>0&&&##&#6$$A0>B>BB>B>0!>",
  "H!00>>>000006666$$2##&>B00B>&>BH",
  ">HB0>0>0>0>0($$$$$6$G3&>>>>&>!HH",
  "HHH!B!B!B!B!666666666AB&&&&!BH>H",
  "HH>HH>H>H>H>H>H>H>H>H>H>H>H>HHHH",
};
