/* XPM */
static char *enforcer_4[] = {
  /* width height ncolors chars_per_pixel */
  "32 60 34 1 0 0",
  /* colors */
  "! c #000000",
  "# c #660066",
  "$ c #000080",
  "% c #333366",
  "& c #3333ff",
  "' c #a6caf0",
  "( c #336666",
  ") c #3366ff",
  "* c #669966",
  "+ c #3399ff",
  ", c #555555",
  "- c #ff5050",
  ". c #ffcc66",
  "/ c #66ccff",
  "0 c #99ffff",
  "1 c #ccffff",
  "2 c #333300",
  "3 c #336600",
  "4 c #666600",
  "5 c #996600",
  "6 c #336699",
  "7 c #663399",
  "8 c #cbcbcb",
  "9 c #339999",
  ": c #669999",
  "; c #ff9900",
  "< c #a0a0a4",
  "= c #66cc66",
  "> c #cccc00",
  "? c #ff0000",
  "@ c #ffff00",
  "A c None",
  "B c #ffffff",
  "C c #ffff99",
  /* pixels */
  "AAAAAAAAAAAAAAABBAAAAAAAAAAAAAAA",
  "AAAAAAAAAAB&<88BB88<&BAAAAAAAAAA",
  "AAAAAAAAA8:<<BB<<BB<<:8AAAAAAAAA",
  "AAAAAAAAA:&<<<8BB8<<<&:AAAAAAAAA",
  "AAAAAAAAAA%%%#8<<8#%%%AAAAAAAAAA",
  "AAAAAAAAA33%?;#BB#;?%33AAAAAAAAA",
  "AAAAAAAAAA,,%?-%%-?%,,AAAAAAAAAA",
  "AAAAAAAAA,888<%,,%<888,AAAAAAAAA",
  "AAAAAAAAA<89$981189$98<AAAAAAAAA",
  "AAAAAAA/A<!1!1!99!1!1!<A/AAAAAAA",
  "AAAAAAA9A8/!1!1,,1!1!/8A9AAAAAAA",
  "AAA1AAA90<9$9$9$$9$9$9<09AAA1AAA",
  "AAA9'%%9'%<8888888888<%'9%%'9AAA",
  "AAA99/%%/%)<88888888<)%/%%/99AAA",
  "AA%%99%:%+),,<<<<<<,,)+%:%99%%AA",
  "10)%%%::+06%%%%%%%%%%60+::%%%)01",
  "A/99%:::+%655;B55B;556%+:::%99/A",
  "A%%%::++0(6C>@@CC@@>C6(0++::%%%A",
  "A)0+0+/(%6;>@@CCCC@@>;6%(/+0+0)A",
  "A)%(%(%(65>>!4CCCC4!>>56(%(%(%)A",
  "AA666666C.>!!!>CC>!!!>.C666666AA",
  "A6<6<,%55.>4!!4>>4!!4>.55%,<6<6A",
  "%686:%A:B@C@>4@!!@4>@C@B:A%:686%",
  "/%,%66:65@CCC@>!!>@CCC.56:66%,%/",
  "<<<</:6;B.@CCC@>>@CCC@.B;6:/<<<<",
  "8%8%6/6;;5@@CC>44>CC@@5;;6/6%8%8",
  "8<8<6/6%;B.@@@4!!4@@@.B;%6/6<8<8",
  "8%8%6/6,%5;@.>4!!4>..;5%,6/6%8%8",
  "<<,<6:6%55;B5.>..>.5B;55%6:6<,<<",
  "6%8%:6A5555;;5B55B5;;5555A6:%8%6",
  "A68666A5%,55%%3333%%55,%5A66686A",
  "AA<AAAA%,%526**==**625%,%AAAA<AA",
  "AAAAAAA%,,532233332235,,%AAAAAAA",
  "AAAAAA%,%7A2**====**2A7*,%AAAAAA",
  "AAAAAA,<8@7*=233332=*7@8<,AAAAAA",
  "AAAAAA%,<A%=2):)):)2=%A<,%AAAAAA",
  "AAAAAA%,<8%)/+0++0+/)%8<,%AAAAAA",
  "AAAAAAA%,<:+%(%((%(%+:<,%AAAAAAA",
  "AAAAAAA%,)0((666666((0),%AAAAAAA",
  "AAAAAAAA%+%(66::::66(%+%AAAAAAAA",
  "AAAAAAAA:0(6::6666::6(0:AAAAAAAA",
  "AAAAAAAA+%::66%,,%66::%+AAAAAAAA",
  "AAAAAAAA0(66%%%%%%%%66(0AAAAAAAA",
  "AAAAAAAA%68888888888886%AAAAAAAA",
  "AAAAAAA8<<<,<888888<,<<<8AAAAAAA",
  "AAAA8<<<,8888:6666:8888,<<<8AAAA",
  "AA888888<<<,,6)%%)6,,<<<888888AA",
  "A8<<,%%%%%%%%%%((%%%%%%%%%%,<<8A",
  "8<<,,;666;,,%%%66%%%%,;666;,,<<8",
  "8,88888<888888A%%A888888<88888,8",
  "8%%%%%%%%%%%%%<,,<%%%%%%%%%%%%%8",
  "8%88888<88888%8<<8%88888<88888%8",
  "8%%%%%%%%%%%%%8888%%%%%%%%%%%%%8",
  "8%<<<<<,<<<<<%8888%<<<<<,<<<<<%8",
  "8%88888<88888%8888%88888<88888%8",
  "8%<<<<<,<<<<<%8<<8%<<<<<,<<<<<%8",
  "8%%%%%%%%%%%%%<,,<%%%%%%%%%%%%%8",
  ",%88888<88888%,%%,%88888<88888%,",
  "%,%%%%%%%%%%%%%AA%%%%%%%%%%%%%,%",
  "A,<<<<<<<<<<<<AAAA<<<<<<<<<<<,,A",
};
