/* XPM */
static const char *enforcer_0c[] = {
  /* width height ncolors chars_per_pixel */
  "32 60 43 1 0 0",
  /* colors */
  "! c #660066",
  "# c #000000",
  "$ c #990066",
  "% c #cc0066",
  "& c #000080",
  "' c #333366",
  "( c #3333ff",
  ") c #cc3366",
  "* c #a6caf0",
  "+ c #336666",
  ", c #3366ff",
  "- c #9966ff",
  ". c #339966",
  "/ c #669966",
  "0 c #3399ff",
  "1 c #555555",
  "2 c #ff5050",
  "3 c #ffcc66",
  "4 c #66ccff",
  "5 c #99ffff",
  "6 c #990000",
  "7 c #ccffff",
  "8 c #333300",
  "9 c #ff3300",
  ": c #336600",
  "; c #666600",
  "< c #996600",
  "= c #336699",
  "> c #663399",
  "? c #cbcbcb",
  "@ c #339999",
  "A c #669999",
  "B c #ff9900",
  "C c #a0a0a4",
  "D c #66cc66",
  "E c #cccc00",
  "F c #00ff00",
  "G c #ffcc00",
  "H c #ffff00",
  "I c #ffcc99",
  "J c None",
  "K c #ffffff",
  "L c #ffff99",
  /* pixels */
  "JJJJJJJJJJJJJJJJJKJKJJJJJJJJJJJJ",
  "JJJJJJJJJJ??KKK'(???JKJJJJJJJJJJ",
  "JJJJJJJ...J????AAKKC?JJJJJJJJJJJ",
  "JJJJJJ.JJJ.>:A?((C?KC?KJJJJJJJJJ",
  "JJJJJ.JJ-->D/.'''9??CCJJJJJJJJJJ",
  "JJJJJ.J-66J+:8''II9?CCKJJJJJJJJJ",
  "JJJJJ.6-JJ>D/.11'II''1JJJJJJJJJJ",
  "JJJJJ6.J->:881???C'1CJJJJJJJJJJJ",
  "JJJJJ6J.JD/.17&@&@?7?JJJJJJJJJJJ",
  "JJJJJJ6.J481C@#7#7#71JJJJJJJJJJJ",
  "JJJJJJ>>7@.1?##JJJJJJJJJJJJJJJJJ",
  "JJJJC??15@8'?7#JJJJJJJJJJJJJJJJJ",
  "JJJJ1CC'*@''*@4#7#7JJJJJJJJJJJJJ",
  "JJJJ1C,'4''4@@,&@&@&JJJJJJJJJJJJ",
  "JJJJJC,0'A'@@''C????C1JJJJJJJJJJ",
  "JJJ77H=50AA''',*57'''JJJJJJJJJJJ",
  "JJJJ4B='0AAA'@@@4BK<K<JJJJJJJJJJ",
  "JJJJJC=+500AA'''K<L3EEJJJJJJJJJJ",
  "JJ77GB1='+40505,KHLE#;EJJJJJJJJJ",
  "JJJ4B?C1=+'+'+',<HLL;#;JJJJJJJJJ",
  "JJJJCC1'1======BKHLLH;#JJJJJJJJJ",
  "J77?C1'?C1'B<'B;<AA@??;???J???JJ",
  "11111'CC1'<<AAA5A5A@1;?11J?11JJJ",
  "1'????1C'1AAAAA'A'A@#C#C#C#C#1?J",
  "J?C11C?1AA5AA444444411111???1C1?",
  "?CCCC?C?@@'A4@@'@'@''''1?'C'?#1?",
  "?1C??C1?1=AA@AA1A1A1CCCC?C'C?CJ?",
  "?1C?CC1?1=AA=@@'@'@''''1?'C'?#?J",
  "?C?CC?C?1=5AA=======11111???1C1?",
  "'?C11C?'@@'AAAAAAAA@#C#C#C#C#11?",
  "1'????'1=@======@5A@11?J11?J11J?",
  "11''''>.>=''''/8='==??J???J???JJ",
  "J11JJH-:.>1'111:/8/DJJJJJJJJJJJJ",
  "C??1J->.61'1'1CC8//8DJJJJJJJJJJJ",
  "JC1>-J.6F'1D.'1C?.8//:JJJJJJJJJJ",
  "J.6JJ.J6FJD.:''1CC:/8/D0,JJJJJJJ",
  "JJ...J6JH>.:''1'1C?8/A0505JJJJJJ",
  "JJJJJJJJJF>J'1'1'1CCA50'+'JJJJJJ",
  "JJJJJJJJJJHF>'1D.'1A0'+++=JJJJJJ",
  "JJJJJJJJJJJHFJD.AAA04++==AAJJJJJ",
  "JJJJJJJJJJJJ'>AA'@'A'+==A==JJJJJ",
  "JJJJJJJJJJJJ'@1@1@105==A=JJJJJJJ",
  "JJJJJJJJJJJJ='=='@'A'=A=1'JJJJJJ",
  "JJJJJJJJJJJJC=''===05A=1'#J??JJJ",
  "JJJJJJJJJJJ?11=''>>,'=1'#11??JJJ",
  "JJJJJJJJJJJ?1CCJ>.HJ=1'#11??CC?J",
  "JJJJJJJJJJ?1C?JJF.JHJ'#11??C1C?J",
  "JJJJJJJJJJ?1C?JF.JHJJJJ'??CCC??J",
  "JJJJJJJJJ222222@AA@JJH'??C11C?=J",
  "JJJJ?J?J)%C'1C%=222=B3??CCC1?=JJ",
  "J?JC#C#C!%%%%%%2%%%2%B?C11CC?JJJ",
  "JJ#?1?1?1$$%%%%%%%2%61?C111C?CJ?",
  "JC?1???1111$2222%%6L1?C?CCCC?1#J",
  "?#1?'C'?1'''$$'$2%HH1?1C??C1??CJ",
  "JC??C'C?CCCC%%1%$%331?1CC?C1?1#?",
  "?#1?'C'?1'''$$'$6%%B1?C?CC?C??CJ",
  "JC?1???111116666%%2$$'?C11C?'1#J",
  "JJ#?1?1?1?1?$%%%%%6%H3'????'1CJ?",
  "J?JC#C#C#C#C666666666B#''''C#JJJ",
  "JJJJ?J?J?J?J?J?J?J?J?J?J?J?JJ?JJ",
};
