/* XPM */
static const char *enforcer_25[] = {
  /* width height ncolors chars_per_pixel */
  "60 32 41 1 0 0",
  /* colors */
  "! c #000000",
  "# c #990066",
  "$ c #cc0066",
  "% c #000080",
  "& c #333366",
  "' c #993366",
  "( c #a6caf0",
  ") c #336666",
  "* c #3366ff",
  "+ c #9966ff",
  ", c #339966",
  "- c #669966",
  ". c #3399ff",
  "/ c #555555",
  "0 c #ff9966",
  "1 c #ff5050",
  "2 c #ffcc66",
  "3 c #66ccff",
  "4 c #99ffff",
  "5 c #990000",
  "6 c #ccffff",
  "7 c #333300",
  "8 c #333399",
  "9 c #336600",
  ": c #666600",
  "; c #996600",
  "< c #336699",
  "= c #663399",
  "> c #cbcbcb",
  "K c #339999",
  "@ c #669999",
  "A c #ff9900",
  "B c #33cc00",
  "C c #a0a0a4",
  "D c #66cc66",
  "E c #cccc00",
  "F c #0000ff",
  "G c None",
  "H c #ffffff",
  "I c #ccff99",
  "J c #ff6699",
  /* pixels */
  "GGGGGGGGGGGGGGGGGGGGG>GG>GG>GGGGGGGGGGGGGGGGGGGGGGGGGGGGGGGG",
  "GGGGGGGGGGGGGGGGGGGGGG!C!C!GGGGGGGGGGGGGGGG,CGGGGGGGGGGGGGGG",
  "GGGGGGGGGGGGGGGGGGG>GC/>/>/CG>GGGGGGGGGGGG,5GGGGGGGGGGGGGGGG",
  "GGGGGGGGGGGGGGGGGGGG!//>>>//!GGGGGGGGGGGGG,GGGGGGGGGGGGGGGGG",
  "GGGGGGGGGGGGGGGGGGGGC>>&C&>>CGGGGGGGGGGGGG,GGGGGGGGGGGGGGGGG",
  "GGGGGGGGGGGGGGGGGGG>!/>C&C>/!>GGGGGGGGGGGGG,GGGGGGGGGGGGGGGG",
  "GGGGGGGGGGGGGGGGGGGGC>>&C&>>CGGGGGGGGGGGGG5GGGGGGGGGGGGGGGGG",
  "GGGGGGGGGGGGGGGGG>>>!//>>>//!>G>>>G>>GGGGGG55GGGGGGGGGGGGGGG",
  "GGGGGGGGGGGGGGGG>GGGC>//C//>#$>G//>//>GGGGGBBGGGGGGGGGGGGGGG",
  "GGGGGGGGGGGGGGGGGGGGGG/&C&/#$$/!C!C!/>GGGB=G&GG5GGGGGGGGGGGG",
  "GGGGGGGGGGGGGGGGGGGGC>/&C&/#$CC>>>>/CG>GG=,D/G5,5GGGGGGGGGGG",
  "GGGGGGGGGGGGGGGGGGG>!//&!&#$$&!//>>>!/>GBG9,D/,G,5GGGGGGGGGG",
  "GGGGGGGGGGGGGGGGGG>G5'5#!!1$$/CCC//C<&&B=&&9,&/GG,5GGGGGGGGG",
  "GGGGGGGGGGGGGGGGGGG>5$5#$!!!$C!>>C/<&K=G&/&&&//GG,GGGGGGGGGG",
  "GGGGGGGGGGGGGGGGGGGG5$5&/&1$$$C/>C<&</@D/&/&/C/GGGGGGGGHHHGG",
  "GGGGGGGGGGGGGGGGGGG>5$5#$#1$1<KB/C&&<K@,D/&/CC9G>>HHH&8>>>GH",
  "GGGGGGGGGGGGGG<&&&&&&&&&&<$$$1@,B=&<&/&@,&/C>,,,G>>>>@@HHC>G",
  "GGGGGGGGGGGGG&<;;AH;;HA;;<&$$1@/,,=<KKK@&/CC,-7G,=9@>88C>HC>",
  "GGGGGGGGGGGGG)<IEJJIIJJEI<)1$1K/&J=<&/&@/C>,7-++=D-,&&&$>>CC",
  "GGGGGGGGGGG)&<AEJJIIIIJJEA<&)<K<&/*.@.@.@C7,-+55K)97&&10$>CC",
  "GGGGGGGGGGG)<;EF!:IFFI:!EE;<)A@<K<&4&4&3.@-,5+KK=D-,//&11&&/",
  "GGGGGGGGGGG<I2EF!!EIFF!!!E2I<2J<&/<@<<))&4@3,4+=977/>>>C&/CG",
  "GGGGGGGGGGG;;2E:!!:EEF!!:E2;;>&<!&/<@<<))..K4,4D-,/6%K%K>6>G",
  "GGGGGGGGGGG@HJIJE:J!!FFEJIJH@>>&/!&/<@<6)&4K4,K37/CK!6!6!6/G",
  "GGGGGGGGGGG<;JIIIJE!!EFFII2;<C>>//!&/<@K(&&K<&/&,/>!!GGGGGGG",
  "GGGGGGGGGGGAH2JFFIJEEJIFIJ2HACC>>//!&@<KK3&&3CCCC&>63!6!6GGG",
  "GG&>>>>/GGGAA;JJIIE::EIIFJ;AAC/C>>/@@@&&KK&@<&>&>&(KK%K%K%GG",
  "G&>C//C>/GG&AH2JJJ:!!:JJF2HA&//CC>>>64*&&&@@<C>C>3KKC>>>>>>/",
  "&>C>CC>C>&GG&;AJ2E:!!:E22A;&>>CC/C>>@3KK&@@@<&>&>KK&&C>>>>C/",
  "&>/CC>C/>/GG;;AH;2E22E2;HA;;<<>>CCK@/&&&@@..<C/CC&&&*(46&&&G",
  "&>/C>>C/>/GGGGGAA;H;;H;AA;CG><<>>>K@&*4.4.3GG&>&<@&KKK3GGGGG",
  "&>C>CCCC>/GGGGG;&&9999&&;>GGGGGG>>>>>GG)@@@GG<><&&GGKKKGGGGG",
};
