/* XPM */
static char *med_kit_4[] = {
  /* width height ncolors chars_per_pixel */
  "14 14 21 1 0 0",
  /* colors */
  "! c #660066",
  "# c #008000",
  "$ c #333366",
  "% c #008080",
  "& c #993366",
  "' c #336666",
  "( c #339966",
  ") c #669966",
  "* c #555555",
  "+ c #4d4d4d",
  ", c #ff5050",
  "- c #660000",
  ". c #cc0000",
  "/ c #333300",
  "0 c #663300",
  "1 c #336600",
  "2 c #ff6600",
  "3 c #33cc99",
  "4 c #ff0000",
  "5 c None",
  "6 c #66cc99",
  /* pixels */
  "666'((((('66)'",
  "6//'/////'/)//",
  "6/%%%!2!%%%6/'",
  "''%)#0,0')$''#",
  "(/%1$04/%1$(/#",
  "(/###&4+##$(/$",
  "(/!2,,4,,4!(/!",
  "(/!...4...!('!",
  "(/###&4!##$6/$",
  "(/%%'*40'%%6/#",
  "''%)#040%)1''#",
  "6/%$$!4-%$$6/'",
  "6)6'(((36'66('",
  ")//'///1/'////",
};
