/* XPM */
static const char *background_7[] = {
  /* width height ncolors chars_per_pixel */
  "94 94 8 1 0 0",
  /* colors */
  "! c #000000",
  "# c #cc9966",
  "$ c #ffcc66",
  "% c #333300",
  "& c #663300",
  "' c #993300",
  "( c #996600",
  ") c #cc6600",
  /* pixels */
  "''''''&!%%%%%%%%%%%%%%%!%%%%%%%%%%%%%%%!((('''''&'''''&!('''''''!%%%%%%!%%%%%%%%%%%%%%%!('''''",
  "&&&&&&%!%&&&&&&&&&&&&&%!%&&&&&&&&&&&&&%!(&&&&&&&&&&&&&%!'&&&&&&&!%&&&&%!%&&&&&&&&&&&&&%!'&&&&&",
  "'&&&&&%!%&&&&&&&&&&&&&%!%&&&&&&&&&&&&&%!(&&&&&&&&&&&&&%!'&&&&&&&!%&&&&%!%&&&&&&&&&&&&&%!'&&&&&",
  "&'&&&&%!%&&&&&&&&&&&&&%!%&&&&&&&&&&&&&%!'&&&&&&&&&&&&&%!'&&&&&&&!%&&&&%!%&&&&&&&&&&&&&%!'&&&&&",
  "&&&&&&%!%&&&&&&&&&&&&&%!%&&&&&&&&&&&&&%!'&&&&&&&&&&&&&%!''&&&&&'!%&&&&%!%&&&&&&&&&&&&&%!''&&&&",
  "&&&&&&%!%&&&&&&&&&&&&&%!%&&&&&&&&&&&&&%!'&&&&&&&&&&&&&%!'&'&&&&&!%&&&&%!%&&&&&&&&&&&&&%!'&'&&&",
  "&&&&&&%!%%%%%%%%%%%%%%%!%%%%%%%%%%%%%%%!'&&'&&&&&&&&&&%!'&&&%&&&!%%%%%%!%%%%%%%%%%%%%%%!'&&&&&",
  "%%%%%%%!!!!!!!!!!!!!!!!!!!!!!!!!!!!!!!!!'&&&&&&&&&&&&&%!&&&&&&&&!!!!!!!!!!!!!!!!!!!!!!!!&&&&&&",
  "!!!!!!!!%%%%%%%!%%%%%%%%%%%%%%%!%%%%%%%!('&'&&&&&&&'&&%!!!!!!!!!!%%%%%%%%%%%%%%!%%%%%%!!!!!!!!",
  "%%%%%%%%%&&&&&%!%&&&&&&&&&&&&&%!%&&&&&%!'&&&&&&&&&&&&&%!%%%%%%%%!%&&&&&&&&&&&&%!%&&&&%%%%%%%%%",
  "%&&&&&&&&&&&&&%!%&&&&&&&&&&&&&%!%&&&&&%!('&&&'&&&'&'&&%!%&&&&&&%!%&&&&&&&&&&&&%!%&&&&&&&&&&&&%",
  "%&&&&&&&&&&&&&%!%&&&&&&&&&&&&&%!%&&&&&%!'&&&'&'&&&&&&&%!%&&&&&&%!%&&&&&&&&&&&&%!%&&&&&&&&&&&&%",
  "%&&&&&&&&&&&&&%!%&&&&&&&&&&&&&%!%&&&&&%!'&&&&'&'&'&&%&%!%&&&&&&%!%&&&&&&&&&&&&%!%&&&&&&&&&&&&%",
  "%&&&&&&&&&&&&&%!%&&&&&&&&&&&&&%!%&&&&&%!'&&&&&&&&&&&&%%!%&&&&&&%!%&&&&&&&&&&&&%!%&&&&&&&&&&&&%",
  "%%%%%%%%%%%%%%%!%%%%%%%%%%%%%%%!%%%%%%%!%%%%%%%%%%%%%%%!%%%%%%%%!%%%%%%%%%%%%%%!%%%%%%%%%%%%%%",
  "!!!!!!!!!!!!!!!!!!!!!!!!!!!!!!!!!!!!!!!!!!!!!!!!!!!!!!!!!!!!!!!!!!!!!!!!!!!!!!!!!!!!!!!!!!!!!!",
  "%%%%%%%!%%%%%%%%%%%%%%%!%%%%%%%!%%%%%%%!%%%%%%%%%%%%%%%!%%%%%%%%!%%%%%%!('''''''''''''&!%%%%%%",
  "&&&&&&%!%&&&&&&&&&&&&&%!%&&&&&%!(('&&&&!%&&&&&&&&&&&&&%!%&&&&&&%!%&&&&%!'&&&&&&&&&&&&&%!%&&&&&",
  "&&&&&&%!%&&&&&&&&&&&&&%!%&&&&&%!(&&&&&%!%&&&&&&&&&&&&&%!%&&&&&&%!%&&&&%!'&&&&&&&'&&&&&%!%&&&&&",
  "&&&&&&%!%&&&&&&&&&&&&&%!%&&&&&%!(&&&%&%!%&&&&&&&&&&&&&%!%&&&&&&%!%&&&&%!'&&&&&&&&'&&&&%!%&&&&&",
  "&&&&%%%!%%%%%%%%%&&&&&%!%&&&&&%!'&&&&%%!%&&&&&&&&&&&&&%!%&&&&&&%!%&&&&%!''&&&&&'&&&&&&%!%&&&&&",
  "&&&&%!!!!!!!!!!!%&&&&&%!%&&&&&%!'&&&&&%!%&&&&&&&&&&&&&%!%%%%%%%%!%&&&&%!'&&&%&&&&&&&&&%!%&&&&&",
  "%%%%%!('''''''&!%%%%%%%!%%%%%%%!'&&&&&%!%%%%%%%%%%%%%%%!!!!!!!!!!%%%%%%!&%%%%%%%%%%%%%%!%%%%%%",
  "!!!!!!'&&&&&&&%!!!!!!!!!!!!!!!!!'&&'&&%!!!!!!!!!!!!!!!!('''''''&!!!!!!!!!!!!!!!!!!!!!!!!!!!!!!",
  "%%%%%!'&&&&&&&%!%%%%%%%%%%%%%%%!'&&&&&%!%%%%%%%!%%%%%%!'&&&&&&&%!%%%%%%%%%%%%%%!%%%%%%%%%%%%%%",
  "%&&&%!'&&&&&&&%!%&&&&&&&&&&&&&%!('&'&&%!%&&&&&%!%&&&&%!'&&&&&&&%!&&&&&&&&&&&&&%!%&&&&&&&&&&&&%",
  "%&&&%!''&&&&&&%!%&&&&&&&&&&&&&%!'&&&&&%!%&&&&&%!%&&&&%!''&&&&&&%!&&&&&&&&&&&&&%!%&&&&&&&&&&&&%",
  "%&&&%!'&&&&&&&%!%&&&&&&&&&&&&&%!''&&&&%!%&&&&&&!%&&&&%!'''&&&&&%!'&&&&&&&&&&&&%!%&&&&&&&&&&&&%",
  "%&&&%!'&&&%&&&%!%&&&&&&&&&&&&&%!'&&&&&%!%&&&&&&!&&&&&&!'&&'&&&&%!'&&&&&&&&&&&&%!%&&&&&&&&&&&&%",
  "%&&&%!'&&&&%&&%!%&&&&&&&&&&&&&%!'&&&&&%!%&&&&&&!&&&&&&!'&&&%&&&%!'&&&&&&&&&&&&%!&&&&&&&&&&&&&%",
  "%%%%%!%%%%%%%%%!%%%%%%%%%%%%%%%!&&&&&%%!%&&&&&'!&''''&!('''&%&&%!''''&&&&&%%%%%!&&%%%%%%%%%%%%",
  "!!!!!!!!!!!!!!!!!!!!!!!!!!!!!!!!%%%%%%%!!!!!!!!!!!!!!!!&&&&&&&&%!!!!!!!!!!!!!!!!!!!!!!!!!!!!!!",
  "%%%%%%%!%%%%%%%%%%%%%%%!%%%%%%%%!!!!!!!!%%%%%%%%%%%%%&%%%%%%!!!!!%%%%%%!&&%%%%%%%%%%%%%!%%%%%%",
  "&&&&&&%!%&&&&&&&&&&&&&%!%&&&&&&%%%%%%%&!%&&&&&&&&&&&&&&%&&&&&&%%%%&&&&%!'&&&&&&&&&&&&&%!%&&&&&",
  "&&&&&&%!%&&&&&&&&&&&&&%!%&&&&&&&&&&&&&&!%&&&&&&&&&&&&&&%&&&&&&&&&&&&&&%!'&&&&&&&&&&&&&%!%&&&&&",
  "&&&&&&%!%&&&&&&&&&&&&&%!%&&&&&&&&&&&&&&!%&&&&&&&&&&&&&&%&&&&&&&&&&&&&&%!'&&&&&&&&&&&&&%!%&&&&&",
  "&&&&&&%!%&&&&&&&&&&&&&%!%&&&&&&&&&&&&&&!%&&&&&&&&&&&&&&&&&&'&&&&&&&&&&%!'&&&&&&&&&&&&&%!%&&&&&",
  "&&&&&&%!%&&&&&&&&&&&&&%!%&&&&&&&&&&&&&&!%&&&&&&&&&&&&&&&&&&)'&&&&&&''&%!&&&%%%%%%%%%%&%!%&&&&&",
  "%%%%%%%!%%%%%%%%%%%%%%%!%%%%%%%%%%%%%%&!%%%%%%&''&&&&&&&&&&&)&&&&&&%!!!!!!!!!!!!!!!!%%%!%%%%%%",
  "!!!!!!!!!!!!!!!!!!!!!!!!!!!!!!!!!!!!!!!!!!!!!!%%%%&&&&&&&&&&'&&%%%%!!%((('''''''&&%!!!!!!!!!!!",
  "((('''''&'''''&!%%%%%%%%%%%%%%%!((('''''&''''&&%&&&&&'''''')&&&&%&&&!%('''&'&&&&&&%!%%%%%%%%%%",
  "(&&&&&&&&&&&&&%!%&&&&&&&&&&&&&%!(&&&&&&&&&&&&&&%&&&&'()('''''&&&%&&&!%(&'&&&&&&'&&%!%&&&&&&&&%",
  "(&&&&&&&&&&&&&%!%&&&&&&&&&&&&&%!(&&&&&&&&&&&&&&%&&&'''($#(''''&&&&&&!%'&&&''&'&&&'%!%&&&&&&&&%",
  "'&&&&&&&&&&&&&%!%&&&&&&&&&&&&&%!'&&&&&&&&&&&&&&%&&&'''')$)''''&&&&&&!%'&&'&&&&&&&&%!%&&&&&&&&%",
  "'&&&&&&&&&&&&&%!%&&&&&&&&&&&&&%!'&&&&&&&&&&&&&&%&&&'''(#$#('''&&&&&%!%'&&&&&&&&&&&%!%%&&&&&&&%",
  "'&&&&&&&&&&&&&%!%&&&&&&&&&&&&&%!'&&&&&&&&&&&&&&%&&&''')#$#)'''&&&&&%%&'&&&&&&&&&&&%!%%&&&&&&&%",
  "'&&'&&&&&&&&&&%!%%%%%%%%%%%%%%%!'&&'&&&&&&&&&&&%&&&''')#$#)'''&&&&&%%&'&&&&&&&&&&&%!%%%%%%%%%%",
  "'&&&&&&&&&&&&&%!!!!!!!!!!!!!!!!!'&&&&&&&&&&&&&&%%&&&&&()$)(&&&&&%%%!%'&&&&&&&&&&&&%!!!!!!!!!!!",
  "('&'&&&&&&&'&&%%%%%%%%%!%%%%%%%!('&'&&&&&&&'&&&%&&&&&&'($('&&&&&&&&!%'&&&&&&&&&&&&%!%%%!%%%%%%",
  "'&&&&&&&&&&&&&%&&&&&&&%!%&&&&&%!'&&&&&&&&&&&&&%%&&&&&&&'#'&&&&&&&&!!%'&&&&&&&&&&&&%!%&%!%&&&&%",
  "('&&&'&&&'&'&&%&&&&&&&%!%&&&&&%!('&&&'&&&'&'&&%%&&&&&&&&)&&&&&&&&&!%&&&&&&&&&&&&&&%!%&%!%&&&&%",
  "'&&&'&'&&&&&&&%&&&&&&&%!%&&&&&%!'&&&'&'&&&&&&&%!&&&&&&&&&&&&&&&&&%!%&&&&&&&&&&&&&&%!%&%!%&&&&%",
  "'&&&&'&'&'&&%&%&&&&&&&%!%&&&&&%!'&&&&'&'&'&&%&%!%&&&&&'#$)&&&&&&&%!%&&&&&&&&&&&&&&%!%&%!%&&&&%",
  "'&&&&&&&&&&&&%%&&&&&&&%!%&&&&&%!'&&&&&&&&&&&&%%!%&&&&&()#('&&&&&&%!!%&&&&&&&&&&&&&%!%&%!%&&&&%",
  "%%%%%%%%%%%%%%%%%%%%%%%!%%%%%%%!%%%%%%%%%%%%%%%!%%%%%&()#('&%%%%%%%!%%%%%%%%%%%%%%%!%%%!%%%%%%",
  "!!!!!!!!!!!!!!!!!!!!!!!!!!!!!!!!!!!!!!!!!!!!!!!!!!!!!!()#('!!!!!!!!!!!!!!!!!!!!!!!!!!!!!!!!!!!",
  "%%%%%%%%%%%%%%%!%%%%%%%%%%%%%%%!%%%%%%%%%%%%&&&!&&&&&&())('&&&&&!&&&&%%%%%%%%%%!%%%%%%%%%%%%%%",
  "%&&&&&&&&&&&&&%!%&&&&&&&&&&&&&%!%&&&&&&&&&&&&&&!%&&&&&&'('&&&&&%!&&&&&&&&&&&&&%!%&&&&&&&&&&&&%",
  "%&&&&&&&&&&&&&%!%&&&&&&&&&&&&&%!%&&&&&&&&&&&&&&!%&&&&&%&'&%&&&&%!&&&&&&&&&&&&&%!%&&&&&&&&&&&&%",
  "%&&&&&&&&&&&&&%!%&&&&&&&&&&&&&%!%&&&&&&&&&&&&&&!%&&&&&&&&&&&&&&%!&&&&&&&&&&&&&%!%&&&&&&&&&&&&%",
  "%&&&&&&&&&&&&&%!%&&&&&&&&&&&&&%!%&&&&&&&&&&&&&%!%&&&&&&%&%&&&&&%!%&&&&&&&&&&&&%!%&&&&&&&&&&&&%",
  "%&&&&&&&&&&&&&%!%&&&&&&&&&&&&&%!%&&&&&&&&&&&&&%!%&&&&&&&%&&&&&&%!%&&&&&&&&&&&&%!%&&&&&&&&&&&&%",
  "%%%%%%%%%%%%%%%!%%%%%%%%%%%%%%%!%%%%%%%%%%%%%%%!%%%%%%%%%%%%%%%%!%%%%%%%%%%%%%%!%%%%%%%%%%%%%%",
  "!!!!!!!!!!!!!!!!!!!!!!!!!!!!!!!!!!!!!!!!!!!!!!!!!!!!!!!!!!!!!!!!!!!!!!!!!!!!!!!!!!!!!!!!!!!!!!",
  "%%%%%%%!(('&&&&!%%%%%%%!%%%%%%%%%%%%%%%!%%%%%&&&&%%%%%%!%%%%%%&&&&&%%%%!('''''''&!%%%%%!%%%%%%",
  "&&&&&&%!(&&&&&%!%&&&&&%!%&&&&&&&&&&&&&%!%&&&&&&&&&&&&&%!%&&&&&&&&&&&&&%!'&&&&&&&%!%&&&%!%&&&&&",
  "&&&&&&%!(&&&%&%!%&&&&&%!%&&&&&&&&&&&&&%!%&&&&&&&&&&&&&%!%&&&&&&&&&&&&&%!'&&&&&&&%!%&&&%!%&&&&&",
  "&&&&&&%!'&&&&%%!%&&&&&%!%&&&&&&&&&&&&&%!%&&&&&&&&&&&&&%!%&&&&&&&&&&&&&%!'&&&&&&&%!%&&&%!%&&&&&",
  "&&&&&&%!'&&&&&%!%&&&&&%!%&&&&&&&&&&&&&%!%&&&&&&&&&&&&&%!%&&&&&&&&&&&&&%!''&&&&&&%!%&&&%!%&&&&&",
  "&&&&&&%!'&&&&&%!%&&&&&%!%&&&&&&&&&&&&&%!%&&&&&&&&&&&&&%!%&&&&&&&&&&&&&%!'&&&&&&&%!%&&&%!%&&&&&",
  "%%%%%%%!'&&'&&%!%%%%%%%!%%%%%%%%%%%%%%%!%%%%%%%%%%%%%%%!%%%%%%%%%%%%%%%!'&&&%&&&%!%%%%%!%%%%%%",
  "!!!!!!!!'&&&&&%!!!!!!!!!!!!!!!!!!!!!!!!!!!!!!!!!!!!!!!!!!!!!!!!!!!!!!!!!'&&&&%&&%!!!!!!!!!!!!!",
  "!%%%%%%!('&'&&%!('''''''''''''&!%%%%%%%%%%%%%%%!%%%%%%%%%%%%%%%%!%%%%%%!%%%%%%%%%!%%%%%%%%%%%%",
  "!%&&&&%!'&&&&&%!'&&&&&&&&&&&&&%!%&&&&&&&&&&&&&%!%&&&&&&&&&&&&&&%!%&&&&%!!!!!!!!!!!%&&&&&&&&&&&",
  "!%&&&&%!''&&&&%!'&&&&&&&'&&&&&%!%&&&&&&&&&&&&&%!%&&&&&&&&&&&&&&%!%&&&&%!('''''''&!%&&&&&&&&&&&",
  "!%&&&&%!'&&&&&%!'&&&&&&&&'&&&&%!%&&&&&&&&&&&&&%!%&&&&&&&&&&&&&&%!%&&&&%!'&&&&&&&%!%&&&&&&&&&&&",
  "!%&&&&%!'&&&&&%!''&&&&&'&&&&&&%!%%%%%%%%%%%%%%%!%&&&&&&&&&&&&&&%!%&&&&%!'&&&&&&&%!%&&&&&&&&&&&",
  "!%&&&&%!&&&&&%%!'&&&%&&&&&&&&&%!%!!!!!!!!!!!!!!!%&&&&&&&&&&&&&&%!%&&&&%!'&&&&&&&%!%&&&&&&&&&&&",
  "!%%%%%%!%%%%%%%!&%%%%%%%%%%%%%%!!%%%%%%%%%%%%%%!%%%%%%%%%%%%%%%%!%%%%%%!''&&&&&&%!%%%%%%%%%%%%",
  "!!!!!!!!!!!!!!!!!!!!!!!!!!!!!!!!!%((('''''''&&%!!!!!!!!!!!!!!!!!!!!!!!!!'&&&&&&&%!!!!!!!!!!!!!",
  "(('&&&&!%%%%%%%%%%%%%%%!%%%%%%%%!%('''&'&&&&&&%!%%%%%%%!%%%%%%%%%%%%%%%!'&&&%&&&%!%%%%%!%%%%%%",
  "(&&&&&%!%&&&&&&&&&&&&&%!%&&&&&&%!%(&'&&&&&&'&&%!%&&&&&%!%&&&&&&&&&&&&&%!'&&&&%&&%!%&&&%!%&&&&%",
  "(&&&%&%!%&&&&&&&&&&&&&%!%&&&&&&%!%'&&&''&'&&&'%!%&&&&&%!%&&&&&&&&&&&&&%!%%%%%%%%%!%&&&%!%&&&&%",
  "'&&&&%%!%&&&&&&&&&&&&&%!%&&&&&&%!%'&&'&&&&&&&&%!%&&&&&%!%&&&&&&&&&&&&&%!!!!!!!!!!!%&&&%!%&&&&%",
  "'&&&&&%!%&&&&&&&&&&&&&%!%&&&&&&%!%'&&&&&&&&&&&%!%&&&&&%!%&&&&&&&&&&&&&%!%%%%%%%%%%%&&&%!%&&&&%",
  "'&&&&&%!%&&&&&&&&&&&&&%!%&&&&&%!%&'&&&&&&&&&&&%!%&&&&&%!%&&&&&&&&&&&&&%!%&&&&&&&&&&&&&%!%&&&&%",
  "'&&'&&%!%%%%%%%%%%%%%%%!%%%%%%%!%&'&&&&&&&&&&&%!%%%%%%%!%%%%%%%%%%%%%%%!%%%%%%%%%%%%%%%!%%%%%%",
  "'&&&&&%!!!!!!!!!!!!!!!!!!!!!!!!!%'&&&&&&&&&&&&%!!!!!!!!!!!!!!!!!!!!!!!!!!!!!!!!!!!!!!!!!!!!!!!",
  "('&'&&%!%%%%%%%!%%%%%%%%%%%%%%%!%'&&&&&&&&&&&&%!%%%%%%%%%%%%%%%%!%%%%%%%%%%%%%%!%%%%%%%%%%%%%%",
  "'&&&&&%!%&&&&&%!%&&&&&&&&&&&&&%!%'&&&&&&&&&&&&%!%&&&&&&&&&&&&&&%!%&&&&&&&&&&&&%!%&&&&&&&&&&&&%",
  "''&&&&%!%&&&&&%!%&&&&&&&&&&&&%!%&&&&&&&&&&&&&&%!%&&&&&&&&&&&&&&%!%&&&&&&&&&&&&%!%&&&&&&&&&&&&%",
  "'&&&&&%!%&&&&&%!%&&&&&&&&&&&&%!%&&&&&&&&&&&&&&%!%&&&&&&&&&&&&&&%!%&&&&&&&&&&&&%!%&&&&&&&&&&&&%",
  "&&&&&%%!%&&&&&%!%&&&&&&&&&&&&&%!%&&&&&&&&&&&&&%!%&&&&&&&&&&&&&&%!%&&&&&&&&&&&&%!%&&&&&&&&&&&&%",
  "%%%%%%%!%%%%%%%!%%%%%%%%%%%%%%%!%%%%%%%%%%%%%%%!%%%%%%%%%%%%%%%%!%%%%%%%%%%%%%%!%%%%%%%%%%%%%%",
};
