/* XPM */
static char *background_0[] = {
  /* width height ncolors chars_per_pixel */
  "100 100 27 1 0 0",
  /* colors */
  "! c #000000",
  "# c #800000",
  "$ c #333366",
  "% c #008080",
  "& c #336666",
  "' c #666666",
  "( c #996666",
  ") c #cc6666",
  "* c #3399ff",
  "+ c #999966",
  ", c #555555",
  "- c #6699ff",
  ". c #66ccff",
  "/ c #99ccff",
  "0 c #330000",
  "1 c #660000",
  "2 c #ccffff",
  "3 c #333300",
  "4 c #663300",
  "5 c #666600",
  "6 c #996600",
  "7 c #336699",
  "8 c #339999",
  "9 c #669999",
  ": c #cc9999",
  "; c #808080",
  "< c #666699",
  /* pixels */
  "!!!!!!!!!!!3333!!!!!!!!!33!!!!3333$3!!!!!33$&&&!!!4!4444333&&33344433!!!3&$!!!&&&3!!!!!!!!33&&3333!!",
  "!!!!!!!!!!333333!3!!!333!33333333&33!!!!333!!33!!!444#44333$&33344443!!!!3&&!!!3&&3!!!!!!3&&&3!3!!!!",
  "!!!!!!!!!!3!333!!!3!33333333!333&3!!!3!!!!!!!!!!!34444443!!&&&3!34443!3!!!!&&3!!3<&!!!!!3$&$3!!3333!",
  "33!!!!!!!!!!3333!!!!$33333&3!333!!333333!!!!!!!3444444443!3&&33!044443!!!!!!&&3!!!'$33!!!$&3!!!33&$3",
  "&$3!!!!!!!!!3333!!!3,&!333&$33!!!3&3333!3!3!33444444##43!!3&&$3!044440!!!!!!!&9!!!3&333!33!!!!!3$&&&",
  "&&&3!!!!!!!!3333!3!!33!!3&&93!!$&3$!!3!!!!3!344444444430!!3&&&!!!44444!!!!!!!!&9&!!3&3&3!!3!!3!!3&&&",
  "&&&&333!!!!!333333!!33!!3&33$&!&'!!!343303,345#44444#443!!3!$&!!334444!!!!!!!!!&93!!33!%3!!!!!!!33&&",
  "&&&&$$$333!!!33333!!33$!!33!!!!&&!!3444444,444444444444333!!!!!!344444!!!!!3!!!!79!!!3!%%!!!!!3!!33&",
  "&&&&&&&&$&3!3333$!!!!&'$!$333!!$&!34444444444444444444443333!!!!344#443!3!!3&!!!39<!33!37!!!!!3!!!!$",
  "$&&&$$$&&&&33333&!!!&;'&!&!3!!&&3!34444#444'444444444#444444433334#444333!!&33!!!3-!!7!!9!!!!!3!!!33",
  "33333333$&&&&&3$&!!!399&33!3!!3!33344444#4444444444444#4544444444444#443&3!3&!!!!!7&!-&!&3!!!!&!!!!3",
  "!!3!!!3333&&&&$3&!3$3'<&33!&!!!!33444444##44444444444444444444444444444!&'!!'!!!!!3&3'9&&3!!!!&3!!!3",
  "!!!!!!!!!3&&,&&&&&3'&3'&333!!!!!334444444444444444444444444444#44#4444433&&!&!!!!!!&!&<97!!!!!&3!!!!",
  "!!!3!!!!33&&'<'&3!!3'&&$!!33!!!!334444444444###444##454##444444######445&!7&!!!!!!!!!3899!!3!!&&33!!",
  "!!33!!!!33&&&$333!!!3'&3!!!!3!!!34444344444444#44444444#4#4444444####445'!3&!&!!!!!!!!3<9!!!!3&3!!!!",
  "3!!!!!!333&$3!!3&3!!!3,,&!!!!!!333444434444444444444444444444444##4#4#45&!!3%!!!!!!!!!!!&!3!!!!!!333",
  "!!!!!333333!33$3&&3!!!!3&&!!!!!3003333434444444444444444444###4#######4,3!!!33!!!!!!3!!!3!3!!!!!3333",
  "!!!3!!33!!333333!&&!3!!!3333!!!3333330303344444444444444444##4######444'333!!!!!!!!3!!!3!!33!333333!",
  "!3!!!!3!3333&&3333&$!33!!!!!33!!33000000333333434444444445444#4#444444453!$3!!!!!!3!!!!3$!3$33$33!!!",
  "!!!!!3333$&&&&&3333&3!333!3!333!333300030033333333444444445#444#44####444333!!!!!33!!!!!&&$&333!3!3!",
  "3!!!!33&&&33!!&&$33$$!333333!33!3!0!!!!0030033333334444444554444444444444333!!!!!3!!!!!!!3333!!3!3!3",
  "!!!33&&&&!!!!!!&&&33$3!3333333!!3!!33333!033033334444444444'44444444444443!!!!!!3!!!!!!!33!!!!!33333",
  "3!!33&&&3!!&!!!!3&&3&3!33333333!3!!33333333!333334343344444643344444444444!!!!!!!!!!!!!3!!!!!3333333",
  "!!!3&&&&!!!!33!!!!!!3$333333343333333333333334444333!34344445334344444444433!3!!!!!!!!!!!!$$33333333",
  "!!!$&&&3!!!!!!&!!!!!!33343334433333333333444444444333333444444333344444444433333!33!!!!!3333!333333!",
  "!!!3&&&3!!!!!!!!!!!!3!3!34434434434434434444,'5543343334443454!!33444444444443343430!!!3!3!!!3333!!!",
  "!!!$&$&3!!!!!!!!!!!!3333!33344444444444444,'44,'444333444444443333344444555444444433!!!!3!!!3!!!!!!!",
  "!!!!3&$3!!!!!!!!!!!!3!33!3344444444444444'''4#444444433444445'3!33444445455444444433!!33!!!!!!!!!!!!",
  "!!!!3333!!!!!!!!3!!3&!!4!334444444444444,'(5''4#5''444333434344!!0434444#444#44444,&333!33!!!!!!!!!!",
  "!!!!!333!!!!!!!!!!!!!!!433344434444444445'''5545''44,'5444444443!00334444444444444,3$&$3!!!!!!!!!!!!",
  "!!!!!!!!3!!!!!!!!3!!!!!333!3444444444445'''5'4''45444''444345433333304444444444433,<%&!!!!!!!!!!!!!!",
  "!!!!!!!!!!!!!!!!333!3!!44303343344444444''''545+54445554,''''43333330044444444444&9&3!!!!!!!!!!!!!!!",
  "!!!!!!!!!!!!!!!!!03333334443343333444445''4(56(('4'44(544'''''33!33043445444444403!!!!!!!!!!!!333!!!",
  "!!!!!!!!!!!!!3!3!3330434444333533434445''5'((4((6(((54'4444,('33!!3333444##44#43333!!!!!!!!33333!3!!",
  "!!!!!!!!!!!!!!!333333434544333333334444''5('((((((((('5554#44'4333!0333444444#44433!33$33$333!3333!!",
  "!!!!!!!!!!!!!!333334344454#433!33334444'55(5(+((((+)((('5544444333!!00344444444,;9-9%&&&$33333333!!!",
  "!!!!!!!!!!!!!!333344444454#433!33343445'45''5(+((((((((''4544443333!3004444444#44&77&&$3333333!!!!!!",
  "!!!!!!3!!!!!!3!333344444454433!!33334454455565(((((((((''544444433!!!3334444444'4!!333333!!!!!!!!!!!",
  "!!!!3!3!!3!!!!!33334444#4544343!3333444445'''55'(+(+('65''454444433!!!3444#444443!!!33!3!!!!!!!!!!!!",
  "!!!!!!!!3!!3!!33333444444544343!33344444444''5''4((((('4'5554444430!!!04444444443333333!!!!!!!!!!!!!",
  "!!!3!!33333!3!!3333344444444334!334444455'54(4'(6((((((5544('4443333!34344#4444,,&33333!!!!!!!!!!!!!",
  "!!!!!3!333333333333334444544433434444445'''4''5'((()((((((4(+'444343!!33445444443333333!!!!!!!!!!!!!",
  "!!!!!!3!33333333333344444444333454444454''5('(('(())(((((('4('4444433!34444443,3!3333333!!!!!!!!!!!!",
  "!!!!33!3333333333343334444443343'54444444+(5(((((+)(()((((('55444((4333334443!&9$!!33333!!!!!!!!!!!!",
  "!!!!!!3!3333333333334344444433444'44554445('((((()+)++)(((''4444445(433344#4&3!./73!3333333!!!!!!!!!",
  "!!!!!!!33333$3333333344444443344455445'4445'(((()(())():(45'5444444444434444&$!*.2.-7%&&$3333!!!!!!!",
  "!!!!!!!33!33$$$33333343444443344444444'44455'(((((((((((+'#45444444444434444&&!%%7-.--9%&$3!!!!!!!!!",
  "!!!!!!!!3!!333$&$3333333443444444444444444445(5(((+)((6(+54444444#4444#30444&&!!!!!!!!!!!!!!!!!!!!!!",
  "!!!!!!!333!33333$&&3333344334444444444444444455'((((((4''54444444444454304#4!!!!!!!!!!!!!!!!!!!!!!!!",
  "!!!!!!!!3333!!333$&&$&33444334#4444444444434445('((('55444444444444444433443!!3333333!!!!!!!!!!!!!!!",
  "!!!!3!!3!33333!!!!!!!$&%34433444444444441434454'4'+'''44344434444444444434433!3&!3!!!!!!!!!!!!!!!!!!",
  "!!!!!3!33!3!3!33!!!!!!3$4443344444444444343434455((55''30444344444#444430443!!!&!3!!!!!!!!!!!!!!!!!!",
  "!!!!!!33!33!3!3!!!!!!!3&3443444454444444343333444'('44433433344444445543!#43!!3&!&!!!!!!!!!!!!!!!!!!",
  "!!!!!3!33!33!!!33!!!%&!&3444344444441444433443444''444434334334344445444!#43!!3%!3!!!!!!!!!!!!!!!!!!",
  "!!!!!!3333!3!!!3333!3%!!444434344444441444444333344434334444344344444443!4#3!!!&3!!!3!!!!!!!!!!!!!!!",
  "!!333!!333!33!!3333!!9&!344434344441444444(443344444343!4544444444444443!4#3!!!&$!!!!3!!!3!!!!!!!!!!",
  "!3&$3&3!!!!333!!333!!&'3444433344444444444'(4434444434404''4455444444440!3#3!!!&$!!!!!!!!!3!3!!!!!!!",
  "3&&&&&&3!3!!33!!3343334544443334444444444('('4344444344445''454444444443!3#3!!!%!!!!3!!!!!3!!!!!!!33",
  "&&$$$&&&&33!!333!3435,344444!333444444444'+(+44444443'435'('455444444433!344!!!%3!!!!!!!!!3333333333",
  "3$33333&&&33333!3334454444433333433444444''('54433343'435(('455444443433!044!!!&&!!!3!3!!!!!33333333",
  "33$3333!3&&$333!3334444444433!!3333344444''''5453334!5435'''4444444433333334!!!&&!!!!!!!!!!!333$&&&&",
  "&&3&&&$3333&&3333&!3,44444443!3!!3343444445''4'53333!443'5'44444444433343!!33!!3&!!!3!!!!!!!3333&$$&",
  "&&&$&&3&$3!3&&&33$!3'4444444333333!33333344444443043!4345444444444444433330030!3&!!!3!!!!!!!!!3333&&",
  "&$$&$$$&3$3333&&33!&934444444003333333!334444443043034444444'5444444443333!033!!33!!!3!!!!!!!!!!3333",
  "3&&&3&$3&3$33333&3!77!!444#44443!333443334444443433040444534''4454444443340303!!33!!!!!!!!!!!!!!!333",
  "333333$&&33$333!&!!*&!!!3444#433!!!!334444444450543344454534'54'54444443333333!!33!!!!3!!!!!!!!!!!!3",
  "!3333$&&&3&3333!3!373!!!!34#4#44!!!!33!34'4434'4444334444534'545444444333333!3!!!3!!!!!3!!!!!!!!!!!3",
  "!33333$333$333333!&%!!!!!3444444!!!!!403!4444444444034544534''444444430!!!!!!!!!!$3!!!!3!!3!!!!!!!!!",
  "!!3333333333333$!!%3!!!!!!34444333!!!30!33333344444334445434'444444433!!!!!!!!!!!33!!!!!3!33!!!!!!!!",
  "!!3333333&$3!!33!!3!!!!!333344430!!!!43040!34333433334434433444434443!!!!!!33333!!3!!!!!!3!!!!!!!!!!",
  "!!33333!33&&3!3!!!3!!!!!!!!!34434!!!!44343!3433333443543443!344!!4443!!!!!!!!!!!!!!!!!!!!!!!!!!!!!!!",
  "!33333333333&3&33!!!!!!!!!!!344340!!!444330343334344344354!3444!04443!!!!!!!!!!!!!!!!!!!!!!!!!!!!!!!",
  "!333333333333&&&!!!!!!!34435,444403!!3434334433344443443'4!!343!34444!!!!!!!!!!!!!!!!!!!!3!!!3!33!!!",
  "!33333!!3$33!&&3!!!!!!!444445444434!!!33333433444444344353!!333334434!!!33!!!!!!!!!!!!!!!!3!!!3!!!!!",
  "!333333!!&3!!&&3!!!!!!!344444444444!!!!3333443444454344343!!334333344!!!!!!!!!!!!!!!!!!!3333!!!!!!!!",
  "33333333!3!!&%3!!3!!!!!!444444444440!!!3034443444455344343!!!43333344!!!!!!!!!!!!!!!!!!!!!!!!33!33!!",
  "3333333!!!!&%$!,3!!!!!!!34444#444443!!!!!34443444444444343!!!0333333443!!!!!!!!!!!3!!!!!!!!!3333!!!3",
  "3333333!!33%&!&;!!!!!!!!3,'4444444440!!!!3444344444434433!!0!0!3333333303!3!!!!3!!3!!!!!!!!!!3333!!!",
  "33$3333!!3&&!!&,!!!!!33&&';4444144344!!3!34343444444334340!0003300!333334333!!333!!3!!!!!!!!!3333333",
  "3&33333!!&<&!&3333!!!!3&&<<3444444444!!4!33!334444443334433030!30330!333334333333333!!!!!3!!!!333333",
  "33333333!&9$!!!!333!3!!&&9&344443444434403433!4444443344434343!!03333333333333333333333333!!!33&3333",
  "333333&$!&9&!!33!!3!333&79!!4334444##4443333333344443444444440!30!00!344333333333333333333!!!!&&&333",
  "&3333333!3<&!33!!!33!3&&9&!!!4334444444#334033343334!44344#4430!!0!0400!!!!!3333333333$&$!!!3!$&&33&",
  "&3333333!!&&!3,$!3$!!!$&&!!3!!303344444#4443303434343333444040!!!3!!!!!!!!3!33333333$&&$3!!!!3&,$3$$",
  "3333333333$&!3&,3!3!!!&3!!!!!$!!3334444#4443330344333333444343!!!!!!!!!!!!!3!!!3333&&&&&3!!!!&&&$&&3",
  "33!3!!3!333&333',!&33!!!!!!!!,&!!3!3444444403!!44433!03334433!!!!!!!!!!!!!!333!!33&&&&&&!!!!3&'&&&33",
  "3!3!!!!3333&333&;&&33!!!!!!3!!3!!!!334444440043334333!3334433!33!!!!!!!!!!!!!33!!3&<&&&3!!!33&9&$&33",
  "3333!!33333&&!3&'<73!!!!!!3!!!!3!!3334444444!34!440!!!!!33433!3&3!!!!!!!!!!!3!!$!!&;'&3!!!!!&'<&$&33",
  "333333333333&!3&,99!!!!!!!3,!!!!!!3&,34444333!3334354!33333333!&&3!!!!!!!!!!!3!!3!&3&&3!!!!3&<&$&33!",
  "!33333&3333$$33&,&!!3!!!!!!'3!!!3!&&333433344!!33434'4!33333!!!!&33!!!!!!!!!!!33!3!!!!!!!!!3&&&&33!!",
  "!!3!3333333$&!33&$,3!!!3!!!!!$!!3$<3&,45,3333333453!34!3333!!!!!!!33!!!!!!!!!!!3!!!!!!!!!!!!33$&33!!",
  "!333!333333$&3!3$&,'3!!34!!!!!&&!!9!!3!!45433430440!!!33!33!!!!!!!!3!!!!!!!!!!!!33333!!!!!!!3!33333!",
  "33333333$333&3!333&&&33!!!3!!!!&!!3&33!3!333!!434433!!3333!!!!!!!!!33!!!!!!!!!!!!3!3!!!!!!!!!!!!3333",
  "333333333&33&3!!3333$$33!!!!!!!3!33&,&&&!!!!!!!344333343!!!!3!!!!!!333!!!!!!!!!!!!!!!!!!!!!!!!!!!333",
  "&3333333$$3333!!3333333333!!33!3&&&$3&$3!!33!3!44433!3,3!!!3!!33!!!3&33!3!!!!!!!!!!!!!!!!!!!!!!!!!3$",
  "!33333333333333!!!3!33333!3!!!!!!,333333!!333333443!!3,3!!!333333!!!3&3!!33!!!!!!!!!!!!!!!!!!!!!!!!!",
  "!!!!33333$33333!!!3!3!3333!!!!!!!!!!!3&$&!!33!3!443!!3,3!!!33!3333!!!&&3!3$33!!!!!!!!!333333333!!!!!",
  "!333333333333333!!!!!!3333!!!!!!!!!!!3&&&&3!!3!34533!343333&&333443!!!&&!!3&&3!!33333343433333333333",
  "3333333!3333333!!3!!3!!!3333!!!!!!333333&&&3!!!343!3!34433&&&3334433!!!&&!!!&&33!3333333!3!333333333",
  "33333!!!!333333!!!!!!!!3!3!!!!!333333!!!!33&&33!333!3444333&&3334443!!!!&&!!!&&&3!!!!!!!!!3333333333",
};
