/* XPM */
static char *background_3[] = {
  /* width height ncolors chars_per_pixel */
  "100 100 27 1 0 0",
  /* colors */
  "! c #660066",
  "# c #000000",
  "$ c #000080",
  "% c #333366",
  "& c #336666",
  "' c #996666",
  "( c #999966",
  ") c #555555",
  "* c #4d4d4d",
  "+ c #330000",
  ", c #333300",
  "- c #663300",
  ". c #333399",
  "/ c #336600",
  "0 c #666600",
  "1 c #996600",
  "2 c #336699",
  "3 c #663399",
  "4 c #996699",
  "5 c #339999",
  "6 c #669900",
  "7 c #669999",
  "8 c #999900",
  "9 c #a0a0a4",
  ": c #330099",
  "; c #666699",
  "< c #330066",
  /* pixels */
  "###%%%%###)%%%%%###################%#####################################%#%#%########%%%#%##%#%#%%%",
  "#%#%%%%###)&%%%%################%#%#%#%#%#%%#%%%%%%%%%%################%#%#%#%%#,#,#,#%%###%#%%%#%%#",
  "%##%%%%###*&%%%#%##%#,##,#,#%#%#%%#%########################%%##%#######%#%#%%<,#,#%##%%#%###%%%%%%%",
  "###&%%%###%&%%%%#######,###%###%<%###%#%#########%%#%%####%%#%%%%%%%###%+%,,,#,%,+%,%#%&%##%#%%%%%%#",
  "%##%%%#%);%%%%%#%#%#%#,##%###%##%##%##%######%#%%<$<$#$$$$$<$#<$<$<$<%<<$<$<$<#<#$#$<$%<$$$#$<<<$%%%",
  "#%#%%%%###)&%%%%#######%##%#,#%##%##%##%#,###%%##$$$#$###$$<#$%$$%<%<$%$%<<%<%<$<%<#<#.%<%<%$%$%$%%#",
  "%##%%%%###*&%%%%%####%##%#######%##%##%#%#%###%%%$<.<<#$<##<.<<%%<%<%%%%%%%<%<%%%<%%%<<%$$$$$<%<$%%#",
  "###&%%%###)&%%%%##,#,####%#%#%#%##%##%###%##%%%#%<$%:$####$<%$$<*%%*%!*<*<%*%%%<<<%<<#.%$$#$#.$%$%%#",
  "%##%%%####%%&%%#######%#%###,##%#%###%##%##%#%%%%$$.:##$#$<$.<*%%*%*%%%*%*%<%!%%<%<%%<%<$#<$<%%$<%%#",
  "###%%%%###%&%%%%%###%####,###%####%%%#%##%#######$#<.$#<#<$<%*%**%!%**%%*%*%*%!%%<$<%<.%$$#$#.<%$%%#",
  "%##%%%%###)%%%%%##%###,#%##%###%#%%%&%%####%######<$.<#%<#<%*%*%%*%*%%**<*%!%%%<%<#<<%<%<%<%<%.<$%%#",
  "###%%%%###*&%%%#%####,####,#%#%#%%%%%%###%%####%#:...<%##<%***%**%*%***%*%*%%**%*#$<%%.<$$$$$.%<%%%#",
  "%##&%%####)&%%%%####,##,#%####%%%%%##%#%%%%%%%%#%.<:%*##$**%*%**%***%%%*%*%**<%*%<##<%<%$#$#$%<%<%%#",
  "#,#%%%%###%&%%%%##,#######,#%#%#%####%#%%%%%%%%##%$%<$#$<%<%<<%<<%$<<<<<<<<$<%<<<#$#$<.$$<#$#.%$%%%#",
  "%##%%%####%%%%%#%#####%#%%#%###%%%%##%#%%%%%#%%##<%<##$#%#%<%%#%%<%%%%%%%%<%%#<%<$#$<%<%#$$<$<%%$%%#",
  "###%%%%###)&%%%%#####%##%###%%%%%%%%%%##%%%#%%%#/<%<$$$<%<<$#$<<$<%<<<<$<<<%<<%<#$#<#<<%<$<$<%.<<%##",
  "#%#%%%%###)%%%%%##,#%##%%#%%&%%%%%%%%&%#%%#<#2*81%%$###%<########<%%*%***%**%%%<$#$#<%.$$$#$$%<%$%%%",
  "###&%%####*&&%%%#########%%%%%%%%%%%%%%%#%###,0-#<###<#<<$##<#####<<**%*%*%**%<#$#<#%<%%$<$#$.%<%%%#",
  "%##%%%%###%&%%%#%###,#%##%&#%#%%%%%%%%%%##.#0,####$##$#<*%*%%%<#$##$%%*%****%<$##$#$<%:<$#<$#<.%<%%#",
  "###%%%####%%%%%%#####%##%&%%%%%#%%%%%#&%%#%0#######<$##$%*%*****<####%%**%%%<###<#$<%<%%#$$#$.%<$%%#",
  "%##%%%%###)&%%%%##,##%%#%%%%%%%%#%%%%%%&;#,#######$#####<***%*%*%<###<*%*%<####$#$<%#<%$<<$%<%<%<%#%",
  "#%#%%%%###)%%%%%########%%%%%%%%%%%%%%&%90#,000+#####<####%*)**%*%<<<%%*<###$#<#$<%<%#.%$$$$$%.<%%%#",
  "%##&%%%###*&&%%#%##%####%%%%%%%%%%%%%&%%%%,,,,,,#$<$$#$$$$<%<$%%%%<$#<$#$#$<#$$$<$<%<<%:#<#$#.<%<%%#",
  "#%#%%%####%&%%%%########%%%%%%%%%%#%%%%%%,,%,&,#,$####$<##<<##$#$#$#$#$#$#$##$##<%%<<%<%#$$#$%%.$%%#",
  "##%%%%%###%%%%%#%#########%%%%%%%%%%&%%%,%,/,,#,,$#$<$#$$<$#$$#$#$#$#$#$<$#$$<<%%#<%$%<%$$<$$<.<%%#%",
  "%##%%%%###)&%%%%############%%%%%%&%%%%,,,%,&##,,$<$#$#<%<$##<#$<$#<#$<$#$<#$<%<<%<%<%<<<$$<%%<%<%%#",
  "##%%%%%#%#*&%%%%%#%######%%%%%%%&%%%%%%,%/,,,##&,#$#$<<%<%#$$#$#$#$#$#$#$#$$<%<%%<%$%$%.#<$$$%.<$%%#",
  "#%#%%%%###)&%%%######%%%%%%%%%%%%%&%%%,,,,,,##,,,<##$%%%%<#<##$#$#$#$#$#$#$#<$%<$%$%<<%<#$#$#.%<%%%#",
  "#%<&%%####%%&%%%##%#%%%%%%%%%%%%%%%%%,,,,,),##,/,<#<%<%$<%$#$$<$#<#$<$#<#$<$$<%$%<%<%<%$$#$<$%<.$%#%",
  "###%%%%###%&%%%#%#%%#%%%%%%%%%%%%;;%0118818,#0881%<%*%*)%%####################<*%*%**$%%#$$$$%.<%%%#",
  "%%#%%%%###)%%%%%#,<#%%%%%%%%%%%%%;;)1111188##-880<$#%*%**<#$<#$#$#$#$#$#$#$##$#<%%*%%<%<<<$<<%<%<%%#",
  "###%%%####*&%%%%###%%%%%%%%%%%%%%;&01618880##088,####<*%%<$####<<<<<<#<##<##<###<%*%*%:%$$#$$%.<$%%#",
  "#%#%%%%###&%&%%#%#%#%<%%%%%%%%&%%7*1118118-##081##$#<$##%<##<<%%%*%%<%%<<#$###$#$<*%*$%$$#$$#.<%<%%#",
  "###&%%####%)%%%%#%#%%%%%%%%%&%%%%;001118880##080#######$<%*%*****%%<***)%<<###<##<%*%<%%$$<$$%.<%%#%",
  "%##%%%%#%#%%%%%%####<%%%%%%%%%%%%%111881180##01+##<$#$##<%**%*&*%<<<%*%***%<#$##$#<%*%<<##$#$<%%$%%#",
  "###%%%%##.;&%%%#%#%%%%%%%%%%%%%%%%108118881##-0###$#<##<%**%)%**%##$*)*&*&**<##$###%*<.%$<$<<%.$<%%#",
  "#%#%%%%#;)*%&%%%####%%%%%%%%%%%%%1011818181##0+####$$$$<%%%%<%%$$$<%%#%<%<%%<<#$<$$<%$%<$$$$$%<%$%%#",
  "##%%%%#%.2)&%%%%#%#%#%%%%%&%%%&%%0111818880,#-####$###<%<%<%%<####<%<%%%<%<%%<#$#$#$<%<%$#<#$.%<%%%#",
  "##<&%%%&*.%)%%%%##%#%%%%%%%%%%%%%00816181810-######$<$<%<%$%<$$<$<%<%%<<%%%<%%<<#<#$%$.<#$#$#<.%$%%#",
  "#%%%%%#.;)%%%%%##%##%%%%%%%%%%%%%%0'((()))(8,####$<$#<%%%<%<####<%%%%$%%%<<%%<%#$#$<%$<%$<$$$.%<<%%#",
  "##%%%%%%%.)&%%%%%##%%%%%%%%%%%%%%9),*'())))*######$#<%$<$#$$$$<%%<%<<%<%*%)%**%%<#<<%%3.<.<%.33.%%#%",
  "#%$%%%%%&%)%%%%%##%#%%%%%%%%%%%###%%&%277;7&%%%%+$<$#<##$###<#%<%%<%%%%*)*%**%*%<##%3%..##$##;3.<%##",
  "##%&%%%%%%*&&%%#%##%<%%%%%%%%%%#######;727;;;;2%%<$<<#<$#$<$<%<%%<%%<<%*%*)%)****#<%.<3.#$#<$3..$%%#",
  "#%#%%%#%%%%&%%%%##%#%%%%%%%%%%%######%%2222775;;;.$<%$$$#<#<%%%<<$%<%%%%)*%**%*%%<<%*%.%##<$#%3%<%#%",
  "#%#%%%%.;;%%%%%#%#%#%%%%%%%%%%#%%####%%222222;777.%%<<%<<%%%$<$$$%$<%<#*%*)*%**%*<$%.<3<$<$#<.%%<%#%",
  "##%%%%%%%%)&%%%%###%#%%%%%%%%%%%%)%%#####%%.222.2.$<%$%$%$$<%#<%<$$$<%%**%*%*%**%%%3.%.%<<<<$<$<$%##",
  ",#%%%%%%%%)%%%%%%#%#%%%%%%%%%&%#%%%%&%#####%%%%2&.<%<%$<%<%$<$$$%<$<$$<%%*%***%*%*%33<<..$%$.<$<$%%#",
  "##.%%%%%%%*&&%%%####%#%%%%%%&%%%#%%%%%&%%#####%%%%$<$$$%$$%$#$<$<$$$#<$%%%<%%%<%<<<%.%.%<%<$%%<<<%##",
  "#%2%%%#%%%%&%%%##%#%%%%%%%%#%&%#%#%$%%%%2%####%##$$$%$%$<%<$<$$#$<$<$$<%:<$%:<%$$$%$%.<.%$:$<$$%$%#%",
  "##;%%%%.);%%%%%%##%#%$%%%%%<%%&##%#%##%%%%&%#%%##<#$$<$%$<%$$<$<$$<$<$$%%<<$$%.<%3$<%<3%:<%<%###<%##",
  ",#.%%%%%%%)&%%%%%##%#%%%%%%#&%%%####%%##%##%%%###$$<#$<$%$<$<%<$%$%%$<$<3%.%<<.<%.<.3%.%%$<$%.%<<%%#",
  "##;%%%%%%%)%%%%%##%#%%<%%%%%%%%#%%###<#%%#%%%##%<#<#$<##$$$#$<$$<%<$<%<%.$<<$<$$<$#.43%.<<$<%<3.$%##",
  "#%.&%%#%%%%&%%%##%#%<%%%%%%#&%%%%;%###%##<%<%#%<#######<###%&%##%%%%%<%%#%%%%%<%%%#)9;%*)))*&*%)%%#,",
  "##.%%%%%%%%)%%%%##%#%%$%%%%%%&%%%%&*)%###%##%%#%%%<%<%###)%%#<%2%#%%%%%%##<$%%#%%%#%%%##%))%%%%%%###",
  "#,%%%%#.);%&%%%%#%<%#%%$%%%%%%%%%;<%%%%<######%<%%%%%##%%%%%%#%%%%%#%%%%#%%%<%%%#%%#%%%%%%%)%))*%%,#",
  "##%%%%%%%%)%%%%%##%#%<%%%<%%%%&%%%%%%#%%%##%#%%%##%#<%&%%#%#%%#%#<#%%&%%##%<%###%%##%#%##<%*)*%&%###",
  "#%#%%%%%%%)%&%%%###%#%%%%%%%%%%%%%;%%########%#%##<%%%<%#%#%%##%#%%%#%%##%%%%<%<###%####%#%&*))%<%##",
  "###&%%#%%%%&%%%#%#%#%#%$%%%<%%%&%;;))%%%#%%%##%%%%%%%%%%%%%#%%<####%##%####<%%<%#%<#%%<##%<%%%%#%###",
  "%#%%%%%%%%%)%%%%###%<%%%%%%%%%%%%9;;;;%%%#%%%##%%%%%#%#%%%%%%######<#%###%#######+%###%#+###%%##%#%#",
  "##%%%%#.);%%%%%#%#%##%$%%<%%%%<%%.747;;;;)%%%)#%#%%%%%%<%%%#####%##%%%%###<##########<######%##%####",
  "#%<%%%%%%%)&%%%%###%%<%%%%%%%%%%%...;;;;;.)%%%#%%%##%#%#%%%;%###%##%%%<########<#%#<%#%####%##%#%#,#",
  "###&%%%%%%%%&%%%####%%<%%%%$%%%<%.2....%%%%%%%%%)%%%#%%%%%%##%#####%%%%#%%%#<%%#%%#)%#<###<##%######",
  "#%#%%%#%%%)&%%%%#,#%##%%$%%%%<%%%.3..2.....%%%<%%%%###%#%%%#####%<%<%%##)%%%%%&####)%#%+##%#%##<%,##",
  "##%%%%%%%%%&%%%#%##%<%%#%%%%%%%%%.2.&...2%.%.*%#%<####%%%####<###%###<##%#####%%%%%%##<###<###<,####",
  "#%#%%%##%%%%%%%%##,#%%#%%%<%<%%$%...3.2%..2.&)##<######%%#######<###%%########+#%#<,+#,#%%##%%###,##",
  "###%%%%#%%;&%%%%###%#%%%<%%%%%%%%.;.2%...%...;%#####<################%######+##+###+,#######*%#%###%",
  "%#%%%%%###)%%%%%#,###%<%%%%<%%$%%..%...%2.%.&)##%######%%#%<#########%##,#+,#,,#,+,#+#+#%%##)%%#,###",
  "###%%%####*&&%%%###%%%#%%$%%%#%%%.%..%%.%%.%;%####<###;%#%%%##+####%%##<%%,+,,+,#,#+,######%)##,####",
  "#%#&%%%###%&%%%#%#,##<%%$%%<%%%<%..%%.%%.%%%*%#<#####))##<#<###);#%##%%#%%%%%,,,,+,,##%#%#####<##,#%",
  "###%%%####%%%%%%###%%%#%%%%%<%%%<%%.%%.%%.%.%<#%#####%###########%%%);)##<%%*)*%,,,,,#######<##%####",
  "%%#%%%%###)&%%%%#,###<%%$%$%%%#%%.%%.%%%%%%%%%#<###%#########<###<%%###%#%<###%)*%%%,#<#<#####+#,###",
  "##%%%%%###)%%%%#%##%#%%$%%%%%#%#%%%%%%%%%%%&%#####<########%%######<%)4)#))%####%%%,<#%####+##%###,#",
  "#%#%%%####*&%%%%####%#%#%<%<%%#%%%%.%%%%%%%*%#<##%###<#%#+#%%#%%%%%%&%%#%%%%%%###<%%%%##%+######%###",
  "##<&%%%<%#%&%%%%##,##%$%%%<%$%%#%%%%%%%%%%%%###########<#%,###%#####<%#%%%#%%%)%%#%%####<####%###%##",
  "%#%%%%####%&%%%#%##,####<%%%%#%%$%%%%%%%%%%%#%##%<#######<####%,#####%%%<%%%%%%#%##<########<%######",
  "#%#%%%%###;%%%%%#####%#####%#%%#%#%##%##################%#####%####%#####%#######%%%###<#%#######%##",
  "###&%%%###)%&%%%########%%%%%%#%#%#%%#%%%#%####%####%#%##############%%%%#####<,,+%<####%%%##%#<%##,",
  "%##%%%####)&%%%%##,#####%%%%%%%%%%%#%%%%%%###,####%###%############################%##########,#####",
  "#%#&%%%###%&%%%#%##%##,#%%%%%%%%%%%%%%&%&%#%#########%###########%#%################,#######,##%#%##",
  "%##%%%####%%%%%%#####%##%&%%%%%%#%%%%%%%%#####%,####%#######%#%#%%##%%#%###########%##%##%###%#%####",
  "###%%%%###)&%%%%#####%##%%%%%%%#%%%%%%%&##%#%%%###,#############%%%%#%#%########,##%##%%%%%#%#%%#%%%",
  "%##%%%%###)%%%%%##%##%###%%%#%%%%%%%%%%%#%#%###%#######%####%#%##%#%%%%%###########%##%%#####%%%#%%%",
  "###&%%%###*&&%%#%#####%##%%%%#%%%%%%%%%%##%##%##,##%#%##%%##%#%#%%%%%%#%%########%##,#%%#%#%#%%%%%%#",
  "#%#%%%####%&%%%%####%##%%##%&%%%%%%%%&%##%##%#%%#%%#%%%#%%#%%#%#%%%%%%%%##,#####%##%##%&%####%%%%%%%",
  "%##%)&%%;;%%%)&<%#######3%#<%.;4;9;%%;##.;%#%%%#%%%%%#%%%##%%#%#%%%####,%%,,%,,,,#,#,#%###,####%####",
  "###%%;%###)&%%;%########%%%%##%%%.###%#%;99.%#%##%%%%%%%###%%%#%%%<$<#<<$<$<#<$<#<$<<#%#%%%#%%##%###",
  "%##%%%%###*&%%%%%#####%######%$%%%#####%%%%%%%%##%%%%%%####%%#%#$&<%<$%$%<%<<%<<$%#%#$%########%##%#",
  "###&%%%###)&%%%%###,#%##,#%#%#%%%%%%#%%#%%%#%%##%%#%%%###%#%%%#%%%%%%%%%########%##%##%%%%%%$%%%%%%%",
  "%##%%%####%%&%%##,#%###%########%%%%%%##%#%#%####%%%%%###%##&#%##########%#####%##%##,%%#####%%<#%%#",
  "#%#%%%%.);%&%%%%##%##%##%#%#%#%##%%%&%%############%%#####%#&########%%#%#######%##%##%%#,#%#%%%%%%%",
  "%##%%%%###)%%%%%%##%%#%####%###,##%#%%###%#%###%####%%#####%%%%#%#%#%####%%######%#%##%&#####%%%#%%%",
  "###%%%%###*&%%%%########%#,###%##%###%##%####%%%%%%%%##,##%#&##%%%#%###,%%#,%,,,%,#,%#%##%%#%###%###",
  "%##&%%####&%&%%###,#%#%##,##%##%##%####%#%%#%%%#%%<%%######%%%%%%%<$<$<<<<<$<$<$<$<$<$%######%#%####",
  "#%#%%%%###%)%%%%%######%##%##,##%##%#%##%#####%%#%%<#######%%#%%%%<%<#%$%$%<%<<$<#%$<$%#%#,###%#,#,#",
  "%##%%%#.);%%%%%######%##%##%##%##%####%%#####%#%###%,#####%###%%%%&%#####%#%#%%%%##%##%%%%$%$%#%#%%%",
  "###%%%%###)&%%%%%##,######%##%##%#,#%#########%##%%########%##%%%%%%,##%#%#%#%#####%##%%##%##%%%%%%#",
  "%##&%%%###)%%%%%#####,#%#%##%##%%###%#%###%#####%##%%#####%%%%%%%%######%#%#%#%#%#%##%%%####,%%%#%%%",
  "#%#%%%####%&%%%#%#########,##%##%%#%###%######%#%%###%##################%#%#%#%####%##%&#%###%%%%%%%",
  "###%%%%###%)&%%%###,##########,###%#%#%##%#%#%#%##%%%#%%################%#%#%#%#,#%#######%###%#####",
  "%##%%%#.;;%%%%%#%################%#%####%###%####%###%###,##%#,###,######%#%#%#%####%#,##%###%##%###",
};
