/* XPM */
static char *background_6[] = {
  /* width height ncolors chars_per_pixel */
  "64 64 5 1 0 0",
  /* colors */
  "! c #000000",
  "# c #333300",
  "$ c #663300",
  "% c #993300",
  "& c #996600",
  /* pixels */
  "%%%%%%$!&&&%%%%%$%%%%%$!&%%%%%%%!######!###############!&%%%%%%%",
  "$$$$$$#!&$$$$$$$$$$$$$#!%$$$$$$$!#$$$$#!#$$$$$$$$$$$$$#!%$$$$$$$",
  "%$$$$$#!&$$$$$$$$$$$$$#!%$$$$$$$!#$$$$#!#$$$$$$$$$$$$$#!%$$$$$$$",
  "$%$$$$#!%$$$$$$$$$$$$$#!%$$$$$$$!#$$$$#!#$$$$$$$$$$$$$#!%$$$$$$$",
  "$$$$$$#!%$$$$$$$$$$$$$#!%%$$$$$%!#$$$$#!#$$$$$$$$$$$$$#!%%$$$$$%",
  "$$$$$$#!%$$$$$$$$$$$$$#!%$%$$$$$!#$$$$#!#$$$$$$$$$$$$$#!%$%$$$$$",
  "$$$$$$#!%$$%$$$$$$$$$$#!%$$$#$$$!######!###############!%$$$#$$$",
  "#######!%$$$$$$$$$$$$$#!$$$$$$$$!!!!!!!!!!!!!!!!!!!!!!!!$$$$$$$$",
  "!!!!!!!!&%$%$$$$$$$%$$#!!!!!!!!!!##############!######!!!!!!!!!!",
  "#######!%$$$$$$$$$$$$$#!########!#$$$$$$$$$$$$#!#$$$$##########!",
  "#$$$$$#!&%$$$%$$$%$%$$#!#$$$$$$#!#$$$$$$$$$$$$#!#$$$$$$$$$$$$$#!",
  "#$$$$$#!%$$$%$%$$$$$$$#!#$$$$$$#!#$$$$$$$$$$$$#!#$$$$$$$$$$$$$#!",
  "#$$$$$#!%$$$$%$%$%$$#$#!#$$$$$$#!#$$$$$$$$$$$$#!#$$$$$$$$$$$$$#!",
  "#$$$$$#!%$$$$$$$$$$$$##!#$$$$$$#!#$$$$$$$$$$$$#!#$$$$$$$$$$$$$#!",
  "#######!###############!########!##############!###############!",
  "!!!!!!!!!!!!!!!!!!!!!!!!!!!!!!!!!!!!!!!!!!!!!!!!!!!!!!!!!!!!!!!!",
  "#######!###############!########!######!&%%%%%%%%%%%%%$!#######!",
  "&&%$$$$!#$$$$$$$$$$$$$#!#$$$$$$#!#$$$$#!%$$$$$$$$$$$$$#!#$$$$$#!",
  "&$$$$$#!#$$$$$$$$$$$$$#!#$$$$$$#!#$$$$#!%$$$$$$$%$$$$$#!#$$$$$#!",
  "&$$$#$#!#$$$$$$$$$$$$$#!#$$$$$$#!#$$$$#!%$$$$$$$$%$$$$#!#$$$$$#!",
  "%$$$$##!#$$$$$$$$$$$$$#!#$$$$$$#!#$$$$#!%%$$$$$%$$$$$$#!#$$$$$#!",
  "%$$$$$#!#$$$$$$$$$$$$$#!########!#$$$$#!%$$$#$$$$$$$$$#!#$$$$$#!",
  "%$$$$$#!###############!!!!!!!!!!######!$##############!#######!",
  "%$$%$$#!!!!!!!!!!!!!!!!&%%%%%%%$!!!!!!!!!!!!!!!!!!!!!!!!!!!!!!!!",
  "%$$$$$#!#######!######!%$$$$$$$#!##############!###############!",
  "&%$%$$#!#$$$$$#!#$$$$#!%$$$$$$$#!#$$$$$$$$$$$$#!#$$$$$$$$$$$$$#!",
  "%$$$$$#!#$$$$$#!#$$$$#!%$$$$$$$#!#$$$$$$$$$$$$#!#$$$$$$$$$$$$$#!",
  "%%$$$$#!#$$$$$#!#$$$$#!%%$$$$$$#!#$$$$$$$$$$$$#!#$$$$$$$$$$$$$#!",
  "%$$$$$#!#$$$$$#!#$$$$#!%$$$$$$$#!#$$$$$$$$$$$$#!#$$$$$$$$$$$$$#!",
  "%$$$$$#!#$$$$$#!#$$$$#!%$$$#$$$#!#$$$$$$$$$$$$#!#$$$$$$$$$$$$$#!",
  "$$$$$##!#######!######!%$$$$#$$#!##############!###############!",
  "#######!!!!!!!!!!!!!!!!#########!!!!!!!!!!!!!!!!!!!!!!!!!!!!!!!!",
  "!!!!!!!!##############!!!!!!!!!!!######!###############!########",
  "#######!#$$$$$$$$$$$$##!##########$$$$#!#$$$$$$$$$$$$$#!#$$$$$$#",
  "$$$$$$#!#$$$$$$$$$$$$$#!#$$$$$$$$$$$$$#!#$$$$$$$$$$$$$#!#$$$$$$$",
  "$$$$$$#!#$$$$$$$$$$$$$#!#$$$$$$$$$$$$$#!#$$$$$$$$$$$$$#!#$$$$$$$",
  "$$$$$$#!#$$$$$$$$$$$$$#!#$$$$$$$$$$$$$#!#$$$$$$$$$$$$$#!#$$$$$$$",
  "$$$$$$#!#$$$$$$$$$$$$$#!#$$$$$$$$$$####!#############$#!#$$$$$$$",
  "#######!###############!############!!!!!!!!!!!!!!!!###!########",
  "!!!!!!!!!!!!!!!!!!!!!!!!!!!!!!!!!!!!!#&&&%%%%%%%$$#!!!!!!!!!!!!!",
  "&&&%%%%%$%%%%%$!################!###!#&%%%$%$$$$$$#!###########!",
  "&$$$$$$$$$$$$$#!#$$$$$$$$$$$$$$#!#$#!#&$%$$$$$$%$$#!#$$$$$$$$$#!",
  "&$$$$$$$$$$$$$#!#$$$$$$$$$$$$$$#!#$#!#%$$$%%$%$$$%#!#$$$$$$$$$#!",
  "%$$$$$$$$$$$$$#!#$$$$$$$$$$$$$$#!#$#!#%$$%$$$$$$$$#!#$$$$$$$$$#!",
  "%$$$$$$$$$$$$$#!#$$$$$$$$$$$$$$#!##!!#%$$$$$$$$$$$#!##$$$$$$$$#!",
  "%$$$$$$$$$$$$$#!#$$$$$$$$$$$$$$#!##!#$%$$$$$$$$$$$#!##$$$$$$$$#!",
  "%$$%$$$$$$$$$$#!################!##!#$%$$$$$$$$$$$#!###########!",
  "%$$$$$$$$$$$$$#!!!!!!!!!!!!!!!!!!!!!#%$$$$$$$$$$$$#!!!!!!!!!!!!!",
  "&%$%$$$$$$$%$$#!#######!###########!#%$$$$$$$$$$$$#!###!#######!",
  "%$$$$$$$$$$$$$#!#$$$$$#!#$$$$$$$$#!!#%$$$$$$$$$$$$#!#$#!#$$$$$#!",
  "&%$$$%$$$%$%$$#!#$$$$$#!#$$$$$$$$#!#$$$$$$$$$$$$$$#!#$#!#$$$$$#!",
  "%$$$%$%$$$$$$$#!#$$$$$#!#$$$$$$$$#!#$$$$$$$$$$$$$$#!#$#!#$$$$$#!",
  "%$$$$%$%$%$$#$#!#$$$$$#!#$$$$$$$$#!#$$$$$$$$$$$$$$#!#$#!#$$$$$#!",
  "%$$$$$$$$$$$$##!#$$$$$#!#$$$$$$$$#!!#$$$$$$$$$$$$$#!#$#!#$$$$$#!",
  "###############!#######!###########!###############!###!#######!",
  "!!!!!!!!!!!!!!!!!!!!!!!!!!!!!!!!!!!!!!!!!!!!!!!!!!!!!!!!!!!!!!!!",
  "###############!################!##############!###############!",
  "#$$$$$$$$$$$$$#!#$$$$$$$$$$$$$$#!#$$$$$$$$$$$$#!#$$$$$$$$$$$$$#!",
  "#$$$$$$$$$$$$$#!#$$$$$$$$$$$$$$#!#$$$$$$$$$$$$#!#$$$$$$$$$$$$$#!",
  "#$$$$$$$$$$$$$#!#$$$$$$$$$$$$$$#!#$$$$$$$$$$$$#!#$$$$$$$$$$$$$#!",
  "#$$$$$$$$$$$$$#!#$$$$$$$$$$$$$$#!#$$$$$$$$$$$$#!#$$$$$$$$$$$$$#!",
  "#$$$$$$$$$$$$$#!#$$$$$$$$$$$$$$#!#$$$$$$$$$$$$#!#$$$$$$$$$$$$$#!",
  "###############!################!##############!###############!",
  "!!!!!!!!!!!!!!!!!!!!!!!!!!!!!!!!!!!!!!!!!!!!!!!!!!!!!!!!!!!!!!!!",
};
