/* XPM */
static const char *background_9[] = {
  /* width height ncolors chars_per_pixel */
  "128 128 6 1 0 0",
  /* colors */
  "! c #000000",
  "# c #333300",
  "$ c #663300",
  "% c #993300",
  "& c #996600",
  "' c #cc6600",
  /* pixels */
  "#!#$$$#!#!#%$$#!#!#$$$#!#!#%$$#!#!#$$$#!#!#%$$#!#!#$$$#!#!#%$$#!#!#$$$#!#!#%$$#!#!#$$$#!#!#%$$#!#!#$$$#!#!#%$$#!#!#$$$#!#!#%$$#!",
  "&#!#$#!#$#!###!#$#!#$#!#$#!###!#&#!#$#!#$#!###!#$#!#$#!#$#!###!#&#!#$#!#$#!###!#$#!#$#!#$#!###!#&#!#$#!#$#!###!#$#!#$#!#$#!###!#",
  "$$#!#!#$$$#!#!#$$$#!#!#%$$#!#!#%$$#!#!#$$$#!#!#$$$#!#!#%$$#!#!#%$$#!#!#$$$#!#!#$$$#!#!#%$$#!#!#%$$#!#!#$$$#!#!#$$$#!#!#%$$#!#!#%",
  "$$$#!#%$$$$#!#$$$$$#!#%$$$$#!#%$$$$#!#%$$$$#!#$$$$$#!#%$$$$#!#%$$$$#!#%$$$$#!#$$$$$#!#%$$$$#!#%$$$$#!#%$$$$#!#$$$$$#!#%$$$$#!#%$",
  "$$$$#!#$$$$$#!#$$$$$#!#$$$$$#!#%$$$$#!#$$$$$#!#$$$$$#!#$$$$$#!#%$$$$#!#$$$$$#!#$$$$$#!#$$$$$#!#%$$$$#!#$$$$$#!#$$$$$#!#$$$$$#!#$",
  "%$$$$#!#$$$$$#!#$$$$$#!#$$$$$#!#$$$$$#!#$$$$$#!#$$$$$#!#$$$$$#!#%$$$$#!#$$$$$#!#$$$$$#!#$$$$$#!#%$$$$#!#$$$$$#!#$$$$$#!#$$$$$#!#",
  "#%$$$$#!#$$$$$#!#$$$$$#!#$$$$$#!#$$$$$#!#$$$$$#!#$$$$$#!#$$$$$#!#%$$$$#!#$$$$$#!#$$$$$#!#$$$$$#!#%$$$$#!#$$$$$#!#$$$$$#!#$$$$$#!",
  "!#%$$$$#!#$$$#!#!#$$$$$#!#$$$$##!#$$$$$#!#$$$$$#!#$$$$##!#$$$$$#!#%$$$$#!#$$$$$#!#$$$$##!#$$$$$#!#%$$$##!#$$$$##!#$$$$##!#$$$$##",
  "#!#%$$#!#!#$#!#%#!#$$$#!#!#$$$#!#!#$$$#!#!#$$$#!#!#$$$#!#!#$$$#!#!#%$$#!#!#$$$#!#!#$$$#!#!#$$$#!#!#$$$#!#!#$$$#!#!#$$$#!#!#$$$#!",
  "$#!###!#$#!#!#%$$#!#$#!#$#!#$#!#$#!#$#!#$#!#$#!#$#!#$#!#$#!#$#!#$#!###!#$#!#$#!#$#!#$#!#$#!#$#!#$#!#$#!#$#!#$#!#&#!#$#!#$#!#$#!#",
  "$$#!#!#$$$#!#%$$$$#!#!#$$$#!#!#$$$#!#!#$$$#!#!#$$$#!#!#$$$#!#!#$$$#!#!#$$$#!#!#$$$#!#!#$$$#!#!#$$$#!#!#$$$#!#!#&%%#!#!#$$$#!#!#$",
  "$$$#!#$$$#!#%$$$$$$#!#$$$$$#!#$$$$$#!#$$$$$#!#%$$$$#!#$$$$$#!#$$$$$#!#$$$$$#!#%$$$$#!#$$$$$#!#$$$$$#!#$$$$$#!#'&%$%#!#$$$$$#!#$$",
  "$$$$#!#$#!#&$%$$$$$$#!#$$$$$#!#$$$$$#!#$$$$$#!#$$$$$#!#$$$$$#!#$$$$$#!#$$$$$#!#$$$$$#!#$$$$$#!#$$$$$#!#$$$#!#''%%$$%#!#$$$$$#!#$",
  "$$$$$#!#!#&$$$%$$$$$$#!#$$$$$#!#$$$$$#!#$$$$$#!#$$$$$#!#$$$$$#!#$$$$$#!#$$$$$#!#$$$$$#!#$$$$$#!#$$$$$#!#$#!#'&%&$%$$$#!#$$$$$#!#",
  "#$$$$$#!#&%$$$$$$$$$$$#!#$$$$$#!#$$$$$#!#$$$$$#!#$$$$$#!#$$$$$#!#$$$$$#!#$$$$$#!#$$$$$#!#$$$$$#!#$$$$$#!#!#'&%$$%$$$$$#!#$$$$$#!",
  "!#$$$$##!#&$$$$$$$$$$$$#!#$$$$##!#$$$$##!#$$$$##!#$$$$$#!#$$$$##!#$$$$$#!#$$$$##!#$$$$$#!#$$$$##!#$$$$##!#'&%$$$$%$$$#!#!#$$$$##",
  "#!#$$$#!#!#%$$$$$$$$$$#!#!#$$$#!#!#$$$#!#!#$$$#!#!#$$$#!#!#$$$#!#!#$$$#!#!#$$$#!#!#$$$#!#!#$$$#!#!#$$$#!#!#'&$$$$$$%#!#!#!#%$$#!",
  "$#!#$#!#$#!#%$$$$$$$$#!#%#!#$#!#$#!#$#!#$#!#$#!#$#!#$#!#$#!#$#!#$#!#$#!#$#!#$#!#$#!#$#!#$#!#$#!#$#!#$#!#$#!#&%$$$$%#!#!#$#!###!#",
  "$$#!#!#$$$#!#&$$$$$$#!#%$$#!#!#$$$#!#!#$$$#!#!#$$$#!#!#$$$#!#!#$$$#!#!#$$$#!#!#$$$#!#!#$$$#!#!#$$$#!#!#$$$#!#&%$$%#!#!#%$$#!#!#%",
  "$$$#!#$$$$$#!#&$$$$#!#%$$$$#!#$$$$$#!#$$$$$#!#$$$$$#!#$$$$$#!#$$$$$#!#$$$$$#!#$$$$$#!#$$$$$#!#$$$$$#!#%$$$$#!#%%%#!#!#%$$$$#!#%$",
  "$$$$#!#$$$$$#!#%$$#!#%$$$$$$#!#$$$$$#!#$$$$$#!#$$$$$#!#$$$$$#!#$$$$$#!#$$$$$#!#$$$$$#!#$$$$$#!#$$$$$#!#$$$$$#!#%#!#$#!#$$$$$#!#%",
  "$$$$$#!#$$$$$#!#$#!#&$$$$$$$$#!#$$$$$#!#$$$$$#!#$$$$$#!#$$$$$#!#$$$$$#!#$$$$$#!#$$$$$#!#$$$$$#!#$$$$$#!#$$$$$#!#!#$$$#!#$$$$$#!#",
  "#$$$$$#!#$$$$$#!#!#&$$$$$$$$$$#!#$$$$$#!#$$$$$#!#$$$$$#!#$$$$$#!#$$$$$#!#$$$$$#!#$$$$$#!#$$$$$#!#$$$$$#!#$$$$$#!#$$$$$#!#$$$$$#!",
  "!#$$$$##!#$$$$##!#&$$$$$$$$$$$$#!#$$$$##!#$$$$##!#$$$$##!#$$$$##!#$$$$##!#$$$$##!#$$$$##!#$$$$##!#$$$$$#!#$$$$$#!#$$$$##!#$$$$$#",
  "#!#$$$#!#!#%$$#!#!#&$$$$$$$$$$$$#!#$$$#!#!#$$$#!#!#$$$#!#!#$$$#!#!#$$$#!#!#$$$#!#!#$$$#!#!#$$$#!#!#%$$#!#!#$$$#!#!#$$$#!#!#$$$#!",
  "$#!#$#!#$#!###!#$#!#$$$$$$$$$$$$$#!#$#!#$#!#$#!#$#!#$#!#$#!#$#!#$#!#$#!#$#!#$#!#$#!#$#!#$#!#$#!#$#!###!#$#!#$#!#$#!#$#!#$#!#$#!#",
  "$$#!#!#$$$#!#!#$$$#!#%$$$$$$$$$$$$#!#!#$$$#!#!#$$$#!#!#$$$#!#!#$$$#!#!#$$$#!#!#$$$#!#!#$$$#!#!#$$$#!#!#$$$#!#!#$$$#!#!#$$$#!#!#$",
  "$$$#!#%$$$$#!#$$$$$#!#%$$$$$$$$$$$$#!#$$$$$#!#%$$$$#!#$$$$$#!#$$$$$#!#$$$$$#!#$$$$$#!#$$$$$#!#$$$$$#!#$$$$$#!#%$$$$#!#$$$$$#!#$$",
  "$$$$#!#$$$$$#!#$$$$$#!#%$$$$$$$$$$$$#!#$$$$$#!#$$$$$#!#$$$$$#!#$$$$$#!#$$$$$#!#$$$$$#!#$$$$$#!#$$$$$#!#$$$$$#!#$$$$$#!#$$$$$#!#$",
  "$$$$$#!#$$$$$#!#$$$$$#!#%$$$$$$$$$$$$#!#$$$$$#!#$$$$$#!#$$$$$#!#$$$$$#!#$$$$$#!#$$$$$#!#$$$$$#!#$$$$$#!#$$$$$#!#$$$$$#!#$$$$$#!#",
  "#$$$$$#!#$$$$$#!#$$$$$#!#$$$$$$$$$$$$$#!#$$$$$#!#$$$$$#!#$$$$$#!#$$$$$#!#$$$$$#!#$$$$$#!#$$$$$#!#$$$$$#!#$$$$$#!#$$$$$#!#$$$$$#!",
  "!#$$$$$#!#$$$$$#!#$$$$##!#%$$$$$$$$$$$##!#$$$$##!#$$$$##!#$$$$##!#$$$$##!#$$$$##!#$$$$##!#$$$$##!#$$$$##!#$$$$##!#$$$$##!#$$$$##",
  "#!#$$$#!#!#$$$#!#!#$$$#!#!#$$$$$$$$$$$#!#!#$$$#!#!#$$$#!#!#%$$#!#!#$$$#!#!#%$$#!#!#$$$#!#!#%$$#!#!#$$$#!#!#%$$#!#!#$$$#!#!#%$$#!",
  "&#!#$#!#$#!#$#!#$#!#$#!#$#!#$$$$$$$$$#!#$#!#$#!#$#!#$#!#$#!###!#&#!#$#!#$#!###!#$#!#$#!#$#!###!#&#!#$#!#$#!###!#$#!#$#!#$#!###!#",
  "$$#!#!#$$$#!#!#$$$#!#!#$$$#!#$$$$$$$#!#$$$#!#!#$$$#!#!#%$$#!#!#%$$#!#!#$$$#!#!#$$$#!#!#%$$#!#!#%$$#!#!#$$$#!#!#$$$#!#!#%$$#!#!#%",
  "$$$#!#$$$$$#!#%$$$$#!#$$$$$#!#$$$$$#!#$$$$$#!#$$$$$#!#%$$$$#!#%$$$$#!#%$$$$#!#$$$$$#!#%$$$$#!#%$$$$#!#%$$$$#!#$$$$$#!#%$$$$#!#%$",
  "$$$$#!#$$$$$#!#$$$$$#!#$$$$$#!#$$$#!#!#$$$$$#!#$$$$$#!#$$$$$#!#%$$$$#!#$$$$$#!#$$$$$#!#$$$$$#!#%$$$$#!#$$$$$#!#$$$$$#!#$$$$$#!#%",
  "%$$$$#!#$$$$$#!#$$$$$#!#$$$$$#!#$#!#$#!#$$$$$#!#$$$$$#!#$$$$$#!#%$$$$#!#$$$$$#!#$$$$$#!#$$$$$#!#%$$$$#!#$$$$$#!#$$$$$#!#$$$$$#!#",
  "#%$$$$#!#$$$$$#!#$$$$$#!#$$$$$#!#!#$$$#!#$$$$$#!#$$$$$#!#$$$$$#!#%$$$$#!#$$$$$#!#$$$$$#!#$$$$$#!#%$$$$#!#$$$$$#!#$$$$$#!#$$$$$#!",
  "!#%$$$$#!#$$$$##!#$$$$$#!#$$$$##!#$$$$$#!#$$$$$#!#$$$$##!#$$$$$#!#%$$$$#!#$$$$$#!#$$$$##!#$$$$$#!#%$$$$#!#$$$$$#!#$$$$##!#$$$$$#",
  "#!#%$$#!#!#$$$#!#!#$$$#!#!#$$$#!#!#$$$#!#!#$$$#!#!#$$$#!#!#$$$#!#!#%$$#!#!#$$$#!#!#$$$#!#!#$$$#!#!#%$$#!#!#$$$#!#!#$$$#!#!#$$$#!",
  "$#!###!#$#!#$#!#$#!#$#!#$#!#$#!#$#!#$#!#$#!#$#!#$#!#$#!#$#!#$#!#$#!###!#$#!#$#!#$#!#$#!#$#!#$#!#$#!###!#$#!#$#!#$#!#$#!#$#!#$#!#",
  "$$#!#!#$$$#!#!#$$$#!#!#$$$#!#!#$$$#!#!#$$$#!#!#$$$#!#!#$$$#!#!#$$$#!#!#$$$#!#!#$$$#!#!#$$$#!#!#$$$#!#!#$$$#!#!#$$$#!#!#$$$#!#!#$",
  "$$$#!#$$$$$#!#$$$$$#!#$$$$$#!#$$$$$#!#$$$$$#!#%$$$$#!#$$$$$#!#$$$$$#!#$$$$$#!#%$$$$#!#$$$$$#!#$$$$$#!#$$$$$#!#%$$$$#!#$$$$$#!#$$",
  "$$$$#!#$$$$$#!#$$$$$#!#$$$$$#!#$$$$$#!#$$$$$#!#$$$$$#!#$$$$$#!#$$$$$#!#$$$$$#!#$$$$$#!#$$$$$#!#$$$$$#!#$$$$$#!#$$$$$#!#$$$$$#!#$",
  "$$$$$#!#$$$$$#!#$$$$$#!#$$$$$#!#$$$$$#!#$$$$$#!#$$$$$#!#$$$$$#!#$$$$$#!#$$$$$#!#$$$$$#!#$$$$$#!#$$$$$#!#$$$$$#!#$$$$$#!#$$$$$#!#",
  "#$$$$$#!#$$$$$#!#$$$$$#!#$$$$$#!#$$$$$#!#$$$$$#!#$$$$$#!#$$$$$#!#$$$$$#!#$$$$$#!#$$$$$#!#$$$$$#!#$$$$$#!#$$$$$#!#$$$$$#!#$$$$$#!",
  "!#$$$$##!#$$$$##!#$$$$##!#$$$$##!#$$$$##!#$$$$##!#$$$$$#!#$$$$##!#$$$$$#!#$$$$##!#$$$$$#!#$$$$##!#$$$$$#!#$$$$##!#$$$$$#!#$$$$##",
  "#!#$$$#!#!#$$$#!#!#$$$#!#!#$$$#!#!#$$$#!#!#$$$#!#!#$$$#!#!#$$$#!#!#$$$#!#!#$$$#!#!#$$$#!#!#$$$#!#!#$$$#!#!#$$$#!#!#$$$#!#!#$$$#!",
  "$#!#$#!#$#!#$#!#$#!#$#!#$#!#$#!#$#!#$#!#$#!#$#!#$#!#$#!#$#!#$#!#$#!#$#!#$#!#$#!#$#!#$#!#$#!#$#!#$#!#$#!#$#!#$#!#$#!#$#!#$#!#$#!#",
  "$$#!#!#$$$#!#!#$$$#!#!#$$$#!#!#$$$#!#!#$$$#!#!#$$$#!#!#$$$#!#!#$$$#!#!#$$$#!#!#$$$#!#!#$$$#!#!#$$$#!#!#$$$#!#!#$$$#!#!#$$$#!#!#$",
  "$$$#!#$$$$$#!#$$$$$#!#$$$$$#!#$$$$$#!#$$$$$#!#$$$$$#!#$$$$$#!#$$$$$#!#$$$$$#!#$$$$$#!#$$$$$#!#$$$$$#!#$$$$$#!#$$$$$#!#$$$$$#!#$$",
  "$$$$#!#$$$$$#!#$$$$$#!#$$$$$#!#$$$$$#!#$$$$$#!#$$$$$#!#$$$$$#!#$$$$$#!#$$$$$#!#$$$$$#!#$$$$$#!#$$$$$#!#$$$$$#!#$$$$$#!#$$$$$#!#$",
  "$$$$$#!#$$$$$#!#$$$$$#!#$$$$$#!#$$$$$#!#$$$$$#!#$$$$$#!#$$$$$#!#$$$$$#!#$$$$$#!#$$$$$#!#$$$$$#!#$$$$$#!#$$$$$#!#$$$$$#!#$$$$$#!#",
  "#$$$$$#!#$$$$$#!#$$$$$#!#$$$$$#!#$$$$$#!#$$$$$#!#$$$$$#!#$$$$$#!#$$$$$#!#$$$$$#!#$$$$$#!#$$$$$#!#$$$$$#!#$$$$$#!#$$$$$#!#$$$$$#!",
  "!#$$$$##!#$$$$##!#$$$$##!#$$$$##!#$$$$##!#$$$$##!#$$$$##!#$$$$##!#$$$$##!#$$$$##!#$$$$##!#$$$$##!#$$$$##!#$$$$##!#$$$$##!#$$$$##",
  "#!#$$$#!#!#$$$#!#!#$$$#!#!#$$$#!#!#$$$#!#!#$$$#!#!#$$$#!#!#$$$#!#!#$$$#!#!#$$$#!#!#$$$#!#!#$$$#!#!#$$$#!#!#$$$#!#!#$$$#!#!#$$$#!",
  "$#!#$#!#$#!#$#!#$#!#$#!#$#!#$#!#$#!#$#!#$#!#$#!#$#!#$#!#%#!#$#!#$#!#$#!#$#!#$#!#$#!#$#!#$#!#$#!#$#!#$#!#$#!#$#!#$#!#$#!#$#!#$#!#",
  "$$#!#!#$$$#!#!#$$$#!#!#$$$#!#!#$$$#!#!#$$$#!#!#$$$#!#!#%$$#!#!#$$$#!#!#$$$#!#!#$$$#!#!#$$$#!#!#$$$#!#!#$$$#!#!#$$$#!#!#$$$#!#!#$",
  "$$$#!#$$$$$#!#$$$$$#!#$$$$$#!#$$$$$#!#$$$$$#!#$$$$$#!#%$$$$#!#$$$$$#!#$$$$$#!#$$$$$#!#$$$$$#!#$$$$$#!#$$$$$#!#$$$$$#!#$$$$$#!#$$",
  "$$$$#!#$$$$$#!#$$$$$#!#$$$$$#!#$$$$$#!#$$$$$#!#$$$#!#%$$$$$$#!#$$$$$#!#$$$$$#!#$$$$$#!#$$$$$#!#$$$$$#!#$$$$$#!#$$$$$#!#$$$$$#!#$",
  "$$$$$#!#$$$$$#!#$$$$$#!#$$$$$#!#$$$$$#!#$$$$$#!#$#!#&$$$$$$$$#!#$$$$$#!#$$$$$#!#$$$$$#!#$$$$$#!#$$$$$#!#$$$$$#!#$$$$$#!#$$$$$#!#",
  "#$$$$$#!#$$$$$#!#$$$$$#!#$$$$$#!#$$$$$#!#$$$$$#!#!#&$$$$$$$$$$#!#$$$$$#!#$$$$$#!#$$$$$#!#$$$$$#!#$$$$$#!#$$$$$#!#$$$$$#!#$$$$$#!",
  "!#$$$$##!#$$$$##!#$$$$##!#$$$$##!#$$$$##!#$$$$##!#&$$$$$$$$$$$$#!#$$$$##!#$$$$##!#$$$$##!#$$$$##!#$$$$##!#$$$$##!#$$$$##!#$$$$##",
  "#!#$$$#!#!#%$$#!#!#$$$#!#!#%$$#!#!#$$$#!#!#%$$#!#!#&$$$$$$$$$$$$#!#$$$#!#!#%$$#!#!#$$$#!#!#%$$#!#!#$$$#!#!#%$$#!#!#$$$#!#!#%$$#!",
  "&#!#$#!#$#!###!#$#!#$#!#$#!###!#&#!#$#!#$#!###!#$#!#$$$$$$$$$$$$$#!#$#!#$#!###!#$#!#$#!#$#!###!#&#!#$#!#$#!###!#$#!#$#!#$#!###!#",
  "$$#!#!#$$$#!#!#$$$#!#!#%$$#!#!#%$$#!#!#$$$#!#!#$$$#!#%$$$$$$$$$$$$#!#!#$$$#!#!#$$$#!#!#%$$#!#!#%$$#!#!#$$$#!#!#$$$#!#!#%$$#!#!#%",
  "$$$#!#%$$$$#!#$$$$$#!#%$$$$#!#%$$$$#!#%$$$$#!#$$$$$#!#%$$$$$$$$$$$$#!#%$$$$#!#$$$$$#!#%$$$$#!#%$$$$#!#%$$$$#!#$$$$$#!#%$$$$#!#%$",
  "$$$$#!#$$$$$#!#$$$$$#!#$$$$$#!#%$$$$#!#$$$$$#!#$$$$$#!#%$$$$$$$$$$$$#!#$$$$$#!#$$$$$#!#$$$$$#!#%$$$$#!#$$$$$#!#$$$$$#!#$$$$$#!#%",
  "%$$$$#!#$$$$$#!#$$$$$#!#$$$$$#!#%$$$$#!#$$$$$#!#$$$$$#!#%$$$$$$$$$$$$#!#$$$$$#!#$$$$$#!#$$$$$#!#%$$$$#!#$$$$$#!#$$$$$#!#$$$$$#!#",
  "#%$$$$#!#$$$$$#!#$$$$$#!#$$$$$#!#%$$$$#!#$$$$$#!#$$$$$#!#$$$$$$$$$$$$$#!#$$$$$#!#$$$$$#!#$$$$$#!#%$$$$#!#$$$$$#!#$$$$$#!#$$$$$#!",
  "!#%$$$$#!#$$$$$#!#$$$$##!#$$$$$#!#%$$$$#!#$$$$$#!#$$$$##!#%$$$$$$$$$$$##!#$$$$$#!#$$$$##!#$$$$$#!#$$$$##!#$$$$##!#$$$$##!#$$$$##",
  "#!#%$$#!#!#$$$#!#!#$$$#!#!#$$$#!#!#%$$#!#!#$$$#!#!#$$$#!#!#$$$$$$$$$$$#!#!#$$$#!#!#$$$#!#!#$$$#!#!#$$$#!#!#$$$#!#!#$$$#!#!#$$$#!",
  "$#!###!#$#!#$#!#$#!#$#!#$#!#$#!#$#!###!#$#!#$#!#$#!#$#!#&#!#$$$$$$$$$#!#$#!#$#!#$#!#$#!#$#!#$#!#$#!#$#!#$#!#$#!#$#!#$#!#$#!#$#!#",
  "$$#!#!#$$$#!#!#$$$#!#!#$$$#!#!#$$$#!#!#$$$#!#!#$$$#!#!#&%%#!#$$$$$$$#!#$$$#!#!#$$$#!#!#$$$#!#!#$$$#!#!#$$$#!#!#$$$#!#!#$$$#!#!#$",
  "$$$#!#$$$$$#!#%$$$$#!#$$$$$#!#$$$$$#!#$$$$$#!#%$$$$#!#'&%$%#!#$$$$$#!#$$$$$#!#%$$$$#!#$$$$$#!#$$$$$#!#$$$$$#!#%$$$$#!#$$$$$#!#$$",
  "$$$$#!#$$$$$#!#$$$$$#!#$$$$$#!#$$$$$#!#$$$$$#!#$$$#$#''%%$$%#!#$$$#!#!#$$$$$#!#$$$$$#!#$$$$$#!#$$$$$#!#$$$$$#!#$$$$$#!#$$$$$#!#$",
  "$$$$$#!#$$$$$#!#$$$$$#!#$$$$$#!#$$$$$#!#$$$$$#!#$#$#'&%&$%$$%#!#$#!#$#!#$$$$$#!#$$$$$#!#$$$$$#!#$$$$$#!#$$$$$#!#$$$$$#!#$$$$$#!#",
  "#$$$$$#!#$$$$$#!#$$$$$#!#$$$$$#!#$$$$$#!#$$$$$#!#$#'&%$$%$$$$%#!#!#$$$#!#$$$$$#!#$$$$$#!#$$$$$#!#$$$$$#!#$$$$$#!#$$$$$#!#$$$$$#!",
  "!#$$$$$#!#$$$$##!#$$$$$#!#$$$$##!#$$$$$#!#$$$$##!#'&%$$$$%$$$$%#!#$$$$$#!#$$$$##!#$$$$$#!#$$$$##!#$$$$$#!#$$$$##!#$$$$$#!#$$$$##",
  "#!#$$$#!#!#$$$#!#!#$$$#!#!#$$$#!#!#$$$#!#!#$$$#!#!#'&$$$$$%$$$$$#!#$$$#!#!#$$$#!#!#$$$#!#!#$$$#!#!#$$$#!#!#$$$#!#!#$$$#!#!#$$$#!",
  "$#!#$#!#$#!#$#!#$#!#$#!#$#!#$#!#$#!#$#!#$#!#$#!#$#!#&%$$$$$%$$$$$#!#$#!#$#!#$#!#$#!#$#!#$#!#$#!#$#!#$#!#$#!#$#!#$#!#$#!#$#!#$#!#",
  "$$#!#!#$$$#!#!#$$$#!#!#$$$#!#!#$$$#!#!#$$$#!#!#$$$#!#&%$$$$$%$$$$$#!#!#$$$#!#!#$$$#!#!#$$$#!#!#$$$#!#!#$$$#!#!#$$$#!#!#$$$#!#!#$",
  "$$$#!#$$$$$#!#$$$$$#!#$$$$$#!#$$$$$#!#$$$$$#!#$$$$$#!#&%$$%$$$$$$$$#!#$$$$$#!#$$$$$#!#$$$$$#!#$$$$$#!#$$$$$#!#$$$$$#!#$$$$$#!#$$",
  "$$$$#!#$$$$$#!#$$$$$#!#$$$$$#!#$$$$$#!#$$$$$#!#$$$$$#!#&%$$%$$$$$$#!#!#$$$$$#!#$$$$$#!#$$$$$#!#$$$$$#!#$$$$$#!#$$$$$#!#$$$$$#!#$",
  "$$$$$#!#$$$$$#!#$$$$$#!#$$$$$#!#$$$$$#!#$$$$$#!#$$$$$#!#&$$$$$$$$#!#$#!#$$$$$#!#$$$$$#!#$$$$$#!#$$$$$#!#$$$$$#!#$$$$$#!#$$$$$#!#",
  "#$$$$$#!#$$$$$#!#$$$$$#!#$$$$$#!#$$$$$#!#$$$$$#!#$$$$$#!#%$$$%$$#!#$$$#!#$$$$$#!#$$$$$#!#$$$$$#!#$$$$$#!#$$$$$#!#$$$$$#!#$$$$$#!",
  "!#$$$$##!#$$$$##!#$$$$##!#$$$$##!#$$$$##!#$$$$##!#$$$$##!#%$$$%#!#$$$$##!#$$$$##!#$$$$##!#$$$$##!#$$$$##!#$$$$##!#$$$$##!#$$$$##",
  "#!#$$$#!#!#$$$#!#!#$$$#!#!#$$$#!#!#$$$#!#!#$$$#!#!#$$$#!#!#%$%#!#!#$$$#!#!#$$$#!#!#$$$#!#!#$$$#!#!#$$$#!#!#$$$#!#!#$$$#!#!#$$$#!",
  "$#!#$#!#$#!#$#!#$#!#$#!#$#!#$#!#$#!#$#!#$#!#$#!#$#!#$#!#$#!#%#!#$#!#$#!#$#!#$#!#$#!#$#!#$#!#$#!#$#!#$#!#$#!#$#!#$#!#$#!#$#!#$#!#",
  "$$#!#!#$$$#!#!#$$$#!#!#$$$#!#!#$$$#!#!#$$$#!#!#$$$#!#!#$$$#!#!#$$$#!#!#$$$#!#!#$$$#!#!#$$$#!#!#$$$#!#!#$$$#!#!#$$$#!#!#$$$#!#!#$",
  "$$$#!#$$$$$#!#$$$$$#!#$$$$$#!#$$$$$#!#$$$$$#!#$$$$$#!#$$$$$#!#$$$$$#!#$$$$$#!#$$$$$#!#$$$$$#!#$$$$$#!#$$$$$#!#$$$$$#!#$$$$$#!#$$",
  "$$$$#!#$$$$$#!#$$$$$#!#$$$$$#!#$$$$$#!#$$$$$#!#$$$$$#!#$$$$$#!#$$$$$#!#$$$$$#!#$$$$$#!#$$$$$#!#$$$$$#!#$$$$$#!#$$$$$#!#$$$$$#!#$",
  "$$$$$#!#$$$$$#!#$$$$$#!#$$$$$#!#$$$$$#!#$$$$$#!#$$$$$#!#$$$$$#!#$$$$$#!#$$$$$#!#$$$$$#!#$$$$$#!#$$$$$#!#$$$$$#!#$$$$$#!#$$$$$#!#",
  "#$$$$$#!#$$$$$#!#$$$$$#!#$$$$$#!#$$$$$#!#$$$$$#!#$$$$$#!#$$$$$#!#$$$$$#!#$$$$$#!#$$$$$#!#$$$$$#!#$$$$$#!#$$$$$#!#$$$$$#!#$$$$$#!",
  "!#$$$$##!#$$$$##!#$$$$##!#$$$$##!#$$$$##!#$$$$##!#$$$$##!#$$$$##!#$$$$##!#$$$$##!#$$$$##!#$$$$##!#$$$$##!#$$$$##!#$$$$##!#$$$$##",
  "#!#$$$#!#!#%$$#!#!#$$$#!#!#%$$#!#!#$$$#!#!#%$$#!#!#$$$#!#!#%$$#!#!#$$$#!#!#%$$#!#!#$$$#!#!#%$$#!#!#$$$#!#!#%$$#!#!#$$$#!#!#%$$#!",
  "&#!#$#!#$#!###!#$#!#$#!#$#!###!#&#!#$#!#$#!###!#$#!#$#!#$#!###!#&#!#$#!#$#!###!#$#!#$#!#$#!###!#&#!#$#!#$#!###!#$#!#$#!#$#!###!#",
  "$$#!#!#$$$#!#!#$$$#!#!#%$$#!#!#%$$#!#!#$$$#!#!#$$$#!#!#%$$#!#!#%$$#!#!#$$$#!#!#$$$#!#!#%$$#!#!#%$$#!#!#$$$#!#!#$$$#!#!#%$$#!#!#%",
  "$$$#!#%$$$$#!#$$$$$#!#%$$$$#!#%$$$$#!#%$$$$#!#$$$$$#!#%$$$$#!#%$$$$#!#%$$$$#!#$$$$$#!#%$$$$#!#%$$$$#!#%$$$$#!#$$$$$#!#%$$$$#!#%$",
  "$$$$#!#$$$$$#!#$$$$$#!#$$$$$#!#%$$$$#!#$$$$$#!#$$$$$#!#$$$$$#!#%$$$$#!#$$$$$#!#$$$$$#!#$$$$$#!#%$$$$#!#$$$$$#!#$$$$$#!#$$$$$#!#%",
  "%$$$$#!#$$$$$#!#$$$$$#!#$$$$$#!#%$$$$#!#$$$$$#!#$$$$$#!#$$$$$#!#%$$$$#!#$$$$$#!#$$$$$#!#$$$$$#!#%$$$$#!#$$$$$#!#$$$$$#!#$$$$$#!#",
  "#%$$$$#!#$$$$$#!#$$$$$#!#$$$$$#!#%$$$$#!#$$$$$#!#$$$$$#!#$$$$$#!#%$$$$#!#$$$$$#!#$$$$$#!#$$$$$#!#%$$$$#!#$$$$$#!#$$$$$#!#$$$$$#!",
  "!#%$$$$#!#$$$$$#!#$$$$##!#$$$$$#!#%$$$$#!#$$$$$#!#$$$$##!#$$$$$#!#%$$$$#!#$$$$$#!#$$$$##!#$$$$$#!#%$$$$#!#$$$$$#!#$$$$##!#$$$$$#",
  "#!#%$$#!#!#$$$#!#!#$$$#!#!#$$$#!#!#%$$#!#!#$$$#!#!#$$$#!#!#$$$#!#!#%$$#!#!#$$$#!#!#$$$#!#!#$$$#!#!#%$$#!#!#$$$#!#!#$$$#!#!#$$$#!",
  "$#!###!#$#!#$#!#$#!#$#!#$#!#$#!#$#!###!#$#!#$#!#$#!#$#!#$#!#$#!#$#!###!#$#!#$#!#$#!#$#!#$#!#$#!#$#!###!#$#!#$#!#$#!#$#!#$#!#$#!#",
  "$$#!#!#$$$#!#!#$$$#!#!#$$$#!#!#$$$#!#!#$$$#!#!#$$$#!#!#$$$#!#!#$$$#!#!#$$$#!#!#$$$#!#!#$$$#!#!#$$$#!#!#$$$#!#!#$$$#!#!#$$$#!#!#$",
  "$$$#!#$$$$$#!#%$$$$#!#$$$$$#!#$$$$$#!#$$$$$#!#%$$$$#!#$$$$$#!#$$$$$#!#$$$$$#!#%$$$$#!#$$$$$#!#$$$$$#!#$$$$$#!#%$$$$#!#$$$$$#!#$$",
  "$$$$#!#$$$$$#!#$$$$$#!#$$$$$#!#$$$$$#!#$$$$$#!#$$$$$#!#$$$$$#!#$$$$$#!#$$$$$#!#$$$$$#!#$$$$$#!#$$$$$#!#$$$$$#!#$$$$$#!#$$$$$#!#$",
  "$$$$$#!#$$$$$#!#$$$$$#!#$$$$$#!#$$$$$#!#$$$$$#!#$$$$$#!#$$$$$#!#$$$$$#!#$$$$$#!#$$$$$#!#$$$$$#!#$$$$$#!#$$$$$#!#$$$$$#!#$$$$$#!#",
  "#$$$$$#!#$$$$$#!#$$$$$#!#$$$$$#!#$$$$$#!#$$$$$#!#$$$$$#!#$$$$$#!#$$$$$#!#$$$$$#!#$$$$$#!#$$$$$#!#$$$$$#!#$$$$$#!#$$$$$#!#$$$$$#!",
  "!#$$$$$#!#$$$$##!#$$$$$#!#$$$$##!#$$$$$#!#$$$$##!#$$$$$#!#$$$$##!#$$$$$#!#$$$$##!#$$$$$#!#$$$$##!#$$$$$#!#$$$$##!#$$$$$#!#$$$$##",
  "#!#$$$#!#!#$$$#!#!#$$$#!#!#$$$#!#!#$$$#!#!#$$$#!#!#$$$#!#!#$$$#!#!#$$$#!#!#$$$#!#!#$$$#!#!#$$$#!#!#$$$#!#!#$$$#!#!#$$$#!#!#$$$#!",
  "$#!#$#!#$#!#$#!#$#!#$#!#$#!#$#!#$#!#$#!#$#!#$#!#$#!#$#!#$#!#$#!#$#!#$#!#$#!#$#!#$#!#$#!#$#!#$#!#$#!#$#!#$#!#$#!#$#!#$#!#$#!#$#!#",
  "$$#!#!#$$$#!#!#$$$#!#!#$$$#!#!#$$$#!#!#$$$#!#!#$$$#!#!#$$$#!#!#$$$#!#!#$$$#!#!#$$$#!#!#$$$#!#!#$$$#!#!#$$$#!#!#$$$#!#!#$$$#!#!#$",
  "$$$#!#$$$$$#!#$$$$$#!#$$$$$#!#$$$$$#!#$$$$$#!#$$$$$#!#$$$$$#!#$$$$$#!#$$$$$#!#$$$$$#!#$$$$$#!#$$$$$#!#$$$$$#!#$$$$$#!#$$$$$#!#$$",
  "$$$$#!#$$$$$#!#$$$$$#!#$$$$$#!#$$$$$#!#$$$$$#!#$$$$$#!#$$$$$#!#$$$$$#!#$$$$$#!#$$$$$#!#$$$$$#!#$$$$$#!#$$$$$#!#$$$$$#!#$$$$$#!#$",
  "$$$$$#!#$$$$$#!#$$$$$#!#$$$$$#!#$$$$$#!#$$$$$#!#$$$$$#!#$$$$$#!#$$$$$#!#$$$$$#!#$$$$$#!#$$$$$#!#$$$$$#!#$$$$$#!#$$$$$#!#$$$$$#!#",
  "#$$$$$#!#$$$$$#!#$$$$$#!#$$$$$#!#$$$$$#!#$$$$$#!#$$$$$#!#$$$$$#!#$$$$$#!#$$$$$#!#$$$$$#!#$$$$$#!#$$$$$#!#$$$$$#!#$$$$$#!#$$$$$#!",
  "!#$$$$##!#$$$$##!#$$$$##!#$$$$##!#$$$$##!#$$$$##!#$$$$##!#$$$$##!#$$$$##!#$$$$##!#$$$$##!#$$$$##!#$$$$##!#$$$$##!#$$$$##!#$$$$##",
  "#!#$$$#!#!#%$$#!#!#$$$#!#!#%$$#!#!#$$$#!#!#%$$#!#!#$$$#!#!#%$$#!#!#$$$#!#!#%$$#!#!#$$$#!#!#$$$#!#!#$$$#!#!#$$$#!#!#$$$#!#!#$$$#!",
  "&#!#$#!#$#!###!#$#!#$#!#$#!###!#&#!#$#!#$#!###!#$#!#$#!#$#!###!#&#!#$#!#$#!###!#$#!#$#!#$#!#$#!#$#!#$#!#$#!#$#!#$#!#$#!#$#!#$#!#",
  "$$#!#!#$$$#!#!#$$$#!#!#%$$#!#!#%$$#!#!#$$$#!#!#$$$#!#!#%$$#!#!#%$$#!#!#$$$#!#!#$$$#!#!#%$$#!#!#$$$#!#!#$$$#!#!#$$$#!#!#$$$#!#!#$",
  "$$$#!#%$$$$#!#$$$$$#!#%$$$$#!#%$$$$#!#%$$$$#!#$$$$$#!#%$$$$#!#%$$$$#!#%$$$$#!#$$$$$#!#%$$$$#!#$$$$$#!#$$$$$#!#$$$$$#!#$$$$$#!#$$",
  "$$$$#!#$$$$$#!#$$$$$#!#$$$$$#!#%$$$$#!#$$$$$#!#$$$$$#!#$$$$$#!#%$$$$#!#$$$$$#!#$$$$$#!#$$$$$#!#$$$$$#!#$$$$$#!#$$$$$#!#$$$$$#!#$",
  "%$$$$#!#$$$$$#!#$$$$$#!#$$$$$#!#%$$$$#!#$$$$$#!#$$$$$#!#$$$$$#!#%$$$$#!#$$$$$#!#$$$$$#!#$$$$$#!#$$$$$#!#$$$$$#!#$$$$$#!#$$$$$#!#",
  "#%$$$$#!#$$$$$#!#$$$$$#!#$$$$$#!#%$$$$#!#$$$$$#!#$$$$$#!#$$$$$#!#%$$$$#!#$$$$$#!#$$$$$#!#$$$$$#!#$$$$$#!#$$$$$#!#$$$$$#!#$$$$$#!",
  "!#%$$$$#!#$$$$$#!#$$$$##!#$$$$$#!#%$$$$#!#$$$$$#!#$$$$##!#$$$$$#!#%$$$$#!#$$$$$#!#$$$$##!#$$$$##!#$$$$##!#$$$$##!#$$$$##!#$$$$##",
};
