/* XPM */
static char *background_13[] = {
  /* width height ncolors chars_per_pixel */
  "128 128 11 1 0 0",
  /* colors */
  "! c #000000",
  "# c #333366",
  "$ c #663366",
  "% c #666666",
  "& c #555555",
  "' c #4d4d4d",
  "( c #330000",
  ") c #333300",
  "* c #777777",
  "+ c #808080",
  ", c #330066",
  /* pixels */
  "))))))))))))#,,#))')))!!!!!,,)))))))))))))))))#)!!!!!!!##!)!!#!)#!!!!!)#!!!!!!!!!!!!!!!!,$#)#,))#,)))))))#$'#$))))))))))))))))))",
  ")))))))))))#,,,#)##))))))))!!#))#)))))))))))))#!!!!!!!!#!!)!)!!#!!!!!!#)!!!!!!!!!!!!!!!!,'#),#)#,#)))))))#'')'))#)))))))))))))))",
  "))))))))))#,,#,))#))))##))))))))))))))))))))))'!!!!!!!!!!!)!)!!#!!!!!!#!)!!!!!!!!!!!!!!!$')#,)),,)))))))#,'')))##)))))))))))))))",
  "))))))))),,,,#))#)))#$#)#))))))))))))))))))))))!!!!!!!!!!!)!)!!#!!!!!)#!)!!!!!!!#!!!!!!)''#,,#',,)))))))#,'')))##)))))))))))))))",
  ")))))))#,,###!)'#))##,,)))))))))))))))))))))))#!!!!!!!!!!!!))!!#!!!!!#)#!!!!!!!!#!!!!!!''##,#$',,))))))),#''))#)#)))))))))))))))",
  "))))))),###)!#'))))##,))))))))))))))))))))))))#!!!!!!!!!!!!)!!)#!!!!!##!!!!!!!!!#!!!!!!''#$,))#,,))))))),#'#)#))')))))))))))))))",
  ")))))))###!)')))))#,)!!)))))#)))))))))))###)#'#!!!!!!!!!)!!#!!##!!!!!#)!!!!!!!!!#!!!!!)'###))##,#))))))),#')))))#)))))))))))))))",
  ")))))))!))##))))#,,(!!!!!))),$)))))))))))'#)'%#!!!!!!!!!)!!!!!##!!!!)#!!!!!!!!!#)!!!!!''##)))'#,#))))))),,#)))))#)))))))))))))))",
  ")))))))####))))),,!!!))!!!!!)##))))))))))'#'&&#!!!!!!!!!!!!!!!##!!!!##!!)!!!!!!)!!!!!)',$#))''#,#))))))$,#)))))#))))))))))))))))",
  ")))))))#)))#)##,,!!!'%%&&&'#)!#,)))))))))'''&&'!!!!!!!!!!)!!!!##!!!!##!!)!!!!!))!!!!!#####)#''#,#)#$)),,,#))))))))))))))))))))))",
  ")))))))))))##,,,!!!'%%&&&%%%&#!,))))))))))'&+&'!!!!!!!!#!!!!!!##!!!)#)!!#!!!!!))!!!!)'')##))''#,#,$$),,,))))))))))))))))))))))))",
  ")))))))))))#,,,!!!'*&&&&&&&&+&)!))))))))))'#&+&!!!!!!!!!!!!!!!##!!!##!!!#!!!!#!)!!!!)'))##))''#,,#,#,,,,))))))))))))))))))))))))",
  ")))))))))#,#,,!!)!)#%*&&&&%+&')!))#))))))))'#'+!!!!!!!!!!!!!!!##!!!##!!!)!!!)!!!!!!!#'))$#))''#,,$,,,,,)))))))))))))))))))))))))",
  ")))))))),,,,#!!!!!!)!&&&&&+'#))))!,,))))))))''#)!!!!!!!!!!!!!!##!!)#!!!!)!!)!!)!!!!!#)))$#))''#,,#,,,#,)))))))))))))))))))))))))",
  ")))))))),,,))#'!!!!!!!'+&+'#))))))#,))))))))##'#!!!!!!!!!!!!!!##!!##)!!!)!)!!!)!!!!!))#)##))''#,,,,,,#))))))))))))))))))))))))))",
  ")))))))))',#'%&!!!!!!!#++'!)))))))),#)))))))))#'!!!!!!!!!!!!!))#!)##)!!)!!!!!!!!!!!))))))#))))),,,,,,#))))))))))))))))))))))))))",
  "))))))))))####&!!)!!!!#+&#)))))))))),))))))))))#')!!!!!!!!!!!))#!###)!!)!!!!!)!!!!!))))))#))))),,,#,,#))))))))))))))))))))))))))",
  "))))))#'))))##$'!!!!!!##!)))))))))))),))))))))))#')!!!!!!!!!!#!))##!!!!)!!!!!!!!!!!)))))))))))),,,!,##))))))))))))))))))))))))))",
  ")))#))))#))))#,#(!))!###)))))))))))))))))))))))))'')!!!!!!!!!#!))))!!!)!!!!!)!!!!!!)))))))))))),,,,,##)))))#)))))))))##)))))))))",
  "))))))))))))))#,###'#)))))))))))))))))))))))))))))'#)!!!!!!!!#!#!#!!!!)!!!!!)!!!!!!)))))))))))),,,,,#)))))))#))))))))))#))))))))",
  ")))))))!))))#)))###))###)))))))))))))))))))))))))))''!!!!!!!!#!#))!)))!!!!!!)!!!!!!)))))))#)))),,,,,,)))))#))))))))))))!!)))))))",
  "))))))))!!#))##))))))))))))))))))))))))))))))))))))'')!!!!!!!#!#)!!))!!!!!!!)!!!!!!)))))))')))),,,,,,)))))#)))))))))#)!!))))))))",
  ")))))))))!!##)))))))))))))))))))))))))))))))##))))))'')!!!!!!##!#!!#)!!!!!!!)!!!!!!)))))))')))),#,,,,))))))))))))))))!!!))))))))",
  ")))))))))!!!))#)))))))))))))))))))))))))))))''))))))''#!!!!!!#!!#!!#!!!!!!!!)!!!!!!)))#)))#)))),,,,,,))))))))))))))#)!!)))))))))",
  ")))))))#)!!!!))))))))))))))))))))))))))))))#'#))))))))#)!!!!))!!#!!)!!!!!!!!)!!!!!!!###))))#))),,,,,#))))#)))))))))#!!!)#)))))))",
  "))))))))))!!!!)))))))))#)))))))))))))))'##)##))))))))))!!!!!#!!!#!!)!!!!#!!!)!!!!!!!#,#))))#))),,,,,)))))))))))))))!!!))))))#))#",
  ")))))))))))!!!!))))))))))))))))))))))))'#)#')))))))))))!!!!!#!!!)!!!!!!#!!!!)!!!!!!!),#))))#))),,,,##)))#)))#))))))!!!))))))))))",
  ")))))#)))))!!!!!)))))))))))))))))))))))))#)))))))))!))!!!!!!#!!!)!!!!!))!!!!)!!!!!!!),)))))#))),,,,))))###)))))#)))!!!))))#))##)",
  "))))!)))))))!!!!))))))))))!)))))))))))))))))))))))!)!!!!!!!!#!!)!!!!!!#!!!!!)!!!!!!!),))))))))),,,,)))))#)))))))))!!!!))))#)))))",
  "))))!))#)#)))!!!))))))))))!!))))))))))!))))))#))!!)))!!!!!!!#!!)!!)!!)!!!!!!!!!!!!!!),))))))))),,,,)#)))#)))))))))!!!!))))#)#!))",
  "))))!)))))))!!!!)))))))))))!!)))))))))!)#))))))!!)))))!!!!!!#!)!!!)!!)!!!!!!!)!!!!!!)#,))))))))##,,)#)))))))))))#)!!!!))))#)#!)#",
  "))))!!)))))!!!!!)))))))))))!!)))))))))!!))!))!!))))))))!!!!!#!)!!!)!!#!!!!!!!)!!!!!!)),,)))))))#,,,)))))))))))))#!)!!))))))))!))",
  ")))))!!)))!!!!!!)))))))))))!!!)))))))))!!#!!!!))))#)#)!!!!!!#)!!!!)!)!!!!!!!!)!!!!!!!!),#)))#))),,,)))))))))))))#)!!))))))))!!))",
  ")!!!!!!!!!!!!!!))))))))))))!!!))))))))))))#)))))!!!))#)!!!!)#!!!!!)!)!!!!!!!!)!!!!!!!!!##)))))))##,)))))))))))))#))!!!!)###)!))#",
  "!!!!!!!!)!!!!!!)))))))))))))!!)))))))))))))))))))!!))#)!!!!!!!!!!!)!)!!!!!!!!)!!!!!!!!!),))))#)))),#)))))))))))))###)!!!)##!!!!!",
  "!!!!!!!!!!!!!!))))))))))))))!)))))))))))))))))))))!))##)!!!!!!!!!)!!)!!!!!!!!!!!!!!!!!!!,#)))#))#),#)#))))))))))))))))!!!#!!!!!!",
  "!!!!!!!!!!!!!))))))))))))))!!!)))))))))))))))))))))))))))!!!!!!!!)!)!!!!!!!!)!!!!!)!!!!!(#))))###),#)#)))))#)))))))))))!!!!!!!!!",
  "!!!!))!!!!!!))))))))))))))!!!!))))))))))))))))))))))))))#!!!!!!!!)!)!!!!!!!!!!!!!)!!!!!!!,,)))#))),))#)))))#)#))))))))))!!!!!!!!",
  "!!!!))!!!!!!))))))))))))))!!!!))))))))))))))))))))))))#)#)!!!!!!)!!)!!!!!!!)!!!!!!!!!!!!!,,)#))))))))#)))))))))))))))))#))!!))!!",
  "!!!!))!!!!!!))))))))))))))!!!!))))))))))))))))))#)))))#),)!!!!!!#!)!!!!!!!!)!!!!)!!!!)!!!),,)))#),)))#)))))))))))))))))#)!!!)))!",
  "!!!!!!!!!!!!))))))))))))))!!!!)))))))))))))))))))))))))),(!!!!!!#!)!!!!!)!!)!!!!!!!!!!)!!),,#)))),#))#))))))))))))))))))#!!))))!",
  "!!!!!!!!!!!!))))))))))))))!!!!)))))))))))))))))))))))))),(!!!!!!)!#!!!!))!!)!!!)!!!!!!)!!!#,#)))#,#))#))))))))!))))))))))!!!))!!",
  "!!!!!!!!!!!!!))#))))))))))!!!!))))))))))))))))))))))))!,,(!!!!!!))!!!!!)!!!!!!!)!!!!!!)!!!),,#)))#,))#))))))))!))))))))))!!!!)!!",
  "!!!!))!!!!!!!)))))))))))))!!!!)))))))))))))))))))))))!!),(!!!!!!)!!!!!)!!!!!!!!)!!!!!!##!!!,,,,,))##)#)))))))!!))))))))#)!!!!!!!",
  "!)!!))!!!!!!!)))))))))))))!!!)))))))))))))))))))))!!!!)),(!!!!!)!!!!!!!!!!!)!!!)!!!!!!)#!!!,,)#,))#,))#))))))!!))))))))))!)!!!!!",
  "!))!!!!!!!!!!))))))#)))))!!!)))))))))))))))))))!!!))!))),(!!!!!)!!!!!)!!!!!!!!!!!!!!!!))!!!,#))#,)#,))#))#)))!!))))))))))!!!!!!!",
  "!!!!!!!!!!!!!))))))))))))!))#)))))))))))))#))!!)!!!))))),(!!!!!#!!!!!)!!!)!!!!)!!!!!!!)!)!!!!!!!,)#,)))))#)))!!!)))))))))!!!)!!!",
  "!!!!!!!!!!!!!!))))))))))!!)))))))))))))#)))!!)!!!!!))))),(!!!!!)!!!!)!!!!)!!!!)!!!!!!#!!)!!!!!!!,##,)))))#))))!!)))))))))))!!!!!",
  "!!!!!!!!!!!!!!))))))))!!!!))))))))))))))))))!!!!!!!))))),(!!!!!)!!!!)!!!!!!!!!!!!!!!!#!)!!!!!!!!(#,,))))))))))!!!!)))))))))!!!!!",
  "!!!!!!!!!!!!!!)))))))!!!!!#)))))))))))))!!!!!!!!!!!!)))),(!!!!!!!!!#!!!!!!!!!)!!!!!!!))!!!!!!!!!!#,#)))))))))))!!!))))))))))!!!!",
  "!!!!!!!!!!!!!)))))))!!!!!)))))))))#)))!!!!!!!!!!!!!!)))),(!!!!!!!!!)!!!!)!!!!#!!!!!!!!#!!!!!!!!!!),)))##)))))))!!!!)))))))))))!!",
  "!!!!!!!!!!!!!!))))))!!!!!)))))))))#))!!!!!!!!!!!!!!!)))),(!!!!!!!!)!!!!!)!!!!)!!!!!!!!##!!!!!!!!!),))))))))))))!!!!!)))))))))))!",
  "!!!!!!!!!!!!!!)))))!!!!!)))))))))#)#)!!!!!!!!!!!!!!!)))),(!!!!!!!!)!!!!!)!!!!)!!!!!!!!##!!!!!!!!!),)))))))))#)))!!!!)))))##)))))",
  "!!!!!!!!!!!!!!!))))!!!!)#))))))))))))!!!!!!!!!!!!!!!)))),,!!!!!!!))!!!!!!!!!!)!!!!!!!!#)!!!!!!!!!),)))))))))#)))!!!!))))#)))))))",
  "!!!!!!!!!!!!!!!!))!!!!!#))))))))))))))!!!!!!!!!!!!!!#))),,!!!!!!!))!!!!!!!!!!#!!!!!!!!#)!!!!!!!!!),)))))))))))))))#!!!!!!)))))))",
  "!!!!!!!!!!!!!!!!!!!!!!)))))))))))))#))))!!!!!!!!!!!!#))),,!!!!!!))!!!!)!!!!!!#!!!!!!!)#!!!!!!!!!!),))))))))))))))))#!!!!!!))))#!",
  "!!!!!!!!!!!!!!!!!!!!!))))))))))))))))))))!!!!!!!!!!!)))),,!!!!!!#)!!!#!!!!!!!)!!!!!!!##!!!!!!!!!!),))))))))))))#)))))!!!!!!))##)",
  "!!!!!!!!!!!!!!!!!!!!)#))))####))))))))#!))!!!!!!!!!!)))),,!!!!!!)!!!!!!!!!!!!)!!!!!!#))!!!!!!!!!!),#))))))))))))#)))))!!!!!!)))!",
  "!!!!!!!!!!!!!!!!!!!!##))#))))))))))))#!!))!!!!!!!!!!)))),(!!!!!!)!!!)!!!!!!!)!!!!!!!#))!!!!!!!!!!!#,)))))))))))#))))))))!!!!!!!!",
  "!!!!!!!!!!!!!!!!!!!!!#))))))))))))))))!!)))!!!!!!!!!)))),,!!!!!))!!!)!!!!!!!!!!!!!!#)!!!!!!!!!!!!!),,)))))))))))))))))))))!!!!!!",
  "!!!!!!!!!!!!!!!!!!!!!))))))))))))))))!!!)))!!!!!!!!!)))),,!!!!!!)!!!)!!!!!!)!!!!!!)#!!!!!!!!)!!!!!!,,,)#)))))))))))))))))))))))!",
  "!!!!!!!!!!!!!!!!!!!!!))))))))))))))))!!!)))))!!!!!!!)))),,!!!!!!)!!!)!!!!!#!!!!!!!#!!!!!!!!)!!!!!!!(,,)#)))))))))))))))))))))))!",
  "!!!!!!!!!!!!!!!!!)!!!!))!!!!))))!!!!)!!)))))))!!!!!!)))),,!!!!!!)!!!!)!!!!#!!!!!!)#!!!#!!!#!!!!!!!!!),###)))))))))))))))))))))#)",
  "!!!!!!!!!!!!!!!!!!#!!!!!!!!!!)!!!!!!!))))##)))!!)))))))))#!!!!!!)!!!!)!!!!)!!!!!!)#!!!)!!#!!!!!!!!!!!,####))))!!))))))))))))))##",
  "!!!!!!!!!!!!!!!!!!!!!!!!!!!!!!))))))))))##)))))#)))))))))!!!!!!!)!!!!)!!!))!!!!!!#!!!)!!#!!!!!!!!!!!!(,)##)))))!!)))))))))))))##",
  "!!!!!!!!!!!!!!!!!!!#!!!)#######)))))))))))))!))#)))))))))!!!!!!!)!!!!#!!!))!!!!!!#!!#!!)!!!!!!!!!!!!!!!!)))))))!!!))))))))))))!!",
  "!!!!!!!!!!!!!!!!!!!#!!!#))))))####))))))))))!))))))#))))!))!!!!!)!!!))!!)!)!!!!!)#!!#!)!!!!!!!!!!!!!!!!!)))))))!!!!)!!!)))))))!!",
  "!!!!!!!!!!!!!!!!!!!#!!!))))))))))))))))))))!!)))))))))!!)##!!!!!!!)!!)!!)!!!!!!!)#))!!)!!!!!!!!!!!!!!!!!))))))))!!!!!!!!!!!!!!!!",
  "!!!!!!!!!!!!!!!!!!!#!!!!))))))))))))))))))!!!))))))))!!!!##!!!!!!!!!))!!!!!!!!!!)##)!!)!!!!!!!!!!!!!!!!!!)))))))))!!!!!!!!!!!!!!",
  "#!!!!!!!!!!!!!!!!!!#!!!!!!)))))))))))))))))!)))))))))!!!!#!!!!!!!!!!))!!!!!!!!!!)##)!!)!!!!!!!!!!!!!!!!!!)))))))))))))!!!!!!!)))",
  ")!!!!!!!!!!!!!!!!!!)!!!!!!!!))))))))))#)!!!!)))))))###!!))!)!!!!!)!!##!!!!!!!!!))##)!))!!!!!!!!!!!!!!!!!!!))))))))))))))))))))))",
  ")!!!!!!!!!!!!!!!!!!!#!!!!!!!!!))))))))!!!!!)))))))))))))))))!!!!))!!))!!!!!!!!!)###!!))!!!!!!!!!!!!)!!!!!!))))))))))))))))))))))",
  ")!!!!!!!!!!!!!!!!!!!!)!!!!!!!!!!))))!!!!!!!))))))))))))))))!!!!!)!!)#!!!!!!!!!)####!!)#!!!!!!!!!!!!!!!!!!!!)))))))))))))))))))))",
  "!!!!!!!!!!!!!!!!!!!!!!!!!!!!!!!!!))!!!!!!!)))))#)))))))))))!!!!!!!#!#!!!!!!!!!)####!!)#!!!!!!!!!!!!!!!!!!!!!)!))))))))))##)))))!",
  "!!!!!!!!!!!!!!!!!!!!!!!)!!!!!!!!!!)!!!!!))))))#))))))))))))!!!!)!)!!#!!!!!!!!!)####!!)#!)!!!!!!!!)!!!!!!!!!!!!!!!)))))))))))))!!",
  "!!!!!!!!!!!!!!!!!!!!!!!!)!!!))!!!!!!!!!))))))))))))))))))))!!!!!)#!!)!!!!!!!!!#####!!)##!!!!!!!!!!!!!!!!!!!!!!!!!!!)))))))))!!!!",
  "!!!!!!!!!!!!!!!!!!!!!!!!!)!!!))!!!!!)))))))))))))))))))))))!!!)!)!!!)!!!!!!!!!)#)##!!)#)!!!!!!!!)!!!!!!!!!!!!!!!!!!!!!))))!!!!!!",
  "!!!!!!!!!!!!!!!!!!!!!!!!!)!!!!)))))))))))))))))))))))))))))!!)!!#!!)!!!!!!!!!!)#)#)!)#))!!!!!!!!!!!!!!!!!!!!!!!!!!!!!!!!!!!!!!!!",
  "!!!!!!!!!!!!!!!!!!!!!!!!!!!!!!!)))))))))))))))))))))))))))!!!!!!)!))!!!!!!!!!!##)#)!)#)!!!!!!!!)!!!)!!!!!!!!!!!!!!!!!!!!!!!!!!!!",
  "!!!!!!!!!!!!!!!!!!!!!!!!!!)!!!!!))))))))))#))))))))))))))!!!!!!!)))!!!!!!!!!!)##)#!!)#)!!!!!!!!)!!!)!!!!!!!)!!!!!!!!!!!!!!!!!!!!",
  "!!!!!!!!!!!!!!!!!!!!!!!!!!)!!!!!!))))))))))))))))))))))!!!)!!!!!#)!!!!!!!!!!!)###)!!#)!!!!!!!!!!!!!)!!!!!!!)!!!!!!!!!!!!!!!)!!!!",
  "!!!!!!!!!!!!!!!!!!!!!!!!!!#!!!!!!))))))#))))))))))##)!!!!!!!!!!))!!!!!!!!!!!!#))))!)#!!!!!!!!!)!!!))!!!!!!!#!!!!)!!!!!!!!!)#)##)",
  "!!!!!!!!!!!!!!!!!!!!!!!!!#)!!!!!!!))))))))))#))#))))!!!!!!!!!!)))!!!!!!!!!!!)#)#))!)#!!!!!!!!!)!!)!!!!!!!!))!!!!)!!!!!!!!##)!!!!",
  "!!!!!!!!!!!!!!!!!!!!!!!!!)#!!!!!!!))!!!!)))))))))))!!!!!!!!!!)))!!!!!!!!!!!!#))#)!!#)!!!!!!!!!)!!#!!!!!!!!))!!!))!!!!!!!#)!!!!!!",
  "!!!!!!!!!!!!!!!!!!!!!!!!!!))#!!!!!!!!!!!!!!!!!!!!!!!!!!!!!!!))))!!!!!!!!!!!!#))#)!)#!!!!!!!!!!)!!))!!!!!!!)!!!!))!!!!!#)#!!!!!!!",
  "!!!!!!!!!!!!!!!!!!!!!!!!!!!)!!!!!!!!!!!!!!!!!!!!!!!!!!!!!!!!)))!!!!!!!!!!!!)#!)))!)#!!!!!!!!!!)!!))!!!!!!!)!!!)!!!!!))))!!!!!!!!",
  "!!!!!!!!!!!!!!!!!!!!!!!!!!!#!!)!!)!!!!!!!!!!!!!!!!!!!!!!!!!)))!!!!!!!!!!!!)#)!))))#)!!!!!!!!!!)!)!)!!!!!!)!!!)!)!!!#))))!!!!!!!!",
  "!!!!!!!!!!!!!!!!!!!!!!!!!!!!#!!!!!)!!!!!!!!!!!!!!!!!!!!!!!)#)!!!!!!!!!!!!!)#)!))))#!!!!!!!!!!!!!)!!!!!!)!!!!!!!!!!)))!)!!!!!!!)!",
  "!!!!!!!!!!!!!!!!!!!!!!!!!!!!!#!)!!#!!!!!!!!!!!!!!!!!!!!!!))!!!!!!!!!!!!!!!#)!)))))!!!!!!!!!!!)!!!)!!!!!!)!!!!!!!!)))!)!!!!!!!)!!",
  "!!!!!!!!!!!!!!!!!!!!!!!!!!!!!!#!)!#!!!!!!!!!!!!!!!!!!!!!#)!!!!!!!!!!!!!!!)#)!#))))!!!!!!!!!!!!!)!)!!!!!!!!!!!!)##))!)!!!!!!!)!!!",
  "!!!!!!!!!#)!!!!!!!!!!!!!!!!!!!!)#!)!!!!!!!!!!!!!!!!!!!!))!!!!!!!!!!!!!!!!###)))###!!!!!!!!!))!!!!)!!)!))#!!!!))!#)!)!!!!!!!)!!!!",
  "!!!#!!!!##!!!!!!!!!!!!!!!!!!!!!)#!))!!!!!!!!!!!!!)!!!!!#)!!!!!!!!!!!!!!!!##)#)###)!!!!!!!!))!!)!)!!#!!)#!!!!))!#!!)!!!!!!)#!!!!!",
  "!!)#!!!)#!!!!!!!!!!!!!!!!!!!!!!!#!!#)!!!!!!!!!!!!!!!!!))!!!!!!!#!!!!!!!!!##)##)#)#!!!!!!!#!)!#!!)!)!!)#!!!!!)!!!))!!!!!)#!!!!!!!",
  "!!)#)))!!!!!!!!!!!!!!!!!!!!!!!!!)#!)))!!!!!!!!!!!)!!!)#!!!!!!!!#!!!!!!!!!#)#)####!!!!!!!!)#!)#!))!!!!#)!!!!!!!!)!!!!!)!!!!!!!!!!",
  "!!!!!!!!!!!!!!!!!!!!!!!!!!!!!!!!!##)))!!!!!!!!!!))!!!#)!!!!!!!!#!!!!!!!!)#))#)#))!!!!!!)##!!#)!!!!!!!#!!!!!!!!))))))!!!!!!!!!!!!",
  "!!!!!!!!!!!!!!!!!!!!!!!!!!!!!!!!!!#)))!!!!!!!!!)!!!!#)#!!!!!!!##!!!!!!!!)#)####)!!!!!!))#!!)))!!!!!)))!!!!!!)!!!!!!!!!!!!!!!!!!!",
  "''#####'&&&%%++&#)!!!!!!!!!!!!!!!!)))#!)!!!!!)!!!!!)#!#!!!!!!!##!!!!!!!!#)#####!!!!!!!)#)!!))#!!!!!))!!!!!)!!!!!!!!!!!!!!!!))###",
  "&&&&&&%&%%%&&&&%++#!!!!!!!!!!!!!!!!))#!!!!!!!#!!!!!#)!#!!!!!!!#)!!!!!!!!!)#####!!!!!!))#!!)!))!!!)!#!!!!)!!!!!!!!!!!!!!!&%%&&%%%",
  "%+%&&&&%&&&&&&&&&&&+&)!!!!!!!!!!!!!!##)!!!!))!!!!!##!!!!!)!!!!#!!!!!!!!#!)#!##!!!!!!)!#)!)!!)!!!!)!!!!)!!!!!!!!!!!!!!)&+&&&&&&&%",
  "'&&%&&&&%&&&&&&&&&&&&++#!!!!!!!!!!!!#)#!!!!))!!!!#)#!#!!#)!!!!#!!!!!!!)!!##)##!!!!!)!!#)!)!#!!!!))!!)!!!!!!!!!!!!)#'%&&&&&&&&&''",
  "&&&&&&&&'&&&&&&&&&&&&&&*+#!!!!!!!!!!))#)!!!#!!!!)#))))!!#!!!!!#)!)!!!!#!)#))))!!!!)!!!)!)!#!!!!!#!!!!!!!!!!))'&+&'''''&&&&'''''&",
  "&&&&&&&&''''''''&&&&&&&&&++#!!!!!!!!!)#)))!#!!!)!##!#!!#!!!!!!##!#!!!!!)))#)!)!!!!)!!!)!)))!!!!)#!!)!!!!!#&&&&'''''&%%&&'''&&&&&",
  "##'''''''''''''''''''&&&&&&++#!!!!!!!!))!))#!!!)!#!)!!!#!!!!!!##!#!!!!#!))#)!)!!!#!!!!#!)#!!!!!#)!!)!!!!&&&&''''&%&&&&&'''&''''#",
  ")))))))))'''''''''''''''&&&&&*+#!!!!!!))!))#!!!!)#!)!!#!!!!!!!####!!!!#)!)#!!#!!)!!!!))!)!!!!!!#!!)!!!!''%%'''++&&&&&&''')))))))",
  "))))))))))######''''''''''''&&&%+#!!!!))!#))!!!))#!)!!)!!!!!!!###!!!!!##!))!!)!!!!!!!#!)#!!!!!!#!!#!!!#'&&&'&&&'#'''&'''''))))))",
  "))))))))))))'))))))))&&&''''''&&&+#!!!!#!##)!!))!#)!!!!!!!!!!!##)!#!!!#!!)!!!)!)!!!!)!!)#!!!!!!#!!#!!)'&&&''+)))))))''#))))###))",
  "))######&''&&&&&&&&&''#&&&&'''&%&&&!!!!)!)#)!!#)!##!#!!!!!!!!##)#!)!!!!!!!!!!!)!!!!!)!!#)!!!!!!#!!!!!''&+&'&)))))))''###))))))))",
  "))######'''''''&'''''&&''''&%&&&%&&!!!!!!)#!!!#!#)!#)!!!!!!!!)#!!!!!!!!!!!!!)!)!!!!)!!!)!!!!!!)#!)!!)&'&*++)))))))#''##)))))))))",
  "))))))))))))))))))))))#'&##)&&%&&&&&!!!!!!#!!)#!##)#!!!!!!!!))#!!#!!!!!!!!!!#)!!!!)!!!!)!!!!!!)#!!!!!&&&'+))'#)))'''#)))))))))))",
  "))))))))))))))))))))))))))#'#&%&&&&'!!!!!)))!#))))#!!!!!!!!#)#)#!!#!!!!!!!!!))!!!)!!!!!!!!!!!!#)!!!!#&'&%))))'#))''#))))))))))))",
  "))))))))))))))))))))))))))))#)#&''&!!!!!!))!#))))##!!!!!!!!#))#!!)!!!!!!!!!)))!!!)!!!!!!!!!!!)#!!!!!'''%#)))')#'''#)))))))))))))",
  ")))))))))#)))))))))))))))))))))#''&#!!!!!!))))#!#!#!!!!!!!!#))!!!!!!!!!!!!!#)!!!!)!!!!!!!!!!)))!!!!($''&))',##&'''##))))))))))))",
  "))))))))))#)))))))))))))))))))))#&&&#!!!!!!#!#))##!!!!!!!!)###!!!!!!!!!!!!!))!!!!)!!!!!!)!)!!!!!!!!#'''))',))''''###))))))))))))",
  "))))))))))))))))))))))))))))))))))&&&)!!!!#!!#!#)#!!!!!!!!###)!!!!!!!!!!!!#))!!!)!!!!!!!!!!!!!!!!!!#'''#',))'''''#))))))))))))))",
  ")))))))))))))))))))))))))))))))))))&&%!!!!!!!#!#!#!!!!!!!!###!!!!!!!!!!!!!)#!!!!)!!!!!!!)!!!!!!!!!!'''''$)))''''$#))))))))))))))",
  "))))))))))))))))))))))))))))))))))))&'#!!!!!)#!!!#!!!!!!!###))!!!!!!!!!!!)))!!!!)!!!!!!!!!!!!!!!!!''''#$#))#'''',)))))))))))))))",
  ")))))))))))))))))))))))))))))))#)))))##)!!!!)#!!!#!!!!!!!###)!!!!!!!!!!!!#)!!!!!)!!!!!!)!!!!!!!!,''''''#)))''''$#)))))))))))))))",
  "))))))))))))))))))))))))))))))))))))))##)!!!)#!!!!!!!!!!)##!#!!!!!!!!!!!!!!!!!!!#!!!!!)!!!!!!!),'''''',))))'''',#)))))))))))))))",
  "))))))))))))))))))))))))))))))))))))))#')!!!)#!!!!!!!!!!)#))!!!!!!!!!!!!!!!!!!!!)!!!!!)!!!!!!#$''$'''$,)))#''''##)#)))))))))))))",
  ")))))))))))))))))))))))))))))))))))))))###!!)#!!!!!!!!!!##))!!!!!!#!#!!!!!!!!!!!)!!!!)!!!!!!,$''#''#',))))##''###)#)))))))))))))",
  "))))))))))))))))))))))))))))))))))))))))'')!)#!!!!!!!!!!##)#!!!!!!##!!!!!!!!!!!)!!!!!)!!!!!!#'''''#)##))))##''$,))#)))))))))))))",
  ")))))))))))))))))))))))))))))))))))))))))#')!!!!!!!!!!!!##)#!!!!!!##!!!!!!!!!!!#!!!!!)!!!!!!''##'')#,)))))##''$,))))))))))))))))",
  ")))))))))))))))))#,,)))))))))))))))))))))##'!!!!!!!!!!!)##!#!!!!!)#!!!!!!!!!!!))!!!!!!!!!!!#'#)#')),#))))),#''$#))))))))))))))))",
  ")))))))))))))))#,##,,#))))))))))))))))))))'')!!!!!!!!!!###!!!!!!!##!!!!!!!!!!!)!!!!!!!!!!!('')###)#,)))))###'&##))))))))))))))))",
  "))))))))))))))),#!!,,,#))))))))))))))))))#'''!!!!!!!!!!###!!!!!))#!!!!!!!!!!!!)!!!!!!!!!!!#'#)$'#),#)))))###'',)))))))))))))))))",
  ")))))))))))))),,#!!!#,,,#)))))))))))))))))))))!!!!!!!!!###!!!!!))#!!!!!!!!!!!))!!!!!!!!!!!#'))#')#,))))))##'''#)))))))))))))))))",
  ")))))))))))))),,!!#!!##,,,#)))))))))))))))))!)!!!!!!!!!###!!!!#!#!!!!!!!!!!!!!!!!!!!!!!!!,,#)##)),#))))))#$'$$#))#))))))))))))))",
  "))))))))))))),,#!)##!!!)##,#))))))))))))))))))#)!!!!!!!###!!!!!!#!!!!!!#!!!!!!!!!!!!!!!!!##)),#)),#))))))#$'$,)))#))))))))))))))",
};
