/* XPM */
static char *block_11[] = {
  /* width height ncolors chars_per_pixel */
  "32 32 4 1 0 0",
  /* colors */
  "! c #663300",
  "# c #996600",
  "$ c #ffcc99",
  "% c None",
  /* pixels */
  "$$#$#%%%%%%%%%%%%%%%%%%%%%%$#$##",
  "$$#$#%%%%%%%%%%%%%%%%%%%%%%$#$##",
  "$$#$#%%%%%%%%%%%%%%%%%%%%%%$#$##",
  "$$#$#######################$#$##",
  "$$#$#!!!!!!!!!!!!!!!!!!!!!!$#$##",
  "$$#$##$$$$$$$$$$$$$$$$$$$$$$#$##",
  "$$#$#!#######################$##",
  "$$#$#%%%%%%%%%%%%%%%%%%%%%%$#$##",
  "$$#$#%%%%%%%%%%%%%%%%%%%%%%$#$##",
  "$$#$#%%%%%%%%%%%%%%%%%%%%%%$#$##",
  "$$#$#%%%%%%%%%%%%%%%%%%%%%%$#$##",
  "$$#$#%%%%%%%%%%%%%%%%%%%%%%$#$##",
  "$$#$#%%%%%%%%%%%%%%%%%%%%%%$#$##",
  "$$#$#%%%%%%%%%%%%%%%%%%%%%%$#$##",
  "$$#$#######################$#$##",
  "$$#$#!!!!!!!!!!!!!!!!!!!!!!$#$##",
  "$$#$##$$$$$$$$$$$$$$$$$$$$$$#$##",
  "$$#$#!#######################$##",
  "$$#$#%%%%%%%%%%%%%%%%%%%%%%$#$##",
  "$$#$#%%%%%%%%%%%%%%%%%%%%%%$#$##",
  "$$#$#%%%%%%%%%%%%%%%%%%%%%%$#$##",
  "$$#$#%%%%%%%%%%%%%%%%%%%%%%$#$##",
  "$$#$#%%%%%%%%%%%%%%%%%%%%%%$#$##",
  "$$#$#%%%%%%%%%%%%%%%%%%%%%%$#$##",
  "$$#$#%%%%%%%%%%%%%%%%%%%%%%$#$##",
  "$$#$#######################$#$##",
  "$$#$#!!!!!!!!!!!!!!!!!!!!!!$#$##",
  "$$#$##$$$$$$$$$$$$$$$$$$$$$$#$##",
  "$$#$#!#######################$##",
  "$$#$#%%%%%%%%%%%%%%%%%%%%%%$#$##",
  "$$#$#%%%%%%%%%%%%%%%%%%%%%%$#$##",
  "$$#$#%%%%%%%%%%%%%%%%%%%%%%$#$##",
};
