/* XPM */
static char *block_18[] = {
  /* width height ncolors chars_per_pixel */
  "32 32 16 1 0 0",
  /* colors */
  "! c #000000",
  "# c #800000",
  "$ c #333366",
  "% c #555555",
  "& c #cc9966",
  "' c #ffcc66",
  "( c #ffccff",
  ") c #660000",
  "* c #333300",
  "+ c #663300",
  ", c #993300",
  "- c #996600",
  ". c #cc6600",
  "/ c #ff6600",
  "0 c #808080",
  "1 c None",
  /* pixels */
  "(''''''''''''''''''(''''''''''.!",
  "'(''&&&&&&&&&&&&&&&&'&&&&&&&&.,!",
  "'',,,,,---,,,,'-.....&......-,+!",
  "'',,,-......-''.,-....&.-....++!",
  "'&,...-,-..-'''..,,......,...++!",
  "'&,....-+,-''.'-..-,......,..++!",
  "'&-.....-+''.-',,-.--......-.++!",
  "'&.......-+++.',++++--.......++!",
  "'&.-.......-,'',+,....-....-.++!",
  "'&..,-......-'',+.-....,....-++!",
  "'&..-,...-...'',+.......,-...+*!",
  "'&....-...,-.'.-+,-.....-,,-.++!",
  "'&.........--.-.+-,,,-...-,,,++!",
  "'.,+++++*+++****+++**++++++***+!",
  ".,+++++++*++++**+++++**++++++**!",
  "!!!!!!!!!!!!!!!!!!!!!!!!!!!!!!!!",
  "$$$'''''$$$$''.,!(0%%%%$$'''''$$",
  "$$$'''''$$$$'',)!0(0%%$$$'''''$$",
  "**/////*****//##!%0$****/////***",
  "*/////*****///##!%%****/////****",
  "/////*****////##!%%***/////*****",
  "////*****/////!!!%$**/////*****/",
  "///*****/////*!!!$$*/////*****//",
  "//*****/////**!!!$$/////*****///",
  "/*****/////***!!!''////*****////",
  "*****/////****!!!''///*****/////",
  "****/////*****!!!''//*****/////*",
  "***/////******!!!''/*****/////**",
  "**/////*******!!!''*****/////***",
  "!#####!!!!!!!!*!!$%*!!!#####!!!!",
  "!#####!!!!!!!!!*!%*!!!!#####!!!!",
  "!!!!!!!!!!!!!!!!!!!!!!!!!!!!!!!!",
};
