/* XPM */
static const char *block_7[] = {
  /* width height ncolors chars_per_pixel */
  "32 32 13 1 0 0",
  /* colors */
  "! c #660066",
  "# c #000000",
  "$ c #993366",
  "% c #996666",
  "& c #cc6666",
  "' c #cc9966",
  "( c #4d4d4d",
  ") c #330000",
  "* c #660000",
  "+ c #cc9999",
  ", c #cccc99",
  "- c None",
  ". c #330066",
  /* pixels */
  "%%%%%%%%%%%%%%%%%%%%%%%%%%%%%%%%",
  "%%#......)..).......)......))#(%",
  "%#%%(%'',',,,,,,,,,,,',''%(%,'%'",
  "%.%!,'%&%%%%#)....)#!%%%.#'%$%.'",
  "%.$',%!,%%%$,,,',','%($%#,'%(,),",
  "%.%$!#%,%%','%%%%%%%'&%%.%()!,)'",
  "%.'%,',$),,%%%%%%%%%%%%%%%'%,,),",
  "%)'%%%)!,+%%%%%%%%%%%%%%%%'''%)'",
  "%.'%%%),,%%%%%%%%%%%%%%%$'%%%%),",
  "%.'%%.%,%))))(%%%%()#)#!%$'%%%),",
  "%.'%%),%#%,,,%%%%()$,,,%%!'&%%),",
  "%)'%%)'(%,'%%%%'%)%,'%%%%'.,%%),",
  "%.'%%#'),'%%%$.,%)''%%%%),),%%),",
  "%.'%%),),%%%%#$'%.%&%%%%)'(,%%),",
  "%.'%%#'(%%%%(),'%%('%%%!),$,%%),",
  "%.'%%),%$%!.)%,(%%$%(!)#',!'%%),",
  "%)'%%.,''%%%',&)!%%%'%%,'%*,%%),",
  "%.,%%!,%%'''%%!.%'%%%''%%%)'%%),",
  "%.'%%.,'%%%%%%#$%('%%%%%%.),%%),",
  "%.,%%$$''%%%%(('',,%%%%#).,'%%),",
  "%.,%%%(!)$%%%%%%%%%%%%$.,,'%%%),",
  "%)'%%%%%&$%(%%$%)%%!$'(*,%%%%%),",
  "%),%%%%%%$,)%')'.''.%'(!,%%%%%),",
  "%),%%%%%%$,!%'.')%%)%%.*,%%%%%),",
  "%),%%%%%%.!#$))%.$%!(%$%,()#!%),",
  "%),().!%%$,%,,',''''%,'$'),,%,),",
  "%),),,%,%!,),$!,!%,$!,(!'$,$),),",
  "%.,),$#,%$,),$),$(,(!'#%'($#(,),",
  "%)'(&.%,%%%)'))&))%))$&,'%,,,'),",
  "%)'%',''%%,,,,,,,,,,,,,&%%%%%(),",
  "%%&!))))))))))))))))))))))))))%'",
  "%%%',,,,,,,,,,,,,,,,,,,,,,,,,,''",
};
