/* XPM */
static char *block_13[] = {
  /* width height ncolors chars_per_pixel */
  "32 32 13 1 0 0",
  /* colors */
  "! c #000000",
  "# c #333366",
  "$ c #c0c0c0",
  "% c #555555",
  "& c #cc9966",
  "' c #ffcc66",
  "( c #333300",
  ") c #663300",
  "* c #993300",
  "+ c #996600",
  ", c #cc6600",
  "- c #808080",
  ". c None",
  /* pixels */
  "$$$$$$$$$$$$$$$$$$$$$$$$$$$$$$$$",
  "--------------------------------",
  "!!!!!!!!!!!#((((((((#!!!!!!!!!!!",
  "(((((((((((%########%(((((((((((",
  "(((((((((((%########%(((((((((((",
  "###########-%%%%%%%%%((#########",
  "###########-%%%%%%%%%((#########",
  "###########-%%%%%%%%%((#########",
  "%%%%%%%%%%%$--------%##%%%%%%%%%",
  "%%%%%%%%%%%$--------%##%%%%%%%%%",
  "%%%%%%%%%%%$--------%##%%%%%%%%%",
  "%%%%%%%%%%%$--------%##%%%%%%%%%",
  "--------------------------------",
  "%%%%%%%%%%%%%%%%%%%%%%%%%%%%%%%%",
  "))))))))))))))))))))))))))))))))",
  "*+&&,,,,,&&,,,,)*+,&&,,&,,,,,,,)",
  "*,++&&,,,,,&&,,)*,++,&,,'&,,,,,)",
  "*&&&&''&&&&&''&)*&&&&''&''&&'&&)",
  "))))))**)*))*)))))))))**)))))**)",
  ")*+***++*)))*),))++***++*)*++*,)",
  ")*++*++++)*++*,))+++*+++))+++*,)",
  ")+++*++++*+++*,))+++*+++)*++++,)",
  "))))))))))))))))))))))))))))))))",
  "))))))))))))))))))))))))))))))))",
  ",&&,,,,)*&&&,,,,&&&&,,,)*+&&,,,,",
  ",,,&&,,)*&,,&&,,,,&&&,,)*,++&&,,",
  "&&&&''&)*&&&''&&&&&&''&)*&&&&''&",
  ")))))**))))))))))))))**)))))))**",
  "*)*++*,))***+*+)****)*,))++*)*++",
  "+)+++*,))*+++++*++++**,))+++*+++",
  "+*++++,))*+++++*++++*+,))+++*+++",
  "))))))))))))))))))))))))))))))))",
};
