/* XPM */
static char *block_16[] = {
  /* width height ncolors chars_per_pixel */
  "32 32 10 1 0 0",
  /* colors */
  "! c #000000",
  "# c #cc9966",
  "$ c #ffcc66",
  "% c #ffccff",
  "& c #333300",
  "' c #663300",
  "( c #993300",
  ") c #996600",
  "* c #cc6600",
  "+ c None",
  /* pixels */
  "!%$$$$$$$$$$$$$$$$$$%$$$$$$$$$$*",
  "!$%$$################$########*(",
  "!$$((((()))((((()*****#******)('",
  "!$$((()******))((()****#*)****''",
  "!$#(***)()******)(((******(***''",
  "!$#(****)'()*******)(******(**''",
  "!$#)*****)''(********)******)*''",
  "!$#*******)('(***)****)*******''",
  "!$#*)*******)')***(****)****)*''",
  "!$#**()******)(*)**)****(****)''",
  "!$#**)(***)****)*)*******()***'&",
  "!$#****)***()*****()*****)(()*''",
  "!$#*********))****)((()***)(((''",
  "!$*('''''&'''&&'''''&&''''''&&&'",
  "!*('''''''&''''&&'''''&&''''''&&",
  "!!!!!!!!!!!!!!!!!!!!!!!!!!!!!!!!",
  "%%$%$$$$$$$$$$$$*!%$$$$$$$$$$$$$",
  "#$$#$##########*(!$%$$##########",
  "**##*#*********('!$$()(())**)(()",
  ")**##*#********''!$$(**)(*****)(",
  "(***#*******)**''!$#(****)*****)",
  ")(***#*******(*''!$#(***********",
  "**(***#*)****)(''!$#(***********",
  "***)*****()***)''!$#))**********",
  "*********)')***''!$#)()******)**",
  "******)***)(***''!$#*)')**)***)*",
  ")******()***)*)''!$#**)'()*)***(",
  "(()****)((()*)(''!$#***('((*(**)",
  ")((()***)((((('&'!$#***)(''()()*",
  "'''&'''''''''&&&'!$*(''''&&&''&'",
  "''''&''''''''''&&!*(''''''&&&'''",
  "!!!!!!!!!!!!!!!!!!!!!!!!!!!!!!!!",
};
