/* XPM */
static char *block_3[] = {
  /* width height ncolors chars_per_pixel */
  "32 32 6 1 0 0",
  /* colors */
  "! c #000000",
  "# c #333366",
  "$ c #555555",
  "% c #4d4d4d",
  "& c #333300",
  "' c None",
  /* pixels */
  "!!&%&!!!&%%%&&&&&!!!!!!&&!!!&!&!",
  "!&%%!!!&&%$%&#%!!&!!!!!&&!!!!!&&",
  "&&&!!!!&%%$%#&&!!&!!!!!!&&!!!!&&",
  "&&&!!!&&%%%$%&&&!!!!!!!!&!!!!!%%",
  "%&!!&&&%%%%%%&&&!!!!!!!!&!!!!!&&",
  "&&&&&&&&%%&%%&!&!!!!!!!!!!!!!!!!",
  "!!&&&&#%%#&&%&!&!!!!!!!!!&!!!!!&",
  "!!&&&#&&$&&#&!!&!!!!&&!!!!!!&&!&",
  "!!&&&%%&%&&#!!&!!!!!!&!!!!!!&&!!",
  "!!!&%%&&&!&&!&&!!!!!!!!!!!!&&&!!",
  "#!!&%&&!!%&!!&!!!!!!!&!!!!&&%!!!",
  "#&&!&&&&&#&!!!!!!!!&&#!!!!!%&!!!",
  "&%&!&&&&&&&!!!&!!!!!&&!!!!!&%!!&",
  "&%#!!&!!&&&!!&&!!!!&%&!!!!!&&!!&",
  "&%%!!&&&&&!!&&&!!!!%%!!!&&&&&&!!",
  "#%%&&&&&&&!!&&&!!!&&&!!!&&&&&&!&",
  "%$%&&&!!&&!!!%&!!!&%&!!!&%&!!&&&",
  "&%&&&&!!&&!!&#!!!!%%&!!&%#!!!!&%",
  "#&&&%&!!&!!!!&!!&&&&!!!&%&!!&&%%",
  "&&&&%%!!!&!!!&&&%&!!!&&%%&!!!&%%",
  "!&&%%&&!!&!!!!&%#!!!!&&%&!!&&&&&",
  "!!&&&&&!&!!!!!&%&!!!!&#%#!!&&&&&",
  "!!!!&&&&%!!&&!&&&!!&&&&&%&&&&&&&",
  "!!!!&%&%%!!&&&&&!!!&&&&%%&&&&!&%",
  "!!!!!&&&#!!&&&&&&!!&&&&&%&!!&&&%",
  "!!!!!&%%&!!&%#&&&!!&!!&&%&!&&&&&",
  "!!!!!!%%!!!!&&&&&&&&&!&&&&&&!&&#",
  "!!!!!!&%&!!&&&&&&&&&&&&&&&&!!&%%",
  "&!!!!!&%&&!!#%&!!&&&&%&&&!!!!!%%",
  "!!!!!!&&&&!!&&&!!&&&%%%&&!!!!&%%",
  "!!!!!!&&&!!!&%&!!!&&%%%%&!!!!&&%",
  "!!!!!!&&!!&&%&!&&!!#%%%%&!!!&&&#",
};
