/* XPM */
static const char *block_15[] = {
  /* width height ncolors chars_per_pixel */
  "32 32 18 1 0 0",
  /* colors */
  "! c #000000",
  "# c #333366",
  "$ c #c0c0c0",
  "% c #cc66ff",
  "& c #555555",
  "' c #cc9966",
  "( c #ffcc66",
  ") c #ffccff",
  "* c #333300",
  "+ c #663300",
  ", c #993300",
  "- c #333399",
  ". c #996600",
  "/ c #cc6600",
  "0 c #663399",
  "1 c #808080",
  "2 c None",
  "3 c #666699",
  /* pixels */
  "$$$$$$$$$$$)$$$$$$$$$$$$$$$$$$$$",
  "11111111111%11111111111111111111",
  "!!!!!)!!!!!#********#!!!!303!!!!",
  "***!))3!***&########&***!%30!***",
  "**!)%)33!**#########&***!%)-!***",
  "#*)%3)033*#&#&&&&&&&&**#*%)-*###",
  "*)%30)--03*&##&&&&&&&**#*%)-*###",
  "****3)-****&###&&&&&&****3)-****",
  "&&&#%)-#&&&1&1111111&*)%30)--03*",
  "&&&#%)-#&&&1&1111111&#*)%3)033*&",
  "&&&#%)-#&&&1&1111111&##*)%)33#&&",
  "&&&#%3-#&&&1&1111111&##&#))3#&&&",
  "111&3-0&111$1111111111111&)&1111",
  "&&&#####&&&1&&&&&&&&&&&&&&##&&&&",
  "++++++++++++++++++++++++++++++++",
  ",.''/////''////+,./''//'///////+",
  ",/..''/////''//+,/../'//('/////+",
  ",''''(('''''(('+,''''(('((''(''+",
  "++++++,,+,++,+++++++++,,+++++,,+",
  "+,.,,,..,+++,+/++..,,,..,+,..,/+",
  "+,..,....+,..,/++...,...++...,/+",
  "+...,....,...,/++...,...+,..../+",
  "++++++++++++++++++++++++++++++++",
  "++++++++++++++++++++++++++++++++",
  "/''////+,'''////''''///+,.''////",
  "///''//+,'//''////'''//+,/..''//",
  "''''(('+,'''((''''''(('+,''''(('",
  "+++++,,++++++++++++++,,+++++++,,",
  ",+,..,/++,,,.,.+,,,,+,/++..,+,..",
  ".+...,/++,.....,....,,/++...,...",
  ".,..../++,.....,....,./++...,...",
  "++++++++++++++++++++++++++++++++",
};
