/* XPM */
static char *door_3[] = {
  /* width height ncolors chars_per_pixel */
  "32 32 8 1 0 0",
  /* colors */
  "! c #cc6666",
  "# c #cc9966",
  "$ c #ffccff",
  "% c #333300",
  "& c #663300",
  "' c #993300",
  "( c #996600",
  ") c #ffcc99",
  /* pixels */
  ")()()&&&&&&&&')!')'&&&&&&&&)()((",
  ")()()&&&&&&&&&!)&!&&&&&&&&&)()((",
  ")()()&&&&&&&&&()&(&&&&&&&&&)()((",
  ")()()&&&&&&&&&()&(&&&&&&&&&)()((",
  ")()()&&&&&&&&&()&(&&&&&&&&&)()((",
  ")()()&&&&&&&&&()&(&&&&&&&&&)()((",
  ")()()&&&&&&&&&()&(&&&&&&&&&)()((",
  ")()()&&&&&&&&&()&(&&&&&&&&&)()((",
  ")()()&&&&&&&&&()&(&&&&&&&&&)()((",
  ")()()&&&&&&&&&()&(&&&&&&&&&)()((",
  ")()()&&&&&&&&&()&(&&&&&&&&&)()((",
  ")()()&&&&&&&&&()&(&&&&&&&&&)()((",
  ")()()&&&&&&&&&()&(&&&&&&&&&)()((",
  ")()()&&&&&&&&&()&(&&&&&&&&&)()((",
  ")()()&&&&&&&&&()&(&&&&&&&&&)()((",
  ")()()&&&&&&&&&()&(&&&&&&&&&)()((",
  ")()()&&&&&&&&&()&(&&&&&&&&&)()((",
  ")()()&&&&&&&&&()&(&&&&&&&&&)()((",
  ")()()&&&&&&&&&()&(&&&&&&&&&)()((",
  ")()()&&&&&&&&&()&(&&&&&&&&&)()((",
  ")()()&&&&&&&&&()&(&&&&&&&&&)()((",
  ")()()&&&&&&&&&()&(&&&&&&&&&)()((",
  ")()(#%&&&&&&&&()&(&&&&&&&&&#()((",
  ")()(!#))))))))))))))))))))#!()((",
  ")()(((((((((((((((((((((((((()((",
  ")()($))))#)###!#!!!(!((((!(!()((",
  ")()())))#)###!#!!!(!((((!(!#()((",
  ")()()))#)###!#!!!(!((((!(!##()((",
  ")()())#)###!#!!!(!((((!(!##!()((",
  ")()()#)###!#!!!(!((((!(!##!#()((",
  ")()(((((((((((((((((((((((((()((",
  "))))))))))))))))))))))))))))))((",
};
