/* XPM */
static char *door_6[] = {
  /* width height ncolors chars_per_pixel */
  "32 32 16 1 0 0",
  /* colors */
  "! c #000000",
  "# c #000080",
  "$ c #333366",
  "% c #555555",
  "& c #cc9966",
  "' c #ffcc66",
  "( c #ffccff",
  ") c #333300",
  "* c #663300",
  "+ c #993300",
  ", c #333399",
  "- c #996600",
  ". c #663399",
  "/ c #cc6600",
  "0 c #808080",
  "1 c #666699",
  /* pixels */
  ")/&'((((((''&&///--++****+-/-+*)",
  "-/&'((((((''&&///--++****+-/-+**",
  "+-/&'(((''&&//---++****)**+-+**)",
  "+-/&'(((''&*!!!!!!!!)**)**+-+**)",
  "+-/&'(((''&!!!!!!!!!!**)**+-+**)",
  "+-/&'(((''&*!!!!!!!!)**)**+-+**)",
  "+-/&'(((''&&//---++****)**+-+**)",
  "!!!!!!!!!!!!!!!!!!!!!!!!!!!!!!!!",
  "*-!#))))$$%%$-/)*/+$%%$$))))#!*-",
  "+-!#)))$$%$%$-/)*/+$%$%$$)))#!+-",
  "-/!,))$%%%00$/&)*&-$00%%%$)),!-/",
  "/&!.)$$%%0%0$/&)*&-$0%0%%$$).!/&",
  "/&!1)$%%%%00$/&)*&-$00%%%%$)1!/&",
  "/&!1)%$%%0%0$/&)*&-$0%0%%$%)1!/&",
  "/&!1)$%%%%00$/&)*&-$00%%%%$)1!/&",
  "/&!1)%$%%0%0$/&)*&-$0%0%%$%)1!/&",
  "/&!1)$%%%%00$/&)*&-$00%%%%$)1!/&",
  "/&!1)$$%%0%0$/&)*&-$0%0%%$%)1!/&",
  "/&!1)$%%%%00$/&)*&-$00%%%%$)1!/&",
  "/&!1)$$%%0%0$/&)*&-$0%0%%$%)1!/&",
  "/&!1)$%%%%00$/&)*&-$00%%%%$)1!/&",
  "/&!1)$$%%0%0$/&)*&-$0%0%%$%)1!/&",
  "/&!1)$%%%%00$/&)*&-$00%%%%$)1!/&",
  "/&!1)$$%%0%0$/&)*&-$0%0%%$%)1!/&",
  "/&!1)$%%%%00$/&)*&-$00%%%%$)1!/&",
  "/&!1)$$%%0%0$/&)*&-$0%0%%$%)1!/&",
  "/&!1)$%%%%00$/&)*&-$00%%%%$)1!/&",
  "/&!1)$$%%0%0$/&)*&-$0%0%%$%)1!/&",
  "/&!1)$%%%%00$/&)*&-$00%%%%$)1!/&",
  "/&!1)$$%%0%0$/&)*&-$0%0%%$%)1!/&",
  "/&!1)$%%%%00$/&)*&-$00%%%%$)1!/&",
  "/&!1)%$%%0%0$/&)*&-$0%0%%$%)1!/&",
};
