/* XPM */
static const char *door_0[] = {
  /* width height ncolors chars_per_pixel */
  "32 32 3 1 0 0",
  /* colors */
  "! c #555555",
  "# c #cbcbcb",
  "$ c #a0a0a4",
  /* pixels */
  "$$$$$$$$$$$$$$$$$$$$$$$$$$$$$$$!",
  "$##############################!",
  "$#$$$$$$$$$$$$$$$$$$$$$$$$$$$$#!",
  "$#$$$$$$$$$$$$$$$$$$$$$$$$$$$$#!",
  "$#$$$$$$$$$$$$$$$$$$$$$$$$$$$$#!",
  "$#$#$$$!!!!!!!!!!!!!!!!!$$$$$$#!",
  "$#$$!$!$$$$$$$$$$$$$$$$$#$$$$$#!",
  "$#$$$$!$$$$$$$$$$$$$$$$$#$$$$$#!",
  "$#$$$$!$$$$$$$$$$$$$$$$$#$$$$$#!",
  "#######$##$#$#$#$#$#$######$$$#!",
  "#$!#$$$!$$$$$$$$$$$$$$$#$$$!$$#!",
  "#$!#$#$!!!!!!!!!!!!!!!$#$#$!$$#!",
  "#$!#$$!!!$$$$$$$$$$$$$##$$!!$$#!",
  "#$!#$$$!!$$$$$$$$$$$$$##$$$!$$#!",
  "#$!#$#$!$#$#$#$#$#$#$###$#$!$$#!",
  "#$!#$$!!$$$$$$$$$$$$$$$#$$!!$$#!",
  "!!!$!!!!!!!!!!!!!!!!!!!$!!!$$$#!",
  "$#$$$$!$$$$$$$$$$$$$$$$$$$$$$$#!",
  "$#$$$$!$$$$$$$$$$$$$$$$$#$$$$$#!",
  "$#$#$$!$$$$$$$$$$$$$$$$$#$$$$$#!",
  "$#$$!$!$$$$$$$$$$$$$$$$$#$$$$$#!",
  "$#$$$$!$$$$$$$$$$$$$$$$$#$$$$$#!",
  "$#$$$$!$$$$$$$$$$$$$$$$$#$$$$$#!",
  "$#$$$$!$$$$$$$$$$$$$$$$$#$$$$$#!",
  "$#$$$$!$$$$$$$$$$$$$$$$$#$$$$$#!",
  "$#$$$$!$$$$$$$$$$$$$$$#######$#!",
  "$#$$$$$##############$#$$$$$$!#!",
  "$#$$$$$$$$$$$$$$$$$$$$#$$##!$!#!",
  "$#!!!!!!!!!!!!!!!!!!!!#$##$!!!#!",
  "$$###################$#$##!!!!#!",
  "$#$$$$$$$$$$$$$$$$$$$$#$$#!!$!#!",
  "$#!!!!!!!!!!!!!!!!!!!!#$$#!!$!#!",
};
