/* XPM */
static const char *door_9[] = {
  /* width height ncolors chars_per_pixel */
  "32 32 13 1 0 0",
  /* colors */
  "! c #000000",
  "# c #cc66ff",
  "$ c #cc9966",
  "% c #ffcc66",
  "& c #ffccff",
  "' c #333300",
  "( c #663300",
  ") c #993300",
  "* c #333399",
  "+ c #996600",
  ", c #663399",
  "- c #cc6600",
  ". c #666699",
  /* pixels */
  "%$+)!$----+(---++-(------%+!%$+)",
  "(-)(!$---++(---+$-(------%+!(-)(",
  "'(('!$-++++(--+$--(-----$%+!'(('",
  "(-)(!$#..)-(------(-----%%+!(-)(",
  "-)()!+(,()-(-$----(-----%%+!-)()",
  "%!(-!*.#.*)(%-----(----$%$)!%!(-",
  "%!(-!.,!,.(($-----(---$%$-)!%!(-",
  "%!(-!#!!!#(($--+--(--$%$-+)!%!(-",
  "-)()!.,!,.((--++--(-$%---+)!-)()",
  "(-)(!*.#.*)(+++---(-%---++)!(-)(",
  "()-(!+((()+')+--$-($---++-+!()-(",
  ")()-!$-+++)')-$$--($--+---+!)()-",
  "-(!%!$---++(-$%---($-+----+!-(!%",
  "-(!%!$---++($%$---)$------+!-(!%",
  "-(!%!$--++-(%$----($------+!-(!%",
  ")()-!$-+---(%-----)%$-----+!)()-",
  "()-(!$-----($-----($%%----+!()-(",
  "(-)(!$-----($-----(-$%$---+!(-)(",
  "'(('!$-----(------)!!!!)---!'(('",
  "(-)(!$-----(-!!)--!)-)!!)--!(-)(",
  "%$+)!$-----(--)!------)!'!)!%$+)",
  "&$+)!$----+(!!!!!!!!!!!!!!!!&$+)",
  "%$+)!$---++(--)!------)!'!)!%$+)",
  "%$+)!$--+++--!!)--!)-)!!)--!%$+)",
  "%$+)!$-+++--------)!!!!)---!%$+)",
  "%$+)!$-++--(------($+--+++)!%$+)",
  "%$+)!$++---($-+---($--++--+!%$+)",
  "%$+)!-+----($+---+($-+----+!%$+)",
  "%$+)!-+----($---)-($------+!%$+)",
  "%$+)!$----+($-----($------+!%$+)",
  "$$+)!$---++($$----($$-----+!$$+)",
  "(-)(!((((((((((((((((((((((!(-)(",
};
