/* XPM */
static char *mover_1[] = {
  /* width height ncolors chars_per_pixel */
  "64 32 14 1 0 0",
  /* colors */
  "! c #000000",
  "# c #660066",
  "$ c #800080",
  "% c #cc66ff",
  "& c #ffccff",
  "' c #66ff66",
  "( c #6666ff",
  ") c #333399",
  "* c #336600",
  "+ c #663399",
  ", c #996699",
  "- c #669900",
  ". c None",
  "/ c #330066",
  /* pixels */
  "%&&&&&&&&&&&&&&&&&&&&&&&&&&&&&&&&&&&&&&&&&&%&%%%%%%%%%%%%%%%%%,$",
  ",%&&&&&&&&&&&&&&&&&%&%%%%%%%%%%%%%%%%%%%%%%,%,,,,,,,,,,,,,,,,,$#",
  "..#################!#!!!!!!!!!!!!!!!!!!!!!!!!!!!!!!!!!!!!!!!!!..",
  "..$$$$$$$$$$$$$$$$$#$######################!#!!!!!!!!!!!!!!!!!..",
  "..,,,%,,,,,,,,,,,,,$,$$,$$$$$$$$$$$$$$$,$$$#$############$####..",
  "..,,,,$,,,,,,,,,,,,$,$$$#$$!$!!$$!!$!$$$#$$#$#############!###..",
  "..,%%%%%%%%%%%%%%%%,%,,,,,,#,,#,,#,,#,,,,,,$,$$$$$$$$$$$$$$$$#..",
  "..,%%%%%%%%%%%%%%%%,%,,,,,,#$,#,,#,$#,,,,,,$,$$$$$$$$$$$$$$$$#..",
  "..,%%%%%%%%%%%%%%%%,%,,,,,,$#,#,,#,#$,,,,,,$,$$$$$$$$$$$$$$$$#..",
  "..,%%&%%%%%%%%%%%%%,%,,%,,,,,,#,,#,,,,,%,,,$,$$$$$$$$$$$$,$$$#..",
  "..,%%%,%%%%%%%%%%%%,%,,,#,,,,,,,,,,,,,,,#,,$,$$$$$$$$$$$$$#$$#..",
  "%&&&&&&&&&&&&&&&&&&&&&&&&&&&&&&&&&&&&&&&&&&%&%%%%%%%%%%%%%%%%%,$",
  ",%&&&&&&&&&&&&&&&&&%&%&%%%%%%%%%%%%%%%%&%%%,%,,,,,,,,,,,,,,,,,$#",
  ".))+(%&%(+)...)+/()&/()....)(&&&&&&()....)+/()&/()...))+(%&%(+).",
  ".))+(%&%(+)....)+)&/()....+&&-****-&&+....)+)&/()....))+(%&%(+).",
  "../))+(+))......)&/()....)&--''*****-&)....)&/()....../))+(+))..",
  "../))+(+)).....)%/()()...)&-*'****-*-&)...)%/()()...../))+(+))..",
  "./))+(%(+)/...)%/+)+/()...+&&-***--&&+...)%/+)+/().../))+(%(+)/.",
  "./))+(%(+)/..)%/+)!)+/()...)(&&&&&&()...)%/+)!)+/()../))+(%(+)/.",
  "%&&&&&&&&&&&&&&&&&&&&&&&&&&&&&&&&&&&&&&&&&&%&%%%%%%%%%%%%%%%%%,$",
  ",%&&&&&&&&&&&&&&&&&%&%%%%%%%%%%%%%%%%%%%%%%,%,,,,,,,,,,,,,,,,,$#",
  "..#################!#!!!!!!!!!!!!!!!!!!!!!!!!!!!!!!!!!!!!!!!!!..",
  "..$$$$$$$$$$$$$$$$$#$######################!#!!!!!!!!!!!!!!!!!..",
  "..,,,%,,,,,,,,,,,,,$,$$,$$$$$$$$$$$$$$$,$$$#$############$####..",
  ".),,,,$,,,,,,,,,,,,$,$$$#$$$$$$$$$$$$$$$#$$#$#################..",
  ".),%%%%%%%%%%%%%%%%,%,,,,,,,,,$,,$,,,,,,,,,$,$$$$$$$$$$$$$$$$#..",
  "..,%%%%%%%%%%%%%%%%,%,,,,,,#,,#,,#,,#,,,,,,$,$$$$$$$$$$$$$$$$#..",
  "..,%%%%%%%%%%%%%%%%,%,,,,,,#,,#,,#,,#,,,,,,$,$$$$$$$$$$$$$$$$#..",
  "..,%%&%%%%%%%%%%%%%,%,,%,,,,,,$##$,,,,,%,,,$,$$$$$$$$$$$$,$$$#..",
  "..,%%%,%%%%%%%%%%%%,%,,,#,,,,,,,,,,,,,,,#,,$,$$$$$$$$$$$$$#$$#..",
  "%&&&&&&&&&&&&&&&&&&&&&&&&&&&&&&&&&&&&&&&&&&%&%%%%%%%%%%%%%%%%%,$",
  ",%&&&&&&&&&&&&&&&&&%&%&%%%%%%%%%%%%%%%%&%%%,%,,,,,,,,,,,,,,,,,$#",
};
