/* XPM */
static char *mover_square_8[] = {
  /* width height ncolors chars_per_pixel */
  "32 32 6 1 0 0",
  /* colors */
  "! c #333300",
  "# c #663300",
  "$ c #993300",
  "% c #996600",
  "& c #cc6600",
  "' c None",
  /* pixels */
  "''''''''''''''''''''''''''''''''",
  "####$$%$$$########$%%&&&%#######",
  "###!!!####$$$$$########%&&&&%$##",
  "$$$$$$########%&&&&%$######!!!#$",
  "####$$$$$##########$$%&&&%######",
  "!!!!!!!!!!##!!!####$$$$$#####!#!",
  "''!!###!####'''''''''#####!##!#'",
  "'''!!$$$#$$##'''''''####$!!##!''",
  "''''!!$###$$!#'''''$###$!!#!!'''",
  "'''''!!$###$###'''$#%%%#####''''",
  "''''''!!$##$##!#'$$%%%##$##'''''",
  "'''''''!!###$####!%%###%##''''''",
  "''''''''!####$####!###%$#'''''''",
  "'''''''''#####$####!#%$$''''''''",
  "''''''''''!!#%&###$$!$$'''''''''",
  "'''''''''''!!#&&##$$$!''''''''''",
  "'''''''''''!###&&#%%$%''''''''''",
  "''''''''''#!!###&%#%&$$'''''''''",
  "'''''''''###!!##$%$#&&#$''''''''",
  "''''''''#!###!!$$$###&&##'''''''",
  "'''''''$#$$$##!!$$%##%%###''''''",
  "''''''$#$$#####!'$$&##&##$#'''''",
  "'''''$#%$######'''$$&##&##$#''''",
  "''''%#$$###$!!'''''##%#!&##$#'''",
  "'''####!###!!'''''''###!!#####''",
  "''!!!!!!!!!!'''''''''!!!!!!!!!!'",
  "$$$$#####!##!####$$$$$####$$$$##",
  "##!####$$$$$##########$$%&&&%###",
  "#########$!!!##!!!####$$$$$#####",
  "##$%%$$$%#########$$%&&%####!###",
  "$$$$#####!##!####$$$$$####$$$$##",
  "''''''''''''''''''''''''''''''''",
};
