/* XPM */
static char *mover_square_4[] = {
  /* width height ncolors chars_per_pixel */
  "32 32 12 1 0 0",
  /* colors */
  "! c #000000",
  "# c #000080",
  "$ c #333366",
  "% c #c0c0c0",
  "& c #cc66ff",
  "' c #555555",
  "( c #ffccff",
  ") c #333300",
  "* c #333399",
  "+ c #808080",
  ", c None",
  "- c #666699",
  /* pixels */
  "%%%%%%%%%%%%%%%%%%%%%%%%%%%%%%%%",
  "++++++++++++++++++++++++++++++++",
  ",,,,,,,,,,,,,,,,,,,,,,,,,,,,,,,,",
  ")))))'))))))))))')))))))))))')))",
  "$$$$$$)$$$$$$$$$$)$$$$$$$$$$$)$$",
  "$$$$$$$$$$$$$$$$$$$$$$$$$$$$$$$$",
  "))))))))))))))))))))))))))))))))",
  "''''''''''''''''''''''''''''''''",
  "''''''''''''''''''''''''''''''''",
  "'''''+''''''''''+'''''''''''+'''",
  "''''''$''''''''''$'''''''''''$''",
  "%%%%%%%%%%%%%%%%%%%%%%%%%%%%%%%%",
  "++++++++++++++++++++++++++++++++",
  ",,,,,,,,,,,,,,,,,,,,,,,,,,,,,,,,",
  "#-&&&&-#*&((((&*#-&&&&-#*&((((&*",
  "-#****#-&-!!!!-&-#****#-&-!!!!-&",
  "&-!!!!-&-#****#-&-!!!!-&-#****#-",
  "*&((((&*#-&&&&-#*&((((&*#-&&&&-#",
  ",,,,,,,,,,,,,,,,,,,,,,,,,,,,,,,,",
  "%%%%%%%%%%%%%%%%%%%%%%%%%%%%%%%%",
  "++++++++++++++++++++++++++++++++",
  ",,,,,,,,,,,,,,,,,,,,,,,,,,,,,,,,",
  ")))))'))))))))))')))))))))))')))",
  "$$$$$$)$$$$$$$$$$)$$$$$$$$$$$)$$",
  "$$$$$$$$$$$$$$$$$$$$$$$$$$$$$$$$",
  "))))))))))))))))))))))))))))))))",
  "''''''''''''''''''''''''''''''''",
  "''''''''''''''''''''''''''''''''",
  "'''''+''''''''''+'''''''''''+'''",
  "''''''$''''''''''$'''''''''''$''",
  "%%%%%%%%%%%%%%%%%%%%%%%%%%%%%%%%",
  "++++++++++++++++++++++++++++++++",
};
