/* XPM */
static char *mover_4[] = {
  /* width height ncolors chars_per_pixel */
  "64 32 9 1 0 0",
  /* colors */
  "! c #000000",
  "# c #cc9966",
  "$ c #ffcc66",
  "% c #333300",
  "& c #663300",
  "' c #993300",
  "( c #996600",
  ") c #cc6600",
  "* c None",
  /* pixels */
  ")$)'))')$#')#)$#')))#)#'!)$)'))')$#')#)!)$)'))')$#')#)$#')))#)#'",
  ")$&&)(&)#$&'$'#$&)(($'$&!)$&&)(&)#$&'$'!)$&&)(&)#$&'$'#$&)(($'$&",
  ")#&'$'&)'$'($'($&#(($'$&!)#&'$'&)'$'($'!)#&'$'&)'$'($'($&#(($'$&",
  "%%%%%%%%%%%%%%%%%%%%%%%%!%%%%%%%%%%%%%%!%%%%%%%%%%%%%%%%%%%%%%%%",
  "%%&'%&&%&&&%&&&&&&%&'&%%!%%&'%&&%&&'%&&!%%&'%&&%&&&%&&&&&&%'&&%%",
  "&&&&&&&&&')&()&(''&&&&&&!&&&&&&&&&'&&()!&&&&&&&&&')&()&(''&&)&&&",
  "%&&%&'&&&')&&)&)''&&%&&&!%&%%&'&&&'&&&)!%&&%&'&&&')&&)&)''&&)&&&",
  "&&&$&'%&('(&&)')&&&&$&&&!&&&$&'%&(&$&&)!&&%$&'%&('(&&)')&&&$&)&&",
  "&&%%&'&&)'''&('(&&&)%$&&!&&%%&'&&)'%'&(!&&%%&'&&)'''&('(&&&%#$&&",
  "&&&&&'&')''(&(''&&&(&#&%!&&&&&'&')'&(&(!&&&%&'&')''(&(''&&&&$#&%",
  "!!!!!!!!!!!!!!!!!!!!!!!!!!!!!!!!!!!!!!!!!!!!!!!!!!!!!!!!!!!!!!!!",
  "$)#$())#$)$(******'&&%&(%*%%%%%%%%%%%%*%(&%&&'******())())((('(#",
  "$''$&#(($'$&*****(&)&&(&**%%%%%%%%%%%%**&(&&)&(*****&''&)&&'&&&'",
  "#'&$&#''#&$(****(')&&)&***%%%%%%%%&%%&***&)&&)'(****'&&&)&&''&'(",
  "('&'#)&''&'(***(')&&)(****%%&%%%%&%%%&****()&&)'(***''&'(%&#&$&(",
  "(&$&$)&'&$&(**(''&&&)*****%%&%%%%%%%%%*****)&&&''(**'&$&'&&$'%'(",
  "''%'$(&('%'(*&&'''&)******%%&%%%%%%%%%******)&'''&&*''%'&&($'&('",
  "'#&'$'&)'&'(!&&)(&(*******%%&&%%%%%%%%*******(&()&&!)'&&&&($)&)&",
  "'$&&)(&)#&&'!&))&(********%%%&%%%%%%%%********(&))&!#'&#&'()#'#&",
  "'$'&)(&($'&'!))&&*********%%%&%%%%%%%%*********&&))!$''$&)(($'$&",
  "((&)#)&'((#(!)&&**********%%%&%%%%%%&%**********&&)!$'($&#(($'$&",
  "#'&$&#''#'$(!'&***********%%%&%%%%%%&%***********&'!#'&$&#''#'$(",
  "$'($&#(($'$&!&************%&%%&%&&%&&%************&!((&)')&'((#(",
  "$'#$&)(($'$&!*************%&&&&%&&&&&&*************!'$'&)(&($#&'",
  "#''#&'()#'#&**************%&&&&%&&&&&&**************'$'&)(&)#'&'",
  ")'&&&&($)&)&**************&&&&&&&&&&&&**************'#&'$'&)'&'(",
  "''&'&&($'&''**************&'&&&&&&'&&&**************''&'$(&('&'(",
  "'&$&'&&$&$&(**************%''%'%&&(&&'**************(&$&$)&'&$&(",
  "''%'(%&#'%'(**************%&'%&%&'(&&'**************('%'#)&''%'(",
  "'&&&)&&''&&(**************%&'&&%&''&%'**************#'&$&#''#&$(",
  "&'&&)&&'&&&'**************%&'&&%&'&&&'**************$'&$&#(($&$&",
  "!!!!!!!!!!!***************%&'&&%&'&&&'***************!!!!!!!!!!!",
};
