/* XPM */
static char *mover_square_7[] = {
  /* width height ncolors chars_per_pixel */
  "32 32 12 1 0 0",
  /* colors */
  "! c #660066",
  "# c #000080",
  "$ c #663366",
  "% c #c0c0c0",
  "& c #cc66ff",
  "' c #ffccff",
  "( c #333399",
  ") c #663399",
  "* c #996699",
  "+ c None",
  ", c #666699",
  "- c #330066",
  /* pixels */
  "%*+++++,-#++++&)')#++++#-,+++++*",
  "%!+++++,-#++++&)&)#++++#-,+++++*",
  "!$+++++,-#++++&)&)#++++#-,+++++%",
  "$'+++++,-#++++&),)#++++#-,+++++!",
  "'*+++++,-#++++&)))#++++#-,+++++$",
  "%*+++++,-#++++&)()#++++#-,+++++'",
  "%*+++++,-#++++&)#)#++++#-,+++++*",
  "%!+++++,-#++++&)+)#++++#-,+++++*",
  "!$+++++,-#++++&)+)#++++#-,+++++%",
  "$'+++++,-#++++&)#)#++++#-,+++++!",
  "'*+++++,-#++++&)()#++++#-,+++++$",
  "%*+++++,-#++++&)))#++++#-,+++++'",
  "%*+++++,-#++++&),)#++++#-,+++++*",
  "%!+++++,-#++++&)&)#++++#-,+++++*",
  "!$+++++,-#++++')&)#++++#-,+++++%",
  "$'+++++,-#++++')')#++++#-,+++++!",
  "'*+++++,-#++++')')#++++#-,+++++$",
  "%*+++++,-#++++')&)#++++#-,+++++'",
  "%*+++++,-#++++&)&)#++++#-,+++++*",
  "%!+++++,-#++++&),)#++++#-,+++++*",
  "!$+++++,-#++++&)))#++++#-,+++++%",
  "$'+++++,-#++++&)()#++++#-,+++++!",
  "'*+++++,-#++++&)#)#++++#-,+++++$",
  "%*+++++,-#++++&)+)#++++#-,+++++'",
  "%*+++++,-#++++&)+)#++++#-,+++++*",
  "%!+++++,-#++++&)#)#++++#-,+++++*",
  "!$+++++,-#++++&)()#++++#-,+++++%",
  "$'+++++,-#++++&)))#++++#-,+++++!",
  "'*+++++,-#++++&),)#++++#-,+++++$",
  "%*+++++,-#++++&)&)#++++#-,+++++'",
  "%*+++++,-#++++&)&)#++++#-,+++++*",
  "%!+++++,-#++++&)')#++++#-,+++++*",
};
