/* XPM */
static char *mover_3[] = {
  /* width height ncolors chars_per_pixel */
  "64 32 25 1 0 0",
  /* colors */
  "! c #000000",
  "# c #800000",
  "$ c #000080",
  "% c #333366",
  "& c #663366",
  "' c #c0c0c0",
  "( c #cc66ff",
  ") c #555555",
  "* c #cc9966",
  "+ c #ffcc66",
  ", c #ffccff",
  "- c #660000",
  ". c #333300",
  "/ c #663300",
  "0 c #993300",
  "1 c #333399",
  "2 c #996600",
  "3 c #663399",
  "4 c #cc6600",
  "5 c #996699",
  "6 c #ff6600",
  "7 c #808080",
  "8 c None",
  "9 c #666699",
  ": c #330066",
  /* pixels */
  ",++++++++++++++++++,++++++**+++++*24*+,+++++++,,+,++++++++++++4!",
  "+,++****************+******44****42/24*+*******++*+**********40!",
  "++0000022200042404444*444444202420//..///2200242444*4444444440/!",
  "++00024444442+42/24444*4244442024*2//1(!1.2420+42/*4*44444444//!",
  "+*04442024444++0/00444444044442044*0.1(!3..242++0/*4444444244//!",
  "+*044442/0244++0/420444444044444244/.1(!3./.22++0/4*444444404//!",
  "+*2444442//04++0/442244444424444422./1(!3/2//2++0/44*42444420//!",
  "+*444444420/04+0/44422444444444442/./1(!32*4*/4+0/44444024442//!",
  "+*42444440++42+002404424444244444/.02/(!3*4++42+00240442/2444//!",
  "+*440244440++4+244/44440444424442/02/2/.//22++4+244/244420444//!",
  "+*442044424/+++44/44444402444244/2**2/0//2*40+++44/4402444242//!",
  "+*4444244402/++4/0244444200244402*4440/0//0*4/++4/44420002420//!",
  "+*44444444422/+/4200024442000224*224420////024/+/02444200000/./!",
  "+40/////.///../////..//////.../0///////..!//.//././////////.../!",
  "40///////.////..//1333333139(,(9999(931$3333331.//.//////////..!",
  "!!!!!!!!!!!!!!!!!!3333333139(,(9999(931$3333333!!!!!!!!!!!!!!!!!",
  "%%%+++++%%%%++40883399333139(,(9999(931$333993388,7))))%%+++++%%",
  "%%%+++++%%%%++0-8839,3133139(,(9999(931$339,313887,7))%%%+++++%%",
  "..66666.....66##88393$133139(,(9999(931$3393$1388)7%....66666...",
  ".66666.....666##883311333139(,(9999(931$333113388))....66666....",
  "66666.....6666##881333333139(,(9999(931$333333188))...66666.....",
  "6666.....6666688881:1!!!!!!!:::::::::!!!!!!!1:188)%..66666.....6",
  "666.....66666.8888:3:3!!!!!!39(933393!!!!!!3:3:88%%.66666.....66",
  "66.....66666..88888$9:9!!!!!39(933393!!!!!9:9$888%%66666.....666",
  "6.....66666...888888$9:9!!!!:::&5&:::!!!!9:9$8888++6666.....6666",
  ".....66666....8888888$9:9!!!:::5'5:::!!!9:9$88888++666.....66666",
  "....66666.....88888888$9:9!!39(933393!!9:9$888888++66.....66666.",
  "...66666......8888888883:9!!39(933393!!9:38888888++6.....66666..",
  "..66666.......888888888$:9!!!!!5'5!!!!!9:$8888888++6....66666...",
  ".66666.........88888888$:9!!!!!5'5!!!!!9:$8888888++....66666....",
  "#####!!!!!!!!!..8888888$:9!!!!!5'5!!!!!9:$8888888%).!!#####!!!!!",
  "#####!!!!!!!!!!.8888888$:9!!!!!5'5!!!!!9:$8888888).!!!#####!!!!!",
};
