/* XPM */
static char *outside_5[] = {
  /* width height ncolors chars_per_pixel */
  "96 96 7 1 0 0",
  /* colors */
  "! c #000000",
  "# c #333366",
  "$ c #555555",
  "% c #333300",
  "& c #663300",
  "' c #993300",
  "( c #808080",
  /* pixels */
  "&&&&&&&!&&&&&&&&&&&&&&&!&&&&&&&&&&&&&&&!&&&&&&&&&&&&&&&!'&&&&&&!&'''&&&!&&&&&&&&&&&&&&&!&&&&&&&&",
  "!!!!!!%!&&%!!!!!!!!!!!%!&!!!!!!!!!!!!!%!&&%!!!!!!!!!!!%!&&%!!!&!'&%!!!%!&&%!!!!!!!!!!!%!&!!!!!!!",
  "!!!!!!%!&%!!!!!!!!!!!!%!&%!!!!!!!!!!!!%!&%!!!!!!!!!!!!%!&%!!!!&!'%!!!!%!&%!!!!!!!!!!!!%!&%!!!!!!",
  "!!!!!!%!&!!!!!!!!!!!!!%!&%!!!!!!!!!!!!%!&!!!!!!!!!!!!!%!&!!!!!&!'!!!!!%!&!!!!!!!!!!!!!%!&%!!!!!!",
  "!!!!!!%!&!!!!!!!!!!!!!%!&&%!!!!!!!!!!!%!&!!!!!!!!!!!!!%!&!!!!!&!&!!!!!%!&!!!!!!!!!!!!!%!&&%!!!!!",
  "!!!!!%%!&!!!!!!!!!!!!!!!&&&%%!!!!!!!!%%!&!!!!!!!!!!!!!!!&!!!!!&!&!!!!%%!&!!!!!!!!!!!!!!!&&&%%!!!",
  "&&&&&&%!%!!!!!!!!!!!!!!!'&&&&&&&&&&&&&%!%!!!!!!!!!!!!!!!&!!!!!&!&&&&&&%!%!!!!!!!!!!!!!!!'&&&&&&&",
  "!!!!!!!!!!!!!!!!!!!!!!!!!!!!!!!!!!!!!!!!!!!!!!!!!!!!!!!!&!!!!!&!!!!!!!!!!!!!!!!!!!!!!!!!!!!!!!!!",
  "''''&&&&&&&&&&&!''''&&&&&&&&&&&!((($$$$$$$$$$$#!''''&&&!&!!!!!&!''''&&&&&&&&%!%!''''&&&&&&&&&&&!",
  "'&&%%!!!!!!!!%&!'&&%%!!!!!!!!%&!(#%!!!!!!!!!!!%!'&&%%!%!&!!!!!&!'&%!!!!!!!!!!!!!'&&%%!!!!!!!!%&!",
  "'&%!!!!!!!!!!!&!'&%!!!!!!!!!!!&!(%!!!!!!!!!!!!%!'&%!!!%!&!!!!!&!'%!!!!!!!!!!!!!!'&%!!!!!!!!!!!&!",
  "'%!!!!!!!!!!!!%!'%!!!!!!!!!!!!%!$!!!!!!!!!!!!!%!'%!!!!%!&!!!!!&!'!!!!!!!!!!!!!!!'%!!!!!!!!!!!!%!",
  "&%!!!!!!!!!!!!%!&%!!!!!!!!!!!!%!$!!!!!!!!!!!!!%!&%!!!!%!&!!!!!&!&!!!!!!!!!!!!!!!&%!!!!!!!!!!!!%!",
  "&!!!!!!!!!!!!%%!&!!!!!!!!!!!!%%!$!!!!!!!!!!!!%%!&!!!!!%!&!!!!%&!&!!!!!!!!!!!!!!!&!!!!!!!!!!!!%%!",
  "&%%%%%%%%%%%%%%!&%%%%%%%%%%%%%%!#%%%%%%%%%%%%%%!&&%%%%%!&&&&&&&!&%%%%%%%!%!!!!!!&%%%%%%%%%%%%%%!",
  "!!!!!!!!!!!!!!!!!!!!!!!!!!!!!!!!!!!!!!!!!!!!!!!!!!!!!!!!!!!!!!!!!!!!!!!!!!!!!!!!!!!!!!!!!!!!!!!!",
  "$$$$$$#!($$#%!&&&&&&&&&!&(($$$$$$$$$$$#!((($$$$$$$$$$$#!((($$$$$$$$$$$#!!!!!!!!!!!!!!!!!((($$$$!",
  "!!!!!!%!$%!!%!&&%!!!!!%!(#%!!!!!!!!!!!%!($#%!!!!!!!!!!%!(#%!!!!!!!!!!!%!!!!!!!!!!!!!!!!!(#%!!!!!",
  "!!!!!!%!$!!!%!&%!!!!!!%!(%!!!!!!!!!!!!%!(#!!!!!!!!!!!!%!(%!!!!!!!!!!!!%!!!!!!!!!!!!!!!!!(%!!!!!!",
  "!!!!!!%!#!!!%!&!!!!!!!%!$!!!!!!!!!!!!!%!$%!!!!!!!!!!!!%!$!!!!!!!!!!!!!%!!!!!!!!!!!!!!!!!$!!!!!!!",
  "!!!!!!%!#!!!%!&!!!!!!!%!$!!!!!!!!!!!!!%!$!!!!!!!!!!!!!%!$!!!!!!!!!!!!!%!!!!!!!!!!!!!!!!!$!!!!!!!",
  "!!!!!%%!#!!!%!&!!!!!!!!!$!!!!!!!!!!!!%%!$!!!!!!!!!!!!%%!$!!!!!!!!!!!!%%!!!!!!!!!!!!!!!!!$!!!!!!!",
  "%%%%%%%!#%%%%!%%%!!!!!!!#%%%%%%%%%%%%%%!#%%%%%%%%%%%%%%!#%%%%%%%%%%%%%%!!!!!!!!!!!!!!!!!#%%%%%%!",
  "!!!!!!!!!!!!!!!!!!!!!!!!!!!!!!!!!!!!!!!!!!!!!!!!!!!!!!!!!!!!!!!!!!!!!!!!!!!!!!!!!!!!!!!!!!!!!!!!",
  "'&&%%!'&&%%!!!!!&&&&&&&&&&&&&&&!'&&%%!'&&%%!!!!!&&&&&&&&&&&&&&&!'&&%%!'&&%%!!!!!&&&&&&&&&&&&&&&!",
  "&!!!%!&!!!!!!!%!&&%!!!!!!!!!!!%!&!!!%!&!!!!!!!%!&&%!!!!!!!!!!!%!&!!!%!&!!!!!!!%!&&%!!!!!!!!!!!%!",
  "&!!!%!&!!!!!!!%!&%!!!!!!!!!!!!%!&!!!%!&!!!!!!!%!&%!!!!!!!!!!!!%!&!!!%!&!!!!!!!%!&%!!!!!!!!!!!!%!",
  "&!!!%!&!!!!!!!%!&!!!!!!!!!!!!!%!&!!!%!&!!!!!!!%!&!!!!!!!!!!!!!%!&!!!%!&!!!!!!!%!&!!!!!!!!!!!!!%!",
  "&!!!%!&!!!!!!!%!&!!!!!!!!!!!!!%!&!!!%!&!!!!!!!%!&!!!!!!!!!!!!!%!&!!!%!&!!!!!!!%!&!!!!!!!!!!!!!%!",
  "&!!!%!&!!!!!!!%!&!!!!!!!!!!!!!!!&!!!%!&!!!!!!!%!&!!!!!!!!!!!!!!!&!!!%!&!!!!!!!%!&!!!!!!!!!!!!!!!",
  "&%%%%!%%%%%%%%%!%!!!!!!!!!!!!!!!&%%%%!%%%%%%%%%!%!!!!!!!!!!!!!!!&%%%%!%%%%%%%%%!%!!!!!!!!!!!!!!!",
  "!!!!!!!!!!!!!!!!!!!!!!!!!!!!!!!!!!!!!!!!!!!!!!!!!!!!!!!!!!!!!!!!!!!!!!!!!!!!!!!!!!!!!!!!!!!!!!!!",
  "&&&&&&&!&&&&&&&&&&&&&&&!''''&&&&&&&&&&&&&&%!%&&&&&&&&&%!&&&&&&&&&&&&&&&!((($$$$$$$$$$$#!&&&&&&&&",
  "!!!!!!%!&&%!!!!!!!!!!!%!'&&%%!!!!!!!!!!!!%!!&%!!!!!!!%&!&!!!!!!!!!!!!!%!(#%!!!!!!!!!!!%!&!!!!!!!",
  "!!!!!!%!&%!!!!!!!!!!!!%!'&%!!!!!!!!!!!!!%!!%!!!!!!!!!!&!&%!!!!!!!!!!!!%!(%!!!!!!!!!!!!%!&%!!!!!!",
  "!!!!!!%!&!!!!!!!!!!!!!%!'%!!!!!!!!!!!!!%!!!!!!!!!!!!!!&!&%!!!!!!!!!!!!%!$!!!!!!!!!!!!!%!&%!!!!!!",
  "!!!!!!%!&!!!!!!!!!!!!!%!&%!!!!!!!!!!!!!!!!!!!!!!!!!!!!&!&&%!!!!!!!!!!!%!$!!!!!!!!!!!!!%!&&%!!!!!",
  "!!!!!%%!&!!!!!!!!!!!!!!!&!!!!!!!!!!!!!!!!!!!!!!!!!!!!!&!&&&%%!!!!!!!!%%!$!!!!!!!!!!!!%%!&&&%%!!!",
  "&&&&&&%!%!!!!!!!!!!!!!!!&!!!!!!!!!!!!!!!!!!!!!!!!!!!!!&!'&&&&&&&&&&&&&%!#%%%%%%%%%%%%%%!'&&&&&&&",
  "!!!!!!!!!!!!!!!!!!!!!!!!&!!!!!!!!!!!!!!!!!!!!!!!!!!!!!&!!!!!!!!!!!!!!!!!!!!!!!!!!!!!!!!!!!!!!!!!",
  "''''&&&&&&&&&&&!&&&&&&&&&!!!!!!!!!!!!!!!!!!!!!!!!!!!!!&&&&&&&&&!'&&&&&&&%!%&&&&!''''&&&&&&&&&&&!",
  "'&&%%!!!!!!!!%&!&!!!!!!!&!!!!!!!!!!!!!!!!!!!!!!!!!!!!!&!!!!!!%&!&!!!!!!%!!&%!%&!'&&%%!!!!!!!!%&!",
  "'&%!!!!!!!!!!!&!&%!!!!!!&!!!!!!!!!!!!!!!!!!!!!!!!!!!!%&!!!!!!!&!&!!!!!%!!%!!!!&!'&%!!!!!!!!!!!&!",
  "'%!!!!!!!!!!!!%!&%!!!!!!&!!!!!!%!!!!!!!!!!!!!!!!!!!!!%%!!!!!!!%!&!!!!!!!!!!!!!%!'%!!!!!!!!!!!!%!",
  "&%!!!!!!!!!!!!%!&&%!!!!!&%%!!!%!!!!!!!!!!!!!!!!!!!!!%&%!!!!!!!%!&!!!!!!!!!!!!!%!&%!!!!!!!!!!!!%!",
  "&!!!!!!!!!!!!%%!&&&%%!!!&&&%%%!!%!!!!!!!!!!!!!!!!!%%&&%!!!!!!%%!&!!!!!!!!!!!!%%!&!!!!!!!!!!!!%%!",
  "&%%%%%%%%%%%%%%!'&&&&&&&&&&&&&&&&&&&&&&&&&&&%&&%&%%%%%%%%%%%%%%!&%%%!!!%%%%%%%%!&%%%%%%%%%%%%%%!",
  "!!!!!!!!!!!!!!!!!!!!!!!!!!!!!!!!!!!!!!!!!!!!!!!!!!!!!!!!!!!!!!!!!!!!!!!!!!!!!!!!!!!!!!!!!!!!!!!!",
  "&&&&&&%!!!!!!!!!!!!!!!!!'&&%%!'&&%%!!!!!!!!!!!!!!!!!!!!((($$$$$$$$$$$#!!&&&&&&&&&&&&&&&!''&&&&&&",
  "!!!!!!%!!!!!!!!!!!!!!!!!&!!!%!&!!!!!!!%!!!!!!!!!!!!!!!!(#%!!!!!!!!!!!%!!&!!!!!!!!!!!!!%!'!!!!!!!",
  "!!!!!!%!!!!!!!!!!!!!!!!!&!!!%!&!!!!!!!%!!!!!!!!!!!!!!!!(%!!!!!!!!!!!!%!!&%!!!!!!!!!!!!%!&!!!!!!!",
  "!!!!!!%!!!!!!!!!!!!!!!!!&!!!%!&!!!!!!!%!!!!!!!!!!!!!!!!$!!!!!!!!!!!!!%!!&%!!!!!!!!!!!!%!&!!!!!!!",
  "!!!!!!%!!!!!!!!!!!!!!!!!&!!!%!&!!!!!!!%!!!!!!!!!!!!!!!!$!!!!!!!!!!!!!%!!&&%!!!!!!!!!!!%!&!!!!!!!",
  "!!!!!%%!!!!!!!!!!!!!!!!!&!!!%!&!!!!!!!%!!!!!!!!!!!!!!!!$!!!!!!!!!!!!%%!!&&&%%!!!!!!!!%%!&!!!!!!!",
  "&&&%%%%!!!!!!!!!!!!!!!!!&%%%%!%%%%%%%%%!!!!!!!!!!!!!!!!#%%%%%%%%%%%%%%!!'&&&&&&&&&&&&&%!'&&&&&&&",
  "!!!!!!!!!!!!!!!!!!!!!!!!!!!!!!!!!!!!!!!!!!!!!!!!!!!!!!!!!!!!!!!!!!!!!!!!!!!!!!!!!!!!!!!!!!!!!!!!",
  "'&&%%!'&&%%!!!!!&&&&&&&&&&&&&&&!'&&%%!'&&%%!!!!!((($$$$$$$$$$$#!'&&%%!'&&%%!!!!!&&&&&&&&&&&&&&&!",
  "&!!!%!&!!!!!!!%!&&%!!!!!!!!!!!%!&!!!%!&!!!!!!!%!(#%!!!!!!!!!!!%!&!!!%!&!!!!!!!%!&&%!!!!!!!!!!!%!",
  "&!!!%!&!!!!!!!%!&%!!!!!!!!!!!!%!&!!!%!&!!!!!!!%!(%!!!!!!!!!!!!%!&!!!%!&!!!!!!!%!&%!!!!!!!!!!!!%!",
  "&!!!%!&!!!!!!!%!&!!!!!!!!!!!!!%!&!!!%!&!!!!!!!%!$!!!!!!!!!!!!!%!&!!!%!&!!!!!!!%!&!!!!!!!!!!!!!%!",
  "&!!!%!&!!!!!!!%!&!!!!!!!!!!!!!%!&!!!%!&!!!!!!!%!$!!!!!!!!!!!!!%!&!!!%!&!!!!!!!%!&!!!!!!!!!!!!!%!",
  "&!!!%!&!!!!!!!%!&!!!!!!!!!!!!!!!&!!!%!&!!!!!!!%!$!!!!!!!!!!!!%%!&!!!%!&!!!!!!!%!&!!!!!!!!!!!!!!!",
  "&%%%%!%%%%%%%%%!%!!!!!!!!!!!!!!!&%%%%!%%%%%%%%%!#%%%%%%%%%%%%%%!&%%%%!%%%%%%%%%!%!!!!!!!!!!!!!!!",
  "!!!!!!!!!!!!!!!!!!!!!!!!!!!!!!!!!!!!!!!!!!!!!!!!!!!!!!!!!!!!!!!!!!!!!!!!!!!!!!!!!!!!!!!!!!!!!!!!",
  "&&&&&&&!''''&&&&&&&&&&&!&&&&&&&&&&&&&&&!&&&&&&&&&&&&&&&!((($$$$$$$$$$$#!&&&&&&&&&&&&&&&!&&&&&&&&",
  "!!!!!!%!'&&%%!!!!!!!!!%!&!!!!!!!!!!!!!%!&&%!!!!!!!!!!!%!($#%!!!!!!!!!!%!&&%!!!!!!!!!!!%!&!!!!!!!",
  "!!!!!!%!'&%!!!!!!!!!!!%!&%!!!!!!!!!!!!%!&%!!!!!!!!!!!!%!(#!!!!!!!!!!!!%!&%!!!!!!!!!!!!%!&%!!!!!!",
  "!!!!!!%!'%!!!!!!!!!!!!%!&%!!!!!!!!!!!!%!&!!!!!!!!!!!!!%!$%!!!!!!!!!!!!%!&!!!!!!!!!!!!!%!&%!!!!!!",
  "!!!!!!%!&%!!!!!!!!!!!!&!&&%!!!!!!!!!!!%!&!!!!!!!!!!!!!%!$!!!!!!!!!!!!!%!&!!!!!!!!!!!!!%!&&%!!!!!",
  "!!!!!%%!&!!!!!!!!!!!!!&!&&&%%!!!!!!!!%%!&!!!!!!!!!!!!!!!$!!!!!!!!!!!!%%!&!!!!!!!!!!!!!!!&&&%%!!!",
  "&&&&&&%!&!!!!!!!!!!!!!&!'&&&&&&&&&&&&&%!%!!!!!!!!!!!!!!!#%%%%%%%%%%%%%%!%!!!!!!!!!!!!!!!'&&&&&&&",
  "!!!!!!!!&!!!!!!!!!!!!!&!!!!!!!!!!!!!!!!!!!!!!!!!!!!!!!!!!!!!!!!!!!!!!!!!!!!!!!!!!!!!!!!!!!!!!!!!",
  "&&&&&&&!&!!!!!!!!!!!!!&!'&&%%!!!!!!!!!!!!!!!!!!!''''&&&&&&&&&&&!''''&&&&&&&&&%%!&&&&&&&&&&&&&&&!",
  "&&%!!!!!&!!!!!!!!!!!!!&!&&%!!!!!!!!!!!!!!!!!!!!!'&&%%!!!!!!!!%&!'&%!!!!!!!!!!!!!&&%!!!!!!!!!!!%!",
  "&%!!!!!!&!!!!!!!!!!!!!%!&%!!!!!!!!!!!!!!!!!!!!!!'&%!!!!!!!!!!!&!'%!!!!!!!!!!!!!!&%!!!!!!!!!!!!%!",
  "&!!!!!!!&!!!!!!!!!!!!!%!&!!!!!%!!!!!!!!!!!!!!!!!'%!!!!!!!!!!!!%!'!!!!!!!!!!!!!!!&!!!!!!!!!!!!!%!",
  "&!!!!!!!&!!!!!!!!!!!!!%!&!!!!!%!!!!!!!!!!!!!!!!!&%!!!!!!!!!!!!%!&!!!!!!!!!!!!!!!&!!!!!!!!!!!!!%!",
  "&!!!!!!!&!!!!!!!!!!!!!%!&!!!!!%!!!!!!!!!!!!!!!!!&!!!!!!!!!!!!%%!&!!!!!!!!!!!!!!!&!!!!!!!!!!!!!%!",
  "%!!!!!%!&&&&&&&&&&&&&&%!%%%%%%%!!!!!!!!!!!!!!!!!&%%%%%%%%%%%%%%!&%%%%%%%%!%%!%!!%%%%%%%%%%%%%%%!",
  "!!!!!!!!!!!!!!!!!!!!!!!!!!!!!!!!!!!!!!!!!!!!!!!!!!!!!!!!!!!!!!!!!!!!!!!!!!!!!!!!!!!!!!!!!!!!!!!!",
  "$$$$$$#!''''&&&&&&&&&&&!((($$$$$$$$$$$#!&&&&&&&&&&&&&&&!''''&&&&&&&&&&&!!!!!!!!!!!!!!!!!((($$$$!",
  "!!!!!!%!'&&%%!!!!!!!!%&!(#%!!!!!!!!!!!%!&&%!!!!!!!!!!!%!'&&%%!!!!!!!!%&!!!!!!!!!!!!!!!!!(#%!!!!!",
  "!!!!!!%!'&%!!!!!!!!!!!&!(%!!!!!!!!!!!!%!&%!!!!!!!!!!!!%!'&%!!!!!!!!!!!&!!!!!!!!!!!!!!!!!(%!!!!!!",
  "!!!!!!%!'%!!!!!!!!!!!!%!$!!!!!!!!!!!!!%!&!!!!!!!!!!!!!%!'%!!!!!!!!!!!!%!!!!!!!!!!!!!!!!!$!!!!!!!",
  "!!!!!!%!&%!!!!!!!!!!!!%!$!!!!!!!!!!!!!%!&!!!!!!!!!!!!!%!&%!!!!!!!!!!!!%!!!!!!!!!!!!!!!!!$!!!!!!!",
  "!!!!!%%!&!!!!!!!!!!!!%%!$!!!!!!!!!!!!%%!&!!!!!!!!!!!!!!!&!!!!!!!!!!!!%%!!!!!!!!!!!!!!!!!$!!!!!!!",
  "%%%%%%%!&%%%%%%%%%%%%%%!#%%%%%%%%%%%%%%!%!!!!!!!!!!!!!!!&%%%%%%%%%%%%%%!!!!!!!!!!!!!!!!!#%%%%%%!",
  "!!!!!!!!!!!!!!!!!!!!!!!!!!!!!!!!!!!!!!!!!!!!!!!!!!!!!!!!!!!!!!!!!!!!!!!!!!!!!!!!!!!!!!!!!!!!!!!!",
  "'&&%%!'&&%%!!!!!&&&&&&&&&&&&&&&!'&&%%!'&&%%!!!!!&&&&&&&&&&&&&&&!'&&%%!'&&%%!!!!!&&&&&&&&&&&&&&&!",
  "&!!!%!&!!!!!!!%!&&%!!!!!!!!!!!%!&!!!%!&!!!!!!!%!&&%!!!!!!!!!!!%!&!!!%!&!!!!!!!%!&&%!!!!!!!!!!!%!",
  "&!!!%!&!!!!!!!%!&%!!!!!!!!!!!!%!&!!!%!&!!!!!!!%!&%!!!!!!!!!!!!%!&!!!%!&!!!!!!!%!&%!!!!!!!!!!!!%!",
  "&!!!%!&!!!!!!!%!&!!!!!!!!!!!!!%!&!!!%!&!!!!!!!%!&!!!!!!!!!!!!!%!&!!!%!&!!!!!!!%!&!!!!!!!!!!!!!%!",
  "&!!!%!&!!!!!!!%!&!!!!!!!!!!!!!%!&!!!%!&!!!!!!!%!&!!!!!!!!!!!!!%!&!!!%!&!!!!!!!%!&!!!!!!!!!!!!!%!",
  "&!!!%!&!!!!!!!%!&!!!!!!!!!!!!!!!&!!!%!&!!!!!!!%!&!!!!!!!!!!!!!!!&!!!%!&!!!!!!!%!&!!!!!!!!!!!!!!!",
  "&%%%%!%%%%%%%%%!%!!!!!!!!!!!!!!!&%%%%!%%%%%%%%%!%!!!!!!!!!!!!!!!&%%%%!%%%%%%%%%!%!!!!!!!!!!!!!!!",
  "!!!!!!!!!!!!!!!!!!!!!!!!!!!!!!!!!!!!!!!!!!!!!!!!!!!!!!!!!!!!!!!!!!!!!!!!!!!!!!!!!!!!!!!!!!!!!!!!",
};
