/* XPM */
static const char *poster_9[] = {
  /* width height ncolors chars_per_pixel */
  "128 32 7 1 0 0",
  /* colors */
  "! c #000000",
  "# c #000080",
  "$ c #333399",
  "% c #663399",
  "& c #ffff00",
  "' c None",
  "( c #330066",
  /* pixels */
  "''!!!!!!!!!!!!!!!!!!!!!!!!!!!!!!!!!!!!!!!!!!!!!!!!!!!!!!!!!!!!!!!!!!!!!!!!!!!!!!!!!!!!!!!!!!!!!!!!!!!!!!!!!!!!!!!!!!!!!!!!!!!!''",
  "'!!!!!!!!!!!!!!!!!!!!!!!!!!!!!!!!!!!!!!!!!!!!!!!!!!!!!!!!!!!!!!!!!!!!!!!!!!!!!!!!!!!!!!!!!!!!!!!!!!!!!!!!!!!!!!!!!!!!!!!!!!!!!!'",
  "!!!%%!($$(!%%!($$(!%%!($$(!%%!($$(!%%!($$(!%%!($$(!%%!($$(!%%!($$(!%%!($$(!%%!($$(!%%!($$(!%%!($$(!%%!($$(!%%!($$(!%%!($$(!%%!!!",
  "!!!%%!($$(!%%!($$(!%%!($$(!%%!($$(!%%!($$(!%%!($$(!%%!($$(!%%!($$(!%%!($$(!%%!($$(!%%!($$(!%%!($$(!%%!($$(!%%!($$(!%%!($$(!%%!!!",
  "!!!%%!($$(!%%!($$(!%%!($$(!%%!($$(!%%!($$(!%%!($$(!%%!($$(!%%!($$(!%%!($$(!%%!($$(!%%!($$(!%%!($$(!%%!($$(!%%!($$(!%%!($$(!%%!!!",
  "!!!%%!($$(!%%!($$(!%%!($$(!%%!($$(!%%!($$(!%%!($$(!%%!($$(!%%!($$(!%%!($$(!%%!($$(!%%!($$(!%%!($$(!%%!($$(!%%!($$(!%%!($$(!%%!!!",
  "!!#$$#!##!#$$#!##!#$$#!##!#$$#!##!#$$#!##!#$$#!##!#$$#!##!#$$#!##!#$$#!##!#$$#!##!#$$#!##!#$$#!##!#$$#!##!#$$#!##!#$$#!##!#$$#!!",
  "!!$(($#!!#$(($#!!#$(($#!!#$(($#!!#$(($#!!#$(($#!!#$(($#!!#$(($#!!#$(($#!!#$(($#!!#$(($#!!#$(($#!!#$(($#!!#$(($#!!#$(($#!!#$(($!!",
  "!!#!!#$(($#!!#$(($#!!#$(($#!!#$(($#!!#$(($#!!#$(($#!!#$(($#!!#$(($#!!#$(($#!!#$(($#!!#$(($#!!#$(($#!!#$(($#!!#$(($#!!#$(($#!!#!!",
  "!!!##!#$$#!##!&&&&&&#!#$$#!##!#$$#!##!#$$#!##!#$$#!&&&&$$&&&&!#$$#!##!#$$#!##!#$$#!##!#$$#!#&&&&&&!##!#$$#!##!#$$#!##!#$$&&##!!!",
  "!!($$(!%%!($$&&&&&&&&(!%%!($$(!%%!($$(!%%&($$(!%%!(&&&&%%&&&$(!%%!($$(!%%!($$(!%%!($$(!%%!(&&&&&&&&$$(!%%!($$(!%%!($$(!%&&&$$(!!",
  "!!($$(!%%!($$&&&%!&&&(!%%!($$(!%%!($$(!%&&($$(!%%!($&&&%&&&$$(!%%!($$(!%%!($$(!%%!($$(!%%!(&&&!%&&&&$(!%%!($$(!%%!($$(!%&&&$$(!!",
  "!!($$(!%%!($&&&%%&&&$(!%%&&&$(!&&&&&$(&&&&&&$(!%%!($&&&&&&($$(&&&&($$(&&%!&&&(!&&&(&$(!%%!&&&&!%%&&&$(!%&&&&$(!%&&&$$(!%&&&$$(!!",
  "!!($$(!%%!($&&&&&&&$$(!%&&&&&(!&&&&&$&&&&&&$$(!%%!($&&&&&!($$&&&&&&$$&&&%&&&$(&&&&&&$(!%%!&&&(!%%&&&$(!&&&&&&(!&&&&&&&!&&&($$(!!",
  "!!!##!#$$#!#&&&&&&&&#!#&&&!&&!#$$&&&#!&&&#!##!#$$#!#&&&&$#!#&&&&&&&##&&&$&&&#!&&&#!##!#$$#&&&!#$$&&&#!&&&&&&&!&&&#!&&&#&&&!##!!!",
  "!!#!!#$(($#&&&&((&&&!#$&&&&&!#$(&&&!!&&&&$#!!#$(($#!&&&(($#!&&&&&&&!&&&%%&&!!#&&&$#!!#$((&&&&#$(&&&!!#&&&&&&&#&&($&&!#$&&$#!!#!!",
  "!!$(($#!!#$&&&#!!&&&($&&&&&&($&&&&&((&&&!#$(($#!!#$(&&&!!#$&&&#&&&$(&&&!%&&((&&&!#$(($#!!&&&($#!&&&((&&&!&&&(&&&!#&&($#!!#$(($!!",
  "!!#$$#!##!#&&&!#&&&&$#&&&!#$$&&#&&&$$&&&#!#$$#!##!#$&&&##!#&&&!&&&#$&&&#&&&$$&&&#!#$$#!##&&&$#&&&&#$$&&&#&&&$#&&&&&$$#&&#!#$$#!!",
  "!!!%%!($$(&&&&&&&&&%%!&&&&&&%&&&&&!%%&&&&(!%%!($$(!&&&&$$(!&&&&&&(!%&&&&&&!%&&&$$(!%%!($&&&&&&&&&(!%%&&&&&&%%&&&&&&&%&&&&(!%%!!!",
  "!!!%%!($$(&&&&&&&(!%%!(&&&&%%&&&&&!%%&&&$(!%%!($$(!&&&($$(!%&&&$$(!%&&&&&&!%&&&$$(!%%!($&&&&&&&$$(!%%!&&&(!%&&&&&&&&%!&&$(!%%!!!",
  "!!!%%!($$(!%%!($$(!%%!($$&!%%!($$(!%%!($$(!%%!($$(!%%!($$(!%%!($$(!%%!($$(!%%!($$(!%%!($$(!%%!($$(!%%!($$(!%&&($$(&&%!($$(!%%!!!",
  "!!!%%!($$(!%%!($$(!%%!($$(!%%!($$(!%%!($$(!%%!($$(!%%!($$(!%%!($$(!%%!($$(!%%!($$(!%%!($$(!%%!($$(!%%!($$(!&&&&&&&&%%!($$(!%%!!!",
  "!!#$$#!##!#$$#!##!#$$#!##!#$$#!##!#$$#!##!#$$#!##!#$$#!##!#$$#!##!#$$#!##!#$$#!##!#$$#!##!#$$#!##!#$$#!##!#$&&&&&&#$$#!##!#$$#!!",
  "!!$(($#!!#$(($#!!#$(($#!!#$(($#!!#$(($#!!#$(($#!!#$(($#!!#$(($#!!#$(($#!!#$(($#!!#$(($#!!#$(($#!!#$(($#!!#$(($#!!#$(($#!!#$(($!!",
  "!!#!!#$(($#!!#$(($#!!#$(($#!!#$(($#!!#$(($#!!#$(($#!!#$(($#!!#$(($#!!#$(($#!!#$(($#!!#$(($#!!#$(($#!!#$(($#!!#$(($#!!#$(($#!!#!!",
  "!!!##!#$$#!##!#$$#!##!#$$#!##!#$$#!##!#$$#!##!#$$#!##!#$$#!##!#$$#!##!#$$#!##!#$$#!##!#$$#!##!#$$#!##!#$$#!##!#$$#!##!#$$#!##!!!",
  "!!($$(!%%!($$(!%%!($$(!%%!($$(!%%!($$(!%%!($$(!%%!($$(!%%!($$(!%%!($$(!%%!($$(!%%!($$(!%%!($$(!%%!($$(!%%!($$(!%%!($$(!%%!($$(!!",
  "!!($$(!%%!($$(!%%!($$(!%%!($$(!%%!($$(!%%!($$(!%%!($$(!%%!($$(!%%!($$(!%%!($$(!%%!($$(!%%!($$(!%%!($$(!%%!($$(!%%!($$(!%%!($$(!!",
  "!!($$(!%%!($$(!%%!($$(!%%!($$(!%%!($$(!%%!($$(!%%!($$(!%%!($$(!%%!($$(!%%!($$(!%%!($$(!%%!($$(!%%!($$(!%%!($$(!%%!($$(!%%!($$(!!",
  "!!($$(!%%!($$(!%%!($$(!%%!($$(!%%!($$(!%%!($$(!%%!($$(!%%!($$(!%%!($$(!%%!($$(!%%!($$(!%%!($$(!%%!($$(!%%!($$(!%%!($$(!%%!($$(!!",
  "'!!!!!!!!!!!!!!!!!!!!!!!!!!!!!!!!!!!!!!!!!!!!!!!!!!!!!!!!!!!!!!!!!!!!!!!!!!!!!!!!!!!!!!!!!!!!!!!!!!!!!!!!!!!!!!!!!!!!!!!!!!!!!!'",
  "''!!!!!!!!!!!!!!!!!!!!!!!!!!!!!!!!!!!!!!!!!!!!!!!!!!!!!!!!!!!!!!!!!!!!!!!!!!!!!!!!!!!!!!!!!!!!!!!!!!!!!!!!!!!!!!!!!!!!!!!!!!!!''",
};
