/* XPM */
static const char *poster_4[] = {
  /* width height ncolors chars_per_pixel */
  "64 32 8 1 0 0",
  /* colors */
  "! c #000000",
  "# c #333366",
  "$ c #c0c0c0",
  "% c #555555",
  "& c #333300",
  "' c #808080",
  "( c None",
  ") c #ffff99",
  /* pixels */
  "(!!!!!!!!!!!!!!!!!!!!!!!!!!!!!!!!!!!!!!!!!!!!!!!!!!!!!!!!!!!!!!(",
  "!!!!!!!!!!!!!!!!!!!!!!!!!!!!!!!!!!!!!!!!!!!!!!!!!!!!!!!!!!!!!!!!",
  "!$$$$$$$$$$$$$$$$$$$$$$$$$$$$$$$$$$$$$$$$$$$$$$$$$$$$$$$$$$$$$$!",
  "!$$$$$$!!!!!!!!!!!!!!!!!!$$$$$$$$$$$$$$$$$$$$$$$$$$$$$$$$$$$$$$!",
  "!''''''!))))!)))))!)))!))!'''''''''''''''''''''''''''''''''''''!",
  "!'''''''!))!'!)))!'!)!!))!'''''''''''''''''''''''''''''''''''''!",
  "!!!!!!!!!!))!!!))!!)!!!!!!!!!!!!!!!!!!!!!!!!!!!!!!!!!!!!!!!!!!!!",
  "!!!!!!!!!!))!!!))!!)!!!!)!!!)!)))!!!)!)))!!)))!)))))!)))!!!!!!!!",
  "!&&&&&&&&!))!!)!))&)!!)))!))))&))!))))!))!&)!))!))!!))!)!&&&&&&!",
  "!&&&&&&&&&!))!)!))&)!&!))!!))!!))!!))!!))!)))))!))!!))!!&&&&&&&!",
  "!&&&&&&&&&!))!)!)))!&&!))!!))!!))!!))!!))!))!!!!))&&!)))!&&&&&&!",
  "!&&&&&&&&&&!))&&!))!&&!))!!))!!))!!))!!))!))!&&!))!!!!))!&&&&&&!",
  "!##########!))!#!))!##!))!!))!!))!!))!!))!)))!!!))!!)!))!######!",
  "!##########!))!#!))!#!)))))))!!))))))!!)))!))))))))!)))!#######!",
  "!###########!!###!!###!!!!!!!##!!!!!!##!!!#!!!!!!!!#!!!########!",
  "!##############################################################!",
  "!##!!!!##!!!!#############!!!!!!!!#############################!",
  "!#!))))!!))))!###########!))))))))!############################!",
  "!##!))!##!)!!#############!))!!!!))!###########################!",
  "!%%!))!%%!)!%%!!!%%!!!%%%%!))!%%%!))!!!!!!!!!%%!!%%%!!!!!%!!!%%!",
  "!%%!))!%%!)!%!)))!!)))!%%%!))!%%%!))!))))))))!!))!%!)))))!)))!%!",
  "!%%!))!%%!)!!))!)!!)!))!%%!))!%%%!))!!))!!!))!!))!!))!))!))!)!%!",
  "!%%!))!%%!)!!))!!!)))))!%%!))!%%%!))!!))!%!))!!))!!))!))!))!!%%!",
  "!%%!))!%%!)!%!)))!))!!!%%%!))!%%%!))!!))!%!))!!))!%!)))!%!)))!%!",
  "!%%!))!%%!)!%!!))!))!%%%%%!))!%%%!))!!))!%!))!!))!!)!!!!!!!))!%!",
  "!%%%!))!!)!%!)!))!)))!!%%%!))!!!!))!%!))!%!))!!))!!)))))))!))!%!",
  "!%%%%!)))!%%!)))!%!))))!%!))))))))!%!))))!!)))))))!)))))))))!%%!",
  "!'''''!!!''''!!!'''!!!!'''!!!!!!!!'''!!!!''!!!!!!!)!!!!!)!!!'''!",
  "!''''''''''''''''''''''''''''''''''''''''''''''''!)!!!!)!''''''!",
  "(!%%%%%%%%%%%%%%%%%%%%%%%%%%%%%%%%%%%%%%%%%%%%%%%%%))))!%%%%%%!(",
  "(!!%%%%%%%%%%%%%%%%%%%%%%%%%%%%%%%%%%%%%%%%%%%%%%%%!!!!%%%%%%!!(",
  "(((!!!!!!!!!!!!!!!!!!!!!!!!!!!!!!!!!!!!!!!!!!!!!!!!!!!!!!!!!!(((",
};
